<?xml version="1.0" encoding="UTF-8"?>
<svg xmlns="http://www.w3.org/2000/svg" width="1910" height="2630" viewBox="0 0 1910 2630">
<title>Roof Plan (v2)</title>
<rect width="1910" height="2630" fill="#faf8f4"/>
<text x="955" y="70" text-anchor="middle" font-size="24" font-weight="bold" fill="#222">Roof Plan (v2)</text>
<svg x="40" y="100" width="900" height="600" viewBox="0 0 900 600">
<rect width="900" height="600" fill="#f8fafc" stroke="#cbd5e1" stroke-width="1" />
<rect x="0" y="0" width="900" height="24" fill="#e2e8f0" />
<text x="450.0" y="17.0" text-anchor="middle" font-size="12" font-weight="600" fill="#1e293b">Top View</text>
<polygon points="270.4,44.0 450.0,158.7 450.0,375.1 270.4,580.0" fill="#bae6fd" fill-opacity="0.65" stroke="#475569" stroke-width="0.5" />
<polygon points="629.6,44.0 629.6,580.0 450.0,375.1 450.0,158.7" fill="#bae6fd" fill-opacity="0.65" stroke="#475569" stroke-width="0.5" />
<polygon points="629.6,44.0 270.4,44.0 450.0,158.7" fill="#fed7aa" fill-opacity="0.45" stroke="#475569" stroke-width="0.5" />
<polygon points="270.4,580.0 629.6,580.0 450.0,375.1" fill="#fed7aa" fill-opacity="0.45" stroke="#475569" stroke-width="0.5" />
<line x1="270.4" y1="575.0" x2="274.7" y2="575.0" stroke="#94a3b8" stroke-width="0.4" />
<line x1="270.4" y1="544.1" x2="301.9" y2="544.1" stroke="#94a3b8" stroke-width="0.4" />
<line x1="270.4" y1="513.1" x2="329.0" y2="513.1" stroke="#94a3b8" stroke-width="0.4" />
<line x1="270.4" y1="482.2" x2="356.1" y2="482.2" stroke="#94a3b8" stroke-width="0.4" />
<line x1="270.4" y1="451.2" x2="383.2" y2="451.2" stroke="#94a3b8" stroke-width="0.4" />
<line x1="270.4" y1="420.3" x2="410.4" y2="420.3" stroke="#94a3b8" stroke-width="0.4" />
<line x1="270.4" y1="389.4" x2="437.5" y2="389.4" stroke="#94a3b8" stroke-width="0.4" />
<line x1="270.4" y1="358.4" x2="450.0" y2="358.4" stroke="#94a3b8" stroke-width="0.4" />
<line x1="270.4" y1="327.5" x2="450.0" y2="327.5" stroke="#94a3b8" stroke-width="0.4" />
<line x1="270.4" y1="296.5" x2="450.0" y2="296.5" stroke="#94a3b8" stroke-width="0.4" />
<line x1="270.4" y1="265.6" x2="450.0" y2="265.6" stroke="#94a3b8" stroke-width="0.4" />
<line x1="270.4" y1="234.6" x2="450.0" y2="234.6" stroke="#94a3b8" stroke-width="0.4" />
<line x1="270.4" y1="203.7" x2="450.0" y2="203.7" stroke="#94a3b8" stroke-width="0.4" />
<line x1="270.4" y1="172.8" x2="450.0" y2="172.8" stroke="#94a3b8" stroke-width="0.4" />
<line x1="270.4" y1="141.8" x2="423.5" y2="141.8" stroke="#94a3b8" stroke-width="0.4" />
<line x1="270.4" y1="110.9" x2="375.1" y2="110.9" stroke="#94a3b8" stroke-width="0.4" />
<line x1="270.4" y1="79.9" x2="326.6" y2="79.9" stroke="#94a3b8" stroke-width="0.4" />
<line x1="270.4" y1="49.0" x2="278.2" y2="49.0" stroke="#94a3b8" stroke-width="0.4" />
<line x1="629.6" y1="49.0" x2="621.8" y2="49.0" stroke="#94a3b8" stroke-width="0.4" />
<line x1="629.6" y1="79.9" x2="573.4" y2="79.9" stroke="#94a3b8" stroke-width="0.4" />
<line x1="629.6" y1="110.9" x2="524.9" y2="110.9" stroke="#94a3b8" stroke-width="0.4" />
<line x1="629.6" y1="141.8" x2="476.5" y2="141.8" stroke="#94a3b8" stroke-width="0.4" />
<line x1="629.6" y1="172.8" x2="450.0" y2="172.8" stroke="#94a3b8" stroke-width="0.4" />
<line x1="629.6" y1="203.7" x2="450.0" y2="203.7" stroke="#94a3b8" stroke-width="0.4" />
<line x1="629.6" y1="234.6" x2="450.0" y2="234.6" stroke="#94a3b8" stroke-width="0.4" />
<line x1="629.6" y1="265.6" x2="450.0" y2="265.6" stroke="#94a3b8" stroke-width="0.4" />
<line x1="629.6" y1="296.5" x2="450.0" y2="296.5" stroke="#94a3b8" stroke-width="0.4" />
<line x1="629.6" y1="327.5" x2="450.0" y2="327.5" stroke="#94a3b8" stroke-width="0.4" />
<line x1="629.6" y1="358.4" x2="450.0" y2="358.4" stroke="#94a3b8" stroke-width="0.4" />
<line x1="629.6" y1="389.4" x2="462.5" y2="389.4" stroke="#94a3b8" stroke-width="0.4" />
<line x1="629.6" y1="420.3" x2="489.6" y2="420.3" stroke="#94a3b8" stroke-width="0.4" />
<line x1="629.6" y1="451.2" x2="516.8" y2="451.2" stroke="#94a3b8" stroke-width="0.4" />
<line x1="629.6" y1="482.2" x2="543.9" y2="482.2" stroke="#94a3b8" stroke-width="0.4" />
<line x1="629.6" y1="513.1" x2="571.0" y2="513.1" stroke="#94a3b8" stroke-width="0.4" />
<line x1="629.6" y1="544.1" x2="598.1" y2="544.1" stroke="#94a3b8" stroke-width="0.4" />
<line x1="629.6" y1="575.0" x2="625.3" y2="575.0" stroke="#94a3b8" stroke-width="0.4" />
<line x1="620.2" y1="44.0" x2="620.2" y2="50.0" stroke="#94a3b8" stroke-width="0.4" />
<line x1="589.2" y1="44.0" x2="589.2" y2="69.8" stroke="#94a3b8" stroke-width="0.4" />
<line x1="558.3" y1="44.0" x2="558.3" y2="89.6" stroke="#94a3b8" stroke-width="0.4" />
<line x1="527.4" y1="44.0" x2="527.4" y2="109.3" stroke="#94a3b8" stroke-width="0.4" />
<line x1="496.4" y1="44.0" x2="496.4" y2="129.1" stroke="#94a3b8" stroke-width="0.4" />
<line x1="465.5" y1="44.0" x2="465.5" y2="148.8" stroke="#94a3b8" stroke-width="0.4" />
<line x1="434.5" y1="44.0" x2="434.5" y2="148.8" stroke="#94a3b8" stroke-width="0.4" />
<line x1="403.6" y1="44.0" x2="403.6" y2="129.1" stroke="#94a3b8" stroke-width="0.4" />
<line x1="372.6" y1="44.0" x2="372.6" y2="109.3" stroke="#94a3b8" stroke-width="0.4" />
<line x1="341.7" y1="44.0" x2="341.7" y2="89.6" stroke="#94a3b8" stroke-width="0.4" />
<line x1="310.8" y1="44.0" x2="310.8" y2="69.8" stroke="#94a3b8" stroke-width="0.4" />
<line x1="279.8" y1="44.0" x2="279.8" y2="50.0" stroke="#94a3b8" stroke-width="0.4" />
<line x1="279.8" y1="580.0" x2="279.8" y2="569.2" stroke="#94a3b8" stroke-width="0.4" />
<line x1="310.8" y1="580.0" x2="310.8" y2="533.9" stroke="#94a3b8" stroke-width="0.4" />
<line x1="341.7" y1="580.0" x2="341.7" y2="498.6" stroke="#94a3b8" stroke-width="0.4" />
<line x1="372.6" y1="580.0" x2="372.6" y2="463.3" stroke="#94a3b8" stroke-width="0.4" />
<line x1="403.6" y1="580.0" x2="403.6" y2="428.0" stroke="#94a3b8" stroke-width="0.4" />
<line x1="434.5" y1="580.0" x2="434.5" y2="392.7" stroke="#94a3b8" stroke-width="0.4" />
<line x1="465.5" y1="580.0" x2="465.5" y2="392.7" stroke="#94a3b8" stroke-width="0.4" />
<line x1="496.4" y1="580.0" x2="496.4" y2="428.0" stroke="#94a3b8" stroke-width="0.4" />
<line x1="527.4" y1="580.0" x2="527.4" y2="463.3" stroke="#94a3b8" stroke-width="0.4" />
<line x1="558.3" y1="580.0" x2="558.3" y2="498.6" stroke="#94a3b8" stroke-width="0.4" />
<line x1="589.2" y1="580.0" x2="589.2" y2="533.9" stroke="#94a3b8" stroke-width="0.4" />
<line x1="620.2" y1="580.0" x2="620.2" y2="569.2" stroke="#94a3b8" stroke-width="0.4" />
<line x1="279.5" y1="569.6" x2="279.5" y2="49.8" stroke="#cbd5e1" stroke-width="0.4" />
<line x1="288.7" y1="559.1" x2="288.7" y2="55.7" stroke="#cbd5e1" stroke-width="0.4" />
<line x1="297.8" y1="548.7" x2="297.8" y2="61.5" stroke="#cbd5e1" stroke-width="0.4" />
<line x1="307.0" y1="538.2" x2="307.0" y2="67.4" stroke="#cbd5e1" stroke-width="0.4" />
<line x1="316.2" y1="527.8" x2="316.2" y2="73.2" stroke="#cbd5e1" stroke-width="0.4" />
<line x1="325.3" y1="517.3" x2="325.3" y2="79.1" stroke="#cbd5e1" stroke-width="0.4" />
<line x1="334.5" y1="506.9" x2="334.5" y2="84.9" stroke="#cbd5e1" stroke-width="0.4" />
<line x1="343.6" y1="496.4" x2="343.6" y2="90.8" stroke="#cbd5e1" stroke-width="0.4" />
<line x1="352.8" y1="486.0" x2="352.8" y2="96.6" stroke="#cbd5e1" stroke-width="0.4" />
<line x1="361.9" y1="475.5" x2="361.9" y2="102.5" stroke="#cbd5e1" stroke-width="0.4" />
<line x1="371.1" y1="465.1" x2="371.1" y2="108.3" stroke="#cbd5e1" stroke-width="0.4" />
<line x1="380.3" y1="454.7" x2="380.3" y2="114.2" stroke="#cbd5e1" stroke-width="0.4" />
<line x1="389.4" y1="444.2" x2="389.4" y2="120.0" stroke="#cbd5e1" stroke-width="0.4" />
<line x1="398.6" y1="433.8" x2="398.6" y2="125.9" stroke="#cbd5e1" stroke-width="0.4" />
<line x1="407.7" y1="423.3" x2="407.7" y2="131.7" stroke="#cbd5e1" stroke-width="0.4" />
<line x1="416.9" y1="412.9" x2="416.9" y2="137.6" stroke="#cbd5e1" stroke-width="0.4" />
<line x1="426.0" y1="402.4" x2="426.0" y2="143.4" stroke="#cbd5e1" stroke-width="0.4" />
<line x1="435.2" y1="392.0" x2="435.2" y2="149.3" stroke="#cbd5e1" stroke-width="0.4" />
<line x1="620.5" y1="49.8" x2="620.5" y2="569.6" stroke="#cbd5e1" stroke-width="0.4" />
<line x1="611.3" y1="55.7" x2="611.3" y2="559.1" stroke="#cbd5e1" stroke-width="0.4" />
<line x1="602.2" y1="61.5" x2="602.2" y2="548.7" stroke="#cbd5e1" stroke-width="0.4" />
<line x1="593.0" y1="67.4" x2="593.0" y2="538.2" stroke="#cbd5e1" stroke-width="0.4" />
<line x1="583.8" y1="73.2" x2="583.8" y2="527.8" stroke="#cbd5e1" stroke-width="0.4" />
<line x1="574.7" y1="79.1" x2="574.7" y2="517.3" stroke="#cbd5e1" stroke-width="0.4" />
<line x1="565.5" y1="84.9" x2="565.5" y2="506.9" stroke="#cbd5e1" stroke-width="0.4" />
<line x1="556.4" y1="90.8" x2="556.4" y2="496.4" stroke="#cbd5e1" stroke-width="0.4" />
<line x1="547.2" y1="96.6" x2="547.2" y2="486.0" stroke="#cbd5e1" stroke-width="0.4" />
<line x1="538.1" y1="102.5" x2="538.1" y2="475.5" stroke="#cbd5e1" stroke-width="0.4" />
<line x1="528.9" y1="108.3" x2="528.9" y2="465.1" stroke="#cbd5e1" stroke-width="0.4" />
<line x1="519.7" y1="114.2" x2="519.7" y2="454.7" stroke="#cbd5e1" stroke-width="0.4" />
<line x1="510.6" y1="120.0" x2="510.6" y2="444.2" stroke="#cbd5e1" stroke-width="0.4" />
<line x1="501.4" y1="125.9" x2="501.4" y2="433.8" stroke="#cbd5e1" stroke-width="0.4" />
<line x1="492.3" y1="131.7" x2="492.3" y2="423.3" stroke="#cbd5e1" stroke-width="0.4" />
<line x1="483.1" y1="137.6" x2="483.1" y2="412.9" stroke="#cbd5e1" stroke-width="0.4" />
<line x1="474.0" y1="143.4" x2="474.0" y2="402.4" stroke="#cbd5e1" stroke-width="0.4" />
<line x1="464.8" y1="149.3" x2="464.8" y2="392.0" stroke="#cbd5e1" stroke-width="0.4" />
<line x1="617.1" y1="52.0" x2="282.9" y2="52.0" stroke="#cbd5e1" stroke-width="0.4" />
<line x1="604.5" y1="60.0" x2="295.5" y2="60.0" stroke="#cbd5e1" stroke-width="0.4" />
<line x1="592.0" y1="68.0" x2="308.0" y2="68.0" stroke="#cbd5e1" stroke-width="0.4" />
<line x1="579.5" y1="76.0" x2="320.5" y2="76.0" stroke="#cbd5e1" stroke-width="0.4" />
<line x1="566.9" y1="84.0" x2="333.1" y2="84.0" stroke="#cbd5e1" stroke-width="0.4" />
<line x1="554.4" y1="92.0" x2="345.6" y2="92.0" stroke="#cbd5e1" stroke-width="0.4" />
<line x1="541.9" y1="100.1" x2="358.1" y2="100.1" stroke="#cbd5e1" stroke-width="0.4" />
<line x1="529.3" y1="108.1" x2="370.7" y2="108.1" stroke="#cbd5e1" stroke-width="0.4" />
<line x1="516.8" y1="116.1" x2="383.2" y2="116.1" stroke="#cbd5e1" stroke-width="0.4" />
<line x1="504.2" y1="124.1" x2="395.8" y2="124.1" stroke="#cbd5e1" stroke-width="0.4" />
<line x1="491.7" y1="132.1" x2="408.3" y2="132.1" stroke="#cbd5e1" stroke-width="0.4" />
<line x1="479.2" y1="140.1" x2="420.8" y2="140.1" stroke="#cbd5e1" stroke-width="0.4" />
<line x1="466.6" y1="148.1" x2="433.4" y2="148.1" stroke="#cbd5e1" stroke-width="0.4" />
<line x1="278.6" y1="570.6" x2="621.4" y2="570.6" stroke="#cbd5e1" stroke-width="0.4" />
<line x1="286.8" y1="561.2" x2="613.2" y2="561.2" stroke="#cbd5e1" stroke-width="0.4" />
<line x1="295.1" y1="551.8" x2="604.9" y2="551.8" stroke="#cbd5e1" stroke-width="0.4" />
<line x1="303.3" y1="542.4" x2="596.7" y2="542.4" stroke="#cbd5e1" stroke-width="0.4" />
<line x1="311.5" y1="533.0" x2="588.5" y2="533.0" stroke="#cbd5e1" stroke-width="0.4" />
<line x1="319.8" y1="523.7" x2="580.2" y2="523.7" stroke="#cbd5e1" stroke-width="0.4" />
<line x1="328.0" y1="514.3" x2="572.0" y2="514.3" stroke="#cbd5e1" stroke-width="0.4" />
<line x1="336.2" y1="504.9" x2="563.8" y2="504.9" stroke="#cbd5e1" stroke-width="0.4" />
<line x1="344.5" y1="495.5" x2="555.5" y2="495.5" stroke="#cbd5e1" stroke-width="0.4" />
<line x1="352.7" y1="486.1" x2="547.3" y2="486.1" stroke="#cbd5e1" stroke-width="0.4" />
<line x1="360.9" y1="476.7" x2="539.1" y2="476.7" stroke="#cbd5e1" stroke-width="0.4" />
<line x1="369.2" y1="467.3" x2="530.8" y2="467.3" stroke="#cbd5e1" stroke-width="0.4" />
<line x1="377.4" y1="457.9" x2="522.6" y2="457.9" stroke="#cbd5e1" stroke-width="0.4" />
<line x1="385.6" y1="448.5" x2="514.4" y2="448.5" stroke="#cbd5e1" stroke-width="0.4" />
<line x1="393.9" y1="439.1" x2="506.1" y2="439.1" stroke="#cbd5e1" stroke-width="0.4" />
<line x1="402.1" y1="429.8" x2="497.9" y2="429.8" stroke="#cbd5e1" stroke-width="0.4" />
<line x1="410.3" y1="420.4" x2="489.7" y2="420.4" stroke="#cbd5e1" stroke-width="0.4" />
<line x1="418.5" y1="411.0" x2="481.5" y2="411.0" stroke="#cbd5e1" stroke-width="0.4" />
<line x1="426.8" y1="401.6" x2="473.2" y2="401.6" stroke="#cbd5e1" stroke-width="0.4" />
<line x1="435.0" y1="392.2" x2="465.0" y2="392.2" stroke="#cbd5e1" stroke-width="0.4" />
<line x1="589.2" y1="69.8" x2="589.2" y2="533.9" stroke="#16a34a" stroke-width="1" />
<line x1="589.2" y1="533.9" x2="310.8" y2="533.9" stroke="#16a34a" stroke-width="1" />
<line x1="310.8" y1="533.9" x2="310.8" y2="69.8" stroke="#16a34a" stroke-width="1" />
<line x1="310.8" y1="69.8" x2="589.2" y2="69.8" stroke="#16a34a" stroke-width="1" />
<line x1="450.0" y1="158.7" x2="270.4" y2="44.0" stroke="#ea580c" stroke-width="1" stroke-dasharray="6,2" />
<line x1="450.0" y1="158.7" x2="629.6" y2="44.0" stroke="#ea580c" stroke-width="1" stroke-dasharray="6,2" />
<line x1="450.0" y1="375.1" x2="270.4" y2="580.0" stroke="#ea580c" stroke-width="1" stroke-dasharray="6,2" />
<line x1="450.0" y1="375.1" x2="629.6" y2="580.0" stroke="#ea580c" stroke-width="1" stroke-dasharray="6,2" />
<line x1="450.0" y1="107.2" x2="450.0" y2="426.7" stroke="#dc2626" stroke-width="2" />
<line x1="310.8" y1="158.7" x2="589.2" y2="158.7" stroke="#7c3aed" stroke-width="1.2" stroke-dasharray="2,2" />
<line x1="310.8" y1="276.1" x2="589.2" y2="276.1" stroke="#7c3aed" stroke-width="1.2" stroke-dasharray="2,2" />
<line x1="310.8" y1="375.1" x2="589.2" y2="375.1" stroke="#7c3aed" stroke-width="1.2" stroke-dasharray="2,2" />
<g transform="translate(782.0, 30.0)"><rect x="0" y="0" width="110" height="64" fill="#ffffff" fill-opacity="0.9" stroke="#cbd5e1" stroke-width="0.5" /><line x1="8" y1="16" x2="30" y2="16" stroke="#dc2626" stroke-width="2" /><text x="36" y="19" font-size="9" fill="#334155">Ridge</text><line x1="8" y1="26" x2="30" y2="26" stroke="#ea580c" stroke-width="2" /><text x="36" y="29" font-size="9" fill="#334155">Hip</text><line x1="8" y1="36" x2="30" y2="36" stroke="#2563eb" stroke-width="2" /><text x="36" y="39" font-size="9" fill="#334155">Valley</text><line x1="8" y1="46" x2="30" y2="46" stroke="#16a34a" stroke-width="2" /><text x="36" y="49" font-size="9" fill="#334155">Ring beam</text></g>
</svg>
<g id="v2-perspective" transform="translate(0,0)">
<rect x="970" y="100" width="900" height="600" fill="#fdfcfa" stroke="#333" stroke-width="1"/>
<text x="1420" y="124" text-anchor="middle" font-size="14" font-weight="bold" fill="#222">Perspective (isometric)</text>
<polygon points="1850.00,370.98 1504.90,171.74 1567.24,231.68" fill="#c66" fill-opacity="0.85" stroke="#5a2e0b" stroke-width="1"/>
<polygon points="1504.90,171.74 1567.24,231.68 1359.38,351.68 990.00,469.02" fill="#c66" fill-opacity="0.85" stroke="#5a2e0b" stroke-width="1"/>
<polygon points="1850.00,370.98 1335.10,668.26 1359.38,351.68 1567.24,231.68" fill="#c66" fill-opacity="0.85" stroke="#5a2e0b" stroke-width="1"/>
<polygon points="990.00,469.02 1335.10,668.26 1359.38,351.68" fill="#c66" fill-opacity="0.85" stroke="#5a2e0b" stroke-width="1"/>
<line x1="1616.78" y1="203.07" x2="1309.84" y2="380.29" stroke="#3b1a05" stroke-width="2"/>
<line x1="1567.24" y1="231.68" x2="1504.90" y2="171.74" stroke="#5a2e0b" stroke-width="2"/>
<line x1="1567.24" y1="231.68" x2="1850.00" y2="370.98" stroke="#5a2e0b" stroke-width="2"/>
<line x1="1359.38" y1="351.68" x2="990.00" y2="469.02" stroke="#5a2e0b" stroke-width="2"/>
<line x1="1359.38" y1="351.68" x2="1335.10" y2="668.26" stroke="#5a2e0b" stroke-width="2"/>
</g>

<g id="v2-section-x">
<rect x="40" y="730" width="900" height="600" fill="#fdfcfa" stroke="#333" stroke-width="1"/>
<text x="490" y="754" text-anchor="middle" font-size="14" font-weight="bold" fill="#222">Section A-A (cut at X=135)</text>
<line x1="60.00" y1="1091.13" x2="920.00" y2="1091.13" stroke="#999" stroke-width="0.5" stroke-dasharray="4,2"/>
<line x1="244.07" y1="975.28" x2="591.24" y2="975.28" stroke="#8B4513" stroke-width="2"/>
<line x1="591.24" y1="975.28" x2="244.07" y2="975.28" stroke="#8B4513" stroke-width="2"/>
<line x1="60.00" y1="1124.72" x2="244.07" y2="975.28" stroke="#8B4513" stroke-width="2"/>
<line x1="920.00" y1="1124.72" x2="591.24" y2="975.28" stroke="#8B4513" stroke-width="2"/>
<rect x="158.32" y="972.28" width="6.00" height="6.00" fill="#dc2626" stroke="#111" stroke-width="0.4"/>
<rect x="843.11" y="1088.13" width="6.00" height="6.00" fill="#16a34a" stroke="#111" stroke-width="0.4"/>
<rect x="98.37" y="1088.13" width="6.00" height="6.00" fill="#16a34a" stroke="#111" stroke-width="0.4"/>
<rect x="241.07" y="972.28" width="6.00" height="6.00" fill="#ea580c" stroke="#111" stroke-width="0.4"/>
<rect x="241.07" y="972.28" width="6.00" height="6.00" fill="#ea580c" stroke="#111" stroke-width="0.4"/>
<rect x="588.24" y="972.28" width="6.00" height="6.00" fill="#ea580c" stroke="#111" stroke-width="0.4"/>
<rect x="588.24" y="972.28" width="6.00" height="6.00" fill="#ea580c" stroke="#111" stroke-width="0.4"/>
<rect x="561.47" y="972.28" width="6.00" height="6.00" fill="#94a3b8" stroke="#111" stroke-width="0.4"/>
<rect x="511.82" y="972.28" width="6.00" height="6.00" fill="#94a3b8" stroke="#111" stroke-width="0.4"/>
<rect x="462.18" y="972.28" width="6.00" height="6.00" fill="#94a3b8" stroke="#111" stroke-width="0.4"/>
<rect x="412.53" y="972.28" width="6.00" height="6.00" fill="#94a3b8" stroke="#111" stroke-width="0.4"/>
<rect x="362.88" y="972.28" width="6.00" height="6.00" fill="#94a3b8" stroke="#111" stroke-width="0.4"/>
<rect x="313.23" y="972.28" width="6.00" height="6.00" fill="#94a3b8" stroke="#111" stroke-width="0.4"/>
<rect x="263.58" y="972.28" width="6.00" height="6.00" fill="#94a3b8" stroke="#111" stroke-width="0.4"/>
<rect x="263.58" y="972.28" width="6.00" height="6.00" fill="#94a3b8" stroke="#111" stroke-width="0.4"/>
<rect x="313.23" y="972.28" width="6.00" height="6.00" fill="#94a3b8" stroke="#111" stroke-width="0.4"/>
<rect x="362.88" y="972.28" width="6.00" height="6.00" fill="#94a3b8" stroke="#111" stroke-width="0.4"/>
<rect x="412.53" y="972.28" width="6.00" height="6.00" fill="#94a3b8" stroke="#111" stroke-width="0.4"/>
<rect x="462.18" y="972.28" width="6.00" height="6.00" fill="#94a3b8" stroke="#111" stroke-width="0.4"/>
<rect x="511.82" y="972.28" width="6.00" height="6.00" fill="#94a3b8" stroke="#111" stroke-width="0.4"/>
<rect x="561.47" y="972.28" width="6.00" height="6.00" fill="#94a3b8" stroke="#111" stroke-width="0.4"/>
<rect x="69.85" y="1111.29" width="6.00" height="6.00" fill="#64748b" stroke="#111" stroke-width="0.4"/>
<rect x="82.70" y="1100.86" width="6.00" height="6.00" fill="#64748b" stroke="#111" stroke-width="0.4"/>
<rect x="95.55" y="1090.43" width="6.00" height="6.00" fill="#64748b" stroke="#111" stroke-width="0.4"/>
<rect x="108.39" y="1079.99" width="6.00" height="6.00" fill="#64748b" stroke="#111" stroke-width="0.4"/>
<rect x="121.24" y="1069.56" width="6.00" height="6.00" fill="#64748b" stroke="#111" stroke-width="0.4"/>
<rect x="134.09" y="1059.13" width="6.00" height="6.00" fill="#64748b" stroke="#111" stroke-width="0.4"/>
<rect x="146.94" y="1048.70" width="6.00" height="6.00" fill="#64748b" stroke="#111" stroke-width="0.4"/>
<rect x="159.79" y="1038.27" width="6.00" height="6.00" fill="#64748b" stroke="#111" stroke-width="0.4"/>
<rect x="172.64" y="1027.84" width="6.00" height="6.00" fill="#64748b" stroke="#111" stroke-width="0.4"/>
<rect x="185.49" y="1017.41" width="6.00" height="6.00" fill="#64748b" stroke="#111" stroke-width="0.4"/>
<rect x="198.33" y="1006.98" width="6.00" height="6.00" fill="#64748b" stroke="#111" stroke-width="0.4"/>
<rect x="211.18" y="996.55" width="6.00" height="6.00" fill="#64748b" stroke="#111" stroke-width="0.4"/>
<rect x="224.03" y="986.12" width="6.00" height="6.00" fill="#64748b" stroke="#111" stroke-width="0.4"/>
<rect x="901.93" y="1114.87" width="6.00" height="6.00" fill="#64748b" stroke="#111" stroke-width="0.4"/>
<rect x="886.87" y="1108.02" width="6.00" height="6.00" fill="#64748b" stroke="#111" stroke-width="0.4"/>
<rect x="871.80" y="1101.17" width="6.00" height="6.00" fill="#64748b" stroke="#111" stroke-width="0.4"/>
<rect x="856.74" y="1094.32" width="6.00" height="6.00" fill="#64748b" stroke="#111" stroke-width="0.4"/>
<rect x="841.67" y="1087.48" width="6.00" height="6.00" fill="#64748b" stroke="#111" stroke-width="0.4"/>
<rect x="826.60" y="1080.63" width="6.00" height="6.00" fill="#64748b" stroke="#111" stroke-width="0.4"/>
<rect x="811.54" y="1073.78" width="6.00" height="6.00" fill="#64748b" stroke="#111" stroke-width="0.4"/>
<rect x="796.47" y="1066.93" width="6.00" height="6.00" fill="#64748b" stroke="#111" stroke-width="0.4"/>
<rect x="781.40" y="1060.08" width="6.00" height="6.00" fill="#64748b" stroke="#111" stroke-width="0.4"/>
<rect x="766.34" y="1053.24" width="6.00" height="6.00" fill="#64748b" stroke="#111" stroke-width="0.4"/>
<rect x="751.27" y="1046.39" width="6.00" height="6.00" fill="#64748b" stroke="#111" stroke-width="0.4"/>
<rect x="736.21" y="1039.54" width="6.00" height="6.00" fill="#64748b" stroke="#111" stroke-width="0.4"/>
<rect x="721.14" y="1032.69" width="6.00" height="6.00" fill="#64748b" stroke="#111" stroke-width="0.4"/>
<rect x="706.07" y="1025.84" width="6.00" height="6.00" fill="#64748b" stroke="#111" stroke-width="0.4"/>
<rect x="691.01" y="1018.99" width="6.00" height="6.00" fill="#64748b" stroke="#111" stroke-width="0.4"/>
<rect x="675.94" y="1012.15" width="6.00" height="6.00" fill="#64748b" stroke="#111" stroke-width="0.4"/>
<rect x="660.87" y="1005.30" width="6.00" height="6.00" fill="#64748b" stroke="#111" stroke-width="0.4"/>
<rect x="645.81" y="998.45" width="6.00" height="6.00" fill="#64748b" stroke="#111" stroke-width="0.4"/>
<rect x="630.74" y="991.60" width="6.00" height="6.00" fill="#64748b" stroke="#111" stroke-width="0.4"/>
<rect x="615.68" y="984.75" width="6.00" height="6.00" fill="#64748b" stroke="#111" stroke-width="0.4"/>
</g>

<g id="v2-section-y">
<rect x="970" y="730" width="900" height="600" fill="#fdfcfa" stroke="#333" stroke-width="1"/>
<text x="1420" y="754" text-anchor="middle" font-size="14" font-weight="bold" fill="#222">Section B-B (cut at Y=235)</text>
<line x1="990.00" y1="1111.37" x2="1850.00" y2="1111.37" stroke="#999" stroke-width="0.5" stroke-dasharray="4,2"/>
<line x1="1420.00" y1="938.52" x2="990.00" y2="1161.48" stroke="#8B4513" stroke-width="2"/>
<line x1="1850.00" y1="1161.48" x2="1420.00" y2="938.52" stroke="#8B4513" stroke-width="2"/>
<rect x="1417.00" y="935.52" width="6.00" height="6.00" fill="#dc2626" stroke="#111" stroke-width="0.4"/>
<rect x="1750.35" y="1108.37" width="6.00" height="6.00" fill="#16a34a" stroke="#111" stroke-width="0.4"/>
<rect x="1083.65" y="1108.37" width="6.00" height="6.00" fill="#16a34a" stroke="#111" stroke-width="0.4"/>
<rect x="1008.92" y="1147.12" width="6.00" height="6.00" fill="#64748b" stroke="#111" stroke-width="0.4"/>
<rect x="1030.84" y="1135.75" width="6.00" height="6.00" fill="#64748b" stroke="#111" stroke-width="0.4"/>
<rect x="1052.76" y="1124.38" width="6.00" height="6.00" fill="#64748b" stroke="#111" stroke-width="0.4"/>
<rect x="1074.68" y="1113.02" width="6.00" height="6.00" fill="#64748b" stroke="#111" stroke-width="0.4"/>
<rect x="1096.60" y="1101.65" width="6.00" height="6.00" fill="#64748b" stroke="#111" stroke-width="0.4"/>
<rect x="1118.53" y="1090.28" width="6.00" height="6.00" fill="#64748b" stroke="#111" stroke-width="0.4"/>
<rect x="1140.45" y="1078.92" width="6.00" height="6.00" fill="#64748b" stroke="#111" stroke-width="0.4"/>
<rect x="1162.37" y="1067.55" width="6.00" height="6.00" fill="#64748b" stroke="#111" stroke-width="0.4"/>
<rect x="1184.29" y="1056.18" width="6.00" height="6.00" fill="#64748b" stroke="#111" stroke-width="0.4"/>
<rect x="1206.21" y="1044.82" width="6.00" height="6.00" fill="#64748b" stroke="#111" stroke-width="0.4"/>
<rect x="1228.13" y="1033.45" width="6.00" height="6.00" fill="#64748b" stroke="#111" stroke-width="0.4"/>
<rect x="1250.05" y="1022.08" width="6.00" height="6.00" fill="#64748b" stroke="#111" stroke-width="0.4"/>
<rect x="1271.97" y="1010.72" width="6.00" height="6.00" fill="#64748b" stroke="#111" stroke-width="0.4"/>
<rect x="1293.89" y="999.35" width="6.00" height="6.00" fill="#64748b" stroke="#111" stroke-width="0.4"/>
<rect x="1315.81" y="987.99" width="6.00" height="6.00" fill="#64748b" stroke="#111" stroke-width="0.4"/>
<rect x="1337.73" y="976.62" width="6.00" height="6.00" fill="#64748b" stroke="#111" stroke-width="0.4"/>
<rect x="1359.66" y="965.25" width="6.00" height="6.00" fill="#64748b" stroke="#111" stroke-width="0.4"/>
<rect x="1381.58" y="953.89" width="6.00" height="6.00" fill="#64748b" stroke="#111" stroke-width="0.4"/>
<rect x="1825.08" y="1147.12" width="6.00" height="6.00" fill="#64748b" stroke="#111" stroke-width="0.4"/>
<rect x="1803.16" y="1135.75" width="6.00" height="6.00" fill="#64748b" stroke="#111" stroke-width="0.4"/>
<rect x="1781.24" y="1124.38" width="6.00" height="6.00" fill="#64748b" stroke="#111" stroke-width="0.4"/>
<rect x="1759.32" y="1113.02" width="6.00" height="6.00" fill="#64748b" stroke="#111" stroke-width="0.4"/>
<rect x="1737.40" y="1101.65" width="6.00" height="6.00" fill="#64748b" stroke="#111" stroke-width="0.4"/>
<rect x="1715.47" y="1090.28" width="6.00" height="6.00" fill="#64748b" stroke="#111" stroke-width="0.4"/>
<rect x="1693.55" y="1078.92" width="6.00" height="6.00" fill="#64748b" stroke="#111" stroke-width="0.4"/>
<rect x="1671.63" y="1067.55" width="6.00" height="6.00" fill="#64748b" stroke="#111" stroke-width="0.4"/>
<rect x="1649.71" y="1056.18" width="6.00" height="6.00" fill="#64748b" stroke="#111" stroke-width="0.4"/>
<rect x="1627.79" y="1044.82" width="6.00" height="6.00" fill="#64748b" stroke="#111" stroke-width="0.4"/>
<rect x="1605.87" y="1033.45" width="6.00" height="6.00" fill="#64748b" stroke="#111" stroke-width="0.4"/>
<rect x="1583.95" y="1022.08" width="6.00" height="6.00" fill="#64748b" stroke="#111" stroke-width="0.4"/>
<rect x="1562.03" y="1010.72" width="6.00" height="6.00" fill="#64748b" stroke="#111" stroke-width="0.4"/>
<rect x="1540.11" y="999.35" width="6.00" height="6.00" fill="#64748b" stroke="#111" stroke-width="0.4"/>
<rect x="1518.19" y="987.99" width="6.00" height="6.00" fill="#64748b" stroke="#111" stroke-width="0.4"/>
<rect x="1496.27" y="976.62" width="6.00" height="6.00" fill="#64748b" stroke="#111" stroke-width="0.4"/>
<rect x="1474.34" y="965.25" width="6.00" height="6.00" fill="#64748b" stroke="#111" stroke-width="0.4"/>
<rect x="1452.42" y="953.89" width="6.00" height="6.00" fill="#64748b" stroke="#111" stroke-width="0.4"/>
</g>

<g class="v2-face-panel">
<rect x="40" y="1360" width="900" height="600" fill="#fdfcfa" stroke="#333" stroke-width="1"/>
<rect x="40" y="1360" width="900" height="40" fill="#f2ede4" stroke="#333" stroke-width="1"/>
<text x="490" y="1386" text-anchor="middle" font-size="14" font-weight="600" fill="#222">SLOPES (TRAPEZOID, 2 identical) — seg0.slope.left, seg0.slope.right</text>
<polygon points="868.0,1810.7 706.2,1525.3 401.0,1525.3 112.0,1810.7" fill="#f5e0c9" stroke="#5a2e0b" stroke-width="1.5" fill-opacity="0.5"/>
<line x1="119.0" y1="1810.7" x2="119.0" y2="1803.8" stroke="#94a3b8" stroke-width="1"/>
<line x1="162.7" y1="1810.7" x2="162.7" y2="1760.7" stroke="#94a3b8" stroke-width="1"/>
<line x1="206.3" y1="1810.7" x2="206.3" y2="1717.6" stroke="#94a3b8" stroke-width="1"/>
<line x1="250.0" y1="1810.7" x2="250.0" y2="1674.5" stroke="#94a3b8" stroke-width="1"/>
<line x1="293.6" y1="1810.7" x2="293.6" y2="1631.4" stroke="#94a3b8" stroke-width="1"/>
<line x1="337.2" y1="1810.7" x2="337.2" y2="1588.3" stroke="#94a3b8" stroke-width="1"/>
<line x1="380.9" y1="1810.7" x2="380.9" y2="1545.2" stroke="#94a3b8" stroke-width="1"/>
<line x1="424.5" y1="1810.7" x2="424.5" y2="1525.3" stroke="#94a3b8" stroke-width="1"/>
<line x1="468.2" y1="1810.7" x2="468.2" y2="1525.3" stroke="#94a3b8" stroke-width="1"/>
<line x1="511.8" y1="1810.7" x2="511.8" y2="1525.3" stroke="#94a3b8" stroke-width="1"/>
<line x1="555.5" y1="1810.7" x2="555.5" y2="1525.3" stroke="#94a3b8" stroke-width="1"/>
<line x1="599.1" y1="1810.7" x2="599.1" y2="1525.3" stroke="#94a3b8" stroke-width="1"/>
<line x1="642.8" y1="1810.7" x2="642.8" y2="1525.3" stroke="#94a3b8" stroke-width="1"/>
<line x1="686.4" y1="1810.7" x2="686.4" y2="1525.3" stroke="#94a3b8" stroke-width="1"/>
<line x1="730.0" y1="1810.7" x2="730.0" y2="1567.4" stroke="#94a3b8" stroke-width="1"/>
<line x1="773.7" y1="1810.7" x2="773.7" y2="1644.4" stroke="#94a3b8" stroke-width="1"/>
<line x1="817.3" y1="1810.7" x2="817.3" y2="1721.3" stroke="#94a3b8" stroke-width="1"/>
<line x1="861.0" y1="1810.7" x2="861.0" y2="1798.3" stroke="#94a3b8" stroke-width="1"/>
<line x1="126.7" y1="1796.1" x2="859.8" y2="1796.1" stroke="#cbd5e1" stroke-width="0.6"/>
<line x1="141.5" y1="1781.6" x2="851.5" y2="1781.6" stroke="#cbd5e1" stroke-width="0.6"/>
<line x1="156.2" y1="1767.0" x2="843.3" y2="1767.0" stroke="#cbd5e1" stroke-width="0.6"/>
<line x1="170.9" y1="1752.5" x2="835.0" y2="1752.5" stroke="#cbd5e1" stroke-width="0.6"/>
<line x1="185.7" y1="1737.9" x2="826.8" y2="1737.9" stroke="#cbd5e1" stroke-width="0.6"/>
<line x1="200.4" y1="1723.4" x2="818.5" y2="1723.4" stroke="#cbd5e1" stroke-width="0.6"/>
<line x1="215.1" y1="1708.9" x2="810.3" y2="1708.9" stroke="#cbd5e1" stroke-width="0.6"/>
<line x1="229.9" y1="1694.3" x2="802.0" y2="1694.3" stroke="#cbd5e1" stroke-width="0.6"/>
<line x1="244.6" y1="1679.8" x2="793.8" y2="1679.8" stroke="#cbd5e1" stroke-width="0.6"/>
<line x1="259.3" y1="1665.2" x2="785.5" y2="1665.2" stroke="#cbd5e1" stroke-width="0.6"/>
<line x1="274.1" y1="1650.7" x2="777.3" y2="1650.7" stroke="#cbd5e1" stroke-width="0.6"/>
<line x1="288.8" y1="1636.1" x2="769.0" y2="1636.1" stroke="#cbd5e1" stroke-width="0.6"/>
<line x1="303.5" y1="1621.6" x2="760.8" y2="1621.6" stroke="#cbd5e1" stroke-width="0.6"/>
<line x1="318.3" y1="1607.0" x2="752.5" y2="1607.0" stroke="#cbd5e1" stroke-width="0.6"/>
<line x1="333.0" y1="1592.5" x2="744.3" y2="1592.5" stroke="#cbd5e1" stroke-width="0.6"/>
<line x1="347.7" y1="1577.9" x2="736.0" y2="1577.9" stroke="#cbd5e1" stroke-width="0.6"/>
<line x1="362.5" y1="1563.4" x2="727.8" y2="1563.4" stroke="#cbd5e1" stroke-width="0.6"/>
<line x1="377.2" y1="1548.8" x2="719.5" y2="1548.8" stroke="#cbd5e1" stroke-width="0.6"/>
<text x="490" y="1824.7" text-anchor="middle" font-size="11" fill="#334155">eave: 52'</text>
<text x="490" y="1521.3" text-anchor="middle" font-size="11" fill="#334155">ridge: 21'</text>
<text x="880.0" y="1668.0" text-anchor="start" font-size="11" fill="#334155">h: 19' 7"</text>
<text x="490" y="1420.0" text-anchor="middle" font-size="15" font-weight="600" fill="#8B4513">ROOF PITCH: 27.4°</text>
<text x="490" y="1438.0" text-anchor="middle" font-size="13" fill="#333">AREA: 715 sft per face   (× 2 = 1431 sft)</text>
<text x="928" y="1420.0" text-anchor="end" font-size="11" fill="#333">18 rafters</text>
<text x="928" y="1435.0" text-anchor="end" font-size="11" fill="#333">18 purlins</text>
</g>

<g class="v2-face-panel">
<rect x="970" y="1360" width="900" height="600" fill="#fdfcfa" stroke="#333" stroke-width="1"/>
<rect x="970" y="1360" width="900" height="40" fill="#f2ede4" stroke="#333" stroke-width="1"/>
<text x="1420" y="1386" text-anchor="middle" font-size="14" font-weight="600" fill="#222">HIP_FACE (TRIANGLE) — seg0.hip_face.start</text>
<polygon points="1042.0,1823.5 1798.0,1823.5 1420.0,1512.5" fill="#f5e0c9" stroke="#5a2e0b" stroke-width="1.5" fill-opacity="0.5"/>
<line x1="1061.8" y1="1823.5" x2="1061.8" y2="1807.2" stroke="#94a3b8" stroke-width="1"/>
<line x1="1127.0" y1="1823.5" x2="1127.0" y2="1753.6" stroke="#94a3b8" stroke-width="1"/>
<line x1="1192.1" y1="1823.5" x2="1192.1" y2="1700.0" stroke="#94a3b8" stroke-width="1"/>
<line x1="1257.2" y1="1823.5" x2="1257.2" y2="1646.4" stroke="#94a3b8" stroke-width="1"/>
<line x1="1322.3" y1="1823.5" x2="1322.3" y2="1592.9" stroke="#94a3b8" stroke-width="1"/>
<line x1="1387.4" y1="1823.5" x2="1387.4" y2="1539.3" stroke="#94a3b8" stroke-width="1"/>
<line x1="1452.6" y1="1823.5" x2="1452.6" y2="1539.3" stroke="#94a3b8" stroke-width="1"/>
<line x1="1517.7" y1="1823.5" x2="1517.7" y2="1592.9" stroke="#94a3b8" stroke-width="1"/>
<line x1="1582.8" y1="1823.5" x2="1582.8" y2="1646.4" stroke="#94a3b8" stroke-width="1"/>
<line x1="1647.9" y1="1823.5" x2="1647.9" y2="1700.0" stroke="#94a3b8" stroke-width="1"/>
<line x1="1713.0" y1="1823.5" x2="1713.0" y2="1753.6" stroke="#94a3b8" stroke-width="1"/>
<line x1="1778.2" y1="1823.5" x2="1778.2" y2="1807.2" stroke="#94a3b8" stroke-width="1"/>
<line x1="1068.4" y1="1801.8" x2="1771.6" y2="1801.8" stroke="#cbd5e1" stroke-width="0.6"/>
<line x1="1094.8" y1="1780.1" x2="1745.2" y2="1780.1" stroke="#cbd5e1" stroke-width="0.6"/>
<line x1="1121.2" y1="1758.4" x2="1718.8" y2="1758.4" stroke="#cbd5e1" stroke-width="0.6"/>
<line x1="1147.5" y1="1736.7" x2="1692.5" y2="1736.7" stroke="#cbd5e1" stroke-width="0.6"/>
<line x1="1173.9" y1="1715.0" x2="1666.1" y2="1715.0" stroke="#cbd5e1" stroke-width="0.6"/>
<line x1="1200.3" y1="1693.2" x2="1639.7" y2="1693.2" stroke="#cbd5e1" stroke-width="0.6"/>
<line x1="1226.7" y1="1671.5" x2="1613.3" y2="1671.5" stroke="#cbd5e1" stroke-width="0.6"/>
<line x1="1253.1" y1="1649.8" x2="1586.9" y2="1649.8" stroke="#cbd5e1" stroke-width="0.6"/>
<line x1="1279.5" y1="1628.1" x2="1560.5" y2="1628.1" stroke="#cbd5e1" stroke-width="0.6"/>
<line x1="1305.9" y1="1606.4" x2="1534.1" y2="1606.4" stroke="#cbd5e1" stroke-width="0.6"/>
<line x1="1332.2" y1="1584.7" x2="1507.8" y2="1584.7" stroke="#cbd5e1" stroke-width="0.6"/>
<line x1="1358.6" y1="1563.0" x2="1481.4" y2="1563.0" stroke="#cbd5e1" stroke-width="0.6"/>
<line x1="1385.0" y1="1541.3" x2="1455.0" y2="1541.3" stroke="#cbd5e1" stroke-width="0.6"/>
<text x="1420" y="1837.5" text-anchor="middle" font-size="11" fill="#334155">eave: 34' 10"</text>
<text x="1810.0" y="1668.0" text-anchor="start" font-size="11" fill="#334155">h: 14' 4"</text>
<text x="1420" y="1420.0" text-anchor="middle" font-size="15" font-weight="600" fill="#8B4513">ROOF PITCH: 39.1°</text>
<text x="1420" y="1438.0" text-anchor="middle" font-size="13" fill="#333">AREA: 249 sft</text>
<text x="1858" y="1420.0" text-anchor="end" font-size="11" fill="#333">12 rafters</text>
<text x="1858" y="1435.0" text-anchor="end" font-size="11" fill="#333">13 purlins</text>
</g>

<g class="v2-face-panel">
<rect x="40" y="1990" width="900" height="600" fill="#fdfcfa" stroke="#333" stroke-width="1"/>
<rect x="40" y="1990" width="900" height="40" fill="#f2ede4" stroke="#333" stroke-width="1"/>
<text x="490" y="2016" text-anchor="middle" font-size="14" font-weight="600" fill="#222">HIP_FACE (TRIANGLE) — seg0.hip_face.end</text>
<polygon points="148.1,2512.2 831.9,2512.2 490.0,2083.8" fill="#f5e0c9" stroke="#5a2e0b" stroke-width="1.5" fill-opacity="0.5"/>
<line x1="166.1" y1="2512.2" x2="166.1" y2="2489.7" stroke="#94a3b8" stroke-width="1"/>
<line x1="225.0" y1="2512.2" x2="225.0" y2="2415.9" stroke="#94a3b8" stroke-width="1"/>
<line x1="283.9" y1="2512.2" x2="283.9" y2="2342.1" stroke="#94a3b8" stroke-width="1"/>
<line x1="342.8" y1="2512.2" x2="342.8" y2="2268.3" stroke="#94a3b8" stroke-width="1"/>
<line x1="401.7" y1="2512.2" x2="401.7" y2="2194.5" stroke="#94a3b8" stroke-width="1"/>
<line x1="460.6" y1="2512.2" x2="460.6" y2="2120.7" stroke="#94a3b8" stroke-width="1"/>
<line x1="519.4" y1="2512.2" x2="519.4" y2="2120.7" stroke="#94a3b8" stroke-width="1"/>
<line x1="578.3" y1="2512.2" x2="578.3" y2="2194.5" stroke="#94a3b8" stroke-width="1"/>
<line x1="637.2" y1="2512.2" x2="637.2" y2="2268.3" stroke="#94a3b8" stroke-width="1"/>
<line x1="696.1" y1="2512.2" x2="696.1" y2="2342.1" stroke="#94a3b8" stroke-width="1"/>
<line x1="755.0" y1="2512.2" x2="755.0" y2="2415.9" stroke="#94a3b8" stroke-width="1"/>
<line x1="813.9" y1="2512.2" x2="813.9" y2="2489.7" stroke="#94a3b8" stroke-width="1"/>
<line x1="163.8" y1="2492.6" x2="816.2" y2="2492.6" stroke="#cbd5e1" stroke-width="0.6"/>
<line x1="179.5" y1="2472.9" x2="800.5" y2="2472.9" stroke="#cbd5e1" stroke-width="0.6"/>
<line x1="195.1" y1="2453.3" x2="784.9" y2="2453.3" stroke="#cbd5e1" stroke-width="0.6"/>
<line x1="210.8" y1="2433.7" x2="769.2" y2="2433.7" stroke="#cbd5e1" stroke-width="0.6"/>
<line x1="226.5" y1="2414.0" x2="753.5" y2="2414.0" stroke="#cbd5e1" stroke-width="0.6"/>
<line x1="242.1" y1="2394.4" x2="737.9" y2="2394.4" stroke="#cbd5e1" stroke-width="0.6"/>
<line x1="257.8" y1="2374.8" x2="722.2" y2="2374.8" stroke="#cbd5e1" stroke-width="0.6"/>
<line x1="273.5" y1="2355.1" x2="706.5" y2="2355.1" stroke="#cbd5e1" stroke-width="0.6"/>
<line x1="289.1" y1="2335.5" x2="690.9" y2="2335.5" stroke="#cbd5e1" stroke-width="0.6"/>
<line x1="304.8" y1="2315.9" x2="675.2" y2="2315.9" stroke="#cbd5e1" stroke-width="0.6"/>
<line x1="320.5" y1="2296.2" x2="659.5" y2="2296.2" stroke="#cbd5e1" stroke-width="0.6"/>
<line x1="336.1" y1="2276.6" x2="643.9" y2="2276.6" stroke="#cbd5e1" stroke-width="0.6"/>
<line x1="351.8" y1="2257.0" x2="628.2" y2="2257.0" stroke="#cbd5e1" stroke-width="0.6"/>
<line x1="367.5" y1="2237.3" x2="612.5" y2="2237.3" stroke="#cbd5e1" stroke-width="0.6"/>
<line x1="383.1" y1="2217.7" x2="596.9" y2="2217.7" stroke="#cbd5e1" stroke-width="0.6"/>
<line x1="398.8" y1="2198.1" x2="581.2" y2="2198.1" stroke="#cbd5e1" stroke-width="0.6"/>
<line x1="414.5" y1="2178.4" x2="565.5" y2="2178.4" stroke="#cbd5e1" stroke-width="0.6"/>
<line x1="430.1" y1="2158.8" x2="549.9" y2="2158.8" stroke="#cbd5e1" stroke-width="0.6"/>
<line x1="445.8" y1="2139.2" x2="534.2" y2="2139.2" stroke="#cbd5e1" stroke-width="0.6"/>
<line x1="461.5" y1="2119.5" x2="518.5" y2="2119.5" stroke="#cbd5e1" stroke-width="0.6"/>
<text x="490" y="2526.2" text-anchor="middle" font-size="11" fill="#334155">eave: 34' 10"</text>
<text x="843.9" y="2298.0" text-anchor="start" font-size="11" fill="#334155">h: 21' 10"</text>
<text x="490" y="2050.0" text-anchor="middle" font-size="15" font-weight="600" fill="#8B4513">ROOF PITCH: 24.4°</text>
<text x="490" y="2068.0" text-anchor="middle" font-size="13" fill="#333">AREA: 380 sft</text>
<text x="928" y="2050.0" text-anchor="end" font-size="11" fill="#333">12 rafters</text>
<text x="928" y="2065.0" text-anchor="end" font-size="11" fill="#333">20 purlins</text>
</g>


</svg>