<?xml version="1.0" encoding="UTF-8"?>
<svg xmlns="http://www.w3.org/2000/svg" width="900" height="600" viewBox="0 0 900 600">
<title>Face 2 (triangle) — seg0.hip_face.start</title>
<rect width="900" height="600" fill="#faf8f4"/>
<g class="v2-face-panel">
<rect x="0" y="0" width="900" height="600" fill="#fdfcfa" stroke="#333" stroke-width="1"/>
<rect x="0" y="0" width="900" height="40" fill="#f2ede4" stroke="#333" stroke-width="1"/>
<text x="450" y="26" text-anchor="middle" font-size="14" font-weight="600" fill="#222">HIP_FACE (TRIANGLE) — seg0.hip_face.start</text>
<polygon points="72.0,463.5 828.0,463.5 450.0,152.5" fill="#f5e0c9" stroke="#5a2e0b" stroke-width="1.5" fill-opacity="0.5"/>
<line x1="91.8" y1="463.5" x2="91.8" y2="447.2" stroke="#94a3b8" stroke-width="1"/>
<line x1="157.0" y1="463.5" x2="157.0" y2="393.6" stroke="#94a3b8" stroke-width="1"/>
<line x1="222.1" y1="463.5" x2="222.1" y2="340.0" stroke="#94a3b8" stroke-width="1"/>
<line x1="287.2" y1="463.5" x2="287.2" y2="286.4" stroke="#94a3b8" stroke-width="1"/>
<line x1="352.3" y1="463.5" x2="352.3" y2="232.9" stroke="#94a3b8" stroke-width="1"/>
<line x1="417.4" y1="463.5" x2="417.4" y2="179.3" stroke="#94a3b8" stroke-width="1"/>
<line x1="482.6" y1="463.5" x2="482.6" y2="179.3" stroke="#94a3b8" stroke-width="1"/>
<line x1="547.7" y1="463.5" x2="547.7" y2="232.9" stroke="#94a3b8" stroke-width="1"/>
<line x1="612.8" y1="463.5" x2="612.8" y2="286.4" stroke="#94a3b8" stroke-width="1"/>
<line x1="677.9" y1="463.5" x2="677.9" y2="340.0" stroke="#94a3b8" stroke-width="1"/>
<line x1="743.0" y1="463.5" x2="743.0" y2="393.6" stroke="#94a3b8" stroke-width="1"/>
<line x1="808.2" y1="463.5" x2="808.2" y2="447.2" stroke="#94a3b8" stroke-width="1"/>
<line x1="98.4" y1="441.8" x2="801.6" y2="441.8" stroke="#cbd5e1" stroke-width="0.6"/>
<line x1="124.8" y1="420.1" x2="775.2" y2="420.1" stroke="#cbd5e1" stroke-width="0.6"/>
<line x1="151.2" y1="398.4" x2="748.8" y2="398.4" stroke="#cbd5e1" stroke-width="0.6"/>
<line x1="177.5" y1="376.7" x2="722.5" y2="376.7" stroke="#cbd5e1" stroke-width="0.6"/>
<line x1="203.9" y1="355.0" x2="696.1" y2="355.0" stroke="#cbd5e1" stroke-width="0.6"/>
<line x1="230.3" y1="333.2" x2="669.7" y2="333.2" stroke="#cbd5e1" stroke-width="0.6"/>
<line x1="256.7" y1="311.5" x2="643.3" y2="311.5" stroke="#cbd5e1" stroke-width="0.6"/>
<line x1="283.1" y1="289.8" x2="616.9" y2="289.8" stroke="#cbd5e1" stroke-width="0.6"/>
<line x1="309.5" y1="268.1" x2="590.5" y2="268.1" stroke="#cbd5e1" stroke-width="0.6"/>
<line x1="335.9" y1="246.4" x2="564.1" y2="246.4" stroke="#cbd5e1" stroke-width="0.6"/>
<line x1="362.2" y1="224.7" x2="537.8" y2="224.7" stroke="#cbd5e1" stroke-width="0.6"/>
<line x1="388.6" y1="203.0" x2="511.4" y2="203.0" stroke="#cbd5e1" stroke-width="0.6"/>
<line x1="415.0" y1="181.3" x2="485.0" y2="181.3" stroke="#cbd5e1" stroke-width="0.6"/>
<text x="450" y="477.5" text-anchor="middle" font-size="11" fill="#334155">eave: 34' 10"</text>
<text x="840.0" y="308.0" text-anchor="start" font-size="11" fill="#334155">h: 14' 4"</text>
<text x="450" y="60.0" text-anchor="middle" font-size="15" font-weight="600" fill="#8B4513">ROOF PITCH: 39.1°</text>
<text x="450" y="78.0" text-anchor="middle" font-size="13" fill="#333">AREA: 249 sft</text>
<text x="888" y="60.0" text-anchor="end" font-size="11" fill="#333">12 rafters</text>
<text x="888" y="75.0" text-anchor="end" font-size="11" fill="#333">13 purlins</text>
</g>

</svg>