<?xml version="1.0" encoding="UTF-8"?>
<svg xmlns="http://www.w3.org/2000/svg" width="900" height="600" viewBox="0 0 900 600">
<title>Face 1 (trapezoid, 2 identical)</title>
<rect width="900" height="600" fill="#faf8f4"/>
<g class="v2-face-panel">
<rect x="0" y="0" width="900" height="600" fill="#fdfcfa" stroke="#333" stroke-width="1"/>
<rect x="0" y="0" width="900" height="40" fill="#f2ede4" stroke="#333" stroke-width="1"/>
<text x="450" y="26" text-anchor="middle" font-size="14" font-weight="600" fill="#222">SLOPES (TRAPEZOID, 2 identical) — seg0.slope.left, seg0.slope.right</text>
<polygon points="828.0,450.7 666.2,165.3 361.0,165.3 72.0,450.7" fill="#f5e0c9" stroke="#5a2e0b" stroke-width="1.5" fill-opacity="0.5"/>
<line x1="79.0" y1="450.7" x2="79.0" y2="443.8" stroke="#94a3b8" stroke-width="1"/>
<line x1="122.7" y1="450.7" x2="122.7" y2="400.7" stroke="#94a3b8" stroke-width="1"/>
<line x1="166.3" y1="450.7" x2="166.3" y2="357.6" stroke="#94a3b8" stroke-width="1"/>
<line x1="210.0" y1="450.7" x2="210.0" y2="314.5" stroke="#94a3b8" stroke-width="1"/>
<line x1="253.6" y1="450.7" x2="253.6" y2="271.4" stroke="#94a3b8" stroke-width="1"/>
<line x1="297.2" y1="450.7" x2="297.2" y2="228.3" stroke="#94a3b8" stroke-width="1"/>
<line x1="340.9" y1="450.7" x2="340.9" y2="185.2" stroke="#94a3b8" stroke-width="1"/>
<line x1="384.5" y1="450.7" x2="384.5" y2="165.3" stroke="#94a3b8" stroke-width="1"/>
<line x1="428.2" y1="450.7" x2="428.2" y2="165.3" stroke="#94a3b8" stroke-width="1"/>
<line x1="471.8" y1="450.7" x2="471.8" y2="165.3" stroke="#94a3b8" stroke-width="1"/>
<line x1="515.5" y1="450.7" x2="515.5" y2="165.3" stroke="#94a3b8" stroke-width="1"/>
<line x1="559.1" y1="450.7" x2="559.1" y2="165.3" stroke="#94a3b8" stroke-width="1"/>
<line x1="602.8" y1="450.7" x2="602.8" y2="165.3" stroke="#94a3b8" stroke-width="1"/>
<line x1="646.4" y1="450.7" x2="646.4" y2="165.3" stroke="#94a3b8" stroke-width="1"/>
<line x1="690.0" y1="450.7" x2="690.0" y2="207.4" stroke="#94a3b8" stroke-width="1"/>
<line x1="733.7" y1="450.7" x2="733.7" y2="284.4" stroke="#94a3b8" stroke-width="1"/>
<line x1="777.3" y1="450.7" x2="777.3" y2="361.3" stroke="#94a3b8" stroke-width="1"/>
<line x1="821.0" y1="450.7" x2="821.0" y2="438.3" stroke="#94a3b8" stroke-width="1"/>
<line x1="86.7" y1="436.1" x2="819.8" y2="436.1" stroke="#cbd5e1" stroke-width="0.6"/>
<line x1="101.5" y1="421.6" x2="811.5" y2="421.6" stroke="#cbd5e1" stroke-width="0.6"/>
<line x1="116.2" y1="407.0" x2="803.3" y2="407.0" stroke="#cbd5e1" stroke-width="0.6"/>
<line x1="130.9" y1="392.5" x2="795.0" y2="392.5" stroke="#cbd5e1" stroke-width="0.6"/>
<line x1="145.7" y1="377.9" x2="786.8" y2="377.9" stroke="#cbd5e1" stroke-width="0.6"/>
<line x1="160.4" y1="363.4" x2="778.5" y2="363.4" stroke="#cbd5e1" stroke-width="0.6"/>
<line x1="175.1" y1="348.9" x2="770.3" y2="348.9" stroke="#cbd5e1" stroke-width="0.6"/>
<line x1="189.9" y1="334.3" x2="762.0" y2="334.3" stroke="#cbd5e1" stroke-width="0.6"/>
<line x1="204.6" y1="319.8" x2="753.8" y2="319.8" stroke="#cbd5e1" stroke-width="0.6"/>
<line x1="219.3" y1="305.2" x2="745.5" y2="305.2" stroke="#cbd5e1" stroke-width="0.6"/>
<line x1="234.1" y1="290.7" x2="737.3" y2="290.7" stroke="#cbd5e1" stroke-width="0.6"/>
<line x1="248.8" y1="276.1" x2="729.0" y2="276.1" stroke="#cbd5e1" stroke-width="0.6"/>
<line x1="263.5" y1="261.6" x2="720.8" y2="261.6" stroke="#cbd5e1" stroke-width="0.6"/>
<line x1="278.3" y1="247.0" x2="712.5" y2="247.0" stroke="#cbd5e1" stroke-width="0.6"/>
<line x1="293.0" y1="232.5" x2="704.3" y2="232.5" stroke="#cbd5e1" stroke-width="0.6"/>
<line x1="307.7" y1="217.9" x2="696.0" y2="217.9" stroke="#cbd5e1" stroke-width="0.6"/>
<line x1="322.5" y1="203.4" x2="687.8" y2="203.4" stroke="#cbd5e1" stroke-width="0.6"/>
<line x1="337.2" y1="188.8" x2="679.5" y2="188.8" stroke="#cbd5e1" stroke-width="0.6"/>
<text x="450" y="464.7" text-anchor="middle" font-size="11" fill="#334155">eave: 52'</text>
<text x="450" y="161.3" text-anchor="middle" font-size="11" fill="#334155">ridge: 21'</text>
<text x="840.0" y="308.0" text-anchor="start" font-size="11" fill="#334155">h: 19' 7"</text>
<text x="450" y="60.0" text-anchor="middle" font-size="15" font-weight="600" fill="#8B4513">ROOF PITCH: 27.4°</text>
<text x="450" y="78.0" text-anchor="middle" font-size="13" fill="#333">AREA: 715 sft per face   (× 2 = 1431 sft)</text>
<text x="888" y="60.0" text-anchor="end" font-size="11" fill="#333">18 rafters</text>
<text x="888" y="75.0" text-anchor="end" font-size="11" fill="#333">18 purlins</text>
</g>

</svg>