<?xml version="1.0" encoding="UTF-8"?>
<svg xmlns="http://www.w3.org/2000/svg" width="860.0" height="692.0" viewBox="0 0 860.0 692.0">
<title>Section D-D - Pillars &amp; Slabs</title>
<defs>
  <style>text { font-family: Arial, sans-serif; }</style>
  <pattern id="slab_hatch" patternUnits="userSpaceOnUse" width="3" height="3" patternTransform="rotate(45)">
    <line x1="0" y1="0" x2="0" y2="3" stroke="#555" stroke-width="0.6"/>
  </pattern>
</defs>
<text x="430.0" y="65" text-anchor="middle" font-size="20" font-weight="bold">Section D-D - Pillars &amp; Slabs</text>
<g class="key-plan">
<rect x="724.0" y="16" width="120" height="120" fill="#fff" stroke="#000" stroke-width="0.7"/>
<text x="728.0" y="26" font-size="7" font-weight="bold" fill="#000">KEY PLAN</text>
<rect x="752.8" y="24.0" width="62.4" height="104.0" fill="none" stroke="#000" stroke-width="0.6"/>
<rect x="752.8" y="23.76888888888889" width="2.311111111111111" height="2.311111111111111" fill="#888" stroke="none"/>
<rect x="775.911111111111" y="23.76888888888889" width="2.311111111111111" height="2.311111111111111" fill="#888" stroke="none"/>
<rect x="789.7777777777777" y="23.76888888888889" width="2.311111111111111" height="2.311111111111111" fill="#888" stroke="none"/>
<rect x="812.8888888888888" y="23.76888888888889" width="2.311111111111111" height="2.311111111111111" fill="#888" stroke="none"/>
<rect x="752.8" y="43.00311111111111" width="1.8488888888888888" height="1.8488888888888888" fill="#888" stroke="none"/>
<rect x="779.6088888888888" y="43.00311111111111" width="1.8488888888888888" height="1.8488888888888888" fill="#888" stroke="none"/>
<rect x="813.351111111111" y="43.00311111111111" width="1.8488888888888888" height="1.8488888888888888" fill="#888" stroke="none"/>
<rect x="752.7884444444444" y="68.77777777777779" width="2.888888888888889" height="2.888888888888889" fill="#888" stroke="none"/>
<rect x="779.6088888888888" y="68.72" width="1.8488888888888888" height="1.8488888888888888" fill="#888" stroke="none"/>
<rect x="812.3226666666666" y="68.77777777777779" width="2.888888888888889" height="2.888888888888889" fill="#888" stroke="none"/>
<rect x="752.8" y="91.48444444444443" width="1.8488888888888888" height="1.8488888888888888" fill="#c00" stroke="none"/>
<rect x="762.0444444444444" y="91.48444444444443" width="1.8488888888888888" height="1.8488888888888888" fill="#c00" stroke="none"/>
<rect x="792.9555555555555" y="90.96444444444444" width="2.888888888888889" height="2.888888888888889" fill="#c00" stroke="none"/>
<rect x="813.351111111111" y="91.48444444444443" width="1.8488888888888888" height="1.8488888888888888" fill="#c00" stroke="none"/>
<rect x="752.8" y="125.57333333333332" width="1.8488888888888888" height="1.8488888888888888" fill="#888" stroke="none"/>
<rect x="773.2533333333333" y="125.92" width="2.311111111111111" height="2.311111111111111" fill="#888" stroke="none"/>
<rect x="792.8977777777777" y="125.92" width="2.311111111111111" height="2.311111111111111" fill="#888" stroke="none"/>
<rect x="813.351111111111" y="125.57333333333332" width="1.8488888888888888" height="1.8488888888888888" fill="#888" stroke="none"/>
<line x1="748.8" y1="92.40888888888888" x2="819.1999999999999" y2="92.40888888888888" stroke="#c00" stroke-width="0.8" stroke-dasharray="3,1.5"/>
<polygon points="750.8,96.40888888888888 748.8,94.90888888888888 752.8,94.90888888888888" fill="#c00"/>
<polygon points="817.1999999999999,96.40888888888888 815.1999999999999,94.90888888888888 819.1999999999999,94.90888888888888" fill="#c00"/>
<text x="784.0" y="23.0" font-size="6" text-anchor="middle" fill="#000">N</text>
</g>
<g transform="translate(160, 90) scale(2.0)">
<line x1="0" y1="246" x2="270" y2="246" stroke="#666" stroke-width="2" stroke-dasharray="5,5"/>
<rect x="0" y="216" width="270" height="30" fill="#A0826D" stroke="#000" stroke-width="0.5"/>
<rect x="0" y="208" width="270" height="8" fill="#808080" stroke="#000" stroke-width="0.5"/>
<rect x="222.0" y="20" width="8" height="196" fill="none" stroke="#000" stroke-width="0.6"/>
<rect x="83.75" y="20" width="12.5" height="196" fill="none" stroke="#000" stroke-width="0.6"/>
<rect x="262.0" y="20" width="8" height="196" fill="none" stroke="#000" stroke-width="0.6"/>
<rect x="0.0" y="20" width="8" height="196" fill="none" stroke="#000" stroke-width="0.6"/>
<rect x="0" y="110.0" width="270" height="8" fill="url(#slab_hatch)" stroke="#000" stroke-width="0.6"/>
<rect x="0" y="110.0" width="230" height="8" fill="url(#slab_hatch)" stroke="#000" stroke-width="0.6"/>
<text x="226.0" y="65.0" text-anchor="middle" font-size="4.0" fill="#000" transform="rotate(-90 226.0 65.0)">9'</text>
<text x="90.0" y="65.0" text-anchor="middle" font-size="4.0" fill="#000" transform="rotate(-90 90.0 65.0)">9'</text>
<text x="266.0" y="65.0" text-anchor="middle" font-size="4.0" fill="#000" transform="rotate(-90 266.0 65.0)">9'</text>
<text x="4.0" y="65.0" text-anchor="middle" font-size="4.0" fill="#000" transform="rotate(-90 4.0 65.0)">9'</text>
<text x="226.0" y="252" text-anchor="end" font-size="3.5" fill="#000" transform="rotate(-90 226.0 252)">Staircase Pillar</text>
<text x="90.0" y="252" text-anchor="end" font-size="3.5" fill="#000" transform="rotate(-90 90.0 252)">Fourth Pillar 2</text>
<text x="266.0" y="252" text-anchor="end" font-size="3.5" fill="#000" transform="rotate(-90 266.0 252)">Fourth Pillar 1</text>
<text x="4.0" y="252" text-anchor="end" font-size="3.5" fill="#000" transform="rotate(-90 4.0 252)">Fourth Pillar 3</text>
<line x1="0" y1="246" x2="-8" y2="246" stroke="#000" stroke-width="0.3" stroke-dasharray="2,2"/>
<line x1="0" y1="216" x2="-8" y2="216" stroke="#000" stroke-width="0.3" stroke-dasharray="2,2"/>
<line x1="-8" y1="246" x2="-8" y2="216" stroke="#000" stroke-width="0.5"/>
<polygon points="-8,246 -9.5,244.5 -6.5,244.5" fill="#000"/>
<polygon points="-8,216 -9.5,217.5 -6.5,217.5" fill="#000"/>
<text x="-12" y="231.0" text-anchor="middle" font-size="4" fill="#000" transform="rotate(-90 -12 231.0)">3'</text>
<line x1="0" y1="216" x2="-8" y2="216" stroke="#000" stroke-width="0.3" stroke-dasharray="2,2"/>
<line x1="0" y1="208" x2="-8" y2="208" stroke="#000" stroke-width="0.3" stroke-dasharray="2,2"/>
<line x1="-8" y1="216" x2="-8" y2="208" stroke="#000" stroke-width="0.5"/>
<polygon points="-8,216 -9.5,214.5 -6.5,214.5" fill="#000"/>
<polygon points="-8,208 -9.5,209.5 -6.5,209.5" fill="#000"/>
<text x="-12" y="212.0" text-anchor="middle" font-size="4" fill="#000" transform="rotate(-90 -12 212.0)">10"</text>
<line x1="0" y1="208" x2="-8" y2="208" stroke="#000" stroke-width="0.3" stroke-dasharray="2,2"/>
<line x1="0" y1="118.0" x2="-8" y2="118.0" stroke="#000" stroke-width="0.3" stroke-dasharray="2,2"/>
<line x1="-8" y1="208" x2="-8" y2="118.0" stroke="#000" stroke-width="0.5"/>
<polygon points="-8,208 -9.5,206.5 -6.5,206.5" fill="#000"/>
<polygon points="-8,118.0 -9.5,119.5 -6.5,119.5" fill="#000"/>
<text x="-12" y="163.0" text-anchor="middle" font-size="4" fill="#000" transform="rotate(-90 -12 163.0)">9'</text>
<line x1="0" y1="118.0" x2="-8" y2="118.0" stroke="#000" stroke-width="0.3" stroke-dasharray="2,2"/>
<line x1="0" y1="110.0" x2="-8" y2="110.0" stroke="#000" stroke-width="0.3" stroke-dasharray="2,2"/>
<line x1="-8" y1="118.0" x2="-8" y2="110.0" stroke="#000" stroke-width="0.5"/>
<polygon points="-8,118.0 -9.5,116.5 -6.5,116.5" fill="#000"/>
<polygon points="-8,110.0 -9.5,111.5 -6.5,111.5" fill="#000"/>
<text x="-12" y="114.0" text-anchor="middle" font-size="4" fill="#000" transform="rotate(-90 -12 114.0)">10"</text>
</g>
</svg>
