<?xml version="1.0" encoding="UTF-8"?>
<svg xmlns="http://www.w3.org/2000/svg" width="840.0" height="1008.0" viewBox="0 0 840.0 1008.0">
<title>Back Elevation</title>
<defs>
    <style>
        text { font-family: Arial, sans-serif; }
    </style>
</defs>
<g transform="translate(150, 210) scale(2.0, 2.0)">

<line x1="0" y1="324.0" x2="270" y2="324.0" stroke="#666" stroke-width="2" stroke-dasharray="5,5"/>
<rect x="0" y="294.0" width="270" height="30.0" fill="#A0826D" stroke="#000" stroke-width="1"/>
<rect x="0" y="268.0" width="270" height="18.0" fill="#C19A6B" stroke="#000" stroke-width="0.5"/>
<rect x="110" y="216.0" width="50" height="70.0" fill="#D2691E" stroke="#000" stroke-width="0.5"/>
<rect x="0" y="170.0" width="270" height="18.0" fill="#C19A6B" stroke="#000" stroke-width="0.5"/>
<rect x="0" y="98.0" width="270" height="8.0" fill="#654321" stroke="#000" stroke-width="0.5"/>
<rect x="0.0" y="98.0" width="10" height="196.0" fill="#000" stroke="#000" stroke-width="0.5"/>
<rect x="100.0" y="98.0" width="10" height="196.0" fill="#000" stroke="#000" stroke-width="0.5"/>
<rect x="160.0" y="98.0" width="10" height="196.0" fill="#000" stroke="#000" stroke-width="0.5"/>
<rect x="260.0" y="98.0" width="10" height="196.0" fill="#000" stroke="#000" stroke-width="0.5"/>
<rect x="0" y="188.0" width="124" height="98.0" fill="#C19A6B" stroke="#000" stroke-width="0.5"/>
<rect x="35" y="216.0" width="50" height="40.0" fill="#87CEEB" stroke="#000" stroke-width="0.5"/>
<rect x="116" y="188.0" width="154" height="98.0" fill="#C19A6B" stroke="#000" stroke-width="0.5"/>
<rect x="124" y="221.0" width="30" height="65.0" fill="#D2691E" stroke="#000" stroke-width="0.5"/>
<rect x="187" y="216.0" width="50" height="40.0" fill="#87CEEB" stroke="#000" stroke-width="0.5"/>
<rect x="0" y="98.0" width="124" height="90.0" fill="#C19A6B" stroke="#000" stroke-width="0.5"/>
<rect x="83.5" y="123.0" width="30" height="65.0" fill="#D2691E" stroke="#000" stroke-width="0.5"/>
<rect x="25" y="118.0" width="30" height="40.0" fill="#87CEEB" stroke="#000" stroke-width="0.5"/>
<rect x="116" y="98.0" width="154" height="90.0" fill="#C19A6B" stroke="#000" stroke-width="0.5"/>
<rect x="124" y="123.0" width="30" height="65.0" fill="#D2691E" stroke="#000" stroke-width="0.5"/>
<rect x="186.5" y="123.0" width="30" height="65.0" fill="#D2691E" stroke="#000" stroke-width="0.5"/>
<rect x="187" y="118.0" width="50" height="40.0" fill="#87CEEB" stroke="#000" stroke-width="0.5"/>
<rect x="0" y="98.0" width="270" height="8.0" fill="#654321" stroke="#000" stroke-width="0.5"/>
<rect x="0.0" y="98.0" width="8" height="196.0" fill="#000" stroke="#000" stroke-width="0.5"/>
<rect x="116.0" y="98.0" width="8" height="196.0" fill="#000" stroke="#000" stroke-width="0.5"/>
<rect x="262.0" y="98.0" width="8" height="196.0" fill="#000" stroke="#000" stroke-width="0.5"/>
<rect x="116.0" y="98.0" width="8" height="196.0" fill="#000" stroke="#000" stroke-width="0.5"/>
<rect x="0" y="98.0" width="270" height="8.0" fill="#654321" stroke="#000" stroke-width="0.5"/>
<rect x="0" y="188.0" width="124" height="98.0" fill="#C19A6B" stroke="#000" stroke-width="0.5"/>
<rect x="83.5" y="221.0" width="30" height="65.0" fill="#D2691E" stroke="#000" stroke-width="0.5"/>
<rect x="116" y="188.0" width="154" height="98.0" fill="#C19A6B" stroke="#000" stroke-width="0.5"/>
<rect x="126.5" y="221.0" width="30" height="65.0" fill="#D2691E" stroke="#000" stroke-width="0.5"/>
<rect x="0" y="98.0" width="124" height="90.0" fill="#C19A6B" stroke="#000" stroke-width="0.5"/>
<rect x="83.5" y="123.0" width="30" height="65.0" fill="#D2691E" stroke="#000" stroke-width="0.5"/>
<rect x="116" y="98.0" width="154" height="90.0" fill="#C19A6B" stroke="#000" stroke-width="0.5"/>
<rect x="126.5" y="123.0" width="30" height="65.0" fill="#D2691E" stroke="#000" stroke-width="0.5"/>
<rect x="-0.04999999999999982" y="98.0" width="12.5" height="196.0" fill="#000" stroke="#000" stroke-width="0.5"/>
<rect x="257.55" y="98.0" width="12.5" height="196.0" fill="#000" stroke="#000" stroke-width="0.5"/>
<rect x="0" y="188.0" width="270" height="8.0" fill="#808080" stroke="#000" stroke-width="0.5"/>
<rect x="184" y="98.0" width="78" height="90.0" fill="#C19A6B" stroke="#000" stroke-width="0.5"/>
<rect x="136" y="188.0" width="40" height="98.0" fill="#C19A6B" stroke="#000" stroke-width="0.5"/>
<rect x="176" y="188.0" width="94" height="98.0" fill="#C19A6B" stroke="#000" stroke-width="0.5"/>
<rect x="176" y="98.0" width="94" height="90.0" fill="#C19A6B" stroke="#000" stroke-width="0.5"/>
<rect x="186.5" y="123.0" width="30" height="65.0" fill="#D2691E" stroke="#000" stroke-width="0.5"/>
<rect x="40.0" y="98.0" width="8" height="196.0" fill="#000" stroke="#000" stroke-width="0.5"/>
<rect x="173.75" y="98.0" width="12.5" height="196.0" fill="#000" stroke="#000" stroke-width="0.5"/>
<rect x="0" y="98.0" width="270" height="8.0" fill="#654321" stroke="#000" stroke-width="0.5"/>
<rect x="0.0" y="98.0" width="8" height="196.0" fill="#000" stroke="#000" stroke-width="0.5"/>
<rect x="262.0" y="98.0" width="8" height="196.0" fill="#000" stroke="#000" stroke-width="0.5"/>
<rect x="40" y="188.0" width="230" height="8.0" fill="#808080" stroke="#000" stroke-width="0.5"/>
<g class="staircase-elevation">
<line x1="8.0" y1="286.0" x2="8.0" y2="281.0" stroke="#000" stroke-width="0.5"/>
<line x1="8.0" y1="281.0" x2="9.5" y2="281.0" stroke="#000" stroke-width="0.5"/>
<rect x="8.0" y="281.0" width="1.5" height="5.0" fill="#C19A6B" opacity="0.7"/>
<line x1="9.5" y1="281.0" x2="9.5" y2="276.0" stroke="#000" stroke-width="0.5"/>
<line x1="9.5" y1="276.0" x2="11.0" y2="276.0" stroke="#000" stroke-width="0.5"/>
<rect x="9.5" y="276.0" width="1.5" height="5.0" fill="#C19A6B" opacity="0.7"/>
<line x1="11.0" y1="276.0" x2="11.0" y2="271.0" stroke="#000" stroke-width="0.5"/>
<line x1="11.0" y1="271.0" x2="12.5" y2="271.0" stroke="#000" stroke-width="0.5"/>
<rect x="11.0" y="271.0" width="1.5" height="5.0" fill="#C19A6B" opacity="0.7"/>
<line x1="12.5" y1="271.0" x2="12.5" y2="266.0" stroke="#000" stroke-width="0.5"/>
<line x1="12.5" y1="266.0" x2="14.0" y2="266.0" stroke="#000" stroke-width="0.5"/>
<rect x="12.5" y="266.0" width="1.5" height="5.0" fill="#C19A6B" opacity="0.7"/>
<line x1="14.0" y1="266.0" x2="14.0" y2="261.0" stroke="#000" stroke-width="0.5"/>
<line x1="14.0" y1="261.0" x2="15.5" y2="261.0" stroke="#000" stroke-width="0.5"/>
<rect x="14.0" y="261.0" width="1.5" height="5.0" fill="#C19A6B" opacity="0.7"/>
<line x1="15.5" y1="261.0" x2="15.5" y2="256.0" stroke="#000" stroke-width="0.5"/>
<line x1="15.5" y1="256.0" x2="17.0" y2="256.0" stroke="#000" stroke-width="0.5"/>
<rect x="15.5" y="256.0" width="1.5" height="5.0" fill="#C19A6B" opacity="0.7"/>
<line x1="17.0" y1="256.0" x2="17.0" y2="251.0" stroke="#000" stroke-width="0.5"/>
<line x1="17.0" y1="251.0" x2="18.5" y2="251.0" stroke="#000" stroke-width="0.5"/>
<rect x="17.0" y="251.0" width="1.5" height="5.0" fill="#C19A6B" opacity="0.7"/>
<line x1="18.5" y1="251.0" x2="18.5" y2="246.0" stroke="#000" stroke-width="0.5"/>
<line x1="18.5" y1="246.0" x2="20.0" y2="246.0" stroke="#000" stroke-width="0.5"/>
<rect x="18.5" y="246.0" width="1.5" height="5.0" fill="#C19A6B" opacity="0.7"/>
<line x1="20.0" y1="246.0" x2="20.0" y2="241.0" stroke="#000" stroke-width="0.5"/>
<line x1="20.0" y1="241.0" x2="21.5" y2="241.0" stroke="#000" stroke-width="0.5"/>
<rect x="20.0" y="241.0" width="1.5" height="5.0" fill="#C19A6B" opacity="0.7"/>
<line x1="21.5" y1="241.0" x2="21.5" y2="236.0" stroke="#000" stroke-width="0.5"/>
<line x1="21.5" y1="236.0" x2="23.0" y2="236.0" stroke="#000" stroke-width="0.5"/>
<rect x="21.5" y="236.0" width="1.5" height="5.0" fill="#C19A6B" opacity="0.7"/>
<line x1="23.0" y1="236.0" x2="23.0" y2="231.0" stroke="#000" stroke-width="0.5"/>
<line x1="23.0" y1="231.0" x2="24.5" y2="231.0" stroke="#000" stroke-width="0.5"/>
<rect x="23.0" y="231.0" width="1.5" height="5.0" fill="#C19A6B" opacity="0.7"/>
<line x1="24.5" y1="231.0" x2="24.5" y2="226.0" stroke="#000" stroke-width="0.5"/>
<line x1="24.5" y1="226.0" x2="26.0" y2="226.0" stroke="#000" stroke-width="0.5"/>
<rect x="24.5" y="226.0" width="1.5" height="5.0" fill="#C19A6B" opacity="0.7"/>
<line x1="26.0" y1="226.0" x2="26.0" y2="221.0" stroke="#000" stroke-width="0.5"/>
<line x1="26.0" y1="221.0" x2="27.5" y2="221.0" stroke="#000" stroke-width="0.5"/>
<rect x="26.0" y="221.0" width="1.5" height="5.0" fill="#C19A6B" opacity="0.7"/>
<line x1="27.5" y1="221.0" x2="27.5" y2="216.0" stroke="#000" stroke-width="0.5"/>
<line x1="27.5" y1="216.0" x2="29.0" y2="216.0" stroke="#000" stroke-width="0.5"/>
<rect x="27.5" y="216.0" width="1.5" height="5.0" fill="#C19A6B" opacity="0.7"/>
<line x1="29.0" y1="216.0" x2="29.0" y2="211.0" stroke="#000" stroke-width="0.5"/>
<line x1="29.0" y1="211.0" x2="30.5" y2="211.0" stroke="#000" stroke-width="0.5"/>
<rect x="29.0" y="211.0" width="1.5" height="5.0" fill="#C19A6B" opacity="0.7"/>
<line x1="30.5" y1="211.0" x2="30.5" y2="206.0" stroke="#000" stroke-width="0.5"/>
<line x1="30.5" y1="206.0" x2="32.0" y2="206.0" stroke="#000" stroke-width="0.5"/>
<rect x="30.5" y="206.0" width="1.5" height="5.0" fill="#C19A6B" opacity="0.7"/>
<line x1="32.0" y1="206.0" x2="32.0" y2="201.0" stroke="#000" stroke-width="0.5"/>
<line x1="32.0" y1="201.0" x2="33.5" y2="201.0" stroke="#000" stroke-width="0.5"/>
<rect x="32.0" y="201.0" width="1.5" height="5.0" fill="#C19A6B" opacity="0.7"/>
<line x1="33.5" y1="201.0" x2="33.5" y2="196.0" stroke="#000" stroke-width="0.5"/>
<line x1="33.5" y1="196.0" x2="35.0" y2="196.0" stroke="#000" stroke-width="0.5"/>
<rect x="33.5" y="196.0" width="1.5" height="5.0" fill="#C19A6B" opacity="0.7"/>
<line x1="35.0" y1="196.0" x2="35.0" y2="191.0" stroke="#000" stroke-width="0.5"/>
<line x1="35.0" y1="191.0" x2="36.5" y2="191.0" stroke="#000" stroke-width="0.5"/>
<rect x="35.0" y="191.0" width="1.5" height="5.0" fill="#C19A6B" opacity="0.7"/>
<line x1="36.5" y1="191.0" x2="36.5" y2="186.0" stroke="#000" stroke-width="0.5"/>
<line x1="36.5" y1="186.0" x2="38.0" y2="186.0" stroke="#000" stroke-width="0.5"/>
<rect x="36.5" y="186.0" width="1.5" height="5.0" fill="#C19A6B" opacity="0.7"/>
<line x1="38.0" y1="186.0" x2="38.0" y2="286.0" stroke="#000" stroke-width="0.5"/>
<line x1="8" y1="286.0" x2="38.0" y2="286.0" stroke="#000" stroke-width="0.5"/>
</g>
<rect x="0" y="98.0" width="270" height="90.0" fill="#C19A6B" stroke="#000" stroke-width="0.5"/>
<rect x="24" y="123.0" width="60" height="60.0" fill="#87CEEB" stroke="#000" stroke-width="0.5"/>
<rect x="103.5" y="123.0" width="65" height="60.0" fill="#87CEEB" stroke="#000" stroke-width="0.5"/>
<rect x="187.5" y="123.0" width="60" height="60.0" fill="#87CEEB" stroke="#000" stroke-width="0.5"/>
<rect x="0.0" y="98.0" width="8" height="196.0" fill="#000" stroke="#000" stroke-width="0.5"/>
<rect x="262.0" y="98.0" width="8" height="196.0" fill="#000" stroke="#000" stroke-width="0.5"/>
<rect x="8" y="188.0" width="254" height="8.0" fill="#654321" stroke="#000" stroke-width="0.5"/>
<rect x="0" y="98.0" width="270" height="8.0" fill="#654321" stroke="#000" stroke-width="0.5"/>
<rect x="262" y="188.0" width="8" height="8.0" fill="#654321" stroke="#000" stroke-width="0.5"/>
<rect x="0" y="188.0" width="8" height="8.0" fill="#654321" stroke="#000" stroke-width="0.5"/>
<rect x="0" y="98.0" width="8" height="8.0" fill="#654321" stroke="#000" stroke-width="0.5"/>
<rect x="262" y="98.0" width="8" height="8.0" fill="#654321" stroke="#000" stroke-width="0.5"/>
<rect x="0" y="286.0" width="270" height="8.0" fill="#808080" stroke="#000" stroke-width="0.5"/>
<rect x="0" y="188.0" width="270" height="98.0" fill="#C19A6B" stroke="#000" stroke-width="0.5"/>
<rect x="98.5" y="221.0" width="75" height="65.0" fill="#D2691E" stroke="#000" stroke-width="0.5"/>
<rect x="24" y="221.0" width="60" height="40.0" fill="#87CEEB" stroke="#000" stroke-width="0.5"/>
<rect x="187.5" y="221.0" width="60" height="40.0" fill="#87CEEB" stroke="#000" stroke-width="0.5"/>
<rect x="88.5" y="98.0" width="10" height="196.0" fill="#000" stroke="#000" stroke-width="0.5"/>
<rect x="173.5" y="98.0" width="10" height="196.0" fill="#000" stroke="#000" stroke-width="0.5"/>
<polygon points="-39.14,118.30 135.00,28.00 -39.14,118.30" fill="#8B4513" stroke="#5a2e0b" stroke-width="0.5" fill-opacity="0.85"/>
<polygon points="309.14,118.30 -39.14,118.30 135.00,28.00" fill="#8B4513" stroke="#5a2e0b" stroke-width="0.5" fill-opacity="0.85"/>
<polygon points="-39.14,118.30 309.14,118.30 135.00,28.00" fill="#8B4513" stroke="#5a2e0b" stroke-width="0.5" fill-opacity="0.85"/>
<line x1="135.00" y1="28.00" x2="-39.14" y2="118.30" stroke="#5a2e0b" stroke-width="3"/>
<line x1="135.00" y1="28.00" x2="309.14" y2="118.30" stroke="#5a2e0b" stroke-width="3"/>
<line x1="135.00" y1="28.00" x2="-39.14" y2="118.30" stroke="#5a2e0b" stroke-width="3"/>
<line x1="135.00" y1="28.00" x2="309.14" y2="118.30" stroke="#5a2e0b" stroke-width="3"/><g class="dimension">
  <line x1="300" y1="294.0" x2="300" y2="196.0" stroke="#000" stroke-width="0.5"/>
  <line x1="270" y1="294.0" x2="300" y2="294.0" stroke="#000" stroke-width="0.3" stroke-dasharray="2,2"/>
  <line x1="270" y1="196.0" x2="300" y2="196.0" stroke="#000" stroke-width="0.3" stroke-dasharray="2,2"/>
  <polygon points="300,294.0 297,297.0 303,297.0" fill="#000"/>
  <polygon points="300,196.0 297,193.0 303,193.0" fill="#000"/>
  <text x="313" y="245.0" text-anchor="middle" font-size="10" fill="#000" transform="rotate(-90 313 245.0)">9' 10"</text>
</g>
<g class="dimension">
  <line x1="300" y1="196.0" x2="300" y2="98.0" stroke="#000" stroke-width="0.5"/>
  <line x1="270" y1="196.0" x2="300" y2="196.0" stroke="#000" stroke-width="0.3" stroke-dasharray="2,2"/>
  <line x1="270" y1="98.0" x2="300" y2="98.0" stroke="#000" stroke-width="0.3" stroke-dasharray="2,2"/>
  <polygon points="300,196.0 297,199.0 303,199.0" fill="#000"/>
  <polygon points="300,98.0 297,95.0 303,95.0" fill="#000"/>
  <text x="313" y="147.0" text-anchor="middle" font-size="10" fill="#000" transform="rotate(-90 313 147.0)">9' 10"</text>
</g>
<g class="dimension">
  <line x1="300" y1="98.0" x2="300" y2="0.0" stroke="#000" stroke-width="0.5"/>
  <line x1="270" y1="98.0" x2="300" y2="98.0" stroke="#000" stroke-width="0.3" stroke-dasharray="2,2"/>
  <line x1="270" y1="0.0" x2="300" y2="0.0" stroke="#000" stroke-width="0.3" stroke-dasharray="2,2"/>
  <polygon points="300,98.0 297,101.0 303,101.0" fill="#000"/>
  <polygon points="300,0.0 297,-3.0 303,-3.0" fill="#000"/>
  <text x="313" y="49.0" text-anchor="middle" font-size="10" fill="#000" transform="rotate(-90 313 49.0)">9' 10"</text>
</g>
<g class="dimension">
  <line x1="0" y1="-30.0" x2="270" y2="-30.0" stroke="#000" stroke-width="0.5"/>
  <line x1="0" y1="0.0" x2="0" y2="-30.0" stroke="#000" stroke-width="0.3" stroke-dasharray="2,2"/>
  <line x1="270" y1="0.0" x2="270" y2="-30.0" stroke="#000" stroke-width="0.3" stroke-dasharray="2,2"/>
  <polygon points="0,-30.0 3,-33.0 3,-27.0" fill="#000"/>
  <polygon points="270,-30.0 267,-33.0 267,-27.0" fill="#000"/>
  <text x="135.0" y="-35.0" text-anchor="middle" font-size="10" fill="#000">27'</text>
</g>
<g class="dimension">
  <line x1="0" y1="198.0" x2="24" y2="198.0" stroke="#000" stroke-width="0.5"/>
  <line x1="0" y1="183.0" x2="0" y2="198.0" stroke="#000" stroke-width="0.3" stroke-dasharray="2,2"/>
  <line x1="24" y1="183.0" x2="24" y2="198.0" stroke="#000" stroke-width="0.3" stroke-dasharray="2,2"/>
  <polygon points="0,198.0 3,195.0 3,201.0" fill="#000"/>
  <polygon points="24,198.0 21,195.0 21,201.0" fill="#000"/>
  <text x="12.0" y="211.0" text-anchor="middle" font-size="10" fill="#000">2' 5"</text>
</g>
<g class="dimension">
  <line x1="24" y1="198.0" x2="84" y2="198.0" stroke="#000" stroke-width="0.5"/>
  <line x1="24" y1="183.0" x2="24" y2="198.0" stroke="#000" stroke-width="0.3" stroke-dasharray="2,2"/>
  <line x1="84" y1="183.0" x2="84" y2="198.0" stroke="#000" stroke-width="0.3" stroke-dasharray="2,2"/>
  <polygon points="24,198.0 27,195.0 27,201.0" fill="#000"/>
  <polygon points="84,198.0 81,195.0 81,201.0" fill="#000"/>
  <text x="54.0" y="211.0" text-anchor="middle" font-size="10" fill="#000">6'</text>
</g>
<g class="dimension">
  <line x1="84" y1="198.0" x2="103.5" y2="198.0" stroke="#000" stroke-width="0.5"/>
  <line x1="84" y1="183.0" x2="84" y2="198.0" stroke="#000" stroke-width="0.3" stroke-dasharray="2,2"/>
  <line x1="103.5" y1="183.0" x2="103.5" y2="198.0" stroke="#000" stroke-width="0.3" stroke-dasharray="2,2"/>
  <polygon points="84,198.0 87,195.0 87,201.0" fill="#000"/>
  <polygon points="103.5,198.0 100.5,195.0 100.5,201.0" fill="#000"/>
  <text x="93.75" y="211.0" text-anchor="middle" font-size="10" fill="#000">1' 11"</text>
</g>
<g class="dimension">
  <line x1="103.5" y1="198.0" x2="168.5" y2="198.0" stroke="#000" stroke-width="0.5"/>
  <line x1="103.5" y1="183.0" x2="103.5" y2="198.0" stroke="#000" stroke-width="0.3" stroke-dasharray="2,2"/>
  <line x1="168.5" y1="183.0" x2="168.5" y2="198.0" stroke="#000" stroke-width="0.3" stroke-dasharray="2,2"/>
  <polygon points="103.5,198.0 106.5,195.0 106.5,201.0" fill="#000"/>
  <polygon points="168.5,198.0 165.5,195.0 165.5,201.0" fill="#000"/>
  <text x="136.0" y="211.0" text-anchor="middle" font-size="10" fill="#000">6' 6"</text>
</g>
<g class="dimension">
  <line x1="168.5" y1="198.0" x2="187.5" y2="198.0" stroke="#000" stroke-width="0.5"/>
  <line x1="168.5" y1="183.0" x2="168.5" y2="198.0" stroke="#000" stroke-width="0.3" stroke-dasharray="2,2"/>
  <line x1="187.5" y1="183.0" x2="187.5" y2="198.0" stroke="#000" stroke-width="0.3" stroke-dasharray="2,2"/>
  <polygon points="168.5,198.0 171.5,195.0 171.5,201.0" fill="#000"/>
  <polygon points="187.5,198.0 184.5,195.0 184.5,201.0" fill="#000"/>
  <text x="178.0" y="211.0" text-anchor="middle" font-size="10" fill="#000">1' 11"</text>
</g>
<g class="dimension">
  <line x1="187.5" y1="198.0" x2="247.5" y2="198.0" stroke="#000" stroke-width="0.5"/>
  <line x1="187.5" y1="183.0" x2="187.5" y2="198.0" stroke="#000" stroke-width="0.3" stroke-dasharray="2,2"/>
  <line x1="247.5" y1="183.0" x2="247.5" y2="198.0" stroke="#000" stroke-width="0.3" stroke-dasharray="2,2"/>
  <polygon points="187.5,198.0 190.5,195.0 190.5,201.0" fill="#000"/>
  <polygon points="247.5,198.0 244.5,195.0 244.5,201.0" fill="#000"/>
  <text x="217.5" y="211.0" text-anchor="middle" font-size="10" fill="#000">6'</text>
</g>
<g class="dimension">
  <line x1="0" y1="301.0" x2="24" y2="301.0" stroke="#000" stroke-width="0.5"/>
  <line x1="0" y1="286.0" x2="0" y2="301.0" stroke="#000" stroke-width="0.3" stroke-dasharray="2,2"/>
  <line x1="24" y1="286.0" x2="24" y2="301.0" stroke="#000" stroke-width="0.3" stroke-dasharray="2,2"/>
  <polygon points="0,301.0 3,298.0 3,304.0" fill="#000"/>
  <polygon points="24,301.0 21,298.0 21,304.0" fill="#000"/>
  <text x="12.0" y="314.0" text-anchor="middle" font-size="10" fill="#000">2' 5"</text>
</g>
<g class="dimension">
  <line x1="24" y1="301.0" x2="84" y2="301.0" stroke="#000" stroke-width="0.5"/>
  <line x1="24" y1="286.0" x2="24" y2="301.0" stroke="#000" stroke-width="0.3" stroke-dasharray="2,2"/>
  <line x1="84" y1="286.0" x2="84" y2="301.0" stroke="#000" stroke-width="0.3" stroke-dasharray="2,2"/>
  <polygon points="24,301.0 27,298.0 27,304.0" fill="#000"/>
  <polygon points="84,301.0 81,298.0 81,304.0" fill="#000"/>
  <text x="54.0" y="314.0" text-anchor="middle" font-size="10" fill="#000">6'</text>
</g>
<g class="dimension">
  <line x1="84" y1="301.0" x2="98.5" y2="301.0" stroke="#000" stroke-width="0.5"/>
  <line x1="84" y1="286.0" x2="84" y2="301.0" stroke="#000" stroke-width="0.3" stroke-dasharray="2,2"/>
  <line x1="98.5" y1="286.0" x2="98.5" y2="301.0" stroke="#000" stroke-width="0.3" stroke-dasharray="2,2"/>
  <polygon points="84,301.0 87,298.0 87,304.0" fill="#000"/>
  <polygon points="98.5,301.0 95.5,298.0 95.5,304.0" fill="#000"/>
  <text x="91.25" y="314.0" text-anchor="middle" font-size="10" fill="#000">1' 5"</text>
</g>
<g class="dimension">
  <line x1="98.5" y1="301.0" x2="173.5" y2="301.0" stroke="#000" stroke-width="0.5"/>
  <line x1="98.5" y1="286.0" x2="98.5" y2="301.0" stroke="#000" stroke-width="0.3" stroke-dasharray="2,2"/>
  <line x1="173.5" y1="286.0" x2="173.5" y2="301.0" stroke="#000" stroke-width="0.3" stroke-dasharray="2,2"/>
  <polygon points="98.5,301.0 101.5,298.0 101.5,304.0" fill="#000"/>
  <polygon points="173.5,301.0 170.5,298.0 170.5,304.0" fill="#000"/>
  <text x="136.0" y="314.0" text-anchor="middle" font-size="10" fill="#000">7' 6"</text>
</g>
<g class="dimension">
  <line x1="173.5" y1="301.0" x2="187.5" y2="301.0" stroke="#000" stroke-width="0.5"/>
  <line x1="173.5" y1="286.0" x2="173.5" y2="301.0" stroke="#000" stroke-width="0.3" stroke-dasharray="2,2"/>
  <line x1="187.5" y1="286.0" x2="187.5" y2="301.0" stroke="#000" stroke-width="0.3" stroke-dasharray="2,2"/>
  <polygon points="173.5,301.0 176.5,298.0 176.5,304.0" fill="#000"/>
  <polygon points="187.5,301.0 184.5,298.0 184.5,304.0" fill="#000"/>
  <text x="180.5" y="314.0" text-anchor="middle" font-size="10" fill="#000">1' 5"</text>
</g>
<g class="dimension">
  <line x1="187.5" y1="301.0" x2="247.5" y2="301.0" stroke="#000" stroke-width="0.5"/>
  <line x1="187.5" y1="286.0" x2="187.5" y2="301.0" stroke="#000" stroke-width="0.3" stroke-dasharray="2,2"/>
  <line x1="247.5" y1="286.0" x2="247.5" y2="301.0" stroke="#000" stroke-width="0.3" stroke-dasharray="2,2"/>
  <polygon points="187.5,301.0 190.5,298.0 190.5,304.0" fill="#000"/>
  <polygon points="247.5,301.0 244.5,298.0 244.5,304.0" fill="#000"/>
  <text x="217.5" y="314.0" text-anchor="middle" font-size="10" fill="#000">6'</text>
</g>
<g class="dimension">
  <line x1="105.0" y1="188.0" x2="105.0" y2="98.0" stroke="#000" stroke-width="0.5"/>
  <line x1="135.0" y1="188.0" x2="105.0" y2="188.0" stroke="#000" stroke-width="0.3" stroke-dasharray="2,2"/>
  <line x1="135.0" y1="98.0" x2="105.0" y2="98.0" stroke="#000" stroke-width="0.3" stroke-dasharray="2,2"/>
  <polygon points="105.0,188.0 102.0,191.0 108.0,191.0" fill="#000"/>
  <polygon points="105.0,98.0 102.0,95.0 108.0,95.0" fill="#000"/>
  <text x="92.0" y="143.0" text-anchor="middle" font-size="10" fill="#000" transform="rotate(-90 92.0 143.0)">9'</text>
</g>
<g class="dimension">
  <line x1="16" y1="286.0" x2="16" y2="261.0" stroke="#000" stroke-width="0.5"/>
  <line x1="24" y1="286.0" x2="16" y2="286.0" stroke="#000" stroke-width="0.3" stroke-dasharray="2,2"/>
  <line x1="24" y1="261.0" x2="16" y2="261.0" stroke="#000" stroke-width="0.3" stroke-dasharray="2,2"/>
  <polygon points="16,286.0 13,289.0 19,289.0" fill="#000"/>
  <polygon points="16,261.0 13,258.0 19,258.0" fill="#000"/>
  <text x="3" y="273.5" text-anchor="middle" font-size="10" fill="#000" transform="rotate(-90 3 273.5)">2' 6"</text>
</g>
<g class="dimension">
  <line x1="179.5" y1="286.0" x2="179.5" y2="261.0" stroke="#000" stroke-width="0.5"/>
  <line x1="187.5" y1="286.0" x2="179.5" y2="286.0" stroke="#000" stroke-width="0.3" stroke-dasharray="2,2"/>
  <line x1="187.5" y1="261.0" x2="179.5" y2="261.0" stroke="#000" stroke-width="0.3" stroke-dasharray="2,2"/>
  <polygon points="179.5,286.0 176.5,289.0 182.5,289.0" fill="#000"/>
  <polygon points="179.5,261.0 176.5,258.0 182.5,258.0" fill="#000"/>
  <text x="166.5" y="273.5" text-anchor="middle" font-size="10" fill="#000" transform="rotate(-90 166.5 273.5)">2' 6"</text>
</g>
</g>
<text x="420.0" y="40.0" text-anchor="middle" font-size="18" font-weight="bold" fill="#333">Back Elevation</text>
</svg>