<?xml version="1.0" encoding="UTF-8"?>
<svg xmlns="http://www.w3.org/2000/svg" width="1200.0" height="1008.0" viewBox="0 0 1200.0 1008.0">
<title>Left Elevation</title>
<defs>
    <style>
        text { font-family: Arial, sans-serif; }
    </style>
</defs>
<g transform="translate(150, 210) scale(2.0, 2.0)">

<line x1="0" y1="324.0" x2="450" y2="324.0" stroke="#666" stroke-width="2" stroke-dasharray="5,5"/>
<rect x="0" y="294.0" width="450" height="30.0" fill="#A0826D" stroke="#000" stroke-width="1"/>
<rect x="300" y="98.0" width="150" height="90.0" fill="#C19A6B" stroke="#000" stroke-width="0.5"/>
<rect x="310" y="123.0" width="50" height="60.0" fill="#87CEEB" stroke="#000" stroke-width="0.5"/>
<rect x="375" y="123.0" width="50" height="60.0" fill="#87CEEB" stroke="#000" stroke-width="0.5"/>
<rect x="330" y="188.0" width="120" height="8.0" fill="#654321" stroke="#000" stroke-width="0.5"/>
<rect x="0" y="98.0" width="450" height="8.0" fill="#654321" stroke="#000" stroke-width="0.5"/>
<rect x="0" y="256.0" width="88" height="30.0" fill="#C19A6B" stroke="#000" stroke-width="0.5"/>
<rect x="196" y="188.0" width="254" height="98.0" fill="#C19A6B" stroke="#000" stroke-width="0.5"/>
<rect x="214" y="221.0" width="20" height="20.0" fill="#87CEEB" stroke="#000" stroke-width="0.5"/>
<rect x="254" y="221.0" width="20" height="20.0" fill="#87CEEB" stroke="#000" stroke-width="0.5"/>
<rect x="310" y="221.0" width="60" height="30.0" fill="#87CEEB" stroke="#000" stroke-width="0.5"/>
<rect x="80" y="188.0" width="124" height="98.0" fill="#C19A6B" stroke="#000" stroke-width="0.5"/>
<rect x="115" y="216.0" width="50" height="40.0" fill="#87CEEB" stroke="#000" stroke-width="0.5"/>
<rect x="0" y="158.0" width="88" height="30.0" fill="#C19A6B" stroke="#000" stroke-width="0.5"/>
<rect x="80" y="98.0" width="124" height="90.0" fill="#C19A6B" stroke="#000" stroke-width="0.5"/>
<rect x="115" y="118.0" width="50" height="40.0" fill="#87CEEB" stroke="#000" stroke-width="0.5"/>
<rect x="196" y="98.0" width="104" height="90.0" fill="#C19A6B" stroke="#000" stroke-width="0.5"/>
<rect x="214" y="123.0" width="20" height="30.0" fill="#87CEEB" stroke="#000" stroke-width="0.5"/>
<rect x="262" y="123.0" width="20" height="30.0" fill="#87CEEB" stroke="#000" stroke-width="0.5"/>
<rect x="79.975" y="98.0" width="12.5" height="196.0" fill="#000" stroke="#000" stroke-width="0.5"/>
<rect x="289.75" y="98.0" width="12.5" height="196.0" fill="#000" stroke="#000" stroke-width="0.5"/>
<rect x="437.25" y="98.0" width="12.5" height="196.0" fill="#000" stroke="#000" stroke-width="0.5"/>
<rect x="0.0" y="98.0" width="8" height="196.0" fill="#000" stroke="#000" stroke-width="0.5"/>
<rect x="196.0" y="98.0" width="8" height="196.0" fill="#000" stroke="#000" stroke-width="0.5"/>
<rect x="196" y="188.0" width="104" height="98.0" fill="#C19A6B" stroke="#000" stroke-width="0.5"/>
<rect x="228" y="221.0" width="30" height="65.0" fill="#D2691E" stroke="#000" stroke-width="0.5"/>
<rect x="196" y="98.0" width="104" height="90.0" fill="#C19A6B" stroke="#000" stroke-width="0.5"/>
<rect x="292.0" y="98.0" width="8" height="196.0" fill="#000" stroke="#000" stroke-width="0.5"/>
<rect x="442.0" y="98.0" width="8" height="196.0" fill="#000" stroke="#000" stroke-width="0.5"/>
<rect x="0.0" y="98.0" width="8" height="196.0" fill="#000" stroke="#000" stroke-width="0.5"/>
<rect x="80" y="188.0" width="124" height="98.0" fill="#C19A6B" stroke="#000" stroke-width="0.5"/>
<rect x="80" y="98.0" width="124" height="90.0" fill="#C19A6B" stroke="#000" stroke-width="0.5"/>
<rect x="79.975" y="98.0" width="12.5" height="196.0" fill="#000" stroke="#000" stroke-width="0.5"/>
<rect x="191.25" y="98.0" width="12.5" height="196.0" fill="#000" stroke="#000" stroke-width="0.5"/>
<rect x="0.0" y="98.0" width="8" height="196.0" fill="#000" stroke="#000" stroke-width="0.5"/>
<rect x="442.0" y="98.0" width="8" height="196.0" fill="#000" stroke="#000" stroke-width="0.5"/>
<rect x="234" y="188.0" width="100" height="8.0" fill="#808080" stroke="#000" stroke-width="0.5"/>
<rect x="292.0" y="98.0" width="8" height="196.0" fill="#000" stroke="#000" stroke-width="0.5"/>
<rect x="442" y="188.0" width="8" height="8.0" fill="#654321" stroke="#000" stroke-width="0.5"/>
<g class="staircase-elevation">
<line x1="230.0" y1="286.0" x2="230.0" y2="281.0" stroke="#000" stroke-width="0.5"/>
<line x1="230.0" y1="281.0" x2="240.0" y2="281.0" stroke="#000" stroke-width="0.5"/>
<rect x="230.0" y="281.0" width="10.0" height="5.0" fill="#C19A6B" opacity="0.7"/>
<line x1="240.0" y1="281.0" x2="240.0" y2="276.0" stroke="#000" stroke-width="0.5"/>
<line x1="240.0" y1="276.0" x2="250.0" y2="276.0" stroke="#000" stroke-width="0.5"/>
<rect x="240.0" y="276.0" width="10.0" height="5.0" fill="#C19A6B" opacity="0.7"/>
<line x1="250.0" y1="276.0" x2="250.0" y2="271.0" stroke="#000" stroke-width="0.5"/>
<line x1="250.0" y1="271.0" x2="260.0" y2="271.0" stroke="#000" stroke-width="0.5"/>
<rect x="250.0" y="271.0" width="10.0" height="5.0" fill="#C19A6B" opacity="0.7"/>
<line x1="260.0" y1="271.0" x2="260.0" y2="266.0" stroke="#000" stroke-width="0.5"/>
<line x1="260.0" y1="266.0" x2="270.0" y2="266.0" stroke="#000" stroke-width="0.5"/>
<rect x="260.0" y="266.0" width="10.0" height="5.0" fill="#C19A6B" opacity="0.7"/>
<line x1="270.0" y1="266.0" x2="270.0" y2="261.0" stroke="#000" stroke-width="0.5"/>
<line x1="270.0" y1="261.0" x2="280.0" y2="261.0" stroke="#000" stroke-width="0.5"/>
<rect x="270.0" y="261.0" width="10.0" height="5.0" fill="#C19A6B" opacity="0.7"/>
<line x1="280.0" y1="261.0" x2="280.0" y2="256.0" stroke="#000" stroke-width="0.5"/>
<line x1="280.0" y1="256.0" x2="290.0" y2="256.0" stroke="#000" stroke-width="0.5"/>
<rect x="280.0" y="256.0" width="10.0" height="5.0" fill="#C19A6B" opacity="0.7"/>
<line x1="290.0" y1="256.0" x2="290.0" y2="251.0" stroke="#000" stroke-width="0.5"/>
<line x1="290.0" y1="251.0" x2="300.0" y2="251.0" stroke="#000" stroke-width="0.5"/>
<rect x="290.0" y="251.0" width="10.0" height="5.0" fill="#C19A6B" opacity="0.7"/>
<line x1="300.0" y1="251.0" x2="300.0" y2="246.0" stroke="#000" stroke-width="0.5"/>
<line x1="300.0" y1="246.0" x2="310.0" y2="246.0" stroke="#000" stroke-width="0.5"/>
<rect x="300.0" y="246.0" width="10.0" height="5.0" fill="#C19A6B" opacity="0.7"/>
<line x1="310.0" y1="246.0" x2="310.0" y2="241.0" stroke="#000" stroke-width="0.5"/>
<line x1="310.0" y1="241.0" x2="320.0" y2="241.0" stroke="#000" stroke-width="0.5"/>
<rect x="310.0" y="241.0" width="10.0" height="5.0" fill="#C19A6B" opacity="0.7"/>
<line x1="320.0" y1="241.0" x2="320.0" y2="236.0" stroke="#000" stroke-width="0.5"/>
<line x1="320.0" y1="236.0" x2="330.0" y2="236.0" stroke="#000" stroke-width="0.5"/>
<rect x="320.0" y="236.0" width="10.0" height="5.0" fill="#C19A6B" opacity="0.7"/>
<line x1="330.0" y1="236.0" x2="330.0" y2="231.0" stroke="#000" stroke-width="0.5"/>
<line x1="330.0" y1="231.0" x2="340.0" y2="231.0" stroke="#000" stroke-width="0.5"/>
<rect x="330.0" y="231.0" width="10.0" height="5.0" fill="#C19A6B" opacity="0.7"/>
<line x1="340.0" y1="231.0" x2="340.0" y2="226.0" stroke="#000" stroke-width="0.5"/>
<line x1="340.0" y1="226.0" x2="350.0" y2="226.0" stroke="#000" stroke-width="0.5"/>
<rect x="340.0" y="226.0" width="10.0" height="5.0" fill="#C19A6B" opacity="0.7"/>
<line x1="350.0" y1="226.0" x2="350.0" y2="221.0" stroke="#000" stroke-width="0.5"/>
<line x1="350.0" y1="221.0" x2="360.0" y2="221.0" stroke="#000" stroke-width="0.5"/>
<rect x="350.0" y="221.0" width="10.0" height="5.0" fill="#C19A6B" opacity="0.7"/>
<line x1="360.0" y1="221.0" x2="360.0" y2="216.0" stroke="#000" stroke-width="0.5"/>
<line x1="360.0" y1="216.0" x2="370.0" y2="216.0" stroke="#000" stroke-width="0.5"/>
<rect x="360.0" y="216.0" width="10.0" height="5.0" fill="#C19A6B" opacity="0.7"/>
<line x1="370.0" y1="216.0" x2="370.0" y2="211.0" stroke="#000" stroke-width="0.5"/>
<line x1="370.0" y1="211.0" x2="380.0" y2="211.0" stroke="#000" stroke-width="0.5"/>
<rect x="370.0" y="211.0" width="10.0" height="5.0" fill="#C19A6B" opacity="0.7"/>
<line x1="380.0" y1="211.0" x2="380.0" y2="206.0" stroke="#000" stroke-width="0.5"/>
<line x1="380.0" y1="206.0" x2="390.0" y2="206.0" stroke="#000" stroke-width="0.5"/>
<rect x="380.0" y="206.0" width="10.0" height="5.0" fill="#C19A6B" opacity="0.7"/>
<line x1="390.0" y1="206.0" x2="390.0" y2="201.0" stroke="#000" stroke-width="0.5"/>
<line x1="390.0" y1="201.0" x2="400.0" y2="201.0" stroke="#000" stroke-width="0.5"/>
<rect x="390.0" y="201.0" width="10.0" height="5.0" fill="#C19A6B" opacity="0.7"/>
<line x1="400.0" y1="201.0" x2="400.0" y2="196.0" stroke="#000" stroke-width="0.5"/>
<line x1="400.0" y1="196.0" x2="410.0" y2="196.0" stroke="#000" stroke-width="0.5"/>
<rect x="400.0" y="196.0" width="10.0" height="5.0" fill="#C19A6B" opacity="0.7"/>
<line x1="410.0" y1="196.0" x2="410.0" y2="191.0" stroke="#000" stroke-width="0.5"/>
<line x1="410.0" y1="191.0" x2="420.0" y2="191.0" stroke="#000" stroke-width="0.5"/>
<rect x="410.0" y="191.0" width="10.0" height="5.0" fill="#C19A6B" opacity="0.7"/>
<line x1="420.0" y1="191.0" x2="420.0" y2="186.0" stroke="#000" stroke-width="0.5"/>
<line x1="420.0" y1="186.0" x2="430.0" y2="186.0" stroke="#000" stroke-width="0.5"/>
<rect x="420.0" y="186.0" width="10.0" height="5.0" fill="#C19A6B" opacity="0.7"/>
<line x1="430.0" y1="186.0" x2="430.0" y2="286.0" stroke="#000" stroke-width="0.5"/>
<line x1="230" y1="286.0" x2="430.0" y2="286.0" stroke="#000" stroke-width="0.5"/>
</g>
<rect x="200" y="98.0" width="100" height="90.0" fill="#C19A6B" stroke="#000" stroke-width="0.5"/>
<rect x="300" y="98.0" width="150" height="90.0" fill="#C19A6B" stroke="#000" stroke-width="0.5"/>
<rect x="310" y="123.0" width="50" height="60.0" fill="#87CEEB" stroke="#000" stroke-width="0.5"/>
<rect x="375" y="123.0" width="50" height="60.0" fill="#87CEEB" stroke="#000" stroke-width="0.5"/>
<rect x="230" y="188.0" width="220" height="8.0" fill="#654321" stroke="#000" stroke-width="0.5"/>
<rect x="0" y="98.0" width="8" height="8.0" fill="#654321" stroke="#000" stroke-width="0.5"/>
<rect x="80" y="98.0" width="12" height="8.0" fill="#654321" stroke="#000" stroke-width="0.5"/>
<rect x="196" y="98.0" width="8" height="8.0" fill="#654321" stroke="#000" stroke-width="0.5"/>
<rect x="290" y="98.0" width="12" height="8.0" fill="#654321" stroke="#000" stroke-width="0.5"/>
<rect x="438" y="98.0" width="12" height="8.0" fill="#654321" stroke="#000" stroke-width="0.5"/>
<rect x="0" y="98.0" width="450" height="8.0" fill="#654321" stroke="#000" stroke-width="0.5"/>
<rect x="0" y="286.0" width="450" height="8.0" fill="#808080" stroke="#000" stroke-width="0.5"/>
<rect x="0" y="188.0" width="234" height="8.0" fill="#808080" stroke="#000" stroke-width="0.5"/>
<rect x="0" y="256.0" width="88" height="30.0" fill="#C19A6B" stroke="#000" stroke-width="0.5"/>
<rect x="80" y="188.0" width="124" height="98.0" fill="#C19A6B" stroke="#000" stroke-width="0.5"/>
<rect x="117" y="216.0" width="50" height="40.0" fill="#87CEEB" stroke="#000" stroke-width="0.5"/>
<rect x="196" y="188.0" width="254" height="98.0" fill="#C19A6B" stroke="#000" stroke-width="0.5"/>
<rect x="224" y="216.0" width="40" height="40.0" fill="#87CEEB" stroke="#000" stroke-width="0.5"/>
<rect x="386" y="221.0" width="40" height="30.0" fill="#87CEEB" stroke="#000" stroke-width="0.5"/>
<rect x="0" y="158.0" width="88" height="30.0" fill="#C19A6B" stroke="#000" stroke-width="0.5"/>
<rect x="80" y="98.0" width="124" height="90.0" fill="#C19A6B" stroke="#000" stroke-width="0.5"/>
<rect x="115" y="118.0" width="50" height="40.0" fill="#87CEEB" stroke="#000" stroke-width="0.5"/>
<rect x="79.975" y="98.0" width="12.5" height="196.0" fill="#000" stroke="#000" stroke-width="0.5"/>
<rect x="289.75" y="98.0" width="12.5" height="196.0" fill="#000" stroke="#000" stroke-width="0.5"/>
<rect x="437.25" y="98.0" width="12.5" height="196.0" fill="#000" stroke="#000" stroke-width="0.5"/>
<rect x="0.0" y="98.0" width="8" height="196.0" fill="#000" stroke="#000" stroke-width="0.5"/>
<rect x="196.0" y="98.0" width="8" height="196.0" fill="#000" stroke="#000" stroke-width="0.5"/>
<polygon points="-25.00,118.30 86.22,28.00 296.00,28.00 494.65,118.30" fill="#8B4513" stroke="#5a2e0b" stroke-width="0.5" fill-opacity="0.85"/>
<polygon points="-25.00,118.30 494.65,118.30 296.00,28.00 86.22,28.00" fill="#8B4513" stroke="#5a2e0b" stroke-width="0.5" fill-opacity="0.85"/>
<line x1="36.22" y1="28.00" x2="346.00" y2="28.00" stroke="#3b1a05" stroke-width="3"/>
<line x1="86.22" y1="28.00" x2="-25.00" y2="118.30" stroke="#5a2e0b" stroke-width="3"/>
<line x1="86.22" y1="28.00" x2="-25.00" y2="118.30" stroke="#5a2e0b" stroke-width="3"/>
<line x1="296.00" y1="28.00" x2="494.65" y2="118.30" stroke="#5a2e0b" stroke-width="3"/>
<line x1="296.00" y1="28.00" x2="494.65" y2="118.30" stroke="#5a2e0b" stroke-width="3"/><g class="dimension">
  <line x1="480" y1="294.0" x2="480" y2="196.0" stroke="#000" stroke-width="0.5"/>
  <line x1="450" y1="294.0" x2="480" y2="294.0" stroke="#000" stroke-width="0.3" stroke-dasharray="2,2"/>
  <line x1="450" y1="196.0" x2="480" y2="196.0" stroke="#000" stroke-width="0.3" stroke-dasharray="2,2"/>
  <polygon points="480,294.0 477,297.0 483,297.0" fill="#000"/>
  <polygon points="480,196.0 477,193.0 483,193.0" fill="#000"/>
  <text x="493" y="245.0" text-anchor="middle" font-size="10" fill="#000" transform="rotate(-90 493 245.0)">9' 10"</text>
</g>
<g class="dimension">
  <line x1="480" y1="196.0" x2="480" y2="98.0" stroke="#000" stroke-width="0.5"/>
  <line x1="450" y1="196.0" x2="480" y2="196.0" stroke="#000" stroke-width="0.3" stroke-dasharray="2,2"/>
  <line x1="450" y1="98.0" x2="480" y2="98.0" stroke="#000" stroke-width="0.3" stroke-dasharray="2,2"/>
  <polygon points="480,196.0 477,199.0 483,199.0" fill="#000"/>
  <polygon points="480,98.0 477,95.0 483,95.0" fill="#000"/>
  <text x="493" y="147.0" text-anchor="middle" font-size="10" fill="#000" transform="rotate(-90 493 147.0)">9' 10"</text>
</g>
<g class="dimension">
  <line x1="480" y1="98.0" x2="480" y2="0.0" stroke="#000" stroke-width="0.5"/>
  <line x1="450" y1="98.0" x2="480" y2="98.0" stroke="#000" stroke-width="0.3" stroke-dasharray="2,2"/>
  <line x1="450" y1="0.0" x2="480" y2="0.0" stroke="#000" stroke-width="0.3" stroke-dasharray="2,2"/>
  <polygon points="480,98.0 477,101.0 483,101.0" fill="#000"/>
  <polygon points="480,0.0 477,-3.0 483,-3.0" fill="#000"/>
  <text x="493" y="49.0" text-anchor="middle" font-size="10" fill="#000" transform="rotate(-90 493 49.0)">9' 10"</text>
</g>
<g class="dimension">
  <line x1="0" y1="-30.0" x2="450" y2="-30.0" stroke="#000" stroke-width="0.5"/>
  <line x1="0" y1="0.0" x2="0" y2="-30.0" stroke="#000" stroke-width="0.3" stroke-dasharray="2,2"/>
  <line x1="450" y1="0.0" x2="450" y2="-30.0" stroke="#000" stroke-width="0.3" stroke-dasharray="2,2"/>
  <polygon points="0,-30.0 3,-33.0 3,-27.0" fill="#000"/>
  <polygon points="450,-30.0 447,-33.0 447,-27.0" fill="#000"/>
  <text x="225.0" y="-35.0" text-anchor="middle" font-size="10" fill="#000">45'</text>
</g>
<g class="dimension">
  <line x1="300" y1="198.0" x2="310" y2="198.0" stroke="#000" stroke-width="0.5"/>
  <line x1="300" y1="183.0" x2="300" y2="198.0" stroke="#000" stroke-width="0.3" stroke-dasharray="2,2"/>
  <line x1="310" y1="183.0" x2="310" y2="198.0" stroke="#000" stroke-width="0.3" stroke-dasharray="2,2"/>
  <polygon points="300,198.0 303,195.0 303,201.0" fill="#000"/>
  <polygon points="310,198.0 307,195.0 307,201.0" fill="#000"/>
  <text x="305.0" y="211.0" text-anchor="middle" font-size="10" fill="#000">1'</text>
</g>
<g class="dimension">
  <line x1="310" y1="198.0" x2="360" y2="198.0" stroke="#000" stroke-width="0.5"/>
  <line x1="310" y1="183.0" x2="310" y2="198.0" stroke="#000" stroke-width="0.3" stroke-dasharray="2,2"/>
  <line x1="360" y1="183.0" x2="360" y2="198.0" stroke="#000" stroke-width="0.3" stroke-dasharray="2,2"/>
  <polygon points="310,198.0 313,195.0 313,201.0" fill="#000"/>
  <polygon points="360,198.0 357,195.0 357,201.0" fill="#000"/>
  <text x="335.0" y="211.0" text-anchor="middle" font-size="10" fill="#000">5'</text>
</g>
<g class="dimension">
  <line x1="360" y1="198.0" x2="375" y2="198.0" stroke="#000" stroke-width="0.5"/>
  <line x1="360" y1="183.0" x2="360" y2="198.0" stroke="#000" stroke-width="0.3" stroke-dasharray="2,2"/>
  <line x1="375" y1="183.0" x2="375" y2="198.0" stroke="#000" stroke-width="0.3" stroke-dasharray="2,2"/>
  <polygon points="360,198.0 363,195.0 363,201.0" fill="#000"/>
  <polygon points="375,198.0 372,195.0 372,201.0" fill="#000"/>
  <text x="367.5" y="211.0" text-anchor="middle" font-size="10" fill="#000">1' 6"</text>
</g>
<g class="dimension">
  <line x1="375" y1="198.0" x2="425" y2="198.0" stroke="#000" stroke-width="0.5"/>
  <line x1="375" y1="183.0" x2="375" y2="198.0" stroke="#000" stroke-width="0.3" stroke-dasharray="2,2"/>
  <line x1="425" y1="183.0" x2="425" y2="198.0" stroke="#000" stroke-width="0.3" stroke-dasharray="2,2"/>
  <polygon points="375,198.0 378,195.0 378,201.0" fill="#000"/>
  <polygon points="425,198.0 422,195.0 422,201.0" fill="#000"/>
  <text x="400.0" y="211.0" text-anchor="middle" font-size="10" fill="#000">5'</text>
</g>
<g class="dimension">
  <line x1="80" y1="271.0" x2="117" y2="271.0" stroke="#000" stroke-width="0.5"/>
  <line x1="80" y1="256.0" x2="80" y2="271.0" stroke="#000" stroke-width="0.3" stroke-dasharray="2,2"/>
  <line x1="117" y1="256.0" x2="117" y2="271.0" stroke="#000" stroke-width="0.3" stroke-dasharray="2,2"/>
  <polygon points="80,271.0 83,268.0 83,274.0" fill="#000"/>
  <polygon points="117,271.0 114,268.0 114,274.0" fill="#000"/>
  <text x="98.5" y="284.0" text-anchor="middle" font-size="10" fill="#000">3' 8"</text>
</g>
<g class="dimension">
  <line x1="117" y1="271.0" x2="167" y2="271.0" stroke="#000" stroke-width="0.5"/>
  <line x1="117" y1="256.0" x2="117" y2="271.0" stroke="#000" stroke-width="0.3" stroke-dasharray="2,2"/>
  <line x1="167" y1="256.0" x2="167" y2="271.0" stroke="#000" stroke-width="0.3" stroke-dasharray="2,2"/>
  <polygon points="117,271.0 120,268.0 120,274.0" fill="#000"/>
  <polygon points="167,271.0 164,268.0 164,274.0" fill="#000"/>
  <text x="142.0" y="284.0" text-anchor="middle" font-size="10" fill="#000">5'</text>
</g>
<g class="dimension">
  <line x1="196" y1="271.0" x2="224" y2="271.0" stroke="#000" stroke-width="0.5"/>
  <line x1="196" y1="256.0" x2="196" y2="271.0" stroke="#000" stroke-width="0.3" stroke-dasharray="2,2"/>
  <line x1="224" y1="256.0" x2="224" y2="271.0" stroke="#000" stroke-width="0.3" stroke-dasharray="2,2"/>
  <polygon points="196,271.0 199,268.0 199,274.0" fill="#000"/>
  <polygon points="224,271.0 221,268.0 221,274.0" fill="#000"/>
  <text x="210.0" y="284.0" text-anchor="middle" font-size="10" fill="#000">2' 10"</text>
</g>
<g class="dimension">
  <line x1="224" y1="271.0" x2="264" y2="271.0" stroke="#000" stroke-width="0.5"/>
  <line x1="224" y1="256.0" x2="224" y2="271.0" stroke="#000" stroke-width="0.3" stroke-dasharray="2,2"/>
  <line x1="264" y1="256.0" x2="264" y2="271.0" stroke="#000" stroke-width="0.3" stroke-dasharray="2,2"/>
  <polygon points="224,271.0 227,268.0 227,274.0" fill="#000"/>
  <polygon points="264,271.0 261,268.0 261,274.0" fill="#000"/>
  <text x="244.0" y="284.0" text-anchor="middle" font-size="10" fill="#000">4'</text>
</g>
<g class="dimension">
  <line x1="264" y1="271.0" x2="386" y2="271.0" stroke="#000" stroke-width="0.5"/>
  <line x1="264" y1="256.0" x2="264" y2="271.0" stroke="#000" stroke-width="0.3" stroke-dasharray="2,2"/>
  <line x1="386" y1="256.0" x2="386" y2="271.0" stroke="#000" stroke-width="0.3" stroke-dasharray="2,2"/>
  <polygon points="264,271.0 267,268.0 267,274.0" fill="#000"/>
  <polygon points="386,271.0 383,268.0 383,274.0" fill="#000"/>
  <text x="325.0" y="284.0" text-anchor="middle" font-size="10" fill="#000">12' 2"</text>
</g>
<g class="dimension">
  <line x1="386" y1="271.0" x2="426" y2="271.0" stroke="#000" stroke-width="0.5"/>
  <line x1="386" y1="256.0" x2="386" y2="271.0" stroke="#000" stroke-width="0.3" stroke-dasharray="2,2"/>
  <line x1="426" y1="256.0" x2="426" y2="271.0" stroke="#000" stroke-width="0.3" stroke-dasharray="2,2"/>
  <polygon points="386,271.0 389,268.0 389,274.0" fill="#000"/>
  <polygon points="426,271.0 423,268.0 423,274.0" fill="#000"/>
  <text x="406.0" y="284.0" text-anchor="middle" font-size="10" fill="#000">4'</text>
</g>
<g class="dimension">
  <line x1="80" y1="173.0" x2="115" y2="173.0" stroke="#000" stroke-width="0.5"/>
  <line x1="80" y1="158.0" x2="80" y2="173.0" stroke="#000" stroke-width="0.3" stroke-dasharray="2,2"/>
  <line x1="115" y1="158.0" x2="115" y2="173.0" stroke="#000" stroke-width="0.3" stroke-dasharray="2,2"/>
  <polygon points="80,173.0 83,170.0 83,176.0" fill="#000"/>
  <polygon points="115,173.0 112,170.0 112,176.0" fill="#000"/>
  <text x="97.5" y="186.0" text-anchor="middle" font-size="10" fill="#000">3' 6"</text>
</g>
<g class="dimension">
  <line x1="115" y1="173.0" x2="165" y2="173.0" stroke="#000" stroke-width="0.5"/>
  <line x1="115" y1="158.0" x2="115" y2="173.0" stroke="#000" stroke-width="0.3" stroke-dasharray="2,2"/>
  <line x1="165" y1="158.0" x2="165" y2="173.0" stroke="#000" stroke-width="0.3" stroke-dasharray="2,2"/>
  <polygon points="115,173.0 118,170.0 118,176.0" fill="#000"/>
  <polygon points="165,173.0 162,170.0 162,176.0" fill="#000"/>
  <text x="140.0" y="186.0" text-anchor="middle" font-size="10" fill="#000">5'</text>
</g>
<g class="dimension">
  <line x1="220.0" y1="188.0" x2="220.0" y2="98.0" stroke="#000" stroke-width="0.5"/>
  <line x1="250.0" y1="188.0" x2="220.0" y2="188.0" stroke="#000" stroke-width="0.3" stroke-dasharray="2,2"/>
  <line x1="250.0" y1="98.0" x2="220.0" y2="98.0" stroke="#000" stroke-width="0.3" stroke-dasharray="2,2"/>
  <polygon points="220.0,188.0 217.0,191.0 223.0,191.0" fill="#000"/>
  <polygon points="220.0,98.0 217.0,95.0 223.0,95.0" fill="#000"/>
  <text x="207.0" y="143.0" text-anchor="middle" font-size="10" fill="#000" transform="rotate(-90 207.0 143.0)">9'</text>
</g>
<g class="dimension">
  <line x1="14.0" y1="286.0" x2="14.0" y2="256.0" stroke="#000" stroke-width="0.5"/>
  <line x1="44.0" y1="286.0" x2="14.0" y2="286.0" stroke="#000" stroke-width="0.3" stroke-dasharray="2,2"/>
  <line x1="44.0" y1="256.0" x2="14.0" y2="256.0" stroke="#000" stroke-width="0.3" stroke-dasharray="2,2"/>
  <polygon points="14.0,286.0 11.0,289.0 17.0,289.0" fill="#000"/>
  <polygon points="14.0,256.0 11.0,253.0 17.0,253.0" fill="#000"/>
  <text x="1.0" y="271.0" text-anchor="middle" font-size="10" fill="#000" transform="rotate(-90 1.0 271.0)">3'</text>
</g>
<g class="dimension">
  <line x1="109" y1="286.0" x2="109" y2="256.0" stroke="#000" stroke-width="0.5"/>
  <line x1="117" y1="286.0" x2="109" y2="286.0" stroke="#000" stroke-width="0.3" stroke-dasharray="2,2"/>
  <line x1="117" y1="256.0" x2="109" y2="256.0" stroke="#000" stroke-width="0.3" stroke-dasharray="2,2"/>
  <polygon points="109,286.0 106,289.0 112,289.0" fill="#000"/>
  <polygon points="109,256.0 106,253.0 112,253.0" fill="#000"/>
  <text x="96" y="271.0" text-anchor="middle" font-size="10" fill="#000" transform="rotate(-90 96 271.0)">3'</text>
</g>
<g class="dimension">
  <line x1="216" y1="286.0" x2="216" y2="256.0" stroke="#000" stroke-width="0.5"/>
  <line x1="224" y1="286.0" x2="216" y2="286.0" stroke="#000" stroke-width="0.3" stroke-dasharray="2,2"/>
  <line x1="224" y1="256.0" x2="216" y2="256.0" stroke="#000" stroke-width="0.3" stroke-dasharray="2,2"/>
  <polygon points="216,286.0 213,289.0 219,289.0" fill="#000"/>
  <polygon points="216,256.0 213,253.0 219,253.0" fill="#000"/>
  <text x="203" y="271.0" text-anchor="middle" font-size="10" fill="#000" transform="rotate(-90 203 271.0)">3'</text>
</g>
<g class="dimension">
  <line x1="378" y1="286.0" x2="378" y2="251.0" stroke="#000" stroke-width="0.5"/>
  <line x1="386" y1="286.0" x2="378" y2="286.0" stroke="#000" stroke-width="0.3" stroke-dasharray="2,2"/>
  <line x1="386" y1="251.0" x2="378" y2="251.0" stroke="#000" stroke-width="0.3" stroke-dasharray="2,2"/>
  <polygon points="378,286.0 375,289.0 381,289.0" fill="#000"/>
  <polygon points="378,251.0 375,248.0 381,248.0" fill="#000"/>
  <text x="365" y="268.5" text-anchor="middle" font-size="10" fill="#000" transform="rotate(-90 365 268.5)">3' 6"</text>
</g>
<g class="dimension">
  <line x1="107" y1="188.0" x2="107" y2="158.0" stroke="#000" stroke-width="0.5"/>
  <line x1="115" y1="188.0" x2="107" y2="188.0" stroke="#000" stroke-width="0.3" stroke-dasharray="2,2"/>
  <line x1="115" y1="158.0" x2="107" y2="158.0" stroke="#000" stroke-width="0.3" stroke-dasharray="2,2"/>
  <polygon points="107,188.0 104,191.0 110,191.0" fill="#000"/>
  <polygon points="107,158.0 104,155.0 110,155.0" fill="#000"/>
  <text x="94" y="173.0" text-anchor="middle" font-size="10" fill="#000" transform="rotate(-90 94 173.0)">3'</text>
</g>
</g>
<text x="600.0" y="40.0" text-anchor="middle" font-size="18" font-weight="bold" fill="#333">Left Elevation</text>
</svg>