<?xml version="1.0" encoding="UTF-8"?>
<svg xmlns="http://www.w3.org/2000/svg" width="840.0" height="988.0" viewBox="0 0 840.0 988.0">
<title>Front Elevation</title>
<defs>
    <style>
        text { font-family: Arial, sans-serif; }
    </style>
</defs>
<g transform="translate(150, 210) scale(2.0, 2.0)">

<line x1="0" y1="314.0" x2="270" y2="314.0" stroke="#666" stroke-width="2" stroke-dasharray="5,5"/>
<rect x="0" y="284.0" width="270" height="30.0" fill="#A0826D" stroke="#000" stroke-width="1"/>
<rect x="0" y="176.0" width="270" height="100.0" fill="#C19A6B" stroke="#000" stroke-width="0.5"/>
<rect x="96.5" y="211.0" width="75" height="65.0" fill="#D2691E" stroke="#000" stroke-width="0.5"/>
<rect x="186" y="211.0" width="60" height="40.0" fill="#87CEEB" stroke="#000" stroke-width="0.5"/>
<rect x="22.5" y="211.0" width="60" height="40.0" fill="#87CEEB" stroke="#000" stroke-width="0.5"/>
<rect x="0" y="78.0" width="270" height="90.0" fill="#C19A6B" stroke="#000" stroke-width="0.5"/>
<rect x="186" y="103.0" width="60" height="60.0" fill="#87CEEB" stroke="#000" stroke-width="0.5"/>
<rect x="101.5" y="103.0" width="65" height="60.0" fill="#87CEEB" stroke="#000" stroke-width="0.5"/>
<rect x="22.5" y="103.0" width="60" height="60.0" fill="#87CEEB" stroke="#000" stroke-width="0.5"/>
<rect x="8" y="168.0" width="254" height="8.0" fill="#654321" stroke="#000" stroke-width="0.5"/>
<rect x="171.5" y="76.0" width="10" height="200.0" fill="#000" stroke="#000" stroke-width="0.5"/>
<rect x="86.5" y="76.0" width="10" height="200.0" fill="#000" stroke="#000" stroke-width="0.5"/>
<rect x="0" y="70.0" width="270" height="8.0" fill="#654321" stroke="#000" stroke-width="0.5"/>
<rect x="262.0" y="76.0" width="8" height="200.0" fill="#000" stroke="#000" stroke-width="0.5"/>
<rect x="0.0" y="76.0" width="8" height="200.0" fill="#000" stroke="#000" stroke-width="0.5"/>
<rect x="0" y="168.0" width="8" height="8.0" fill="#654321" stroke="#000" stroke-width="0.5"/>
<rect x="0" y="176.0" width="94" height="100.0" fill="#C19A6B" stroke="#000" stroke-width="0.5"/>
<rect x="0" y="78.0" width="94" height="90.0" fill="#C19A6B" stroke="#000" stroke-width="0.5"/>
<rect x="53.5" y="103.0" width="30" height="65.0" fill="#D2691E" stroke="#000" stroke-width="0.5"/>
<rect x="94" y="176.0" width="40" height="100.0" fill="#C19A6B" stroke="#000" stroke-width="0.5"/>
<rect x="222.0" y="76.0" width="8" height="200.0" fill="#000" stroke="#000" stroke-width="0.5"/>
<rect x="83.75" y="76.0" width="12.5" height="200.0" fill="#000" stroke="#000" stroke-width="0.5"/>
<rect x="0" y="70.0" width="270" height="8.0" fill="#654321" stroke="#000" stroke-width="0.5"/>
<rect x="262.0" y="76.0" width="8" height="200.0" fill="#000" stroke="#000" stroke-width="0.5"/>
<rect x="0.0" y="76.0" width="8" height="200.0" fill="#000" stroke="#000" stroke-width="0.5"/>
<rect x="8" y="78.0" width="78" height="90.0" fill="#C19A6B" stroke="#000" stroke-width="0.5"/>
<rect x="0" y="168.0" width="230" height="8.0" fill="#808080" stroke="#000" stroke-width="0.5"/>
<rect x="262" y="168.0" width="8" height="8.0" fill="#654321" stroke="#000" stroke-width="0.5"/>
<g class="staircase-elevation">
<line x1="232.0" y1="276.0" x2="232.0" y2="271.0" stroke="#000" stroke-width="0.5"/>
<line x1="232.0" y1="271.0" x2="233.5" y2="271.0" stroke="#000" stroke-width="0.5"/>
<rect x="232.0" y="271.0" width="1.5" height="5.0" fill="#C19A6B" opacity="0.7"/>
<line x1="233.5" y1="271.0" x2="233.5" y2="266.0" stroke="#000" stroke-width="0.5"/>
<line x1="233.5" y1="266.0" x2="235.0" y2="266.0" stroke="#000" stroke-width="0.5"/>
<rect x="233.5" y="266.0" width="1.5" height="5.0" fill="#C19A6B" opacity="0.7"/>
<line x1="235.0" y1="266.0" x2="235.0" y2="261.0" stroke="#000" stroke-width="0.5"/>
<line x1="235.0" y1="261.0" x2="236.5" y2="261.0" stroke="#000" stroke-width="0.5"/>
<rect x="235.0" y="261.0" width="1.5" height="5.0" fill="#C19A6B" opacity="0.7"/>
<line x1="236.5" y1="261.0" x2="236.5" y2="256.0" stroke="#000" stroke-width="0.5"/>
<line x1="236.5" y1="256.0" x2="238.0" y2="256.0" stroke="#000" stroke-width="0.5"/>
<rect x="236.5" y="256.0" width="1.5" height="5.0" fill="#C19A6B" opacity="0.7"/>
<line x1="238.0" y1="256.0" x2="238.0" y2="251.0" stroke="#000" stroke-width="0.5"/>
<line x1="238.0" y1="251.0" x2="239.5" y2="251.0" stroke="#000" stroke-width="0.5"/>
<rect x="238.0" y="251.0" width="1.5" height="5.0" fill="#C19A6B" opacity="0.7"/>
<line x1="239.5" y1="251.0" x2="239.5" y2="246.0" stroke="#000" stroke-width="0.5"/>
<line x1="239.5" y1="246.0" x2="241.0" y2="246.0" stroke="#000" stroke-width="0.5"/>
<rect x="239.5" y="246.0" width="1.5" height="5.0" fill="#C19A6B" opacity="0.7"/>
<line x1="241.0" y1="246.0" x2="241.0" y2="241.0" stroke="#000" stroke-width="0.5"/>
<line x1="241.0" y1="241.0" x2="242.5" y2="241.0" stroke="#000" stroke-width="0.5"/>
<rect x="241.0" y="241.0" width="1.5" height="5.0" fill="#C19A6B" opacity="0.7"/>
<line x1="242.5" y1="241.0" x2="242.5" y2="236.0" stroke="#000" stroke-width="0.5"/>
<line x1="242.5" y1="236.0" x2="244.0" y2="236.0" stroke="#000" stroke-width="0.5"/>
<rect x="242.5" y="236.0" width="1.5" height="5.0" fill="#C19A6B" opacity="0.7"/>
<line x1="244.0" y1="236.0" x2="244.0" y2="231.0" stroke="#000" stroke-width="0.5"/>
<line x1="244.0" y1="231.0" x2="245.5" y2="231.0" stroke="#000" stroke-width="0.5"/>
<rect x="244.0" y="231.0" width="1.5" height="5.0" fill="#C19A6B" opacity="0.7"/>
<line x1="245.5" y1="231.0" x2="245.5" y2="226.0" stroke="#000" stroke-width="0.5"/>
<line x1="245.5" y1="226.0" x2="247.0" y2="226.0" stroke="#000" stroke-width="0.5"/>
<rect x="245.5" y="226.0" width="1.5" height="5.0" fill="#C19A6B" opacity="0.7"/>
<line x1="247.0" y1="226.0" x2="247.0" y2="221.0" stroke="#000" stroke-width="0.5"/>
<line x1="247.0" y1="221.0" x2="248.5" y2="221.0" stroke="#000" stroke-width="0.5"/>
<rect x="247.0" y="221.0" width="1.5" height="5.0" fill="#C19A6B" opacity="0.7"/>
<line x1="248.5" y1="221.0" x2="248.5" y2="216.0" stroke="#000" stroke-width="0.5"/>
<line x1="248.5" y1="216.0" x2="250.0" y2="216.0" stroke="#000" stroke-width="0.5"/>
<rect x="248.5" y="216.0" width="1.5" height="5.0" fill="#C19A6B" opacity="0.7"/>
<line x1="250.0" y1="216.0" x2="250.0" y2="211.0" stroke="#000" stroke-width="0.5"/>
<line x1="250.0" y1="211.0" x2="251.5" y2="211.0" stroke="#000" stroke-width="0.5"/>
<rect x="250.0" y="211.0" width="1.5" height="5.0" fill="#C19A6B" opacity="0.7"/>
<line x1="251.5" y1="211.0" x2="251.5" y2="206.0" stroke="#000" stroke-width="0.5"/>
<line x1="251.5" y1="206.0" x2="253.0" y2="206.0" stroke="#000" stroke-width="0.5"/>
<rect x="251.5" y="206.0" width="1.5" height="5.0" fill="#C19A6B" opacity="0.7"/>
<line x1="253.0" y1="206.0" x2="253.0" y2="201.0" stroke="#000" stroke-width="0.5"/>
<line x1="253.0" y1="201.0" x2="254.5" y2="201.0" stroke="#000" stroke-width="0.5"/>
<rect x="253.0" y="201.0" width="1.5" height="5.0" fill="#C19A6B" opacity="0.7"/>
<line x1="254.5" y1="201.0" x2="254.5" y2="196.0" stroke="#000" stroke-width="0.5"/>
<line x1="254.5" y1="196.0" x2="256.0" y2="196.0" stroke="#000" stroke-width="0.5"/>
<rect x="254.5" y="196.0" width="1.5" height="5.0" fill="#C19A6B" opacity="0.7"/>
<line x1="256.0" y1="196.0" x2="256.0" y2="191.0" stroke="#000" stroke-width="0.5"/>
<line x1="256.0" y1="191.0" x2="257.5" y2="191.0" stroke="#000" stroke-width="0.5"/>
<rect x="256.0" y="191.0" width="1.5" height="5.0" fill="#C19A6B" opacity="0.7"/>
<line x1="257.5" y1="191.0" x2="257.5" y2="186.0" stroke="#000" stroke-width="0.5"/>
<line x1="257.5" y1="186.0" x2="259.0" y2="186.0" stroke="#000" stroke-width="0.5"/>
<rect x="257.5" y="186.0" width="1.5" height="5.0" fill="#C19A6B" opacity="0.7"/>
<line x1="259.0" y1="186.0" x2="259.0" y2="181.0" stroke="#000" stroke-width="0.5"/>
<line x1="259.0" y1="181.0" x2="260.5" y2="181.0" stroke="#000" stroke-width="0.5"/>
<rect x="259.0" y="181.0" width="1.5" height="5.0" fill="#C19A6B" opacity="0.7"/>
<line x1="260.5" y1="181.0" x2="260.5" y2="176.0" stroke="#000" stroke-width="0.5"/>
<line x1="260.5" y1="176.0" x2="262.0" y2="176.0" stroke="#000" stroke-width="0.5"/>
<rect x="260.5" y="176.0" width="1.5" height="5.0" fill="#C19A6B" opacity="0.7"/>
<line x1="262.0" y1="176.0" x2="262.0" y2="276.0" stroke="#000" stroke-width="0.5"/>
<line x1="232" y1="276.0" x2="262.0" y2="276.0" stroke="#000" stroke-width="0.5"/>
</g>
<rect x="146" y="176.0" width="124" height="100.0" fill="#C19A6B" stroke="#000" stroke-width="0.5"/>
<rect x="156.5" y="211.0" width="30" height="65.0" fill="#D2691E" stroke="#000" stroke-width="0.5"/>
<rect x="0" y="176.0" width="154" height="100.0" fill="#C19A6B" stroke="#000" stroke-width="0.5"/>
<rect x="113.5" y="211.0" width="30" height="65.0" fill="#D2691E" stroke="#000" stroke-width="0.5"/>
<rect x="146" y="78.0" width="124" height="90.0" fill="#C19A6B" stroke="#000" stroke-width="0.5"/>
<rect x="156.5" y="103.0" width="30" height="65.0" fill="#D2691E" stroke="#000" stroke-width="0.5"/>
<rect x="0" y="78.0" width="154" height="90.0" fill="#C19A6B" stroke="#000" stroke-width="0.5"/>
<rect x="113.5" y="103.0" width="30" height="65.0" fill="#D2691E" stroke="#000" stroke-width="0.5"/>
<rect x="0" y="70.0" width="270" height="8.0" fill="#654321" stroke="#000" stroke-width="0.5"/>
<rect x="257.55" y="76.0" width="12.5" height="200.0" fill="#000" stroke="#000" stroke-width="0.5"/>
<rect x="-0.05000000000001137" y="76.0" width="12.5" height="200.0" fill="#000" stroke="#000" stroke-width="0.5"/>
<rect x="146.0" y="76.0" width="8" height="200.0" fill="#000" stroke="#000" stroke-width="0.5"/>
<rect x="0" y="70.0" width="270" height="8.0" fill="#654321" stroke="#000" stroke-width="0.5"/>
<rect x="146" y="176.0" width="124" height="100.0" fill="#C19A6B" stroke="#000" stroke-width="0.5"/>
<rect x="185" y="211.0" width="50" height="40.0" fill="#87CEEB" stroke="#000" stroke-width="0.5"/>
<rect x="0" y="176.0" width="154" height="100.0" fill="#C19A6B" stroke="#000" stroke-width="0.5"/>
<rect x="116" y="211.0" width="30" height="65.0" fill="#D2691E" stroke="#000" stroke-width="0.5"/>
<rect x="33" y="211.0" width="50" height="40.0" fill="#87CEEB" stroke="#000" stroke-width="0.5"/>
<rect x="146" y="78.0" width="124" height="90.0" fill="#C19A6B" stroke="#000" stroke-width="0.5"/>
<rect x="156.5" y="103.0" width="30" height="65.0" fill="#D2691E" stroke="#000" stroke-width="0.5"/>
<rect x="215" y="103.0" width="30" height="40.0" fill="#87CEEB" stroke="#000" stroke-width="0.5"/>
<rect x="0" y="78.0" width="154" height="90.0" fill="#C19A6B" stroke="#000" stroke-width="0.5"/>
<rect x="116" y="103.0" width="30" height="65.0" fill="#D2691E" stroke="#000" stroke-width="0.5"/>
<rect x="33" y="103.0" width="50" height="40.0" fill="#87CEEB" stroke="#000" stroke-width="0.5"/>
<rect x="262.0" y="76.0" width="8" height="200.0" fill="#000" stroke="#000" stroke-width="0.5"/>
<rect x="146.0" y="76.0" width="8" height="200.0" fill="#000" stroke="#000" stroke-width="0.5"/>
<rect x="0.0" y="76.0" width="8" height="200.0" fill="#000" stroke="#000" stroke-width="0.5"/>
<rect x="0" y="70.0" width="270" height="8.0" fill="#654321" stroke="#000" stroke-width="0.5"/>
<rect x="262" y="70.0" width="8" height="8.0" fill="#654321" stroke="#000" stroke-width="0.5"/>
<rect x="0" y="70.0" width="8" height="8.0" fill="#654321" stroke="#000" stroke-width="0.5"/>
<rect x="0" y="276.0" width="270" height="8.0" fill="#808080" stroke="#000" stroke-width="0.5"/>
<rect x="0" y="168.0" width="270" height="8.0" fill="#808080" stroke="#000" stroke-width="0.5"/>
<rect x="0" y="246.0" width="270" height="30.0" fill="#C19A6B" stroke="#000" stroke-width="0.5"/>
<rect x="110" y="206.0" width="50" height="70.0" fill="#D2691E" stroke="#000" stroke-width="0.5"/>
<rect x="0" y="138.0" width="270" height="30.0" fill="#C19A6B" stroke="#000" stroke-width="0.5"/>
<rect x="260.0" y="76.0" width="10" height="200.0" fill="#000" stroke="#000" stroke-width="0.5"/>
<rect x="160.0" y="76.0" width="10" height="200.0" fill="#000" stroke="#000" stroke-width="0.5"/>
<rect x="100.0" y="76.0" width="10" height="200.0" fill="#000" stroke="#000" stroke-width="0.5"/>
<rect x="0.0" y="76.0" width="10" height="200.0" fill="#000" stroke="#000" stroke-width="0.5"/>
<line x1="309.1417802261525" y1="90.29573789504204" x2="135.0" y2="-3.0" stroke="#8B4513" stroke-width="3"/>
<line x1="135.0" y1="-3.0" x2="-39.14178022615249" y2="90.29573789504204" stroke="#8B4513" stroke-width="3"/>
<g class="dimension">
  <line x1="300" y1="276.0" x2="300" y2="176.0" stroke="#000" stroke-width="0.5"/>
  <line x1="270" y1="276.0" x2="300" y2="276.0" stroke="#000" stroke-width="0.3" stroke-dasharray="2,2"/>
  <line x1="270" y1="176.0" x2="300" y2="176.0" stroke="#000" stroke-width="0.3" stroke-dasharray="2,2"/>
  <polygon points="300,276.0 297,279.0 303,279.0" fill="#000"/>
  <polygon points="300,176.0 297,173.0 303,173.0" fill="#000"/>
  <text x="313" y="226.0" text-anchor="middle" font-size="10" fill="#000" transform="rotate(-90 313 226.0)">10'</text>
</g>
<g class="dimension">
  <line x1="300" y1="168.0" x2="300" y2="78.0" stroke="#000" stroke-width="0.5"/>
  <line x1="270" y1="168.0" x2="300" y2="168.0" stroke="#000" stroke-width="0.3" stroke-dasharray="2,2"/>
  <line x1="270" y1="78.0" x2="300" y2="78.0" stroke="#000" stroke-width="0.3" stroke-dasharray="2,2"/>
  <polygon points="300,168.0 297,171.0 303,171.0" fill="#000"/>
  <polygon points="300,78.0 297,75.0 303,75.0" fill="#000"/>
  <text x="313" y="123.0" text-anchor="middle" font-size="10" fill="#000" transform="rotate(-90 313 123.0)">9'</text>
</g>
<g class="dimension">
  <line x1="300" y1="70.0" x2="300" y2="0.0" stroke="#000" stroke-width="0.5"/>
  <line x1="270" y1="70.0" x2="300" y2="70.0" stroke="#000" stroke-width="0.3" stroke-dasharray="2,2"/>
  <line x1="270" y1="0.0" x2="300" y2="0.0" stroke="#000" stroke-width="0.3" stroke-dasharray="2,2"/>
  <polygon points="300,70.0 297,73.0 303,73.0" fill="#000"/>
  <polygon points="300,0.0 297,-3.0 303,-3.0" fill="#000"/>
  <text x="313" y="35.0" text-anchor="middle" font-size="10" fill="#000" transform="rotate(-90 313 35.0)">7'</text>
</g>
<g class="dimension">
  <line x1="0" y1="-30.0" x2="270" y2="-30.0" stroke="#000" stroke-width="0.5"/>
  <line x1="0" y1="0.0" x2="0" y2="-30.0" stroke="#000" stroke-width="0.3" stroke-dasharray="2,2"/>
  <line x1="270" y1="0.0" x2="270" y2="-30.0" stroke="#000" stroke-width="0.3" stroke-dasharray="2,2"/>
  <polygon points="0,-30.0 3,-33.0 3,-27.0" fill="#000"/>
  <polygon points="270,-30.0 267,-33.0 267,-27.0" fill="#000"/>
  <text x="135.0" y="-35.0" text-anchor="middle" font-size="10" fill="#000">27'</text>
</g>
<g class="dimension">
  <line x1="160" y1="291.0" x2="270" y2="291.0" stroke="#000" stroke-width="0.5"/>
  <line x1="160" y1="276.0" x2="160" y2="291.0" stroke="#000" stroke-width="0.3" stroke-dasharray="2,2"/>
  <line x1="270" y1="276.0" x2="270" y2="291.0" stroke="#000" stroke-width="0.3" stroke-dasharray="2,2"/>
  <polygon points="160,291.0 163,288.0 163,294.0" fill="#000"/>
  <polygon points="270,291.0 267,288.0 267,294.0" fill="#000"/>
  <text x="215.0" y="304.0" text-anchor="middle" font-size="10" fill="#000">11'</text>
</g>
<g class="dimension">
  <line x1="110" y1="291.0" x2="160" y2="291.0" stroke="#000" stroke-width="0.5"/>
  <line x1="110" y1="276.0" x2="110" y2="291.0" stroke="#000" stroke-width="0.3" stroke-dasharray="2,2"/>
  <line x1="160" y1="276.0" x2="160" y2="291.0" stroke="#000" stroke-width="0.3" stroke-dasharray="2,2"/>
  <polygon points="110,291.0 113,288.0 113,294.0" fill="#000"/>
  <polygon points="160,291.0 157,288.0 157,294.0" fill="#000"/>
  <text x="135.0" y="304.0" text-anchor="middle" font-size="10" fill="#000">5'</text>
</g>
<g class="dimension">
  <line x1="105.0" y1="276.0" x2="105.0" y2="246.0" stroke="#000" stroke-width="0.5"/>
  <line x1="135.0" y1="276.0" x2="105.0" y2="276.0" stroke="#000" stroke-width="0.3" stroke-dasharray="2,2"/>
  <line x1="135.0" y1="246.0" x2="105.0" y2="246.0" stroke="#000" stroke-width="0.3" stroke-dasharray="2,2"/>
  <polygon points="105.0,276.0 102.0,279.0 108.0,279.0" fill="#000"/>
  <polygon points="105.0,246.0 102.0,243.0 108.0,243.0" fill="#000"/>
  <text x="92.0" y="261.0" text-anchor="middle" font-size="10" fill="#000" transform="rotate(-90 92.0 261.0)">3'</text>
</g>
</g>
<text x="420.0" y="40.0" text-anchor="middle" font-size="18" font-weight="bold" fill="#333">Front Elevation</text>
</svg>