<?xml version="1.0" encoding="UTF-8"?>
<svg xmlns="http://www.w3.org/2000/svg" width="1200.0" height="904.0" viewBox="0 0 1200.0 904.0">
<title>Left Elevation</title>
<defs>
    <style>
        text { font-family: Arial, sans-serif; }
    </style>
</defs>
<g transform="translate(150, 210) scale(2.0, 2.0)">

<line x1="0" y1="272.0" x2="450" y2="272.0" stroke="#666" stroke-width="2" stroke-dasharray="5,5"/>
<rect x="0" y="242.0" width="450" height="30.0" fill="#A0826D" stroke="#000" stroke-width="1"/>
<rect x="300" y="36.0" width="150" height="90.0" fill="#C19A6B" stroke="#000" stroke-width="0.5"/>
<rect x="310" y="61.0" width="50" height="60.0" fill="#87CEEB" stroke="#000" stroke-width="0.5"/>
<rect x="375" y="61.0" width="50" height="60.0" fill="#87CEEB" stroke="#000" stroke-width="0.5"/>
<rect x="330" y="126.0" width="120" height="8.0" fill="#654321" stroke="#000" stroke-width="0.5"/>
<rect x="0" y="18.0" width="450" height="8.0" fill="#654321" stroke="#000" stroke-width="0.5"/>
<rect x="0" y="204.0" width="88" height="30.0" fill="#C19A6B" stroke="#000" stroke-width="0.5"/>
<rect x="196" y="134.0" width="254" height="100.0" fill="#C19A6B" stroke="#000" stroke-width="0.5"/>
<rect x="214" y="169.0" width="20" height="20.0" fill="#87CEEB" stroke="#000" stroke-width="0.5"/>
<rect x="254" y="169.0" width="20" height="20.0" fill="#87CEEB" stroke="#000" stroke-width="0.5"/>
<rect x="310" y="169.0" width="60" height="30.0" fill="#87CEEB" stroke="#000" stroke-width="0.5"/>
<rect x="80" y="134.0" width="124" height="100.0" fill="#C19A6B" stroke="#000" stroke-width="0.5"/>
<rect x="115" y="169.0" width="50" height="40.0" fill="#87CEEB" stroke="#000" stroke-width="0.5"/>
<rect x="0" y="96.0" width="88" height="30.0" fill="#C19A6B" stroke="#000" stroke-width="0.5"/>
<rect x="80" y="36.0" width="124" height="90.0" fill="#C19A6B" stroke="#000" stroke-width="0.5"/>
<rect x="115" y="61.0" width="50" height="40.0" fill="#87CEEB" stroke="#000" stroke-width="0.5"/>
<rect x="196" y="36.0" width="104" height="90.0" fill="#C19A6B" stroke="#000" stroke-width="0.5"/>
<rect x="214" y="61.0" width="20" height="20.0" fill="#87CEEB" stroke="#000" stroke-width="0.5"/>
<rect x="262" y="61.0" width="20" height="20.0" fill="#87CEEB" stroke="#000" stroke-width="0.5"/>
<rect x="79.975" y="34.0" width="12.5" height="200.0" fill="#000" stroke="#000" stroke-width="0.5"/>
<rect x="289.75" y="34.0" width="12.5" height="200.0" fill="#000" stroke="#000" stroke-width="0.5"/>
<rect x="437.25" y="34.0" width="12.5" height="200.0" fill="#000" stroke="#000" stroke-width="0.5"/>
<rect x="0.0" y="34.0" width="8" height="200.0" fill="#000" stroke="#000" stroke-width="0.5"/>
<rect x="196.0" y="34.0" width="8" height="200.0" fill="#000" stroke="#000" stroke-width="0.5"/>
<rect x="196" y="134.0" width="104" height="100.0" fill="#C19A6B" stroke="#000" stroke-width="0.5"/>
<rect x="228" y="169.0" width="30" height="65.0" fill="#D2691E" stroke="#000" stroke-width="0.5"/>
<rect x="196" y="36.0" width="104" height="90.0" fill="#C19A6B" stroke="#000" stroke-width="0.5"/>
<rect x="209" y="61.0" width="30" height="65.0" fill="#D2691E" stroke="#000" stroke-width="0.5"/>
<rect x="257" y="61.0" width="30" height="65.0" fill="#D2691E" stroke="#000" stroke-width="0.5"/>
<rect x="292.0" y="34.0" width="8" height="200.0" fill="#000" stroke="#000" stroke-width="0.5"/>
<rect x="442.0" y="34.0" width="8" height="200.0" fill="#000" stroke="#000" stroke-width="0.5"/>
<rect x="0.0" y="34.0" width="8" height="200.0" fill="#000" stroke="#000" stroke-width="0.5"/>
<rect x="80" y="134.0" width="124" height="100.0" fill="#C19A6B" stroke="#000" stroke-width="0.5"/>
<rect x="80" y="36.0" width="124" height="90.0" fill="#C19A6B" stroke="#000" stroke-width="0.5"/>
<rect x="79.975" y="34.0" width="12.5" height="200.0" fill="#000" stroke="#000" stroke-width="0.5"/>
<rect x="191.25" y="34.0" width="12.5" height="200.0" fill="#000" stroke="#000" stroke-width="0.5"/>
<rect x="0.0" y="34.0" width="8" height="200.0" fill="#000" stroke="#000" stroke-width="0.5"/>
<rect x="442.0" y="34.0" width="8" height="200.0" fill="#000" stroke="#000" stroke-width="0.5"/>
<rect x="234" y="126.0" width="100" height="8.0" fill="#808080" stroke="#000" stroke-width="0.5"/>
<rect x="292.0" y="34.0" width="8" height="200.0" fill="#000" stroke="#000" stroke-width="0.5"/>
<rect x="442" y="126.0" width="8" height="8.0" fill="#654321" stroke="#000" stroke-width="0.5"/>
<g class="staircase-elevation">
<line x1="230.0" y1="234.0" x2="230.0" y2="229.0" stroke="#000" stroke-width="0.5"/>
<line x1="230.0" y1="229.0" x2="240.0" y2="229.0" stroke="#000" stroke-width="0.5"/>
<rect x="230.0" y="229.0" width="10.0" height="5.0" fill="#C19A6B" opacity="0.7"/>
<line x1="240.0" y1="229.0" x2="240.0" y2="224.0" stroke="#000" stroke-width="0.5"/>
<line x1="240.0" y1="224.0" x2="250.0" y2="224.0" stroke="#000" stroke-width="0.5"/>
<rect x="240.0" y="224.0" width="10.0" height="5.0" fill="#C19A6B" opacity="0.7"/>
<line x1="250.0" y1="224.0" x2="250.0" y2="219.0" stroke="#000" stroke-width="0.5"/>
<line x1="250.0" y1="219.0" x2="260.0" y2="219.0" stroke="#000" stroke-width="0.5"/>
<rect x="250.0" y="219.0" width="10.0" height="5.0" fill="#C19A6B" opacity="0.7"/>
<line x1="260.0" y1="219.0" x2="260.0" y2="214.0" stroke="#000" stroke-width="0.5"/>
<line x1="260.0" y1="214.0" x2="270.0" y2="214.0" stroke="#000" stroke-width="0.5"/>
<rect x="260.0" y="214.0" width="10.0" height="5.0" fill="#C19A6B" opacity="0.7"/>
<line x1="270.0" y1="214.0" x2="270.0" y2="209.0" stroke="#000" stroke-width="0.5"/>
<line x1="270.0" y1="209.0" x2="280.0" y2="209.0" stroke="#000" stroke-width="0.5"/>
<rect x="270.0" y="209.0" width="10.0" height="5.0" fill="#C19A6B" opacity="0.7"/>
<line x1="280.0" y1="209.0" x2="280.0" y2="204.0" stroke="#000" stroke-width="0.5"/>
<line x1="280.0" y1="204.0" x2="290.0" y2="204.0" stroke="#000" stroke-width="0.5"/>
<rect x="280.0" y="204.0" width="10.0" height="5.0" fill="#C19A6B" opacity="0.7"/>
<line x1="290.0" y1="204.0" x2="290.0" y2="199.0" stroke="#000" stroke-width="0.5"/>
<line x1="290.0" y1="199.0" x2="300.0" y2="199.0" stroke="#000" stroke-width="0.5"/>
<rect x="290.0" y="199.0" width="10.0" height="5.0" fill="#C19A6B" opacity="0.7"/>
<line x1="300.0" y1="199.0" x2="300.0" y2="194.0" stroke="#000" stroke-width="0.5"/>
<line x1="300.0" y1="194.0" x2="310.0" y2="194.0" stroke="#000" stroke-width="0.5"/>
<rect x="300.0" y="194.0" width="10.0" height="5.0" fill="#C19A6B" opacity="0.7"/>
<line x1="310.0" y1="194.0" x2="310.0" y2="189.0" stroke="#000" stroke-width="0.5"/>
<line x1="310.0" y1="189.0" x2="320.0" y2="189.0" stroke="#000" stroke-width="0.5"/>
<rect x="310.0" y="189.0" width="10.0" height="5.0" fill="#C19A6B" opacity="0.7"/>
<line x1="320.0" y1="189.0" x2="320.0" y2="184.0" stroke="#000" stroke-width="0.5"/>
<line x1="320.0" y1="184.0" x2="330.0" y2="184.0" stroke="#000" stroke-width="0.5"/>
<rect x="320.0" y="184.0" width="10.0" height="5.0" fill="#C19A6B" opacity="0.7"/>
<line x1="330.0" y1="184.0" x2="330.0" y2="179.0" stroke="#000" stroke-width="0.5"/>
<line x1="330.0" y1="179.0" x2="340.0" y2="179.0" stroke="#000" stroke-width="0.5"/>
<rect x="330.0" y="179.0" width="10.0" height="5.0" fill="#C19A6B" opacity="0.7"/>
<line x1="340.0" y1="179.0" x2="340.0" y2="174.0" stroke="#000" stroke-width="0.5"/>
<line x1="340.0" y1="174.0" x2="350.0" y2="174.0" stroke="#000" stroke-width="0.5"/>
<rect x="340.0" y="174.0" width="10.0" height="5.0" fill="#C19A6B" opacity="0.7"/>
<line x1="350.0" y1="174.0" x2="350.0" y2="169.0" stroke="#000" stroke-width="0.5"/>
<line x1="350.0" y1="169.0" x2="360.0" y2="169.0" stroke="#000" stroke-width="0.5"/>
<rect x="350.0" y="169.0" width="10.0" height="5.0" fill="#C19A6B" opacity="0.7"/>
<line x1="360.0" y1="169.0" x2="360.0" y2="164.0" stroke="#000" stroke-width="0.5"/>
<line x1="360.0" y1="164.0" x2="370.0" y2="164.0" stroke="#000" stroke-width="0.5"/>
<rect x="360.0" y="164.0" width="10.0" height="5.0" fill="#C19A6B" opacity="0.7"/>
<line x1="370.0" y1="164.0" x2="370.0" y2="159.0" stroke="#000" stroke-width="0.5"/>
<line x1="370.0" y1="159.0" x2="380.0" y2="159.0" stroke="#000" stroke-width="0.5"/>
<rect x="370.0" y="159.0" width="10.0" height="5.0" fill="#C19A6B" opacity="0.7"/>
<line x1="380.0" y1="159.0" x2="380.0" y2="154.0" stroke="#000" stroke-width="0.5"/>
<line x1="380.0" y1="154.0" x2="390.0" y2="154.0" stroke="#000" stroke-width="0.5"/>
<rect x="380.0" y="154.0" width="10.0" height="5.0" fill="#C19A6B" opacity="0.7"/>
<line x1="390.0" y1="154.0" x2="390.0" y2="149.0" stroke="#000" stroke-width="0.5"/>
<line x1="390.0" y1="149.0" x2="400.0" y2="149.0" stroke="#000" stroke-width="0.5"/>
<rect x="390.0" y="149.0" width="10.0" height="5.0" fill="#C19A6B" opacity="0.7"/>
<line x1="400.0" y1="149.0" x2="400.0" y2="144.0" stroke="#000" stroke-width="0.5"/>
<line x1="400.0" y1="144.0" x2="410.0" y2="144.0" stroke="#000" stroke-width="0.5"/>
<rect x="400.0" y="144.0" width="10.0" height="5.0" fill="#C19A6B" opacity="0.7"/>
<line x1="410.0" y1="144.0" x2="410.0" y2="139.0" stroke="#000" stroke-width="0.5"/>
<line x1="410.0" y1="139.0" x2="420.0" y2="139.0" stroke="#000" stroke-width="0.5"/>
<rect x="410.0" y="139.0" width="10.0" height="5.0" fill="#C19A6B" opacity="0.7"/>
<line x1="420.0" y1="139.0" x2="420.0" y2="134.0" stroke="#000" stroke-width="0.5"/>
<line x1="420.0" y1="134.0" x2="430.0" y2="134.0" stroke="#000" stroke-width="0.5"/>
<rect x="420.0" y="134.0" width="10.0" height="5.0" fill="#C19A6B" opacity="0.7"/>
<line x1="430.0" y1="134.0" x2="430.0" y2="234.0" stroke="#000" stroke-width="0.5"/>
<line x1="230" y1="234.0" x2="430.0" y2="234.0" stroke="#000" stroke-width="0.5"/>
</g>
<rect x="200" y="36.0" width="100" height="90.0" fill="#C19A6B" stroke="#000" stroke-width="0.5"/>
<rect x="300" y="36.0" width="150" height="90.0" fill="#C19A6B" stroke="#000" stroke-width="0.5"/>
<rect x="310" y="61.0" width="50" height="60.0" fill="#87CEEB" stroke="#000" stroke-width="0.5"/>
<rect x="375" y="61.0" width="50" height="60.0" fill="#87CEEB" stroke="#000" stroke-width="0.5"/>
<rect x="230" y="126.0" width="220" height="8.0" fill="#654321" stroke="#000" stroke-width="0.5"/>
<rect x="0" y="18.0" width="8" height="8.0" fill="#654321" stroke="#000" stroke-width="0.5"/>
<rect x="80" y="18.0" width="12" height="8.0" fill="#654321" stroke="#000" stroke-width="0.5"/>
<rect x="196" y="18.0" width="8" height="8.0" fill="#654321" stroke="#000" stroke-width="0.5"/>
<rect x="290" y="18.0" width="12" height="8.0" fill="#654321" stroke="#000" stroke-width="0.5"/>
<rect x="438" y="18.0" width="12" height="8.0" fill="#654321" stroke="#000" stroke-width="0.5"/>
<rect x="0" y="18.0" width="450" height="8.0" fill="#654321" stroke="#000" stroke-width="0.5"/>
<rect x="0" y="234.0" width="450" height="8.0" fill="#808080" stroke="#000" stroke-width="0.5"/>
<rect x="0" y="126.0" width="234" height="8.0" fill="#808080" stroke="#000" stroke-width="0.5"/>
<rect x="0" y="204.0" width="88" height="30.0" fill="#C19A6B" stroke="#000" stroke-width="0.5"/>
<rect x="80" y="134.0" width="124" height="100.0" fill="#C19A6B" stroke="#000" stroke-width="0.5"/>
<rect x="117" y="169.0" width="50" height="40.0" fill="#87CEEB" stroke="#000" stroke-width="0.5"/>
<rect x="196" y="134.0" width="254" height="100.0" fill="#C19A6B" stroke="#000" stroke-width="0.5"/>
<rect x="224" y="169.0" width="40" height="40.0" fill="#87CEEB" stroke="#000" stroke-width="0.5"/>
<rect x="386" y="169.0" width="40" height="30.0" fill="#87CEEB" stroke="#000" stroke-width="0.5"/>
<rect x="0" y="96.0" width="88" height="30.0" fill="#C19A6B" stroke="#000" stroke-width="0.5"/>
<rect x="80" y="36.0" width="124" height="90.0" fill="#C19A6B" stroke="#000" stroke-width="0.5"/>
<rect x="115" y="61.0" width="50" height="40.0" fill="#87CEEB" stroke="#000" stroke-width="0.5"/>
<rect x="79.975" y="34.0" width="12.5" height="200.0" fill="#000" stroke="#000" stroke-width="0.5"/>
<rect x="289.75" y="34.0" width="12.5" height="200.0" fill="#000" stroke="#000" stroke-width="0.5"/>
<rect x="437.25" y="34.0" width="12.5" height="200.0" fill="#000" stroke="#000" stroke-width="0.5"/>
<rect x="0.0" y="34.0" width="8" height="200.0" fill="#000" stroke="#000" stroke-width="0.5"/>
<rect x="196.0" y="34.0" width="8" height="200.0" fill="#000" stroke="#000" stroke-width="0.5"/>
<line x1="-30" y1="36.0" x2="150.0" y2="-44.8058771133671" stroke="#8B4513" stroke-width="0.33"/>
<line x1="300.0" y1="-44.8058771133671" x2="480" y2="36.0" stroke="#8B4513" stroke-width="0.33"/>
<line x1="150.0" y1="-44.8058771133671" x2="300.0" y2="-44.8058771133671" stroke="#8B4513" stroke-width="0.33"/>
<g class="dimension">
  <line x1="480" y1="234.0" x2="480" y2="134.0" stroke="#000" stroke-width="0.5"/>
  <line x1="450" y1="234.0" x2="480" y2="234.0" stroke="#000" stroke-width="0.3" stroke-dasharray="2,2"/>
  <line x1="450" y1="134.0" x2="480" y2="134.0" stroke="#000" stroke-width="0.3" stroke-dasharray="2,2"/>
  <polygon points="480,234.0 477,237.0 483,237.0" fill="#000"/>
  <polygon points="480,134.0 477,131.0 483,131.0" fill="#000"/>
  <text x="493" y="184.0" text-anchor="middle" font-size="10" fill="#000" transform="rotate(-90 493 184.0)">10'</text>
</g>
<g class="dimension">
  <line x1="480" y1="126.0" x2="480" y2="26.0" stroke="#000" stroke-width="0.5"/>
  <line x1="450" y1="126.0" x2="480" y2="126.0" stroke="#000" stroke-width="0.3" stroke-dasharray="2,2"/>
  <line x1="450" y1="26.0" x2="480" y2="26.0" stroke="#000" stroke-width="0.3" stroke-dasharray="2,2"/>
  <polygon points="480,126.0 477,129.0 483,129.0" fill="#000"/>
  <polygon points="480,26.0 477,23.0 483,23.0" fill="#000"/>
  <text x="493" y="76.0" text-anchor="middle" font-size="10" fill="#000" transform="rotate(-90 493 76.0)">10'</text>
</g>
<g class="dimension">
  <line x1="480" y1="18.0" x2="480" y2="-24.0" stroke="#000" stroke-width="0.5"/>
  <line x1="450" y1="18.0" x2="480" y2="18.0" stroke="#000" stroke-width="0.3" stroke-dasharray="2,2"/>
  <line x1="450" y1="-24.0" x2="480" y2="-24.0" stroke="#000" stroke-width="0.3" stroke-dasharray="2,2"/>
  <polygon points="480,18.0 477,21.0 483,21.0" fill="#000"/>
  <polygon points="480,-24.0 477,-27.0 483,-27.0" fill="#000"/>
  <text x="493" y="-3.0" text-anchor="middle" font-size="10" fill="#000" transform="rotate(-90 493 -3.0)">4' 2"</text>
</g>
<g class="dimension">
  <line x1="0" y1="-30.0" x2="450" y2="-30.0" stroke="#000" stroke-width="0.5"/>
  <line x1="0" y1="0.0" x2="0" y2="-30.0" stroke="#000" stroke-width="0.3" stroke-dasharray="2,2"/>
  <line x1="450" y1="0.0" x2="450" y2="-30.0" stroke="#000" stroke-width="0.3" stroke-dasharray="2,2"/>
  <polygon points="0,-30.0 3,-33.0 3,-27.0" fill="#000"/>
  <polygon points="450,-30.0 447,-33.0 447,-27.0" fill="#000"/>
  <text x="225.0" y="-35.0" text-anchor="middle" font-size="10" fill="#000">45'</text>
</g>
<g class="dimension">
  <line x1="310" y1="136.0" x2="360" y2="136.0" stroke="#000" stroke-width="0.5"/>
  <line x1="310" y1="121.0" x2="310" y2="136.0" stroke="#000" stroke-width="0.3" stroke-dasharray="2,2"/>
  <line x1="360" y1="121.0" x2="360" y2="136.0" stroke="#000" stroke-width="0.3" stroke-dasharray="2,2"/>
  <polygon points="310,136.0 313,133.0 313,139.0" fill="#000"/>
  <polygon points="360,136.0 357,133.0 357,139.0" fill="#000"/>
  <text x="335.0" y="149.0" text-anchor="middle" font-size="10" fill="#000">5'</text>
</g>
<g class="dimension">
  <line x1="375" y1="136.0" x2="425" y2="136.0" stroke="#000" stroke-width="0.5"/>
  <line x1="375" y1="121.0" x2="375" y2="136.0" stroke="#000" stroke-width="0.3" stroke-dasharray="2,2"/>
  <line x1="425" y1="121.0" x2="425" y2="136.0" stroke="#000" stroke-width="0.3" stroke-dasharray="2,2"/>
  <polygon points="375,136.0 378,133.0 378,139.0" fill="#000"/>
  <polygon points="425,136.0 422,133.0 422,139.0" fill="#000"/>
  <text x="400.0" y="149.0" text-anchor="middle" font-size="10" fill="#000">5'</text>
</g>
<g class="dimension">
  <line x1="80" y1="224.0" x2="117" y2="224.0" stroke="#000" stroke-width="0.5"/>
  <line x1="80" y1="209.0" x2="80" y2="224.0" stroke="#000" stroke-width="0.3" stroke-dasharray="2,2"/>
  <line x1="117" y1="209.0" x2="117" y2="224.0" stroke="#000" stroke-width="0.3" stroke-dasharray="2,2"/>
  <polygon points="80,224.0 83,221.0 83,227.0" fill="#000"/>
  <polygon points="117,224.0 114,221.0 114,227.0" fill="#000"/>
  <text x="98.5" y="237.0" text-anchor="middle" font-size="10" fill="#000">3' 8"</text>
</g>
<g class="dimension">
  <line x1="117" y1="224.0" x2="167" y2="224.0" stroke="#000" stroke-width="0.5"/>
  <line x1="117" y1="209.0" x2="117" y2="224.0" stroke="#000" stroke-width="0.3" stroke-dasharray="2,2"/>
  <line x1="167" y1="209.0" x2="167" y2="224.0" stroke="#000" stroke-width="0.3" stroke-dasharray="2,2"/>
  <polygon points="117,224.0 120,221.0 120,227.0" fill="#000"/>
  <polygon points="167,224.0 164,221.0 164,227.0" fill="#000"/>
  <text x="142.0" y="237.0" text-anchor="middle" font-size="10" fill="#000">5'</text>
</g>
<g class="dimension">
  <line x1="196" y1="224.0" x2="224" y2="224.0" stroke="#000" stroke-width="0.5"/>
  <line x1="196" y1="209.0" x2="196" y2="224.0" stroke="#000" stroke-width="0.3" stroke-dasharray="2,2"/>
  <line x1="224" y1="209.0" x2="224" y2="224.0" stroke="#000" stroke-width="0.3" stroke-dasharray="2,2"/>
  <polygon points="196,224.0 199,221.0 199,227.0" fill="#000"/>
  <polygon points="224,224.0 221,221.0 221,227.0" fill="#000"/>
  <text x="210.0" y="237.0" text-anchor="middle" font-size="10" fill="#000">2' 10"</text>
</g>
<g class="dimension">
  <line x1="224" y1="224.0" x2="264" y2="224.0" stroke="#000" stroke-width="0.5"/>
  <line x1="224" y1="209.0" x2="224" y2="224.0" stroke="#000" stroke-width="0.3" stroke-dasharray="2,2"/>
  <line x1="264" y1="209.0" x2="264" y2="224.0" stroke="#000" stroke-width="0.3" stroke-dasharray="2,2"/>
  <polygon points="224,224.0 227,221.0 227,227.0" fill="#000"/>
  <polygon points="264,224.0 261,221.0 261,227.0" fill="#000"/>
  <text x="244.0" y="237.0" text-anchor="middle" font-size="10" fill="#000">4'</text>
</g>
<g class="dimension">
  <line x1="264" y1="224.0" x2="386" y2="224.0" stroke="#000" stroke-width="0.5"/>
  <line x1="264" y1="209.0" x2="264" y2="224.0" stroke="#000" stroke-width="0.3" stroke-dasharray="2,2"/>
  <line x1="386" y1="209.0" x2="386" y2="224.0" stroke="#000" stroke-width="0.3" stroke-dasharray="2,2"/>
  <polygon points="264,224.0 267,221.0 267,227.0" fill="#000"/>
  <polygon points="386,224.0 383,221.0 383,227.0" fill="#000"/>
  <text x="325.0" y="237.0" text-anchor="middle" font-size="10" fill="#000">12' 2"</text>
</g>
<g class="dimension">
  <line x1="386" y1="224.0" x2="426" y2="224.0" stroke="#000" stroke-width="0.5"/>
  <line x1="386" y1="209.0" x2="386" y2="224.0" stroke="#000" stroke-width="0.3" stroke-dasharray="2,2"/>
  <line x1="426" y1="209.0" x2="426" y2="224.0" stroke="#000" stroke-width="0.3" stroke-dasharray="2,2"/>
  <polygon points="386,224.0 389,221.0 389,227.0" fill="#000"/>
  <polygon points="426,224.0 423,221.0 423,227.0" fill="#000"/>
  <text x="406.0" y="237.0" text-anchor="middle" font-size="10" fill="#000">4'</text>
</g>
<g class="dimension">
  <line x1="80" y1="116.0" x2="115" y2="116.0" stroke="#000" stroke-width="0.5"/>
  <line x1="80" y1="101.0" x2="80" y2="116.0" stroke="#000" stroke-width="0.3" stroke-dasharray="2,2"/>
  <line x1="115" y1="101.0" x2="115" y2="116.0" stroke="#000" stroke-width="0.3" stroke-dasharray="2,2"/>
  <polygon points="80,116.0 83,113.0 83,119.0" fill="#000"/>
  <polygon points="115,116.0 112,113.0 112,119.0" fill="#000"/>
  <text x="97.5" y="129.0" text-anchor="middle" font-size="10" fill="#000">3' 6"</text>
</g>
<g class="dimension">
  <line x1="115" y1="116.0" x2="165" y2="116.0" stroke="#000" stroke-width="0.5"/>
  <line x1="115" y1="101.0" x2="115" y2="116.0" stroke="#000" stroke-width="0.3" stroke-dasharray="2,2"/>
  <line x1="165" y1="101.0" x2="165" y2="116.0" stroke="#000" stroke-width="0.3" stroke-dasharray="2,2"/>
  <polygon points="115,116.0 118,113.0 118,119.0" fill="#000"/>
  <polygon points="165,116.0 162,113.0 162,119.0" fill="#000"/>
  <text x="140.0" y="129.0" text-anchor="middle" font-size="10" fill="#000">5'</text>
</g>
<g class="dimension">
  <line x1="220.0" y1="126.0" x2="220.0" y2="36.0" stroke="#000" stroke-width="0.5"/>
  <line x1="250.0" y1="126.0" x2="220.0" y2="126.0" stroke="#000" stroke-width="0.3" stroke-dasharray="2,2"/>
  <line x1="250.0" y1="36.0" x2="220.0" y2="36.0" stroke="#000" stroke-width="0.3" stroke-dasharray="2,2"/>
  <polygon points="220.0,126.0 217.0,129.0 223.0,129.0" fill="#000"/>
  <polygon points="220.0,36.0 217.0,33.0 223.0,33.0" fill="#000"/>
  <text x="207.0" y="81.0" text-anchor="middle" font-size="10" fill="#000" transform="rotate(-90 207.0 81.0)">9'</text>
</g>
<g class="dimension">
  <line x1="14.0" y1="234.0" x2="14.0" y2="204.0" stroke="#000" stroke-width="0.5"/>
  <line x1="44.0" y1="234.0" x2="14.0" y2="234.0" stroke="#000" stroke-width="0.3" stroke-dasharray="2,2"/>
  <line x1="44.0" y1="204.0" x2="14.0" y2="204.0" stroke="#000" stroke-width="0.3" stroke-dasharray="2,2"/>
  <polygon points="14.0,234.0 11.0,237.0 17.0,237.0" fill="#000"/>
  <polygon points="14.0,204.0 11.0,201.0 17.0,201.0" fill="#000"/>
  <text x="1.0" y="219.0" text-anchor="middle" font-size="10" fill="#000" transform="rotate(-90 1.0 219.0)">3'</text>
</g>
</g>
<text x="600.0" y="40.0" text-anchor="middle" font-size="18" font-weight="bold" fill="#333">Left Elevation</text>
</svg>