<?xml version="1.0" encoding="UTF-8"?>
<svg xmlns="http://www.w3.org/2000/svg" width="840.0" height="988.0" viewBox="0 0 840.0 988.0">
<title>Back Elevation</title>
<defs>
    <style>
        text { font-family: Arial, sans-serif; }
    </style>
</defs>
<g transform="translate(150, 210) scale(2.0, 2.0)">

<line x1="0" y1="314.0" x2="270" y2="314.0" stroke="#666" stroke-width="2" stroke-dasharray="5,5"/>
<rect x="0" y="284.0" width="270" height="30.0" fill="#A0826D" stroke="#000" stroke-width="1"/>
<rect x="0" y="246.0" width="270" height="30.0" fill="#C19A6B" stroke="#000" stroke-width="0.5"/>
<rect x="110" y="206.0" width="50" height="70.0" fill="#D2691E" stroke="#000" stroke-width="0.5"/>
<rect x="0" y="138.0" width="270" height="30.0" fill="#C19A6B" stroke="#000" stroke-width="0.5"/>
<rect x="0" y="70.0" width="270" height="8.0" fill="#654321" stroke="#000" stroke-width="0.5"/>
<rect x="0.0" y="76.0" width="10" height="200.0" fill="#000" stroke="#000" stroke-width="0.5"/>
<rect x="100.0" y="76.0" width="10" height="200.0" fill="#000" stroke="#000" stroke-width="0.5"/>
<rect x="160.0" y="76.0" width="10" height="200.0" fill="#000" stroke="#000" stroke-width="0.5"/>
<rect x="260.0" y="76.0" width="10" height="200.0" fill="#000" stroke="#000" stroke-width="0.5"/>
<rect x="0" y="176.0" width="124" height="100.0" fill="#C19A6B" stroke="#000" stroke-width="0.5"/>
<rect x="35" y="211.0" width="50" height="40.0" fill="#87CEEB" stroke="#000" stroke-width="0.5"/>
<rect x="116" y="176.0" width="154" height="100.0" fill="#C19A6B" stroke="#000" stroke-width="0.5"/>
<rect x="124" y="211.0" width="30" height="65.0" fill="#D2691E" stroke="#000" stroke-width="0.5"/>
<rect x="187" y="211.0" width="50" height="40.0" fill="#87CEEB" stroke="#000" stroke-width="0.5"/>
<rect x="0" y="78.0" width="124" height="90.0" fill="#C19A6B" stroke="#000" stroke-width="0.5"/>
<rect x="83.5" y="103.0" width="30" height="65.0" fill="#D2691E" stroke="#000" stroke-width="0.5"/>
<rect x="25" y="103.0" width="30" height="40.0" fill="#87CEEB" stroke="#000" stroke-width="0.5"/>
<rect x="116" y="78.0" width="154" height="90.0" fill="#C19A6B" stroke="#000" stroke-width="0.5"/>
<rect x="124" y="103.0" width="30" height="65.0" fill="#D2691E" stroke="#000" stroke-width="0.5"/>
<rect x="187" y="103.0" width="50" height="40.0" fill="#87CEEB" stroke="#000" stroke-width="0.5"/>
<rect x="0" y="70.0" width="270" height="8.0" fill="#654321" stroke="#000" stroke-width="0.5"/>
<rect x="0.0" y="76.0" width="8" height="200.0" fill="#000" stroke="#000" stroke-width="0.5"/>
<rect x="116.0" y="76.0" width="8" height="200.0" fill="#000" stroke="#000" stroke-width="0.5"/>
<rect x="262.0" y="76.0" width="8" height="200.0" fill="#000" stroke="#000" stroke-width="0.5"/>
<rect x="116.0" y="76.0" width="8" height="200.0" fill="#000" stroke="#000" stroke-width="0.5"/>
<rect x="0" y="70.0" width="270" height="8.0" fill="#654321" stroke="#000" stroke-width="0.5"/>
<rect x="0" y="176.0" width="124" height="100.0" fill="#C19A6B" stroke="#000" stroke-width="0.5"/>
<rect x="83.5" y="211.0" width="30" height="65.0" fill="#D2691E" stroke="#000" stroke-width="0.5"/>
<rect x="116" y="176.0" width="154" height="100.0" fill="#C19A6B" stroke="#000" stroke-width="0.5"/>
<rect x="126.5" y="211.0" width="30" height="65.0" fill="#D2691E" stroke="#000" stroke-width="0.5"/>
<rect x="0" y="78.0" width="124" height="90.0" fill="#C19A6B" stroke="#000" stroke-width="0.5"/>
<rect x="83.5" y="103.0" width="30" height="65.0" fill="#D2691E" stroke="#000" stroke-width="0.5"/>
<rect x="116" y="78.0" width="154" height="90.0" fill="#C19A6B" stroke="#000" stroke-width="0.5"/>
<rect x="126.5" y="103.0" width="30" height="65.0" fill="#D2691E" stroke="#000" stroke-width="0.5"/>
<rect x="-0.04999999999999982" y="76.0" width="12.5" height="200.0" fill="#000" stroke="#000" stroke-width="0.5"/>
<rect x="257.55" y="76.0" width="12.5" height="200.0" fill="#000" stroke="#000" stroke-width="0.5"/>
<rect x="0" y="168.0" width="270" height="8.0" fill="#808080" stroke="#000" stroke-width="0.5"/>
<rect x="184" y="78.0" width="78" height="90.0" fill="#C19A6B" stroke="#000" stroke-width="0.5"/>
<rect x="136" y="176.0" width="40" height="100.0" fill="#C19A6B" stroke="#000" stroke-width="0.5"/>
<rect x="176" y="176.0" width="94" height="100.0" fill="#C19A6B" stroke="#000" stroke-width="0.5"/>
<rect x="176" y="78.0" width="94" height="90.0" fill="#C19A6B" stroke="#000" stroke-width="0.5"/>
<rect x="186.5" y="103.0" width="30" height="65.0" fill="#D2691E" stroke="#000" stroke-width="0.5"/>
<rect x="40.0" y="76.0" width="8" height="200.0" fill="#000" stroke="#000" stroke-width="0.5"/>
<rect x="173.75" y="76.0" width="12.5" height="200.0" fill="#000" stroke="#000" stroke-width="0.5"/>
<rect x="0" y="70.0" width="270" height="8.0" fill="#654321" stroke="#000" stroke-width="0.5"/>
<rect x="0.0" y="76.0" width="8" height="200.0" fill="#000" stroke="#000" stroke-width="0.5"/>
<rect x="262.0" y="76.0" width="8" height="200.0" fill="#000" stroke="#000" stroke-width="0.5"/>
<rect x="40" y="168.0" width="230" height="8.0" fill="#808080" stroke="#000" stroke-width="0.5"/>
<g class="staircase-elevation">
<line x1="8.0" y1="276.0" x2="8.0" y2="271.0" stroke="#000" stroke-width="0.5"/>
<line x1="8.0" y1="271.0" x2="9.5" y2="271.0" stroke="#000" stroke-width="0.5"/>
<rect x="8.0" y="271.0" width="1.5" height="5.0" fill="#C19A6B" opacity="0.7"/>
<line x1="9.5" y1="271.0" x2="9.5" y2="266.0" stroke="#000" stroke-width="0.5"/>
<line x1="9.5" y1="266.0" x2="11.0" y2="266.0" stroke="#000" stroke-width="0.5"/>
<rect x="9.5" y="266.0" width="1.5" height="5.0" fill="#C19A6B" opacity="0.7"/>
<line x1="11.0" y1="266.0" x2="11.0" y2="261.0" stroke="#000" stroke-width="0.5"/>
<line x1="11.0" y1="261.0" x2="12.5" y2="261.0" stroke="#000" stroke-width="0.5"/>
<rect x="11.0" y="261.0" width="1.5" height="5.0" fill="#C19A6B" opacity="0.7"/>
<line x1="12.5" y1="261.0" x2="12.5" y2="256.0" stroke="#000" stroke-width="0.5"/>
<line x1="12.5" y1="256.0" x2="14.0" y2="256.0" stroke="#000" stroke-width="0.5"/>
<rect x="12.5" y="256.0" width="1.5" height="5.0" fill="#C19A6B" opacity="0.7"/>
<line x1="14.0" y1="256.0" x2="14.0" y2="251.0" stroke="#000" stroke-width="0.5"/>
<line x1="14.0" y1="251.0" x2="15.5" y2="251.0" stroke="#000" stroke-width="0.5"/>
<rect x="14.0" y="251.0" width="1.5" height="5.0" fill="#C19A6B" opacity="0.7"/>
<line x1="15.5" y1="251.0" x2="15.5" y2="246.0" stroke="#000" stroke-width="0.5"/>
<line x1="15.5" y1="246.0" x2="17.0" y2="246.0" stroke="#000" stroke-width="0.5"/>
<rect x="15.5" y="246.0" width="1.5" height="5.0" fill="#C19A6B" opacity="0.7"/>
<line x1="17.0" y1="246.0" x2="17.0" y2="241.0" stroke="#000" stroke-width="0.5"/>
<line x1="17.0" y1="241.0" x2="18.5" y2="241.0" stroke="#000" stroke-width="0.5"/>
<rect x="17.0" y="241.0" width="1.5" height="5.0" fill="#C19A6B" opacity="0.7"/>
<line x1="18.5" y1="241.0" x2="18.5" y2="236.0" stroke="#000" stroke-width="0.5"/>
<line x1="18.5" y1="236.0" x2="20.0" y2="236.0" stroke="#000" stroke-width="0.5"/>
<rect x="18.5" y="236.0" width="1.5" height="5.0" fill="#C19A6B" opacity="0.7"/>
<line x1="20.0" y1="236.0" x2="20.0" y2="231.0" stroke="#000" stroke-width="0.5"/>
<line x1="20.0" y1="231.0" x2="21.5" y2="231.0" stroke="#000" stroke-width="0.5"/>
<rect x="20.0" y="231.0" width="1.5" height="5.0" fill="#C19A6B" opacity="0.7"/>
<line x1="21.5" y1="231.0" x2="21.5" y2="226.0" stroke="#000" stroke-width="0.5"/>
<line x1="21.5" y1="226.0" x2="23.0" y2="226.0" stroke="#000" stroke-width="0.5"/>
<rect x="21.5" y="226.0" width="1.5" height="5.0" fill="#C19A6B" opacity="0.7"/>
<line x1="23.0" y1="226.0" x2="23.0" y2="221.0" stroke="#000" stroke-width="0.5"/>
<line x1="23.0" y1="221.0" x2="24.5" y2="221.0" stroke="#000" stroke-width="0.5"/>
<rect x="23.0" y="221.0" width="1.5" height="5.0" fill="#C19A6B" opacity="0.7"/>
<line x1="24.5" y1="221.0" x2="24.5" y2="216.0" stroke="#000" stroke-width="0.5"/>
<line x1="24.5" y1="216.0" x2="26.0" y2="216.0" stroke="#000" stroke-width="0.5"/>
<rect x="24.5" y="216.0" width="1.5" height="5.0" fill="#C19A6B" opacity="0.7"/>
<line x1="26.0" y1="216.0" x2="26.0" y2="211.0" stroke="#000" stroke-width="0.5"/>
<line x1="26.0" y1="211.0" x2="27.5" y2="211.0" stroke="#000" stroke-width="0.5"/>
<rect x="26.0" y="211.0" width="1.5" height="5.0" fill="#C19A6B" opacity="0.7"/>
<line x1="27.5" y1="211.0" x2="27.5" y2="206.0" stroke="#000" stroke-width="0.5"/>
<line x1="27.5" y1="206.0" x2="29.0" y2="206.0" stroke="#000" stroke-width="0.5"/>
<rect x="27.5" y="206.0" width="1.5" height="5.0" fill="#C19A6B" opacity="0.7"/>
<line x1="29.0" y1="206.0" x2="29.0" y2="201.0" stroke="#000" stroke-width="0.5"/>
<line x1="29.0" y1="201.0" x2="30.5" y2="201.0" stroke="#000" stroke-width="0.5"/>
<rect x="29.0" y="201.0" width="1.5" height="5.0" fill="#C19A6B" opacity="0.7"/>
<line x1="30.5" y1="201.0" x2="30.5" y2="196.0" stroke="#000" stroke-width="0.5"/>
<line x1="30.5" y1="196.0" x2="32.0" y2="196.0" stroke="#000" stroke-width="0.5"/>
<rect x="30.5" y="196.0" width="1.5" height="5.0" fill="#C19A6B" opacity="0.7"/>
<line x1="32.0" y1="196.0" x2="32.0" y2="191.0" stroke="#000" stroke-width="0.5"/>
<line x1="32.0" y1="191.0" x2="33.5" y2="191.0" stroke="#000" stroke-width="0.5"/>
<rect x="32.0" y="191.0" width="1.5" height="5.0" fill="#C19A6B" opacity="0.7"/>
<line x1="33.5" y1="191.0" x2="33.5" y2="186.0" stroke="#000" stroke-width="0.5"/>
<line x1="33.5" y1="186.0" x2="35.0" y2="186.0" stroke="#000" stroke-width="0.5"/>
<rect x="33.5" y="186.0" width="1.5" height="5.0" fill="#C19A6B" opacity="0.7"/>
<line x1="35.0" y1="186.0" x2="35.0" y2="181.0" stroke="#000" stroke-width="0.5"/>
<line x1="35.0" y1="181.0" x2="36.5" y2="181.0" stroke="#000" stroke-width="0.5"/>
<rect x="35.0" y="181.0" width="1.5" height="5.0" fill="#C19A6B" opacity="0.7"/>
<line x1="36.5" y1="181.0" x2="36.5" y2="176.0" stroke="#000" stroke-width="0.5"/>
<line x1="36.5" y1="176.0" x2="38.0" y2="176.0" stroke="#000" stroke-width="0.5"/>
<rect x="36.5" y="176.0" width="1.5" height="5.0" fill="#C19A6B" opacity="0.7"/>
<line x1="38.0" y1="176.0" x2="38.0" y2="276.0" stroke="#000" stroke-width="0.5"/>
<line x1="8" y1="276.0" x2="38.0" y2="276.0" stroke="#000" stroke-width="0.5"/>
</g>
<rect x="0" y="78.0" width="270" height="90.0" fill="#C19A6B" stroke="#000" stroke-width="0.5"/>
<rect x="24" y="103.0" width="60" height="60.0" fill="#87CEEB" stroke="#000" stroke-width="0.5"/>
<rect x="103.5" y="103.0" width="65" height="60.0" fill="#87CEEB" stroke="#000" stroke-width="0.5"/>
<rect x="187.5" y="103.0" width="60" height="60.0" fill="#87CEEB" stroke="#000" stroke-width="0.5"/>
<rect x="0.0" y="76.0" width="8" height="200.0" fill="#000" stroke="#000" stroke-width="0.5"/>
<rect x="262.0" y="76.0" width="8" height="200.0" fill="#000" stroke="#000" stroke-width="0.5"/>
<rect x="8" y="168.0" width="254" height="8.0" fill="#654321" stroke="#000" stroke-width="0.5"/>
<rect x="0" y="70.0" width="270" height="8.0" fill="#654321" stroke="#000" stroke-width="0.5"/>
<rect x="262" y="168.0" width="8" height="8.0" fill="#654321" stroke="#000" stroke-width="0.5"/>
<rect x="0" y="168.0" width="8" height="8.0" fill="#654321" stroke="#000" stroke-width="0.5"/>
<rect x="0" y="70.0" width="8" height="8.0" fill="#654321" stroke="#000" stroke-width="0.5"/>
<rect x="262" y="70.0" width="8" height="8.0" fill="#654321" stroke="#000" stroke-width="0.5"/>
<rect x="0" y="276.0" width="270" height="8.0" fill="#808080" stroke="#000" stroke-width="0.5"/>
<rect x="0" y="176.0" width="270" height="100.0" fill="#C19A6B" stroke="#000" stroke-width="0.5"/>
<rect x="98.5" y="211.0" width="75" height="65.0" fill="#D2691E" stroke="#000" stroke-width="0.5"/>
<rect x="24" y="211.0" width="60" height="40.0" fill="#87CEEB" stroke="#000" stroke-width="0.5"/>
<rect x="187.5" y="211.0" width="60" height="40.0" fill="#87CEEB" stroke="#000" stroke-width="0.5"/>
<rect x="88.5" y="76.0" width="10" height="200.0" fill="#000" stroke="#000" stroke-width="0.5"/>
<rect x="173.5" y="76.0" width="10" height="200.0" fill="#000" stroke="#000" stroke-width="0.5"/>
<line x1="-39.14178022615251" y1="90.29573789504204" x2="135.0" y2="-3.0" stroke="#8B4513" stroke-width="3"/>
<line x1="135.0" y1="-3.0" x2="309.1417802261525" y2="90.29573789504204" stroke="#8B4513" stroke-width="3"/>
<g class="dimension">
  <line x1="300" y1="276.0" x2="300" y2="176.0" stroke="#000" stroke-width="0.5"/>
  <line x1="270" y1="276.0" x2="300" y2="276.0" stroke="#000" stroke-width="0.3" stroke-dasharray="2,2"/>
  <line x1="270" y1="176.0" x2="300" y2="176.0" stroke="#000" stroke-width="0.3" stroke-dasharray="2,2"/>
  <polygon points="300,276.0 297,279.0 303,279.0" fill="#000"/>
  <polygon points="300,176.0 297,173.0 303,173.0" fill="#000"/>
  <text x="313" y="226.0" text-anchor="middle" font-size="10" fill="#000" transform="rotate(-90 313 226.0)">10'</text>
</g>
<g class="dimension">
  <line x1="300" y1="168.0" x2="300" y2="78.0" stroke="#000" stroke-width="0.5"/>
  <line x1="270" y1="168.0" x2="300" y2="168.0" stroke="#000" stroke-width="0.3" stroke-dasharray="2,2"/>
  <line x1="270" y1="78.0" x2="300" y2="78.0" stroke="#000" stroke-width="0.3" stroke-dasharray="2,2"/>
  <polygon points="300,168.0 297,171.0 303,171.0" fill="#000"/>
  <polygon points="300,78.0 297,75.0 303,75.0" fill="#000"/>
  <text x="313" y="123.0" text-anchor="middle" font-size="10" fill="#000" transform="rotate(-90 313 123.0)">9'</text>
</g>
<g class="dimension">
  <line x1="300" y1="70.0" x2="300" y2="0.0" stroke="#000" stroke-width="0.5"/>
  <line x1="270" y1="70.0" x2="300" y2="70.0" stroke="#000" stroke-width="0.3" stroke-dasharray="2,2"/>
  <line x1="270" y1="0.0" x2="300" y2="0.0" stroke="#000" stroke-width="0.3" stroke-dasharray="2,2"/>
  <polygon points="300,70.0 297,73.0 303,73.0" fill="#000"/>
  <polygon points="300,0.0 297,-3.0 303,-3.0" fill="#000"/>
  <text x="313" y="35.0" text-anchor="middle" font-size="10" fill="#000" transform="rotate(-90 313 35.0)">7'</text>
</g>
<g class="dimension">
  <line x1="0" y1="-30.0" x2="270" y2="-30.0" stroke="#000" stroke-width="0.5"/>
  <line x1="0" y1="0.0" x2="0" y2="-30.0" stroke="#000" stroke-width="0.3" stroke-dasharray="2,2"/>
  <line x1="270" y1="0.0" x2="270" y2="-30.0" stroke="#000" stroke-width="0.3" stroke-dasharray="2,2"/>
  <polygon points="0,-30.0 3,-33.0 3,-27.0" fill="#000"/>
  <polygon points="270,-30.0 267,-33.0 267,-27.0" fill="#000"/>
  <text x="135.0" y="-35.0" text-anchor="middle" font-size="10" fill="#000">27'</text>
</g>
<g class="dimension">
  <line x1="0" y1="178.0" x2="24" y2="178.0" stroke="#000" stroke-width="0.5"/>
  <line x1="0" y1="163.0" x2="0" y2="178.0" stroke="#000" stroke-width="0.3" stroke-dasharray="2,2"/>
  <line x1="24" y1="163.0" x2="24" y2="178.0" stroke="#000" stroke-width="0.3" stroke-dasharray="2,2"/>
  <polygon points="0,178.0 3,175.0 3,181.0" fill="#000"/>
  <polygon points="24,178.0 21,175.0 21,181.0" fill="#000"/>
  <text x="12.0" y="191.0" text-anchor="middle" font-size="10" fill="#000">2' 5"</text>
</g>
<g class="dimension">
  <line x1="24" y1="178.0" x2="84" y2="178.0" stroke="#000" stroke-width="0.5"/>
  <line x1="24" y1="163.0" x2="24" y2="178.0" stroke="#000" stroke-width="0.3" stroke-dasharray="2,2"/>
  <line x1="84" y1="163.0" x2="84" y2="178.0" stroke="#000" stroke-width="0.3" stroke-dasharray="2,2"/>
  <polygon points="24,178.0 27,175.0 27,181.0" fill="#000"/>
  <polygon points="84,178.0 81,175.0 81,181.0" fill="#000"/>
  <text x="54.0" y="191.0" text-anchor="middle" font-size="10" fill="#000">6'</text>
</g>
<g class="dimension">
  <line x1="103.5" y1="178.0" x2="168.5" y2="178.0" stroke="#000" stroke-width="0.5"/>
  <line x1="103.5" y1="163.0" x2="103.5" y2="178.0" stroke="#000" stroke-width="0.3" stroke-dasharray="2,2"/>
  <line x1="168.5" y1="163.0" x2="168.5" y2="178.0" stroke="#000" stroke-width="0.3" stroke-dasharray="2,2"/>
  <polygon points="103.5,178.0 106.5,175.0 106.5,181.0" fill="#000"/>
  <polygon points="168.5,178.0 165.5,175.0 165.5,181.0" fill="#000"/>
  <text x="136.0" y="191.0" text-anchor="middle" font-size="10" fill="#000">6' 6"</text>
</g>
<g class="dimension">
  <line x1="187.5" y1="178.0" x2="247.5" y2="178.0" stroke="#000" stroke-width="0.5"/>
  <line x1="187.5" y1="163.0" x2="187.5" y2="178.0" stroke="#000" stroke-width="0.3" stroke-dasharray="2,2"/>
  <line x1="247.5" y1="163.0" x2="247.5" y2="178.0" stroke="#000" stroke-width="0.3" stroke-dasharray="2,2"/>
  <polygon points="187.5,178.0 190.5,175.0 190.5,181.0" fill="#000"/>
  <polygon points="247.5,178.0 244.5,175.0 244.5,181.0" fill="#000"/>
  <text x="217.5" y="191.0" text-anchor="middle" font-size="10" fill="#000">6'</text>
</g>
<g class="dimension">
  <line x1="0" y1="291.0" x2="24" y2="291.0" stroke="#000" stroke-width="0.5"/>
  <line x1="0" y1="276.0" x2="0" y2="291.0" stroke="#000" stroke-width="0.3" stroke-dasharray="2,2"/>
  <line x1="24" y1="276.0" x2="24" y2="291.0" stroke="#000" stroke-width="0.3" stroke-dasharray="2,2"/>
  <polygon points="0,291.0 3,288.0 3,294.0" fill="#000"/>
  <polygon points="24,291.0 21,288.0 21,294.0" fill="#000"/>
  <text x="12.0" y="304.0" text-anchor="middle" font-size="10" fill="#000">2' 5"</text>
</g>
<g class="dimension">
  <line x1="24" y1="291.0" x2="84" y2="291.0" stroke="#000" stroke-width="0.5"/>
  <line x1="24" y1="276.0" x2="24" y2="291.0" stroke="#000" stroke-width="0.3" stroke-dasharray="2,2"/>
  <line x1="84" y1="276.0" x2="84" y2="291.0" stroke="#000" stroke-width="0.3" stroke-dasharray="2,2"/>
  <polygon points="24,291.0 27,288.0 27,294.0" fill="#000"/>
  <polygon points="84,291.0 81,288.0 81,294.0" fill="#000"/>
  <text x="54.0" y="304.0" text-anchor="middle" font-size="10" fill="#000">6'</text>
</g>
<g class="dimension">
  <line x1="98.5" y1="291.0" x2="173.5" y2="291.0" stroke="#000" stroke-width="0.5"/>
  <line x1="98.5" y1="276.0" x2="98.5" y2="291.0" stroke="#000" stroke-width="0.3" stroke-dasharray="2,2"/>
  <line x1="173.5" y1="276.0" x2="173.5" y2="291.0" stroke="#000" stroke-width="0.3" stroke-dasharray="2,2"/>
  <polygon points="98.5,291.0 101.5,288.0 101.5,294.0" fill="#000"/>
  <polygon points="173.5,291.0 170.5,288.0 170.5,294.0" fill="#000"/>
  <text x="136.0" y="304.0" text-anchor="middle" font-size="10" fill="#000">7' 6"</text>
</g>
<g class="dimension">
  <line x1="187.5" y1="291.0" x2="247.5" y2="291.0" stroke="#000" stroke-width="0.5"/>
  <line x1="187.5" y1="276.0" x2="187.5" y2="291.0" stroke="#000" stroke-width="0.3" stroke-dasharray="2,2"/>
  <line x1="247.5" y1="276.0" x2="247.5" y2="291.0" stroke="#000" stroke-width="0.3" stroke-dasharray="2,2"/>
  <polygon points="187.5,291.0 190.5,288.0 190.5,294.0" fill="#000"/>
  <polygon points="247.5,291.0 244.5,288.0 244.5,294.0" fill="#000"/>
  <text x="217.5" y="304.0" text-anchor="middle" font-size="10" fill="#000">6'</text>
</g>
</g>
<text x="420.0" y="40.0" text-anchor="middle" font-size="18" font-weight="bold" fill="#333">Back Elevation</text>
</svg>