<?xml version="1.0" encoding="UTF-8"?>
<svg xmlns="http://www.w3.org/2000/svg" width="1200.0" height="940.0" viewBox="0 0 1200.0 940.0">
<title>Left Elevation</title>
<defs>
    <style>
        text { font-family: Arial, sans-serif; }
    </style>
</defs>
<g transform="translate(150, 210) scale(2.0, 2.0)">

<line x1="0" y1="290.0" x2="450" y2="290.0" stroke="#666" stroke-width="2" stroke-dasharray="5,5"/>
<rect x="0" y="260.0" width="450" height="30.0" fill="#A0826D" stroke="#000" stroke-width="1"/>
<rect x="300" y="54.0" width="150" height="90.0" fill="#C19A6B" stroke="#000" stroke-width="0.5"/>
<rect x="310" y="79.0" width="50" height="60.0" fill="#87CEEB" stroke="#000" stroke-width="0.5"/>
<rect x="375" y="79.0" width="50" height="60.0" fill="#87CEEB" stroke="#000" stroke-width="0.5"/>
<rect x="330" y="144.0" width="120" height="8.0" fill="#654321" stroke="#000" stroke-width="0.5"/>
<rect x="0" y="46.0" width="450" height="8.0" fill="#654321" stroke="#000" stroke-width="0.5"/>
<rect x="0" y="222.0" width="88" height="30.0" fill="#C19A6B" stroke="#000" stroke-width="0.5"/>
<rect x="196" y="152.0" width="254" height="100.0" fill="#C19A6B" stroke="#000" stroke-width="0.5"/>
<rect x="214" y="187.0" width="20" height="20.0" fill="#87CEEB" stroke="#000" stroke-width="0.5"/>
<rect x="254" y="187.0" width="20" height="20.0" fill="#87CEEB" stroke="#000" stroke-width="0.5"/>
<rect x="310" y="187.0" width="60" height="30.0" fill="#87CEEB" stroke="#000" stroke-width="0.5"/>
<rect x="80" y="152.0" width="124" height="100.0" fill="#C19A6B" stroke="#000" stroke-width="0.5"/>
<rect x="115" y="187.0" width="50" height="40.0" fill="#87CEEB" stroke="#000" stroke-width="0.5"/>
<rect x="0" y="114.0" width="88" height="30.0" fill="#C19A6B" stroke="#000" stroke-width="0.5"/>
<rect x="80" y="54.0" width="124" height="90.0" fill="#C19A6B" stroke="#000" stroke-width="0.5"/>
<rect x="115" y="79.0" width="50" height="40.0" fill="#87CEEB" stroke="#000" stroke-width="0.5"/>
<rect x="196" y="54.0" width="104" height="90.0" fill="#C19A6B" stroke="#000" stroke-width="0.5"/>
<rect x="214" y="79.0" width="20" height="20.0" fill="#87CEEB" stroke="#000" stroke-width="0.5"/>
<rect x="262" y="79.0" width="20" height="20.0" fill="#87CEEB" stroke="#000" stroke-width="0.5"/>
<rect x="79.975" y="52.0" width="12.5" height="200.0" fill="#000" stroke="#000" stroke-width="0.5"/>
<rect x="289.75" y="52.0" width="12.5" height="200.0" fill="#000" stroke="#000" stroke-width="0.5"/>
<rect x="437.25" y="52.0" width="12.5" height="200.0" fill="#000" stroke="#000" stroke-width="0.5"/>
<rect x="0.0" y="52.0" width="8" height="200.0" fill="#000" stroke="#000" stroke-width="0.5"/>
<rect x="196.0" y="52.0" width="8" height="200.0" fill="#000" stroke="#000" stroke-width="0.5"/>
<rect x="196" y="152.0" width="104" height="100.0" fill="#C19A6B" stroke="#000" stroke-width="0.5"/>
<rect x="228" y="187.0" width="30" height="65.0" fill="#D2691E" stroke="#000" stroke-width="0.5"/>
<rect x="196" y="54.0" width="104" height="90.0" fill="#C19A6B" stroke="#000" stroke-width="0.5"/>
<rect x="292.0" y="52.0" width="8" height="200.0" fill="#000" stroke="#000" stroke-width="0.5"/>
<rect x="442.0" y="52.0" width="8" height="200.0" fill="#000" stroke="#000" stroke-width="0.5"/>
<rect x="0.0" y="52.0" width="8" height="200.0" fill="#000" stroke="#000" stroke-width="0.5"/>
<rect x="80" y="152.0" width="124" height="100.0" fill="#C19A6B" stroke="#000" stroke-width="0.5"/>
<rect x="80" y="54.0" width="124" height="90.0" fill="#C19A6B" stroke="#000" stroke-width="0.5"/>
<rect x="79.975" y="52.0" width="12.5" height="200.0" fill="#000" stroke="#000" stroke-width="0.5"/>
<rect x="191.25" y="52.0" width="12.5" height="200.0" fill="#000" stroke="#000" stroke-width="0.5"/>
<rect x="0.0" y="52.0" width="8" height="200.0" fill="#000" stroke="#000" stroke-width="0.5"/>
<rect x="442.0" y="52.0" width="8" height="200.0" fill="#000" stroke="#000" stroke-width="0.5"/>
<rect x="234" y="144.0" width="100" height="8.0" fill="#808080" stroke="#000" stroke-width="0.5"/>
<rect x="292.0" y="52.0" width="8" height="200.0" fill="#000" stroke="#000" stroke-width="0.5"/>
<rect x="442" y="144.0" width="8" height="8.0" fill="#654321" stroke="#000" stroke-width="0.5"/>
<g class="staircase-elevation">
<line x1="230.0" y1="252.0" x2="230.0" y2="247.0" stroke="#000" stroke-width="0.5"/>
<line x1="230.0" y1="247.0" x2="240.0" y2="247.0" stroke="#000" stroke-width="0.5"/>
<rect x="230.0" y="247.0" width="10.0" height="5.0" fill="#C19A6B" opacity="0.7"/>
<line x1="240.0" y1="247.0" x2="240.0" y2="242.0" stroke="#000" stroke-width="0.5"/>
<line x1="240.0" y1="242.0" x2="250.0" y2="242.0" stroke="#000" stroke-width="0.5"/>
<rect x="240.0" y="242.0" width="10.0" height="5.0" fill="#C19A6B" opacity="0.7"/>
<line x1="250.0" y1="242.0" x2="250.0" y2="237.0" stroke="#000" stroke-width="0.5"/>
<line x1="250.0" y1="237.0" x2="260.0" y2="237.0" stroke="#000" stroke-width="0.5"/>
<rect x="250.0" y="237.0" width="10.0" height="5.0" fill="#C19A6B" opacity="0.7"/>
<line x1="260.0" y1="237.0" x2="260.0" y2="232.0" stroke="#000" stroke-width="0.5"/>
<line x1="260.0" y1="232.0" x2="270.0" y2="232.0" stroke="#000" stroke-width="0.5"/>
<rect x="260.0" y="232.0" width="10.0" height="5.0" fill="#C19A6B" opacity="0.7"/>
<line x1="270.0" y1="232.0" x2="270.0" y2="227.0" stroke="#000" stroke-width="0.5"/>
<line x1="270.0" y1="227.0" x2="280.0" y2="227.0" stroke="#000" stroke-width="0.5"/>
<rect x="270.0" y="227.0" width="10.0" height="5.0" fill="#C19A6B" opacity="0.7"/>
<line x1="280.0" y1="227.0" x2="280.0" y2="222.0" stroke="#000" stroke-width="0.5"/>
<line x1="280.0" y1="222.0" x2="290.0" y2="222.0" stroke="#000" stroke-width="0.5"/>
<rect x="280.0" y="222.0" width="10.0" height="5.0" fill="#C19A6B" opacity="0.7"/>
<line x1="290.0" y1="222.0" x2="290.0" y2="217.0" stroke="#000" stroke-width="0.5"/>
<line x1="290.0" y1="217.0" x2="300.0" y2="217.0" stroke="#000" stroke-width="0.5"/>
<rect x="290.0" y="217.0" width="10.0" height="5.0" fill="#C19A6B" opacity="0.7"/>
<line x1="300.0" y1="217.0" x2="300.0" y2="212.0" stroke="#000" stroke-width="0.5"/>
<line x1="300.0" y1="212.0" x2="310.0" y2="212.0" stroke="#000" stroke-width="0.5"/>
<rect x="300.0" y="212.0" width="10.0" height="5.0" fill="#C19A6B" opacity="0.7"/>
<line x1="310.0" y1="212.0" x2="310.0" y2="207.0" stroke="#000" stroke-width="0.5"/>
<line x1="310.0" y1="207.0" x2="320.0" y2="207.0" stroke="#000" stroke-width="0.5"/>
<rect x="310.0" y="207.0" width="10.0" height="5.0" fill="#C19A6B" opacity="0.7"/>
<line x1="320.0" y1="207.0" x2="320.0" y2="202.0" stroke="#000" stroke-width="0.5"/>
<line x1="320.0" y1="202.0" x2="330.0" y2="202.0" stroke="#000" stroke-width="0.5"/>
<rect x="320.0" y="202.0" width="10.0" height="5.0" fill="#C19A6B" opacity="0.7"/>
<line x1="330.0" y1="202.0" x2="330.0" y2="197.0" stroke="#000" stroke-width="0.5"/>
<line x1="330.0" y1="197.0" x2="340.0" y2="197.0" stroke="#000" stroke-width="0.5"/>
<rect x="330.0" y="197.0" width="10.0" height="5.0" fill="#C19A6B" opacity="0.7"/>
<line x1="340.0" y1="197.0" x2="340.0" y2="192.0" stroke="#000" stroke-width="0.5"/>
<line x1="340.0" y1="192.0" x2="350.0" y2="192.0" stroke="#000" stroke-width="0.5"/>
<rect x="340.0" y="192.0" width="10.0" height="5.0" fill="#C19A6B" opacity="0.7"/>
<line x1="350.0" y1="192.0" x2="350.0" y2="187.0" stroke="#000" stroke-width="0.5"/>
<line x1="350.0" y1="187.0" x2="360.0" y2="187.0" stroke="#000" stroke-width="0.5"/>
<rect x="350.0" y="187.0" width="10.0" height="5.0" fill="#C19A6B" opacity="0.7"/>
<line x1="360.0" y1="187.0" x2="360.0" y2="182.0" stroke="#000" stroke-width="0.5"/>
<line x1="360.0" y1="182.0" x2="370.0" y2="182.0" stroke="#000" stroke-width="0.5"/>
<rect x="360.0" y="182.0" width="10.0" height="5.0" fill="#C19A6B" opacity="0.7"/>
<line x1="370.0" y1="182.0" x2="370.0" y2="177.0" stroke="#000" stroke-width="0.5"/>
<line x1="370.0" y1="177.0" x2="380.0" y2="177.0" stroke="#000" stroke-width="0.5"/>
<rect x="370.0" y="177.0" width="10.0" height="5.0" fill="#C19A6B" opacity="0.7"/>
<line x1="380.0" y1="177.0" x2="380.0" y2="172.0" stroke="#000" stroke-width="0.5"/>
<line x1="380.0" y1="172.0" x2="390.0" y2="172.0" stroke="#000" stroke-width="0.5"/>
<rect x="380.0" y="172.0" width="10.0" height="5.0" fill="#C19A6B" opacity="0.7"/>
<line x1="390.0" y1="172.0" x2="390.0" y2="167.0" stroke="#000" stroke-width="0.5"/>
<line x1="390.0" y1="167.0" x2="400.0" y2="167.0" stroke="#000" stroke-width="0.5"/>
<rect x="390.0" y="167.0" width="10.0" height="5.0" fill="#C19A6B" opacity="0.7"/>
<line x1="400.0" y1="167.0" x2="400.0" y2="162.0" stroke="#000" stroke-width="0.5"/>
<line x1="400.0" y1="162.0" x2="410.0" y2="162.0" stroke="#000" stroke-width="0.5"/>
<rect x="400.0" y="162.0" width="10.0" height="5.0" fill="#C19A6B" opacity="0.7"/>
<line x1="410.0" y1="162.0" x2="410.0" y2="157.0" stroke="#000" stroke-width="0.5"/>
<line x1="410.0" y1="157.0" x2="420.0" y2="157.0" stroke="#000" stroke-width="0.5"/>
<rect x="410.0" y="157.0" width="10.0" height="5.0" fill="#C19A6B" opacity="0.7"/>
<line x1="420.0" y1="157.0" x2="420.0" y2="152.0" stroke="#000" stroke-width="0.5"/>
<line x1="420.0" y1="152.0" x2="430.0" y2="152.0" stroke="#000" stroke-width="0.5"/>
<rect x="420.0" y="152.0" width="10.0" height="5.0" fill="#C19A6B" opacity="0.7"/>
<line x1="430.0" y1="152.0" x2="430.0" y2="252.0" stroke="#000" stroke-width="0.5"/>
<line x1="230" y1="252.0" x2="430.0" y2="252.0" stroke="#000" stroke-width="0.5"/>
</g>
<rect x="200" y="54.0" width="100" height="90.0" fill="#C19A6B" stroke="#000" stroke-width="0.5"/>
<rect x="300" y="54.0" width="150" height="90.0" fill="#C19A6B" stroke="#000" stroke-width="0.5"/>
<rect x="310" y="79.0" width="50" height="60.0" fill="#87CEEB" stroke="#000" stroke-width="0.5"/>
<rect x="375" y="79.0" width="50" height="60.0" fill="#87CEEB" stroke="#000" stroke-width="0.5"/>
<rect x="230" y="144.0" width="220" height="8.0" fill="#654321" stroke="#000" stroke-width="0.5"/>
<rect x="0" y="46.0" width="8" height="8.0" fill="#654321" stroke="#000" stroke-width="0.5"/>
<rect x="80" y="46.0" width="12" height="8.0" fill="#654321" stroke="#000" stroke-width="0.5"/>
<rect x="196" y="46.0" width="8" height="8.0" fill="#654321" stroke="#000" stroke-width="0.5"/>
<rect x="290" y="46.0" width="12" height="8.0" fill="#654321" stroke="#000" stroke-width="0.5"/>
<rect x="438" y="46.0" width="12" height="8.0" fill="#654321" stroke="#000" stroke-width="0.5"/>
<rect x="0" y="46.0" width="450" height="8.0" fill="#654321" stroke="#000" stroke-width="0.5"/>
<rect x="0" y="252.0" width="450" height="8.0" fill="#808080" stroke="#000" stroke-width="0.5"/>
<rect x="0" y="144.0" width="234" height="8.0" fill="#808080" stroke="#000" stroke-width="0.5"/>
<rect x="0" y="222.0" width="88" height="30.0" fill="#C19A6B" stroke="#000" stroke-width="0.5"/>
<rect x="80" y="152.0" width="124" height="100.0" fill="#C19A6B" stroke="#000" stroke-width="0.5"/>
<rect x="117" y="187.0" width="50" height="40.0" fill="#87CEEB" stroke="#000" stroke-width="0.5"/>
<rect x="196" y="152.0" width="254" height="100.0" fill="#C19A6B" stroke="#000" stroke-width="0.5"/>
<rect x="224" y="187.0" width="40" height="40.0" fill="#87CEEB" stroke="#000" stroke-width="0.5"/>
<rect x="386" y="187.0" width="40" height="30.0" fill="#87CEEB" stroke="#000" stroke-width="0.5"/>
<rect x="0" y="114.0" width="88" height="30.0" fill="#C19A6B" stroke="#000" stroke-width="0.5"/>
<rect x="80" y="54.0" width="124" height="90.0" fill="#C19A6B" stroke="#000" stroke-width="0.5"/>
<rect x="115" y="79.0" width="50" height="40.0" fill="#87CEEB" stroke="#000" stroke-width="0.5"/>
<rect x="79.975" y="52.0" width="12.5" height="200.0" fill="#000" stroke="#000" stroke-width="0.5"/>
<rect x="289.75" y="52.0" width="12.5" height="200.0" fill="#000" stroke="#000" stroke-width="0.5"/>
<rect x="437.25" y="52.0" width="12.5" height="200.0" fill="#000" stroke="#000" stroke-width="0.5"/>
<rect x="0.0" y="52.0" width="8" height="200.0" fill="#000" stroke="#000" stroke-width="0.5"/>
<rect x="196.0" y="52.0" width="8" height="200.0" fill="#000" stroke="#000" stroke-width="0.5"/>
<line x1="-36" y1="59.0" x2="146.0" y2="-27.40227264476232" stroke="#8B4513" stroke-width="3"/>
<line x1="304.0" y1="-27.40227264476232" x2="486" y2="59.0" stroke="#8B4513" stroke-width="3"/>
<line x1="146.0" y1="-27.40227264476232" x2="304.0" y2="-27.40227264476232" stroke="#8B4513" stroke-width="3"/>
<g class="dimension">
  <line x1="480" y1="252.0" x2="480" y2="152.0" stroke="#000" stroke-width="0.5"/>
  <line x1="450" y1="252.0" x2="480" y2="252.0" stroke="#000" stroke-width="0.3" stroke-dasharray="2,2"/>
  <line x1="450" y1="152.0" x2="480" y2="152.0" stroke="#000" stroke-width="0.3" stroke-dasharray="2,2"/>
  <polygon points="480,252.0 477,255.0 483,255.0" fill="#000"/>
  <polygon points="480,152.0 477,149.0 483,149.0" fill="#000"/>
  <text x="493" y="202.0" text-anchor="middle" font-size="10" fill="#000" transform="rotate(-90 493 202.0)">10'</text>
</g>
<g class="dimension">
  <line x1="480" y1="144.0" x2="480" y2="54.0" stroke="#000" stroke-width="0.5"/>
  <line x1="450" y1="144.0" x2="480" y2="144.0" stroke="#000" stroke-width="0.3" stroke-dasharray="2,2"/>
  <line x1="450" y1="54.0" x2="480" y2="54.0" stroke="#000" stroke-width="0.3" stroke-dasharray="2,2"/>
  <polygon points="480,144.0 477,147.0 483,147.0" fill="#000"/>
  <polygon points="480,54.0 477,51.0 483,51.0" fill="#000"/>
  <text x="493" y="99.0" text-anchor="middle" font-size="10" fill="#000" transform="rotate(-90 493 99.0)">9'</text>
</g>
<g class="dimension">
  <line x1="480" y1="46.0" x2="480" y2="-24.0" stroke="#000" stroke-width="0.5"/>
  <line x1="450" y1="46.0" x2="480" y2="46.0" stroke="#000" stroke-width="0.3" stroke-dasharray="2,2"/>
  <line x1="450" y1="-24.0" x2="480" y2="-24.0" stroke="#000" stroke-width="0.3" stroke-dasharray="2,2"/>
  <polygon points="480,46.0 477,49.0 483,49.0" fill="#000"/>
  <polygon points="480,-24.0 477,-27.0 483,-27.0" fill="#000"/>
  <text x="493" y="11.0" text-anchor="middle" font-size="10" fill="#000" transform="rotate(-90 493 11.0)">7'</text>
</g>
<g class="dimension">
  <line x1="0" y1="-30.0" x2="450" y2="-30.0" stroke="#000" stroke-width="0.5"/>
  <line x1="0" y1="0.0" x2="0" y2="-30.0" stroke="#000" stroke-width="0.3" stroke-dasharray="2,2"/>
  <line x1="450" y1="0.0" x2="450" y2="-30.0" stroke="#000" stroke-width="0.3" stroke-dasharray="2,2"/>
  <polygon points="0,-30.0 3,-33.0 3,-27.0" fill="#000"/>
  <polygon points="450,-30.0 447,-33.0 447,-27.0" fill="#000"/>
  <text x="225.0" y="-35.0" text-anchor="middle" font-size="10" fill="#000">45'</text>
</g>
<g class="dimension">
  <line x1="310" y1="154.0" x2="360" y2="154.0" stroke="#000" stroke-width="0.5"/>
  <line x1="310" y1="139.0" x2="310" y2="154.0" stroke="#000" stroke-width="0.3" stroke-dasharray="2,2"/>
  <line x1="360" y1="139.0" x2="360" y2="154.0" stroke="#000" stroke-width="0.3" stroke-dasharray="2,2"/>
  <polygon points="310,154.0 313,151.0 313,157.0" fill="#000"/>
  <polygon points="360,154.0 357,151.0 357,157.0" fill="#000"/>
  <text x="335.0" y="167.0" text-anchor="middle" font-size="10" fill="#000">5'</text>
</g>
<g class="dimension">
  <line x1="375" y1="154.0" x2="425" y2="154.0" stroke="#000" stroke-width="0.5"/>
  <line x1="375" y1="139.0" x2="375" y2="154.0" stroke="#000" stroke-width="0.3" stroke-dasharray="2,2"/>
  <line x1="425" y1="139.0" x2="425" y2="154.0" stroke="#000" stroke-width="0.3" stroke-dasharray="2,2"/>
  <polygon points="375,154.0 378,151.0 378,157.0" fill="#000"/>
  <polygon points="425,154.0 422,151.0 422,157.0" fill="#000"/>
  <text x="400.0" y="167.0" text-anchor="middle" font-size="10" fill="#000">5'</text>
</g>
<g class="dimension">
  <line x1="80" y1="242.0" x2="117" y2="242.0" stroke="#000" stroke-width="0.5"/>
  <line x1="80" y1="227.0" x2="80" y2="242.0" stroke="#000" stroke-width="0.3" stroke-dasharray="2,2"/>
  <line x1="117" y1="227.0" x2="117" y2="242.0" stroke="#000" stroke-width="0.3" stroke-dasharray="2,2"/>
  <polygon points="80,242.0 83,239.0 83,245.0" fill="#000"/>
  <polygon points="117,242.0 114,239.0 114,245.0" fill="#000"/>
  <text x="98.5" y="255.0" text-anchor="middle" font-size="10" fill="#000">3' 8"</text>
</g>
<g class="dimension">
  <line x1="117" y1="242.0" x2="167" y2="242.0" stroke="#000" stroke-width="0.5"/>
  <line x1="117" y1="227.0" x2="117" y2="242.0" stroke="#000" stroke-width="0.3" stroke-dasharray="2,2"/>
  <line x1="167" y1="227.0" x2="167" y2="242.0" stroke="#000" stroke-width="0.3" stroke-dasharray="2,2"/>
  <polygon points="117,242.0 120,239.0 120,245.0" fill="#000"/>
  <polygon points="167,242.0 164,239.0 164,245.0" fill="#000"/>
  <text x="142.0" y="255.0" text-anchor="middle" font-size="10" fill="#000">5'</text>
</g>
<g class="dimension">
  <line x1="196" y1="242.0" x2="224" y2="242.0" stroke="#000" stroke-width="0.5"/>
  <line x1="196" y1="227.0" x2="196" y2="242.0" stroke="#000" stroke-width="0.3" stroke-dasharray="2,2"/>
  <line x1="224" y1="227.0" x2="224" y2="242.0" stroke="#000" stroke-width="0.3" stroke-dasharray="2,2"/>
  <polygon points="196,242.0 199,239.0 199,245.0" fill="#000"/>
  <polygon points="224,242.0 221,239.0 221,245.0" fill="#000"/>
  <text x="210.0" y="255.0" text-anchor="middle" font-size="10" fill="#000">2' 10"</text>
</g>
<g class="dimension">
  <line x1="224" y1="242.0" x2="264" y2="242.0" stroke="#000" stroke-width="0.5"/>
  <line x1="224" y1="227.0" x2="224" y2="242.0" stroke="#000" stroke-width="0.3" stroke-dasharray="2,2"/>
  <line x1="264" y1="227.0" x2="264" y2="242.0" stroke="#000" stroke-width="0.3" stroke-dasharray="2,2"/>
  <polygon points="224,242.0 227,239.0 227,245.0" fill="#000"/>
  <polygon points="264,242.0 261,239.0 261,245.0" fill="#000"/>
  <text x="244.0" y="255.0" text-anchor="middle" font-size="10" fill="#000">4'</text>
</g>
<g class="dimension">
  <line x1="264" y1="242.0" x2="386" y2="242.0" stroke="#000" stroke-width="0.5"/>
  <line x1="264" y1="227.0" x2="264" y2="242.0" stroke="#000" stroke-width="0.3" stroke-dasharray="2,2"/>
  <line x1="386" y1="227.0" x2="386" y2="242.0" stroke="#000" stroke-width="0.3" stroke-dasharray="2,2"/>
  <polygon points="264,242.0 267,239.0 267,245.0" fill="#000"/>
  <polygon points="386,242.0 383,239.0 383,245.0" fill="#000"/>
  <text x="325.0" y="255.0" text-anchor="middle" font-size="10" fill="#000">12' 2"</text>
</g>
<g class="dimension">
  <line x1="386" y1="242.0" x2="426" y2="242.0" stroke="#000" stroke-width="0.5"/>
  <line x1="386" y1="227.0" x2="386" y2="242.0" stroke="#000" stroke-width="0.3" stroke-dasharray="2,2"/>
  <line x1="426" y1="227.0" x2="426" y2="242.0" stroke="#000" stroke-width="0.3" stroke-dasharray="2,2"/>
  <polygon points="386,242.0 389,239.0 389,245.0" fill="#000"/>
  <polygon points="426,242.0 423,239.0 423,245.0" fill="#000"/>
  <text x="406.0" y="255.0" text-anchor="middle" font-size="10" fill="#000">4'</text>
</g>
<g class="dimension">
  <line x1="80" y1="134.0" x2="115" y2="134.0" stroke="#000" stroke-width="0.5"/>
  <line x1="80" y1="119.0" x2="80" y2="134.0" stroke="#000" stroke-width="0.3" stroke-dasharray="2,2"/>
  <line x1="115" y1="119.0" x2="115" y2="134.0" stroke="#000" stroke-width="0.3" stroke-dasharray="2,2"/>
  <polygon points="80,134.0 83,131.0 83,137.0" fill="#000"/>
  <polygon points="115,134.0 112,131.0 112,137.0" fill="#000"/>
  <text x="97.5" y="147.0" text-anchor="middle" font-size="10" fill="#000">3' 6"</text>
</g>
<g class="dimension">
  <line x1="115" y1="134.0" x2="165" y2="134.0" stroke="#000" stroke-width="0.5"/>
  <line x1="115" y1="119.0" x2="115" y2="134.0" stroke="#000" stroke-width="0.3" stroke-dasharray="2,2"/>
  <line x1="165" y1="119.0" x2="165" y2="134.0" stroke="#000" stroke-width="0.3" stroke-dasharray="2,2"/>
  <polygon points="115,134.0 118,131.0 118,137.0" fill="#000"/>
  <polygon points="165,134.0 162,131.0 162,137.0" fill="#000"/>
  <text x="140.0" y="147.0" text-anchor="middle" font-size="10" fill="#000">5'</text>
</g>
<g class="dimension">
  <line x1="14.0" y1="252.0" x2="14.0" y2="222.0" stroke="#000" stroke-width="0.5"/>
  <line x1="44.0" y1="252.0" x2="14.0" y2="252.0" stroke="#000" stroke-width="0.3" stroke-dasharray="2,2"/>
  <line x1="44.0" y1="222.0" x2="14.0" y2="222.0" stroke="#000" stroke-width="0.3" stroke-dasharray="2,2"/>
  <polygon points="14.0,252.0 11.0,255.0 17.0,255.0" fill="#000"/>
  <polygon points="14.0,222.0 11.0,219.0 17.0,219.0" fill="#000"/>
  <text x="1.0" y="237.0" text-anchor="middle" font-size="10" fill="#000" transform="rotate(-90 1.0 237.0)">3'</text>
</g>
</g>
<text x="600.0" y="40.0" text-anchor="middle" font-size="18" font-weight="bold" fill="#333">Left Elevation</text>
</svg>