<?xml version="1.0" encoding="UTF-8"?>
<svg xmlns="http://www.w3.org/2000/svg" width="1200.0" height="988.0" viewBox="0 0 1200.0 988.0">
<title>Right Elevation</title>
<defs>
    <style>
        text { font-family: Arial, sans-serif; }
    </style>
</defs>
<g transform="translate(150, 210) scale(2.0, 2.0)">

<line x1="0" y1="314.0" x2="450" y2="314.0" stroke="#666" stroke-width="2" stroke-dasharray="5,5"/>
<rect x="0" y="284.0" width="450" height="30.0" fill="#A0826D" stroke="#000" stroke-width="1"/>
<rect x="150" y="176.0" width="104" height="100.0" fill="#C19A6B" stroke="#000" stroke-width="0.5"/>
<rect x="192" y="211.0" width="30" height="65.0" fill="#D2691E" stroke="#000" stroke-width="0.5"/>
<rect x="150" y="78.0" width="104" height="90.0" fill="#C19A6B" stroke="#000" stroke-width="0.5"/>
<rect x="362" y="246.0" width="88" height="30.0" fill="#C19A6B" stroke="#000" stroke-width="0.5"/>
<rect x="246" y="176.0" width="124" height="100.0" fill="#C19A6B" stroke="#000" stroke-width="0.5"/>
<rect x="283" y="211.0" width="50" height="40.0" fill="#87CEEB" stroke="#000" stroke-width="0.5"/>
<rect x="0" y="176.0" width="254" height="100.0" fill="#C19A6B" stroke="#000" stroke-width="0.5"/>
<rect x="186" y="211.0" width="40" height="40.0" fill="#87CEEB" stroke="#000" stroke-width="0.5"/>
<rect x="24" y="211.0" width="40" height="30.0" fill="#87CEEB" stroke="#000" stroke-width="0.5"/>
<rect x="362" y="138.0" width="88" height="30.0" fill="#C19A6B" stroke="#000" stroke-width="0.5"/>
<rect x="246" y="78.0" width="124" height="90.0" fill="#C19A6B" stroke="#000" stroke-width="0.5"/>
<rect x="285" y="103.0" width="50" height="40.0" fill="#87CEEB" stroke="#000" stroke-width="0.5"/>
<rect x="150" y="78.0" width="100" height="90.0" fill="#C19A6B" stroke="#000" stroke-width="0.5"/>
<rect x="0" y="78.0" width="150" height="90.0" fill="#C19A6B" stroke="#000" stroke-width="0.5"/>
<rect x="90" y="103.0" width="50" height="60.0" fill="#87CEEB" stroke="#000" stroke-width="0.5"/>
<rect x="25" y="103.0" width="50" height="60.0" fill="#87CEEB" stroke="#000" stroke-width="0.5"/>
<rect x="0" y="168.0" width="220" height="8.0" fill="#654321" stroke="#000" stroke-width="0.5"/>
<rect x="0" y="70.0" width="450" height="8.0" fill="#654321" stroke="#000" stroke-width="0.5"/>
<rect x="357.525" y="76.0" width="12.5" height="200.0" fill="#000" stroke="#000" stroke-width="0.5"/>
<rect x="147.75" y="76.0" width="12.5" height="200.0" fill="#000" stroke="#000" stroke-width="0.5"/>
<rect x="0.25" y="76.0" width="12.5" height="200.0" fill="#000" stroke="#000" stroke-width="0.5"/>
<rect x="442.0" y="76.0" width="8" height="200.0" fill="#000" stroke="#000" stroke-width="0.5"/>
<rect x="246.0" y="76.0" width="8" height="200.0" fill="#000" stroke="#000" stroke-width="0.5"/>
<g class="staircase-elevation">
<line x1="20.0" y1="276.0" x2="20.0" y2="271.0" stroke="#000" stroke-width="0.5"/>
<line x1="20.0" y1="271.0" x2="30.0" y2="271.0" stroke="#000" stroke-width="0.5"/>
<rect x="20.0" y="271.0" width="10.0" height="5.0" fill="#C19A6B" opacity="0.7"/>
<line x1="30.0" y1="271.0" x2="30.0" y2="266.0" stroke="#000" stroke-width="0.5"/>
<line x1="30.0" y1="266.0" x2="40.0" y2="266.0" stroke="#000" stroke-width="0.5"/>
<rect x="30.0" y="266.0" width="10.0" height="5.0" fill="#C19A6B" opacity="0.7"/>
<line x1="40.0" y1="266.0" x2="40.0" y2="261.0" stroke="#000" stroke-width="0.5"/>
<line x1="40.0" y1="261.0" x2="50.0" y2="261.0" stroke="#000" stroke-width="0.5"/>
<rect x="40.0" y="261.0" width="10.0" height="5.0" fill="#C19A6B" opacity="0.7"/>
<line x1="50.0" y1="261.0" x2="50.0" y2="256.0" stroke="#000" stroke-width="0.5"/>
<line x1="50.0" y1="256.0" x2="60.0" y2="256.0" stroke="#000" stroke-width="0.5"/>
<rect x="50.0" y="256.0" width="10.0" height="5.0" fill="#C19A6B" opacity="0.7"/>
<line x1="60.0" y1="256.0" x2="60.0" y2="251.0" stroke="#000" stroke-width="0.5"/>
<line x1="60.0" y1="251.0" x2="70.0" y2="251.0" stroke="#000" stroke-width="0.5"/>
<rect x="60.0" y="251.0" width="10.0" height="5.0" fill="#C19A6B" opacity="0.7"/>
<line x1="70.0" y1="251.0" x2="70.0" y2="246.0" stroke="#000" stroke-width="0.5"/>
<line x1="70.0" y1="246.0" x2="80.0" y2="246.0" stroke="#000" stroke-width="0.5"/>
<rect x="70.0" y="246.0" width="10.0" height="5.0" fill="#C19A6B" opacity="0.7"/>
<line x1="80.0" y1="246.0" x2="80.0" y2="241.0" stroke="#000" stroke-width="0.5"/>
<line x1="80.0" y1="241.0" x2="90.0" y2="241.0" stroke="#000" stroke-width="0.5"/>
<rect x="80.0" y="241.0" width="10.0" height="5.0" fill="#C19A6B" opacity="0.7"/>
<line x1="90.0" y1="241.0" x2="90.0" y2="236.0" stroke="#000" stroke-width="0.5"/>
<line x1="90.0" y1="236.0" x2="100.0" y2="236.0" stroke="#000" stroke-width="0.5"/>
<rect x="90.0" y="236.0" width="10.0" height="5.0" fill="#C19A6B" opacity="0.7"/>
<line x1="100.0" y1="236.0" x2="100.0" y2="231.0" stroke="#000" stroke-width="0.5"/>
<line x1="100.0" y1="231.0" x2="110.0" y2="231.0" stroke="#000" stroke-width="0.5"/>
<rect x="100.0" y="231.0" width="10.0" height="5.0" fill="#C19A6B" opacity="0.7"/>
<line x1="110.0" y1="231.0" x2="110.0" y2="226.0" stroke="#000" stroke-width="0.5"/>
<line x1="110.0" y1="226.0" x2="120.0" y2="226.0" stroke="#000" stroke-width="0.5"/>
<rect x="110.0" y="226.0" width="10.0" height="5.0" fill="#C19A6B" opacity="0.7"/>
<line x1="120.0" y1="226.0" x2="120.0" y2="221.0" stroke="#000" stroke-width="0.5"/>
<line x1="120.0" y1="221.0" x2="130.0" y2="221.0" stroke="#000" stroke-width="0.5"/>
<rect x="120.0" y="221.0" width="10.0" height="5.0" fill="#C19A6B" opacity="0.7"/>
<line x1="130.0" y1="221.0" x2="130.0" y2="216.0" stroke="#000" stroke-width="0.5"/>
<line x1="130.0" y1="216.0" x2="140.0" y2="216.0" stroke="#000" stroke-width="0.5"/>
<rect x="130.0" y="216.0" width="10.0" height="5.0" fill="#C19A6B" opacity="0.7"/>
<line x1="140.0" y1="216.0" x2="140.0" y2="211.0" stroke="#000" stroke-width="0.5"/>
<line x1="140.0" y1="211.0" x2="150.0" y2="211.0" stroke="#000" stroke-width="0.5"/>
<rect x="140.0" y="211.0" width="10.0" height="5.0" fill="#C19A6B" opacity="0.7"/>
<line x1="150.0" y1="211.0" x2="150.0" y2="206.0" stroke="#000" stroke-width="0.5"/>
<line x1="150.0" y1="206.0" x2="160.0" y2="206.0" stroke="#000" stroke-width="0.5"/>
<rect x="150.0" y="206.0" width="10.0" height="5.0" fill="#C19A6B" opacity="0.7"/>
<line x1="160.0" y1="206.0" x2="160.0" y2="201.0" stroke="#000" stroke-width="0.5"/>
<line x1="160.0" y1="201.0" x2="170.0" y2="201.0" stroke="#000" stroke-width="0.5"/>
<rect x="160.0" y="201.0" width="10.0" height="5.0" fill="#C19A6B" opacity="0.7"/>
<line x1="170.0" y1="201.0" x2="170.0" y2="196.0" stroke="#000" stroke-width="0.5"/>
<line x1="170.0" y1="196.0" x2="180.0" y2="196.0" stroke="#000" stroke-width="0.5"/>
<rect x="170.0" y="196.0" width="10.0" height="5.0" fill="#C19A6B" opacity="0.7"/>
<line x1="180.0" y1="196.0" x2="180.0" y2="191.0" stroke="#000" stroke-width="0.5"/>
<line x1="180.0" y1="191.0" x2="190.0" y2="191.0" stroke="#000" stroke-width="0.5"/>
<rect x="180.0" y="191.0" width="10.0" height="5.0" fill="#C19A6B" opacity="0.7"/>
<line x1="190.0" y1="191.0" x2="190.0" y2="186.0" stroke="#000" stroke-width="0.5"/>
<line x1="190.0" y1="186.0" x2="200.0" y2="186.0" stroke="#000" stroke-width="0.5"/>
<rect x="190.0" y="186.0" width="10.0" height="5.0" fill="#C19A6B" opacity="0.7"/>
<line x1="200.0" y1="186.0" x2="200.0" y2="181.0" stroke="#000" stroke-width="0.5"/>
<line x1="200.0" y1="181.0" x2="210.0" y2="181.0" stroke="#000" stroke-width="0.5"/>
<rect x="200.0" y="181.0" width="10.0" height="5.0" fill="#C19A6B" opacity="0.7"/>
<line x1="210.0" y1="181.0" x2="210.0" y2="176.0" stroke="#000" stroke-width="0.5"/>
<line x1="210.0" y1="176.0" x2="220.0" y2="176.0" stroke="#000" stroke-width="0.5"/>
<rect x="210.0" y="176.0" width="10.0" height="5.0" fill="#C19A6B" opacity="0.7"/>
<line x1="220.0" y1="176.0" x2="220.0" y2="276.0" stroke="#000" stroke-width="0.5"/>
<line x1="20" y1="276.0" x2="220.0" y2="276.0" stroke="#000" stroke-width="0.5"/>
</g>
<rect x="150.0" y="76.0" width="8" height="200.0" fill="#000" stroke="#000" stroke-width="0.5"/>
<rect x="0.0" y="76.0" width="8" height="200.0" fill="#000" stroke="#000" stroke-width="0.5"/>
<rect x="442.0" y="76.0" width="8" height="200.0" fill="#000" stroke="#000" stroke-width="0.5"/>
<rect x="246" y="176.0" width="124" height="100.0" fill="#C19A6B" stroke="#000" stroke-width="0.5"/>
<rect x="246" y="78.0" width="124" height="90.0" fill="#C19A6B" stroke="#000" stroke-width="0.5"/>
<rect x="357.525" y="76.0" width="12.5" height="200.0" fill="#000" stroke="#000" stroke-width="0.5"/>
<rect x="246.25" y="76.0" width="12.5" height="200.0" fill="#000" stroke="#000" stroke-width="0.5"/>
<rect x="442.0" y="76.0" width="8" height="200.0" fill="#000" stroke="#000" stroke-width="0.5"/>
<rect x="0.0" y="76.0" width="8" height="200.0" fill="#000" stroke="#000" stroke-width="0.5"/>
<rect x="150.0" y="76.0" width="8" height="200.0" fill="#000" stroke="#000" stroke-width="0.5"/>
<rect x="0" y="168.0" width="8" height="8.0" fill="#654321" stroke="#000" stroke-width="0.5"/>
<rect x="0" y="78.0" width="150" height="90.0" fill="#C19A6B" stroke="#000" stroke-width="0.5"/>
<rect x="90" y="103.0" width="50" height="60.0" fill="#87CEEB" stroke="#000" stroke-width="0.5"/>
<rect x="25" y="103.0" width="50" height="60.0" fill="#87CEEB" stroke="#000" stroke-width="0.5"/>
<rect x="0" y="168.0" width="120" height="8.0" fill="#654321" stroke="#000" stroke-width="0.5"/>
<rect x="0" y="70.0" width="450" height="8.0" fill="#654321" stroke="#000" stroke-width="0.5"/>
<rect x="442" y="70.0" width="8" height="8.0" fill="#654321" stroke="#000" stroke-width="0.5"/>
<rect x="358" y="70.0" width="12" height="8.0" fill="#654321" stroke="#000" stroke-width="0.5"/>
<rect x="246" y="70.0" width="8" height="8.0" fill="#654321" stroke="#000" stroke-width="0.5"/>
<rect x="148" y="70.0" width="12" height="8.0" fill="#654321" stroke="#000" stroke-width="0.5"/>
<rect x="0" y="70.0" width="12" height="8.0" fill="#654321" stroke="#000" stroke-width="0.5"/>
<rect x="0" y="276.0" width="450" height="8.0" fill="#808080" stroke="#000" stroke-width="0.5"/>
<rect x="116" y="168.0" width="100" height="8.0" fill="#808080" stroke="#000" stroke-width="0.5"/>
<rect x="216" y="168.0" width="234" height="8.0" fill="#808080" stroke="#000" stroke-width="0.5"/>
<rect x="246" y="176.0" width="124" height="100.0" fill="#C19A6B" stroke="#000" stroke-width="0.5"/>
<rect x="285" y="211.0" width="50" height="40.0" fill="#87CEEB" stroke="#000" stroke-width="0.5"/>
<rect x="362" y="246.0" width="88" height="30.0" fill="#C19A6B" stroke="#000" stroke-width="0.5"/>
<rect x="0" y="176.0" width="254" height="100.0" fill="#C19A6B" stroke="#000" stroke-width="0.5"/>
<rect x="216" y="211.0" width="20" height="20.0" fill="#87CEEB" stroke="#000" stroke-width="0.5"/>
<rect x="176" y="211.0" width="20" height="20.0" fill="#87CEEB" stroke="#000" stroke-width="0.5"/>
<rect x="80" y="211.0" width="60" height="30.0" fill="#87CEEB" stroke="#000" stroke-width="0.5"/>
<rect x="150" y="78.0" width="104" height="90.0" fill="#C19A6B" stroke="#000" stroke-width="0.5"/>
<rect x="216" y="103.0" width="20" height="20.0" fill="#87CEEB" stroke="#000" stroke-width="0.5"/>
<rect x="168" y="103.0" width="20" height="20.0" fill="#87CEEB" stroke="#000" stroke-width="0.5"/>
<rect x="246" y="78.0" width="124" height="90.0" fill="#C19A6B" stroke="#000" stroke-width="0.5"/>
<rect x="285" y="103.0" width="50" height="40.0" fill="#87CEEB" stroke="#000" stroke-width="0.5"/>
<rect x="362" y="138.0" width="88" height="30.0" fill="#C19A6B" stroke="#000" stroke-width="0.5"/>
<rect x="357.525" y="76.0" width="12.5" height="200.0" fill="#000" stroke="#000" stroke-width="0.5"/>
<rect x="147.75" y="76.0" width="12.5" height="200.0" fill="#000" stroke="#000" stroke-width="0.5"/>
<rect x="0.25" y="76.0" width="12.5" height="200.0" fill="#000" stroke="#000" stroke-width="0.5"/>
<rect x="442.0" y="76.0" width="8" height="200.0" fill="#000" stroke="#000" stroke-width="0.5"/>
<rect x="246.0" y="76.0" width="8" height="200.0" fill="#000" stroke="#000" stroke-width="0.5"/>
<line x1="475.0" y1="90.29573789504204" x2="363.775" y2="-3.0" stroke="#8B4513" stroke-width="3"/>
<line x1="154.0" y1="-3.0" x2="-44.6506233690925" y2="90.29573789504204" stroke="#8B4513" stroke-width="3"/>
<line x1="363.775" y1="-3.0" x2="154.0" y2="-3.0" stroke="#8B4513" stroke-width="3"/>
<g class="dimension">
  <line x1="480" y1="276.0" x2="480" y2="176.0" stroke="#000" stroke-width="0.5"/>
  <line x1="450" y1="276.0" x2="480" y2="276.0" stroke="#000" stroke-width="0.3" stroke-dasharray="2,2"/>
  <line x1="450" y1="176.0" x2="480" y2="176.0" stroke="#000" stroke-width="0.3" stroke-dasharray="2,2"/>
  <polygon points="480,276.0 477,279.0 483,279.0" fill="#000"/>
  <polygon points="480,176.0 477,173.0 483,173.0" fill="#000"/>
  <text x="493" y="226.0" text-anchor="middle" font-size="10" fill="#000" transform="rotate(-90 493 226.0)">10'</text>
</g>
<g class="dimension">
  <line x1="480" y1="168.0" x2="480" y2="78.0" stroke="#000" stroke-width="0.5"/>
  <line x1="450" y1="168.0" x2="480" y2="168.0" stroke="#000" stroke-width="0.3" stroke-dasharray="2,2"/>
  <line x1="450" y1="78.0" x2="480" y2="78.0" stroke="#000" stroke-width="0.3" stroke-dasharray="2,2"/>
  <polygon points="480,168.0 477,171.0 483,171.0" fill="#000"/>
  <polygon points="480,78.0 477,75.0 483,75.0" fill="#000"/>
  <text x="493" y="123.0" text-anchor="middle" font-size="10" fill="#000" transform="rotate(-90 493 123.0)">9'</text>
</g>
<g class="dimension">
  <line x1="480" y1="70.0" x2="480" y2="0.0" stroke="#000" stroke-width="0.5"/>
  <line x1="450" y1="70.0" x2="480" y2="70.0" stroke="#000" stroke-width="0.3" stroke-dasharray="2,2"/>
  <line x1="450" y1="0.0" x2="480" y2="0.0" stroke="#000" stroke-width="0.3" stroke-dasharray="2,2"/>
  <polygon points="480,70.0 477,73.0 483,73.0" fill="#000"/>
  <polygon points="480,0.0 477,-3.0 483,-3.0" fill="#000"/>
  <text x="493" y="35.0" text-anchor="middle" font-size="10" fill="#000" transform="rotate(-90 493 35.0)">7'</text>
</g>
<g class="dimension">
  <line x1="0" y1="-30.0" x2="450" y2="-30.0" stroke="#000" stroke-width="0.5"/>
  <line x1="0" y1="0.0" x2="0" y2="-30.0" stroke="#000" stroke-width="0.3" stroke-dasharray="2,2"/>
  <line x1="450" y1="0.0" x2="450" y2="-30.0" stroke="#000" stroke-width="0.3" stroke-dasharray="2,2"/>
  <polygon points="0,-30.0 3,-33.0 3,-27.0" fill="#000"/>
  <polygon points="450,-30.0 447,-33.0 447,-27.0" fill="#000"/>
  <text x="225.0" y="-35.0" text-anchor="middle" font-size="10" fill="#000">45'</text>
</g>
<g class="dimension">
  <line x1="90" y1="178.0" x2="140" y2="178.0" stroke="#000" stroke-width="0.5"/>
  <line x1="90" y1="163.0" x2="90" y2="178.0" stroke="#000" stroke-width="0.3" stroke-dasharray="2,2"/>
  <line x1="140" y1="163.0" x2="140" y2="178.0" stroke="#000" stroke-width="0.3" stroke-dasharray="2,2"/>
  <polygon points="90,178.0 93,175.0 93,181.0" fill="#000"/>
  <polygon points="140,178.0 137,175.0 137,181.0" fill="#000"/>
  <text x="115.0" y="191.0" text-anchor="middle" font-size="10" fill="#000">5'</text>
</g>
<g class="dimension">
  <line x1="25" y1="178.0" x2="75" y2="178.0" stroke="#000" stroke-width="0.5"/>
  <line x1="25" y1="163.0" x2="25" y2="178.0" stroke="#000" stroke-width="0.3" stroke-dasharray="2,2"/>
  <line x1="75" y1="163.0" x2="75" y2="178.0" stroke="#000" stroke-width="0.3" stroke-dasharray="2,2"/>
  <polygon points="25,178.0 28,175.0 28,181.0" fill="#000"/>
  <polygon points="75,178.0 72,175.0 72,181.0" fill="#000"/>
  <text x="50.0" y="191.0" text-anchor="middle" font-size="10" fill="#000">5'</text>
</g>
<g class="dimension">
  <line x1="335" y1="266.0" x2="370" y2="266.0" stroke="#000" stroke-width="0.5"/>
  <line x1="335" y1="251.0" x2="335" y2="266.0" stroke="#000" stroke-width="0.3" stroke-dasharray="2,2"/>
  <line x1="370" y1="251.0" x2="370" y2="266.0" stroke="#000" stroke-width="0.3" stroke-dasharray="2,2"/>
  <polygon points="335,266.0 338,263.0 338,269.0" fill="#000"/>
  <polygon points="370,266.0 367,263.0 367,269.0" fill="#000"/>
  <text x="352.5" y="279.0" text-anchor="middle" font-size="10" fill="#000">3' 6"</text>
</g>
<g class="dimension">
  <line x1="285" y1="266.0" x2="335" y2="266.0" stroke="#000" stroke-width="0.5"/>
  <line x1="285" y1="251.0" x2="285" y2="266.0" stroke="#000" stroke-width="0.3" stroke-dasharray="2,2"/>
  <line x1="335" y1="251.0" x2="335" y2="266.0" stroke="#000" stroke-width="0.3" stroke-dasharray="2,2"/>
  <polygon points="285,266.0 288,263.0 288,269.0" fill="#000"/>
  <polygon points="335,266.0 332,263.0 332,269.0" fill="#000"/>
  <text x="310.0" y="279.0" text-anchor="middle" font-size="10" fill="#000">5'</text>
</g>
<g class="dimension">
  <line x1="216" y1="256.0" x2="236" y2="256.0" stroke="#000" stroke-width="0.5"/>
  <line x1="216" y1="241.0" x2="216" y2="256.0" stroke="#000" stroke-width="0.3" stroke-dasharray="2,2"/>
  <line x1="236" y1="241.0" x2="236" y2="256.0" stroke="#000" stroke-width="0.3" stroke-dasharray="2,2"/>
  <polygon points="216,256.0 219,253.0 219,259.0" fill="#000"/>
  <polygon points="236,256.0 233,253.0 233,259.0" fill="#000"/>
  <text x="226.0" y="269.0" text-anchor="middle" font-size="10" fill="#000">2'</text>
</g>
<g class="dimension">
  <line x1="196" y1="256.0" x2="216" y2="256.0" stroke="#000" stroke-width="0.5"/>
  <line x1="196" y1="241.0" x2="196" y2="256.0" stroke="#000" stroke-width="0.3" stroke-dasharray="2,2"/>
  <line x1="216" y1="241.0" x2="216" y2="256.0" stroke="#000" stroke-width="0.3" stroke-dasharray="2,2"/>
  <polygon points="196,256.0 199,253.0 199,259.0" fill="#000"/>
  <polygon points="216,256.0 213,253.0 213,259.0" fill="#000"/>
  <text x="206.0" y="269.0" text-anchor="middle" font-size="10" fill="#000">2'</text>
</g>
<g class="dimension">
  <line x1="176" y1="256.0" x2="196" y2="256.0" stroke="#000" stroke-width="0.5"/>
  <line x1="176" y1="241.0" x2="176" y2="256.0" stroke="#000" stroke-width="0.3" stroke-dasharray="2,2"/>
  <line x1="196" y1="241.0" x2="196" y2="256.0" stroke="#000" stroke-width="0.3" stroke-dasharray="2,2"/>
  <polygon points="176,256.0 179,253.0 179,259.0" fill="#000"/>
  <polygon points="196,256.0 193,253.0 193,259.0" fill="#000"/>
  <text x="186.0" y="269.0" text-anchor="middle" font-size="10" fill="#000">2'</text>
</g>
<g class="dimension">
  <line x1="140" y1="256.0" x2="176" y2="256.0" stroke="#000" stroke-width="0.5"/>
  <line x1="140" y1="241.0" x2="140" y2="256.0" stroke="#000" stroke-width="0.3" stroke-dasharray="2,2"/>
  <line x1="176" y1="241.0" x2="176" y2="256.0" stroke="#000" stroke-width="0.3" stroke-dasharray="2,2"/>
  <polygon points="140,256.0 143,253.0 143,259.0" fill="#000"/>
  <polygon points="176,256.0 173,253.0 173,259.0" fill="#000"/>
  <text x="158.0" y="269.0" text-anchor="middle" font-size="10" fill="#000">3' 7"</text>
</g>
<g class="dimension">
  <line x1="80" y1="256.0" x2="140" y2="256.0" stroke="#000" stroke-width="0.5"/>
  <line x1="80" y1="241.0" x2="80" y2="256.0" stroke="#000" stroke-width="0.3" stroke-dasharray="2,2"/>
  <line x1="140" y1="241.0" x2="140" y2="256.0" stroke="#000" stroke-width="0.3" stroke-dasharray="2,2"/>
  <polygon points="80,256.0 83,253.0 83,259.0" fill="#000"/>
  <polygon points="140,256.0 137,253.0 137,259.0" fill="#000"/>
  <text x="110.0" y="269.0" text-anchor="middle" font-size="10" fill="#000">6'</text>
</g>
<g class="dimension">
  <line x1="216" y1="138.0" x2="236" y2="138.0" stroke="#000" stroke-width="0.5"/>
  <line x1="216" y1="123.0" x2="216" y2="138.0" stroke="#000" stroke-width="0.3" stroke-dasharray="2,2"/>
  <line x1="236" y1="123.0" x2="236" y2="138.0" stroke="#000" stroke-width="0.3" stroke-dasharray="2,2"/>
  <polygon points="216,138.0 219,135.0 219,141.0" fill="#000"/>
  <polygon points="236,138.0 233,135.0 233,141.0" fill="#000"/>
  <text x="226.0" y="151.0" text-anchor="middle" font-size="10" fill="#000">2'</text>
</g>
<g class="dimension">
  <line x1="188" y1="138.0" x2="216" y2="138.0" stroke="#000" stroke-width="0.5"/>
  <line x1="188" y1="123.0" x2="188" y2="138.0" stroke="#000" stroke-width="0.3" stroke-dasharray="2,2"/>
  <line x1="216" y1="123.0" x2="216" y2="138.0" stroke="#000" stroke-width="0.3" stroke-dasharray="2,2"/>
  <polygon points="188,138.0 191,135.0 191,141.0" fill="#000"/>
  <polygon points="216,138.0 213,135.0 213,141.0" fill="#000"/>
  <text x="202.0" y="151.0" text-anchor="middle" font-size="10" fill="#000">2' 10"</text>
</g>
<g class="dimension">
  <line x1="168" y1="138.0" x2="188" y2="138.0" stroke="#000" stroke-width="0.5"/>
  <line x1="168" y1="123.0" x2="168" y2="138.0" stroke="#000" stroke-width="0.3" stroke-dasharray="2,2"/>
  <line x1="188" y1="123.0" x2="188" y2="138.0" stroke="#000" stroke-width="0.3" stroke-dasharray="2,2"/>
  <polygon points="168,138.0 171,135.0 171,141.0" fill="#000"/>
  <polygon points="188,138.0 185,135.0 185,141.0" fill="#000"/>
  <text x="178.0" y="151.0" text-anchor="middle" font-size="10" fill="#000">2'</text>
</g>
<g class="dimension">
  <line x1="335" y1="158.0" x2="370" y2="158.0" stroke="#000" stroke-width="0.5"/>
  <line x1="335" y1="143.0" x2="335" y2="158.0" stroke="#000" stroke-width="0.3" stroke-dasharray="2,2"/>
  <line x1="370" y1="143.0" x2="370" y2="158.0" stroke="#000" stroke-width="0.3" stroke-dasharray="2,2"/>
  <polygon points="335,158.0 338,155.0 338,161.0" fill="#000"/>
  <polygon points="370,158.0 367,155.0 367,161.0" fill="#000"/>
  <text x="352.5" y="171.0" text-anchor="middle" font-size="10" fill="#000">3' 6"</text>
</g>
<g class="dimension">
  <line x1="285" y1="158.0" x2="335" y2="158.0" stroke="#000" stroke-width="0.5"/>
  <line x1="285" y1="143.0" x2="285" y2="158.0" stroke="#000" stroke-width="0.3" stroke-dasharray="2,2"/>
  <line x1="335" y1="143.0" x2="335" y2="158.0" stroke="#000" stroke-width="0.3" stroke-dasharray="2,2"/>
  <polygon points="285,158.0 288,155.0 288,161.0" fill="#000"/>
  <polygon points="335,158.0 332,155.0 332,161.0" fill="#000"/>
  <text x="310.0" y="171.0" text-anchor="middle" font-size="10" fill="#000">5'</text>
</g>
<g class="dimension">
  <line x1="376.0" y1="276.0" x2="376.0" y2="246.0" stroke="#000" stroke-width="0.5"/>
  <line x1="406.0" y1="276.0" x2="376.0" y2="276.0" stroke="#000" stroke-width="0.3" stroke-dasharray="2,2"/>
  <line x1="406.0" y1="246.0" x2="376.0" y2="246.0" stroke="#000" stroke-width="0.3" stroke-dasharray="2,2"/>
  <polygon points="376.0,276.0 373.0,279.0 379.0,279.0" fill="#000"/>
  <polygon points="376.0,246.0 373.0,243.0 379.0,243.0" fill="#000"/>
  <text x="363.0" y="261.0" text-anchor="middle" font-size="10" fill="#000" transform="rotate(-90 363.0 261.0)">3'</text>
</g>
</g>
<text x="600.0" y="40.0" text-anchor="middle" font-size="18" font-weight="bold" fill="#333">Right Elevation</text>
</svg>