<?xml version="1.0" encoding="UTF-8"?>
<svg xmlns="http://www.w3.org/2000/svg" width="1200.0" height="940.0" viewBox="0 0 1200.0 940.0">
<title>Right Elevation</title>
<defs>
    <style>
        text { font-family: Arial, sans-serif; }
    </style>
</defs>
<g transform="translate(150, 210) scale(2.0, 2.0)">

<line x1="0" y1="290.0" x2="450" y2="290.0" stroke="#666" stroke-width="2" stroke-dasharray="5,5"/>
<rect x="0" y="260.0" width="450" height="30.0" fill="#A0826D" stroke="#000" stroke-width="1"/>
<rect x="150" y="152.0" width="104" height="100.0" fill="#C19A6B" stroke="#000" stroke-width="0.5"/>
<rect x="192" y="187.0" width="30" height="65.0" fill="#D2691E" stroke="#000" stroke-width="0.5"/>
<rect x="150" y="54.0" width="104" height="90.0" fill="#C19A6B" stroke="#000" stroke-width="0.5"/>
<rect x="362" y="222.0" width="88" height="30.0" fill="#C19A6B" stroke="#000" stroke-width="0.5"/>
<rect x="246" y="152.0" width="124" height="100.0" fill="#C19A6B" stroke="#000" stroke-width="0.5"/>
<rect x="283" y="187.0" width="50" height="40.0" fill="#87CEEB" stroke="#000" stroke-width="0.5"/>
<rect x="0" y="152.0" width="254" height="100.0" fill="#C19A6B" stroke="#000" stroke-width="0.5"/>
<rect x="186" y="187.0" width="40" height="40.0" fill="#87CEEB" stroke="#000" stroke-width="0.5"/>
<rect x="24" y="187.0" width="40" height="30.0" fill="#87CEEB" stroke="#000" stroke-width="0.5"/>
<rect x="362" y="114.0" width="88" height="30.0" fill="#C19A6B" stroke="#000" stroke-width="0.5"/>
<rect x="246" y="54.0" width="124" height="90.0" fill="#C19A6B" stroke="#000" stroke-width="0.5"/>
<rect x="285" y="79.0" width="50" height="40.0" fill="#87CEEB" stroke="#000" stroke-width="0.5"/>
<rect x="150" y="54.0" width="100" height="90.0" fill="#C19A6B" stroke="#000" stroke-width="0.5"/>
<rect x="0" y="54.0" width="150" height="90.0" fill="#C19A6B" stroke="#000" stroke-width="0.5"/>
<rect x="90" y="79.0" width="50" height="60.0" fill="#87CEEB" stroke="#000" stroke-width="0.5"/>
<rect x="25" y="79.0" width="50" height="60.0" fill="#87CEEB" stroke="#000" stroke-width="0.5"/>
<rect x="0" y="144.0" width="220" height="8.0" fill="#654321" stroke="#000" stroke-width="0.5"/>
<rect x="0" y="46.0" width="450" height="8.0" fill="#654321" stroke="#000" stroke-width="0.5"/>
<rect x="357.525" y="52.0" width="12.5" height="200.0" fill="#000" stroke="#000" stroke-width="0.5"/>
<rect x="147.75" y="52.0" width="12.5" height="200.0" fill="#000" stroke="#000" stroke-width="0.5"/>
<rect x="0.25" y="52.0" width="12.5" height="200.0" fill="#000" stroke="#000" stroke-width="0.5"/>
<rect x="442.0" y="52.0" width="8" height="200.0" fill="#000" stroke="#000" stroke-width="0.5"/>
<rect x="246.0" y="52.0" width="8" height="200.0" fill="#000" stroke="#000" stroke-width="0.5"/>
<g class="staircase-elevation">
<line x1="20.0" y1="252.0" x2="20.0" y2="247.0" stroke="#000" stroke-width="0.5"/>
<line x1="20.0" y1="247.0" x2="30.0" y2="247.0" stroke="#000" stroke-width="0.5"/>
<rect x="20.0" y="247.0" width="10.0" height="5.0" fill="#C19A6B" opacity="0.7"/>
<line x1="30.0" y1="247.0" x2="30.0" y2="242.0" stroke="#000" stroke-width="0.5"/>
<line x1="30.0" y1="242.0" x2="40.0" y2="242.0" stroke="#000" stroke-width="0.5"/>
<rect x="30.0" y="242.0" width="10.0" height="5.0" fill="#C19A6B" opacity="0.7"/>
<line x1="40.0" y1="242.0" x2="40.0" y2="237.0" stroke="#000" stroke-width="0.5"/>
<line x1="40.0" y1="237.0" x2="50.0" y2="237.0" stroke="#000" stroke-width="0.5"/>
<rect x="40.0" y="237.0" width="10.0" height="5.0" fill="#C19A6B" opacity="0.7"/>
<line x1="50.0" y1="237.0" x2="50.0" y2="232.0" stroke="#000" stroke-width="0.5"/>
<line x1="50.0" y1="232.0" x2="60.0" y2="232.0" stroke="#000" stroke-width="0.5"/>
<rect x="50.0" y="232.0" width="10.0" height="5.0" fill="#C19A6B" opacity="0.7"/>
<line x1="60.0" y1="232.0" x2="60.0" y2="227.0" stroke="#000" stroke-width="0.5"/>
<line x1="60.0" y1="227.0" x2="70.0" y2="227.0" stroke="#000" stroke-width="0.5"/>
<rect x="60.0" y="227.0" width="10.0" height="5.0" fill="#C19A6B" opacity="0.7"/>
<line x1="70.0" y1="227.0" x2="70.0" y2="222.0" stroke="#000" stroke-width="0.5"/>
<line x1="70.0" y1="222.0" x2="80.0" y2="222.0" stroke="#000" stroke-width="0.5"/>
<rect x="70.0" y="222.0" width="10.0" height="5.0" fill="#C19A6B" opacity="0.7"/>
<line x1="80.0" y1="222.0" x2="80.0" y2="217.0" stroke="#000" stroke-width="0.5"/>
<line x1="80.0" y1="217.0" x2="90.0" y2="217.0" stroke="#000" stroke-width="0.5"/>
<rect x="80.0" y="217.0" width="10.0" height="5.0" fill="#C19A6B" opacity="0.7"/>
<line x1="90.0" y1="217.0" x2="90.0" y2="212.0" stroke="#000" stroke-width="0.5"/>
<line x1="90.0" y1="212.0" x2="100.0" y2="212.0" stroke="#000" stroke-width="0.5"/>
<rect x="90.0" y="212.0" width="10.0" height="5.0" fill="#C19A6B" opacity="0.7"/>
<line x1="100.0" y1="212.0" x2="100.0" y2="207.0" stroke="#000" stroke-width="0.5"/>
<line x1="100.0" y1="207.0" x2="110.0" y2="207.0" stroke="#000" stroke-width="0.5"/>
<rect x="100.0" y="207.0" width="10.0" height="5.0" fill="#C19A6B" opacity="0.7"/>
<line x1="110.0" y1="207.0" x2="110.0" y2="202.0" stroke="#000" stroke-width="0.5"/>
<line x1="110.0" y1="202.0" x2="120.0" y2="202.0" stroke="#000" stroke-width="0.5"/>
<rect x="110.0" y="202.0" width="10.0" height="5.0" fill="#C19A6B" opacity="0.7"/>
<line x1="120.0" y1="202.0" x2="120.0" y2="197.0" stroke="#000" stroke-width="0.5"/>
<line x1="120.0" y1="197.0" x2="130.0" y2="197.0" stroke="#000" stroke-width="0.5"/>
<rect x="120.0" y="197.0" width="10.0" height="5.0" fill="#C19A6B" opacity="0.7"/>
<line x1="130.0" y1="197.0" x2="130.0" y2="192.0" stroke="#000" stroke-width="0.5"/>
<line x1="130.0" y1="192.0" x2="140.0" y2="192.0" stroke="#000" stroke-width="0.5"/>
<rect x="130.0" y="192.0" width="10.0" height="5.0" fill="#C19A6B" opacity="0.7"/>
<line x1="140.0" y1="192.0" x2="140.0" y2="187.0" stroke="#000" stroke-width="0.5"/>
<line x1="140.0" y1="187.0" x2="150.0" y2="187.0" stroke="#000" stroke-width="0.5"/>
<rect x="140.0" y="187.0" width="10.0" height="5.0" fill="#C19A6B" opacity="0.7"/>
<line x1="150.0" y1="187.0" x2="150.0" y2="182.0" stroke="#000" stroke-width="0.5"/>
<line x1="150.0" y1="182.0" x2="160.0" y2="182.0" stroke="#000" stroke-width="0.5"/>
<rect x="150.0" y="182.0" width="10.0" height="5.0" fill="#C19A6B" opacity="0.7"/>
<line x1="160.0" y1="182.0" x2="160.0" y2="177.0" stroke="#000" stroke-width="0.5"/>
<line x1="160.0" y1="177.0" x2="170.0" y2="177.0" stroke="#000" stroke-width="0.5"/>
<rect x="160.0" y="177.0" width="10.0" height="5.0" fill="#C19A6B" opacity="0.7"/>
<line x1="170.0" y1="177.0" x2="170.0" y2="172.0" stroke="#000" stroke-width="0.5"/>
<line x1="170.0" y1="172.0" x2="180.0" y2="172.0" stroke="#000" stroke-width="0.5"/>
<rect x="170.0" y="172.0" width="10.0" height="5.0" fill="#C19A6B" opacity="0.7"/>
<line x1="180.0" y1="172.0" x2="180.0" y2="167.0" stroke="#000" stroke-width="0.5"/>
<line x1="180.0" y1="167.0" x2="190.0" y2="167.0" stroke="#000" stroke-width="0.5"/>
<rect x="180.0" y="167.0" width="10.0" height="5.0" fill="#C19A6B" opacity="0.7"/>
<line x1="190.0" y1="167.0" x2="190.0" y2="162.0" stroke="#000" stroke-width="0.5"/>
<line x1="190.0" y1="162.0" x2="200.0" y2="162.0" stroke="#000" stroke-width="0.5"/>
<rect x="190.0" y="162.0" width="10.0" height="5.0" fill="#C19A6B" opacity="0.7"/>
<line x1="200.0" y1="162.0" x2="200.0" y2="157.0" stroke="#000" stroke-width="0.5"/>
<line x1="200.0" y1="157.0" x2="210.0" y2="157.0" stroke="#000" stroke-width="0.5"/>
<rect x="200.0" y="157.0" width="10.0" height="5.0" fill="#C19A6B" opacity="0.7"/>
<line x1="210.0" y1="157.0" x2="210.0" y2="152.0" stroke="#000" stroke-width="0.5"/>
<line x1="210.0" y1="152.0" x2="220.0" y2="152.0" stroke="#000" stroke-width="0.5"/>
<rect x="210.0" y="152.0" width="10.0" height="5.0" fill="#C19A6B" opacity="0.7"/>
<line x1="220.0" y1="152.0" x2="220.0" y2="252.0" stroke="#000" stroke-width="0.5"/>
<line x1="20" y1="252.0" x2="220.0" y2="252.0" stroke="#000" stroke-width="0.5"/>
</g>
<rect x="150.0" y="52.0" width="8" height="200.0" fill="#000" stroke="#000" stroke-width="0.5"/>
<rect x="0.0" y="52.0" width="8" height="200.0" fill="#000" stroke="#000" stroke-width="0.5"/>
<rect x="442.0" y="52.0" width="8" height="200.0" fill="#000" stroke="#000" stroke-width="0.5"/>
<rect x="246" y="152.0" width="124" height="100.0" fill="#C19A6B" stroke="#000" stroke-width="0.5"/>
<rect x="246" y="54.0" width="124" height="90.0" fill="#C19A6B" stroke="#000" stroke-width="0.5"/>
<rect x="357.525" y="52.0" width="12.5" height="200.0" fill="#000" stroke="#000" stroke-width="0.5"/>
<rect x="246.25" y="52.0" width="12.5" height="200.0" fill="#000" stroke="#000" stroke-width="0.5"/>
<rect x="442.0" y="52.0" width="8" height="200.0" fill="#000" stroke="#000" stroke-width="0.5"/>
<rect x="0.0" y="52.0" width="8" height="200.0" fill="#000" stroke="#000" stroke-width="0.5"/>
<rect x="150.0" y="52.0" width="8" height="200.0" fill="#000" stroke="#000" stroke-width="0.5"/>
<rect x="0" y="144.0" width="8" height="8.0" fill="#654321" stroke="#000" stroke-width="0.5"/>
<rect x="0" y="54.0" width="150" height="90.0" fill="#C19A6B" stroke="#000" stroke-width="0.5"/>
<rect x="90" y="79.0" width="50" height="60.0" fill="#87CEEB" stroke="#000" stroke-width="0.5"/>
<rect x="25" y="79.0" width="50" height="60.0" fill="#87CEEB" stroke="#000" stroke-width="0.5"/>
<rect x="0" y="144.0" width="120" height="8.0" fill="#654321" stroke="#000" stroke-width="0.5"/>
<rect x="0" y="46.0" width="450" height="8.0" fill="#654321" stroke="#000" stroke-width="0.5"/>
<rect x="442" y="46.0" width="8" height="8.0" fill="#654321" stroke="#000" stroke-width="0.5"/>
<rect x="358" y="46.0" width="12" height="8.0" fill="#654321" stroke="#000" stroke-width="0.5"/>
<rect x="246" y="46.0" width="8" height="8.0" fill="#654321" stroke="#000" stroke-width="0.5"/>
<rect x="148" y="46.0" width="12" height="8.0" fill="#654321" stroke="#000" stroke-width="0.5"/>
<rect x="0" y="46.0" width="12" height="8.0" fill="#654321" stroke="#000" stroke-width="0.5"/>
<rect x="0" y="252.0" width="450" height="8.0" fill="#808080" stroke="#000" stroke-width="0.5"/>
<rect x="116" y="144.0" width="100" height="8.0" fill="#808080" stroke="#000" stroke-width="0.5"/>
<rect x="216" y="144.0" width="234" height="8.0" fill="#808080" stroke="#000" stroke-width="0.5"/>
<rect x="246" y="152.0" width="124" height="100.0" fill="#C19A6B" stroke="#000" stroke-width="0.5"/>
<rect x="285" y="187.0" width="50" height="40.0" fill="#87CEEB" stroke="#000" stroke-width="0.5"/>
<rect x="362" y="222.0" width="88" height="30.0" fill="#C19A6B" stroke="#000" stroke-width="0.5"/>
<rect x="0" y="152.0" width="254" height="100.0" fill="#C19A6B" stroke="#000" stroke-width="0.5"/>
<rect x="216" y="187.0" width="20" height="20.0" fill="#87CEEB" stroke="#000" stroke-width="0.5"/>
<rect x="176" y="187.0" width="20" height="20.0" fill="#87CEEB" stroke="#000" stroke-width="0.5"/>
<rect x="80" y="187.0" width="60" height="30.0" fill="#87CEEB" stroke="#000" stroke-width="0.5"/>
<rect x="150" y="54.0" width="104" height="90.0" fill="#C19A6B" stroke="#000" stroke-width="0.5"/>
<rect x="216" y="79.0" width="20" height="20.0" fill="#87CEEB" stroke="#000" stroke-width="0.5"/>
<rect x="168" y="79.0" width="20" height="20.0" fill="#87CEEB" stroke="#000" stroke-width="0.5"/>
<rect x="246" y="54.0" width="124" height="90.0" fill="#C19A6B" stroke="#000" stroke-width="0.5"/>
<rect x="285" y="79.0" width="50" height="40.0" fill="#87CEEB" stroke="#000" stroke-width="0.5"/>
<rect x="362" y="114.0" width="88" height="30.0" fill="#C19A6B" stroke="#000" stroke-width="0.5"/>
<rect x="357.525" y="52.0" width="12.5" height="200.0" fill="#000" stroke="#000" stroke-width="0.5"/>
<rect x="147.75" y="52.0" width="12.5" height="200.0" fill="#000" stroke="#000" stroke-width="0.5"/>
<rect x="0.25" y="52.0" width="12.5" height="200.0" fill="#000" stroke="#000" stroke-width="0.5"/>
<rect x="442.0" y="52.0" width="8" height="200.0" fill="#000" stroke="#000" stroke-width="0.5"/>
<rect x="246.0" y="52.0" width="8" height="200.0" fill="#000" stroke="#000" stroke-width="0.5"/>
<line x1="486" y1="59.0" x2="304.0" y2="-27.40227264476232" stroke="#8B4513" stroke-width="3"/>
<line x1="146.0" y1="-27.40227264476232" x2="-36" y2="59.0" stroke="#8B4513" stroke-width="3"/>
<line x1="304.0" y1="-27.40227264476232" x2="146.0" y2="-27.40227264476232" stroke="#8B4513" stroke-width="3"/>
<g class="dimension">
  <line x1="480" y1="252.0" x2="480" y2="152.0" stroke="#000" stroke-width="0.5"/>
  <line x1="450" y1="252.0" x2="480" y2="252.0" stroke="#000" stroke-width="0.3" stroke-dasharray="2,2"/>
  <line x1="450" y1="152.0" x2="480" y2="152.0" stroke="#000" stroke-width="0.3" stroke-dasharray="2,2"/>
  <polygon points="480,252.0 477,255.0 483,255.0" fill="#000"/>
  <polygon points="480,152.0 477,149.0 483,149.0" fill="#000"/>
  <text x="493" y="202.0" text-anchor="middle" font-size="10" fill="#000" transform="rotate(-90 493 202.0)">10'</text>
</g>
<g class="dimension">
  <line x1="480" y1="144.0" x2="480" y2="54.0" stroke="#000" stroke-width="0.5"/>
  <line x1="450" y1="144.0" x2="480" y2="144.0" stroke="#000" stroke-width="0.3" stroke-dasharray="2,2"/>
  <line x1="450" y1="54.0" x2="480" y2="54.0" stroke="#000" stroke-width="0.3" stroke-dasharray="2,2"/>
  <polygon points="480,144.0 477,147.0 483,147.0" fill="#000"/>
  <polygon points="480,54.0 477,51.0 483,51.0" fill="#000"/>
  <text x="493" y="99.0" text-anchor="middle" font-size="10" fill="#000" transform="rotate(-90 493 99.0)">9'</text>
</g>
<g class="dimension">
  <line x1="480" y1="46.0" x2="480" y2="-24.0" stroke="#000" stroke-width="0.5"/>
  <line x1="450" y1="46.0" x2="480" y2="46.0" stroke="#000" stroke-width="0.3" stroke-dasharray="2,2"/>
  <line x1="450" y1="-24.0" x2="480" y2="-24.0" stroke="#000" stroke-width="0.3" stroke-dasharray="2,2"/>
  <polygon points="480,46.0 477,49.0 483,49.0" fill="#000"/>
  <polygon points="480,-24.0 477,-27.0 483,-27.0" fill="#000"/>
  <text x="493" y="11.0" text-anchor="middle" font-size="10" fill="#000" transform="rotate(-90 493 11.0)">7'</text>
</g>
<g class="dimension">
  <line x1="0" y1="-30.0" x2="450" y2="-30.0" stroke="#000" stroke-width="0.5"/>
  <line x1="0" y1="0.0" x2="0" y2="-30.0" stroke="#000" stroke-width="0.3" stroke-dasharray="2,2"/>
  <line x1="450" y1="0.0" x2="450" y2="-30.0" stroke="#000" stroke-width="0.3" stroke-dasharray="2,2"/>
  <polygon points="0,-30.0 3,-33.0 3,-27.0" fill="#000"/>
  <polygon points="450,-30.0 447,-33.0 447,-27.0" fill="#000"/>
  <text x="225.0" y="-35.0" text-anchor="middle" font-size="10" fill="#000">45'</text>
</g>
<g class="dimension">
  <line x1="90" y1="154.0" x2="140" y2="154.0" stroke="#000" stroke-width="0.5"/>
  <line x1="90" y1="139.0" x2="90" y2="154.0" stroke="#000" stroke-width="0.3" stroke-dasharray="2,2"/>
  <line x1="140" y1="139.0" x2="140" y2="154.0" stroke="#000" stroke-width="0.3" stroke-dasharray="2,2"/>
  <polygon points="90,154.0 93,151.0 93,157.0" fill="#000"/>
  <polygon points="140,154.0 137,151.0 137,157.0" fill="#000"/>
  <text x="115.0" y="167.0" text-anchor="middle" font-size="10" fill="#000">5'</text>
</g>
<g class="dimension">
  <line x1="25" y1="154.0" x2="75" y2="154.0" stroke="#000" stroke-width="0.5"/>
  <line x1="25" y1="139.0" x2="25" y2="154.0" stroke="#000" stroke-width="0.3" stroke-dasharray="2,2"/>
  <line x1="75" y1="139.0" x2="75" y2="154.0" stroke="#000" stroke-width="0.3" stroke-dasharray="2,2"/>
  <polygon points="25,154.0 28,151.0 28,157.0" fill="#000"/>
  <polygon points="75,154.0 72,151.0 72,157.0" fill="#000"/>
  <text x="50.0" y="167.0" text-anchor="middle" font-size="10" fill="#000">5'</text>
</g>
<g class="dimension">
  <line x1="335" y1="242.0" x2="370" y2="242.0" stroke="#000" stroke-width="0.5"/>
  <line x1="335" y1="227.0" x2="335" y2="242.0" stroke="#000" stroke-width="0.3" stroke-dasharray="2,2"/>
  <line x1="370" y1="227.0" x2="370" y2="242.0" stroke="#000" stroke-width="0.3" stroke-dasharray="2,2"/>
  <polygon points="335,242.0 338,239.0 338,245.0" fill="#000"/>
  <polygon points="370,242.0 367,239.0 367,245.0" fill="#000"/>
  <text x="352.5" y="255.0" text-anchor="middle" font-size="10" fill="#000">3' 6"</text>
</g>
<g class="dimension">
  <line x1="285" y1="242.0" x2="335" y2="242.0" stroke="#000" stroke-width="0.5"/>
  <line x1="285" y1="227.0" x2="285" y2="242.0" stroke="#000" stroke-width="0.3" stroke-dasharray="2,2"/>
  <line x1="335" y1="227.0" x2="335" y2="242.0" stroke="#000" stroke-width="0.3" stroke-dasharray="2,2"/>
  <polygon points="285,242.0 288,239.0 288,245.0" fill="#000"/>
  <polygon points="335,242.0 332,239.0 332,245.0" fill="#000"/>
  <text x="310.0" y="255.0" text-anchor="middle" font-size="10" fill="#000">5'</text>
</g>
<g class="dimension">
  <line x1="216" y1="232.0" x2="236" y2="232.0" stroke="#000" stroke-width="0.5"/>
  <line x1="216" y1="217.0" x2="216" y2="232.0" stroke="#000" stroke-width="0.3" stroke-dasharray="2,2"/>
  <line x1="236" y1="217.0" x2="236" y2="232.0" stroke="#000" stroke-width="0.3" stroke-dasharray="2,2"/>
  <polygon points="216,232.0 219,229.0 219,235.0" fill="#000"/>
  <polygon points="236,232.0 233,229.0 233,235.0" fill="#000"/>
  <text x="226.0" y="245.0" text-anchor="middle" font-size="10" fill="#000">2'</text>
</g>
<g class="dimension">
  <line x1="196" y1="232.0" x2="216" y2="232.0" stroke="#000" stroke-width="0.5"/>
  <line x1="196" y1="217.0" x2="196" y2="232.0" stroke="#000" stroke-width="0.3" stroke-dasharray="2,2"/>
  <line x1="216" y1="217.0" x2="216" y2="232.0" stroke="#000" stroke-width="0.3" stroke-dasharray="2,2"/>
  <polygon points="196,232.0 199,229.0 199,235.0" fill="#000"/>
  <polygon points="216,232.0 213,229.0 213,235.0" fill="#000"/>
  <text x="206.0" y="245.0" text-anchor="middle" font-size="10" fill="#000">2'</text>
</g>
<g class="dimension">
  <line x1="176" y1="232.0" x2="196" y2="232.0" stroke="#000" stroke-width="0.5"/>
  <line x1="176" y1="217.0" x2="176" y2="232.0" stroke="#000" stroke-width="0.3" stroke-dasharray="2,2"/>
  <line x1="196" y1="217.0" x2="196" y2="232.0" stroke="#000" stroke-width="0.3" stroke-dasharray="2,2"/>
  <polygon points="176,232.0 179,229.0 179,235.0" fill="#000"/>
  <polygon points="196,232.0 193,229.0 193,235.0" fill="#000"/>
  <text x="186.0" y="245.0" text-anchor="middle" font-size="10" fill="#000">2'</text>
</g>
<g class="dimension">
  <line x1="140" y1="232.0" x2="176" y2="232.0" stroke="#000" stroke-width="0.5"/>
  <line x1="140" y1="217.0" x2="140" y2="232.0" stroke="#000" stroke-width="0.3" stroke-dasharray="2,2"/>
  <line x1="176" y1="217.0" x2="176" y2="232.0" stroke="#000" stroke-width="0.3" stroke-dasharray="2,2"/>
  <polygon points="140,232.0 143,229.0 143,235.0" fill="#000"/>
  <polygon points="176,232.0 173,229.0 173,235.0" fill="#000"/>
  <text x="158.0" y="245.0" text-anchor="middle" font-size="10" fill="#000">3' 7"</text>
</g>
<g class="dimension">
  <line x1="80" y1="232.0" x2="140" y2="232.0" stroke="#000" stroke-width="0.5"/>
  <line x1="80" y1="217.0" x2="80" y2="232.0" stroke="#000" stroke-width="0.3" stroke-dasharray="2,2"/>
  <line x1="140" y1="217.0" x2="140" y2="232.0" stroke="#000" stroke-width="0.3" stroke-dasharray="2,2"/>
  <polygon points="80,232.0 83,229.0 83,235.0" fill="#000"/>
  <polygon points="140,232.0 137,229.0 137,235.0" fill="#000"/>
  <text x="110.0" y="245.0" text-anchor="middle" font-size="10" fill="#000">6'</text>
</g>
<g class="dimension">
  <line x1="216" y1="114.0" x2="236" y2="114.0" stroke="#000" stroke-width="0.5"/>
  <line x1="216" y1="99.0" x2="216" y2="114.0" stroke="#000" stroke-width="0.3" stroke-dasharray="2,2"/>
  <line x1="236" y1="99.0" x2="236" y2="114.0" stroke="#000" stroke-width="0.3" stroke-dasharray="2,2"/>
  <polygon points="216,114.0 219,111.0 219,117.0" fill="#000"/>
  <polygon points="236,114.0 233,111.0 233,117.0" fill="#000"/>
  <text x="226.0" y="127.0" text-anchor="middle" font-size="10" fill="#000">2'</text>
</g>
<g class="dimension">
  <line x1="188" y1="114.0" x2="216" y2="114.0" stroke="#000" stroke-width="0.5"/>
  <line x1="188" y1="99.0" x2="188" y2="114.0" stroke="#000" stroke-width="0.3" stroke-dasharray="2,2"/>
  <line x1="216" y1="99.0" x2="216" y2="114.0" stroke="#000" stroke-width="0.3" stroke-dasharray="2,2"/>
  <polygon points="188,114.0 191,111.0 191,117.0" fill="#000"/>
  <polygon points="216,114.0 213,111.0 213,117.0" fill="#000"/>
  <text x="202.0" y="127.0" text-anchor="middle" font-size="10" fill="#000">2' 10"</text>
</g>
<g class="dimension">
  <line x1="168" y1="114.0" x2="188" y2="114.0" stroke="#000" stroke-width="0.5"/>
  <line x1="168" y1="99.0" x2="168" y2="114.0" stroke="#000" stroke-width="0.3" stroke-dasharray="2,2"/>
  <line x1="188" y1="99.0" x2="188" y2="114.0" stroke="#000" stroke-width="0.3" stroke-dasharray="2,2"/>
  <polygon points="168,114.0 171,111.0 171,117.0" fill="#000"/>
  <polygon points="188,114.0 185,111.0 185,117.0" fill="#000"/>
  <text x="178.0" y="127.0" text-anchor="middle" font-size="10" fill="#000">2'</text>
</g>
<g class="dimension">
  <line x1="335" y1="134.0" x2="370" y2="134.0" stroke="#000" stroke-width="0.5"/>
  <line x1="335" y1="119.0" x2="335" y2="134.0" stroke="#000" stroke-width="0.3" stroke-dasharray="2,2"/>
  <line x1="370" y1="119.0" x2="370" y2="134.0" stroke="#000" stroke-width="0.3" stroke-dasharray="2,2"/>
  <polygon points="335,134.0 338,131.0 338,137.0" fill="#000"/>
  <polygon points="370,134.0 367,131.0 367,137.0" fill="#000"/>
  <text x="352.5" y="147.0" text-anchor="middle" font-size="10" fill="#000">3' 6"</text>
</g>
<g class="dimension">
  <line x1="285" y1="134.0" x2="335" y2="134.0" stroke="#000" stroke-width="0.5"/>
  <line x1="285" y1="119.0" x2="285" y2="134.0" stroke="#000" stroke-width="0.3" stroke-dasharray="2,2"/>
  <line x1="335" y1="119.0" x2="335" y2="134.0" stroke="#000" stroke-width="0.3" stroke-dasharray="2,2"/>
  <polygon points="285,134.0 288,131.0 288,137.0" fill="#000"/>
  <polygon points="335,134.0 332,131.0 332,137.0" fill="#000"/>
  <text x="310.0" y="147.0" text-anchor="middle" font-size="10" fill="#000">5'</text>
</g>
<g class="dimension">
  <line x1="376.0" y1="252.0" x2="376.0" y2="222.0" stroke="#000" stroke-width="0.5"/>
  <line x1="406.0" y1="252.0" x2="376.0" y2="252.0" stroke="#000" stroke-width="0.3" stroke-dasharray="2,2"/>
  <line x1="406.0" y1="222.0" x2="376.0" y2="222.0" stroke="#000" stroke-width="0.3" stroke-dasharray="2,2"/>
  <polygon points="376.0,252.0 373.0,255.0 379.0,255.0" fill="#000"/>
  <polygon points="376.0,222.0 373.0,219.0 379.0,219.0" fill="#000"/>
  <text x="363.0" y="237.0" text-anchor="middle" font-size="10" fill="#000" transform="rotate(-90 363.0 237.0)">3'</text>
</g>
</g>
<text x="600.0" y="40.0" text-anchor="middle" font-size="18" font-weight="bold" fill="#333">Right Elevation</text>
</svg>