<?xml version="1.0" encoding="UTF-8"?>
<svg xmlns="http://www.w3.org/2000/svg" width="840.0" height="940.0" viewBox="0 0 840.0 940.0">
<title>Back Elevation</title>
<defs>
    <style>
        text { font-family: Arial, sans-serif; }
    </style>
</defs>
<g transform="translate(150, 210) scale(2.0, 2.0)">

<line x1="0" y1="290.0" x2="270" y2="290.0" stroke="#666" stroke-width="2" stroke-dasharray="5,5"/>
<rect x="0" y="260.0" width="270" height="30.0" fill="#A0826D" stroke="#000" stroke-width="1"/>
<rect x="0" y="222.0" width="270" height="30.0" fill="#C19A6B" stroke="#000" stroke-width="0.5"/>
<rect x="110" y="182.0" width="50" height="70.0" fill="#D2691E" stroke="#000" stroke-width="0.5"/>
<rect x="0" y="114.0" width="270" height="30.0" fill="#C19A6B" stroke="#000" stroke-width="0.5"/>
<rect x="0" y="46.0" width="270" height="8.0" fill="#654321" stroke="#000" stroke-width="0.5"/>
<rect x="0.0" y="52.0" width="10" height="200.0" fill="#000" stroke="#000" stroke-width="0.5"/>
<rect x="100.0" y="52.0" width="10" height="200.0" fill="#000" stroke="#000" stroke-width="0.5"/>
<rect x="160.0" y="52.0" width="10" height="200.0" fill="#000" stroke="#000" stroke-width="0.5"/>
<rect x="260.0" y="52.0" width="10" height="200.0" fill="#000" stroke="#000" stroke-width="0.5"/>
<rect x="0" y="152.0" width="124" height="100.0" fill="#C19A6B" stroke="#000" stroke-width="0.5"/>
<rect x="35" y="187.0" width="50" height="40.0" fill="#87CEEB" stroke="#000" stroke-width="0.5"/>
<rect x="116" y="152.0" width="154" height="100.0" fill="#C19A6B" stroke="#000" stroke-width="0.5"/>
<rect x="124" y="187.0" width="30" height="65.0" fill="#D2691E" stroke="#000" stroke-width="0.5"/>
<rect x="187" y="187.0" width="50" height="40.0" fill="#87CEEB" stroke="#000" stroke-width="0.5"/>
<rect x="0" y="54.0" width="124" height="90.0" fill="#C19A6B" stroke="#000" stroke-width="0.5"/>
<rect x="25" y="74.0" width="80" height="65.0" fill="#87CEEB" stroke="#000" stroke-width="0.5"/>
<rect x="116" y="54.0" width="154" height="90.0" fill="#C19A6B" stroke="#000" stroke-width="0.5"/>
<rect x="135" y="74.0" width="80" height="65.0" fill="#87CEEB" stroke="#000" stroke-width="0.5"/>
<rect x="0" y="46.0" width="270" height="8.0" fill="#654321" stroke="#000" stroke-width="0.5"/>
<rect x="0.0" y="52.0" width="8" height="200.0" fill="#000" stroke="#000" stroke-width="0.5"/>
<rect x="116.0" y="52.0" width="8" height="200.0" fill="#000" stroke="#000" stroke-width="0.5"/>
<rect x="262.0" y="52.0" width="8" height="200.0" fill="#000" stroke="#000" stroke-width="0.5"/>
<rect x="116.0" y="52.0" width="8" height="200.0" fill="#000" stroke="#000" stroke-width="0.5"/>
<rect x="0" y="46.0" width="270" height="8.0" fill="#654321" stroke="#000" stroke-width="0.5"/>
<rect x="0" y="152.0" width="124" height="100.0" fill="#C19A6B" stroke="#000" stroke-width="0.5"/>
<rect x="83.5" y="187.0" width="30" height="65.0" fill="#D2691E" stroke="#000" stroke-width="0.5"/>
<rect x="116" y="152.0" width="154" height="100.0" fill="#C19A6B" stroke="#000" stroke-width="0.5"/>
<rect x="126.5" y="187.0" width="30" height="65.0" fill="#D2691E" stroke="#000" stroke-width="0.5"/>
<rect x="0" y="54.0" width="124" height="90.0" fill="#C19A6B" stroke="#000" stroke-width="0.5"/>
<rect x="83.5" y="79.0" width="30" height="65.0" fill="#D2691E" stroke="#000" stroke-width="0.5"/>
<rect x="116" y="54.0" width="154" height="90.0" fill="#C19A6B" stroke="#000" stroke-width="0.5"/>
<rect x="126.5" y="79.0" width="30" height="65.0" fill="#D2691E" stroke="#000" stroke-width="0.5"/>
<rect x="-0.04999999999999982" y="52.0" width="12.5" height="200.0" fill="#000" stroke="#000" stroke-width="0.5"/>
<rect x="257.55" y="52.0" width="12.5" height="200.0" fill="#000" stroke="#000" stroke-width="0.5"/>
<rect x="0" y="144.0" width="270" height="8.0" fill="#808080" stroke="#000" stroke-width="0.5"/>
<rect x="184" y="54.0" width="78" height="90.0" fill="#C19A6B" stroke="#000" stroke-width="0.5"/>
<rect x="136" y="152.0" width="40" height="100.0" fill="#C19A6B" stroke="#000" stroke-width="0.5"/>
<rect x="176" y="152.0" width="94" height="100.0" fill="#C19A6B" stroke="#000" stroke-width="0.5"/>
<rect x="176" y="54.0" width="94" height="90.0" fill="#C19A6B" stroke="#000" stroke-width="0.5"/>
<rect x="186.5" y="79.0" width="30" height="65.0" fill="#D2691E" stroke="#000" stroke-width="0.5"/>
<rect x="40.0" y="52.0" width="8" height="200.0" fill="#000" stroke="#000" stroke-width="0.5"/>
<rect x="173.75" y="52.0" width="12.5" height="200.0" fill="#000" stroke="#000" stroke-width="0.5"/>
<rect x="0" y="46.0" width="270" height="8.0" fill="#654321" stroke="#000" stroke-width="0.5"/>
<rect x="0.0" y="52.0" width="8" height="200.0" fill="#000" stroke="#000" stroke-width="0.5"/>
<rect x="262.0" y="52.0" width="8" height="200.0" fill="#000" stroke="#000" stroke-width="0.5"/>
<rect x="40" y="144.0" width="230" height="8.0" fill="#808080" stroke="#000" stroke-width="0.5"/>
<g class="staircase-elevation">
<line x1="8.0" y1="252.0" x2="8.0" y2="247.0" stroke="#000" stroke-width="0.5"/>
<line x1="8.0" y1="247.0" x2="9.5" y2="247.0" stroke="#000" stroke-width="0.5"/>
<rect x="8.0" y="247.0" width="1.5" height="5.0" fill="#C19A6B" opacity="0.7"/>
<line x1="9.5" y1="247.0" x2="9.5" y2="242.0" stroke="#000" stroke-width="0.5"/>
<line x1="9.5" y1="242.0" x2="11.0" y2="242.0" stroke="#000" stroke-width="0.5"/>
<rect x="9.5" y="242.0" width="1.5" height="5.0" fill="#C19A6B" opacity="0.7"/>
<line x1="11.0" y1="242.0" x2="11.0" y2="237.0" stroke="#000" stroke-width="0.5"/>
<line x1="11.0" y1="237.0" x2="12.5" y2="237.0" stroke="#000" stroke-width="0.5"/>
<rect x="11.0" y="237.0" width="1.5" height="5.0" fill="#C19A6B" opacity="0.7"/>
<line x1="12.5" y1="237.0" x2="12.5" y2="232.0" stroke="#000" stroke-width="0.5"/>
<line x1="12.5" y1="232.0" x2="14.0" y2="232.0" stroke="#000" stroke-width="0.5"/>
<rect x="12.5" y="232.0" width="1.5" height="5.0" fill="#C19A6B" opacity="0.7"/>
<line x1="14.0" y1="232.0" x2="14.0" y2="227.0" stroke="#000" stroke-width="0.5"/>
<line x1="14.0" y1="227.0" x2="15.5" y2="227.0" stroke="#000" stroke-width="0.5"/>
<rect x="14.0" y="227.0" width="1.5" height="5.0" fill="#C19A6B" opacity="0.7"/>
<line x1="15.5" y1="227.0" x2="15.5" y2="222.0" stroke="#000" stroke-width="0.5"/>
<line x1="15.5" y1="222.0" x2="17.0" y2="222.0" stroke="#000" stroke-width="0.5"/>
<rect x="15.5" y="222.0" width="1.5" height="5.0" fill="#C19A6B" opacity="0.7"/>
<line x1="17.0" y1="222.0" x2="17.0" y2="217.0" stroke="#000" stroke-width="0.5"/>
<line x1="17.0" y1="217.0" x2="18.5" y2="217.0" stroke="#000" stroke-width="0.5"/>
<rect x="17.0" y="217.0" width="1.5" height="5.0" fill="#C19A6B" opacity="0.7"/>
<line x1="18.5" y1="217.0" x2="18.5" y2="212.0" stroke="#000" stroke-width="0.5"/>
<line x1="18.5" y1="212.0" x2="20.0" y2="212.0" stroke="#000" stroke-width="0.5"/>
<rect x="18.5" y="212.0" width="1.5" height="5.0" fill="#C19A6B" opacity="0.7"/>
<line x1="20.0" y1="212.0" x2="20.0" y2="207.0" stroke="#000" stroke-width="0.5"/>
<line x1="20.0" y1="207.0" x2="21.5" y2="207.0" stroke="#000" stroke-width="0.5"/>
<rect x="20.0" y="207.0" width="1.5" height="5.0" fill="#C19A6B" opacity="0.7"/>
<line x1="21.5" y1="207.0" x2="21.5" y2="202.0" stroke="#000" stroke-width="0.5"/>
<line x1="21.5" y1="202.0" x2="23.0" y2="202.0" stroke="#000" stroke-width="0.5"/>
<rect x="21.5" y="202.0" width="1.5" height="5.0" fill="#C19A6B" opacity="0.7"/>
<line x1="23.0" y1="202.0" x2="23.0" y2="197.0" stroke="#000" stroke-width="0.5"/>
<line x1="23.0" y1="197.0" x2="24.5" y2="197.0" stroke="#000" stroke-width="0.5"/>
<rect x="23.0" y="197.0" width="1.5" height="5.0" fill="#C19A6B" opacity="0.7"/>
<line x1="24.5" y1="197.0" x2="24.5" y2="192.0" stroke="#000" stroke-width="0.5"/>
<line x1="24.5" y1="192.0" x2="26.0" y2="192.0" stroke="#000" stroke-width="0.5"/>
<rect x="24.5" y="192.0" width="1.5" height="5.0" fill="#C19A6B" opacity="0.7"/>
<line x1="26.0" y1="192.0" x2="26.0" y2="187.0" stroke="#000" stroke-width="0.5"/>
<line x1="26.0" y1="187.0" x2="27.5" y2="187.0" stroke="#000" stroke-width="0.5"/>
<rect x="26.0" y="187.0" width="1.5" height="5.0" fill="#C19A6B" opacity="0.7"/>
<line x1="27.5" y1="187.0" x2="27.5" y2="182.0" stroke="#000" stroke-width="0.5"/>
<line x1="27.5" y1="182.0" x2="29.0" y2="182.0" stroke="#000" stroke-width="0.5"/>
<rect x="27.5" y="182.0" width="1.5" height="5.0" fill="#C19A6B" opacity="0.7"/>
<line x1="29.0" y1="182.0" x2="29.0" y2="177.0" stroke="#000" stroke-width="0.5"/>
<line x1="29.0" y1="177.0" x2="30.5" y2="177.0" stroke="#000" stroke-width="0.5"/>
<rect x="29.0" y="177.0" width="1.5" height="5.0" fill="#C19A6B" opacity="0.7"/>
<line x1="30.5" y1="177.0" x2="30.5" y2="172.0" stroke="#000" stroke-width="0.5"/>
<line x1="30.5" y1="172.0" x2="32.0" y2="172.0" stroke="#000" stroke-width="0.5"/>
<rect x="30.5" y="172.0" width="1.5" height="5.0" fill="#C19A6B" opacity="0.7"/>
<line x1="32.0" y1="172.0" x2="32.0" y2="167.0" stroke="#000" stroke-width="0.5"/>
<line x1="32.0" y1="167.0" x2="33.5" y2="167.0" stroke="#000" stroke-width="0.5"/>
<rect x="32.0" y="167.0" width="1.5" height="5.0" fill="#C19A6B" opacity="0.7"/>
<line x1="33.5" y1="167.0" x2="33.5" y2="162.0" stroke="#000" stroke-width="0.5"/>
<line x1="33.5" y1="162.0" x2="35.0" y2="162.0" stroke="#000" stroke-width="0.5"/>
<rect x="33.5" y="162.0" width="1.5" height="5.0" fill="#C19A6B" opacity="0.7"/>
<line x1="35.0" y1="162.0" x2="35.0" y2="157.0" stroke="#000" stroke-width="0.5"/>
<line x1="35.0" y1="157.0" x2="36.5" y2="157.0" stroke="#000" stroke-width="0.5"/>
<rect x="35.0" y="157.0" width="1.5" height="5.0" fill="#C19A6B" opacity="0.7"/>
<line x1="36.5" y1="157.0" x2="36.5" y2="152.0" stroke="#000" stroke-width="0.5"/>
<line x1="36.5" y1="152.0" x2="38.0" y2="152.0" stroke="#000" stroke-width="0.5"/>
<rect x="36.5" y="152.0" width="1.5" height="5.0" fill="#C19A6B" opacity="0.7"/>
<line x1="38.0" y1="152.0" x2="38.0" y2="252.0" stroke="#000" stroke-width="0.5"/>
<line x1="8" y1="252.0" x2="38.0" y2="252.0" stroke="#000" stroke-width="0.5"/>
</g>
<rect x="0" y="54.0" width="270" height="90.0" fill="#C19A6B" stroke="#000" stroke-width="0.5"/>
<rect x="24" y="79.0" width="60" height="60.0" fill="#87CEEB" stroke="#000" stroke-width="0.5"/>
<rect x="103.5" y="79.0" width="65" height="60.0" fill="#87CEEB" stroke="#000" stroke-width="0.5"/>
<rect x="187.5" y="79.0" width="60" height="60.0" fill="#87CEEB" stroke="#000" stroke-width="0.5"/>
<rect x="0.0" y="52.0" width="8" height="200.0" fill="#000" stroke="#000" stroke-width="0.5"/>
<rect x="262.0" y="52.0" width="8" height="200.0" fill="#000" stroke="#000" stroke-width="0.5"/>
<rect x="8" y="144.0" width="254" height="8.0" fill="#654321" stroke="#000" stroke-width="0.5"/>
<rect x="262" y="144.0" width="8" height="8.0" fill="#654321" stroke="#000" stroke-width="0.5"/>
<rect x="0" y="144.0" width="8" height="8.0" fill="#654321" stroke="#000" stroke-width="0.5"/>
<rect x="0" y="46.0" width="270" height="8.0" fill="#654321" stroke="#000" stroke-width="0.5"/>
<rect x="0" y="46.0" width="8" height="8.0" fill="#654321" stroke="#000" stroke-width="0.5"/>
<rect x="262" y="46.0" width="8" height="8.0" fill="#654321" stroke="#000" stroke-width="0.5"/>
<rect x="0" y="252.0" width="270" height="8.0" fill="#808080" stroke="#000" stroke-width="0.5"/>
<rect x="0" y="152.0" width="270" height="100.0" fill="#C19A6B" stroke="#000" stroke-width="0.5"/>
<rect x="98.5" y="187.0" width="75" height="65.0" fill="#D2691E" stroke="#000" stroke-width="0.5"/>
<rect x="24" y="187.0" width="60" height="40.0" fill="#87CEEB" stroke="#000" stroke-width="0.5"/>
<rect x="187.5" y="187.0" width="60" height="40.0" fill="#87CEEB" stroke="#000" stroke-width="0.5"/>
<rect x="88.5" y="52.0" width="10" height="200.0" fill="#000" stroke="#000" stroke-width="0.5"/>
<rect x="173.5" y="52.0" width="10" height="200.0" fill="#000" stroke="#000" stroke-width="0.5"/>
<line x1="-36" y1="59.0" x2="135.0" y2="-27.40227264476232" stroke="#8B4513" stroke-width="3"/>
<line x1="135.0" y1="-27.40227264476232" x2="306" y2="59.0" stroke="#8B4513" stroke-width="3"/>
<g class="dimension">
  <line x1="300" y1="252.0" x2="300" y2="152.0" stroke="#000" stroke-width="0.5"/>
  <line x1="270" y1="252.0" x2="300" y2="252.0" stroke="#000" stroke-width="0.3" stroke-dasharray="2,2"/>
  <line x1="270" y1="152.0" x2="300" y2="152.0" stroke="#000" stroke-width="0.3" stroke-dasharray="2,2"/>
  <polygon points="300,252.0 297,255.0 303,255.0" fill="#000"/>
  <polygon points="300,152.0 297,149.0 303,149.0" fill="#000"/>
  <text x="313" y="202.0" text-anchor="middle" font-size="10" fill="#000" transform="rotate(-90 313 202.0)">10'</text>
</g>
<g class="dimension">
  <line x1="300" y1="144.0" x2="300" y2="54.0" stroke="#000" stroke-width="0.5"/>
  <line x1="270" y1="144.0" x2="300" y2="144.0" stroke="#000" stroke-width="0.3" stroke-dasharray="2,2"/>
  <line x1="270" y1="54.0" x2="300" y2="54.0" stroke="#000" stroke-width="0.3" stroke-dasharray="2,2"/>
  <polygon points="300,144.0 297,147.0 303,147.0" fill="#000"/>
  <polygon points="300,54.0 297,51.0 303,51.0" fill="#000"/>
  <text x="313" y="99.0" text-anchor="middle" font-size="10" fill="#000" transform="rotate(-90 313 99.0)">9'</text>
</g>
<g class="dimension">
  <line x1="300" y1="46.0" x2="300" y2="-24.0" stroke="#000" stroke-width="0.5"/>
  <line x1="270" y1="46.0" x2="300" y2="46.0" stroke="#000" stroke-width="0.3" stroke-dasharray="2,2"/>
  <line x1="270" y1="-24.0" x2="300" y2="-24.0" stroke="#000" stroke-width="0.3" stroke-dasharray="2,2"/>
  <polygon points="300,46.0 297,49.0 303,49.0" fill="#000"/>
  <polygon points="300,-24.0 297,-27.0 303,-27.0" fill="#000"/>
  <text x="313" y="11.0" text-anchor="middle" font-size="10" fill="#000" transform="rotate(-90 313 11.0)">7'</text>
</g>
<g class="dimension">
  <line x1="0" y1="-30.0" x2="270" y2="-30.0" stroke="#000" stroke-width="0.5"/>
  <line x1="0" y1="0.0" x2="0" y2="-30.0" stroke="#000" stroke-width="0.3" stroke-dasharray="2,2"/>
  <line x1="270" y1="0.0" x2="270" y2="-30.0" stroke="#000" stroke-width="0.3" stroke-dasharray="2,2"/>
  <polygon points="0,-30.0 3,-33.0 3,-27.0" fill="#000"/>
  <polygon points="270,-30.0 267,-33.0 267,-27.0" fill="#000"/>
  <text x="135.0" y="-35.0" text-anchor="middle" font-size="10" fill="#000">27'</text>
</g>
<g class="dimension">
  <line x1="0" y1="154.0" x2="24" y2="154.0" stroke="#000" stroke-width="0.5"/>
  <line x1="0" y1="139.0" x2="0" y2="154.0" stroke="#000" stroke-width="0.3" stroke-dasharray="2,2"/>
  <line x1="24" y1="139.0" x2="24" y2="154.0" stroke="#000" stroke-width="0.3" stroke-dasharray="2,2"/>
  <polygon points="0,154.0 3,151.0 3,157.0" fill="#000"/>
  <polygon points="24,154.0 21,151.0 21,157.0" fill="#000"/>
  <text x="12.0" y="167.0" text-anchor="middle" font-size="10" fill="#000">2' 5"</text>
</g>
<g class="dimension">
  <line x1="24" y1="154.0" x2="84" y2="154.0" stroke="#000" stroke-width="0.5"/>
  <line x1="24" y1="139.0" x2="24" y2="154.0" stroke="#000" stroke-width="0.3" stroke-dasharray="2,2"/>
  <line x1="84" y1="139.0" x2="84" y2="154.0" stroke="#000" stroke-width="0.3" stroke-dasharray="2,2"/>
  <polygon points="24,154.0 27,151.0 27,157.0" fill="#000"/>
  <polygon points="84,154.0 81,151.0 81,157.0" fill="#000"/>
  <text x="54.0" y="167.0" text-anchor="middle" font-size="10" fill="#000">6'</text>
</g>
<g class="dimension">
  <line x1="103.5" y1="154.0" x2="168.5" y2="154.0" stroke="#000" stroke-width="0.5"/>
  <line x1="103.5" y1="139.0" x2="103.5" y2="154.0" stroke="#000" stroke-width="0.3" stroke-dasharray="2,2"/>
  <line x1="168.5" y1="139.0" x2="168.5" y2="154.0" stroke="#000" stroke-width="0.3" stroke-dasharray="2,2"/>
  <polygon points="103.5,154.0 106.5,151.0 106.5,157.0" fill="#000"/>
  <polygon points="168.5,154.0 165.5,151.0 165.5,157.0" fill="#000"/>
  <text x="136.0" y="167.0" text-anchor="middle" font-size="10" fill="#000">6' 6"</text>
</g>
<g class="dimension">
  <line x1="187.5" y1="154.0" x2="247.5" y2="154.0" stroke="#000" stroke-width="0.5"/>
  <line x1="187.5" y1="139.0" x2="187.5" y2="154.0" stroke="#000" stroke-width="0.3" stroke-dasharray="2,2"/>
  <line x1="247.5" y1="139.0" x2="247.5" y2="154.0" stroke="#000" stroke-width="0.3" stroke-dasharray="2,2"/>
  <polygon points="187.5,154.0 190.5,151.0 190.5,157.0" fill="#000"/>
  <polygon points="247.5,154.0 244.5,151.0 244.5,157.0" fill="#000"/>
  <text x="217.5" y="167.0" text-anchor="middle" font-size="10" fill="#000">6'</text>
</g>
<g class="dimension">
  <line x1="0" y1="267.0" x2="24" y2="267.0" stroke="#000" stroke-width="0.5"/>
  <line x1="0" y1="252.0" x2="0" y2="267.0" stroke="#000" stroke-width="0.3" stroke-dasharray="2,2"/>
  <line x1="24" y1="252.0" x2="24" y2="267.0" stroke="#000" stroke-width="0.3" stroke-dasharray="2,2"/>
  <polygon points="0,267.0 3,264.0 3,270.0" fill="#000"/>
  <polygon points="24,267.0 21,264.0 21,270.0" fill="#000"/>
  <text x="12.0" y="280.0" text-anchor="middle" font-size="10" fill="#000">2' 5"</text>
</g>
<g class="dimension">
  <line x1="24" y1="267.0" x2="84" y2="267.0" stroke="#000" stroke-width="0.5"/>
  <line x1="24" y1="252.0" x2="24" y2="267.0" stroke="#000" stroke-width="0.3" stroke-dasharray="2,2"/>
  <line x1="84" y1="252.0" x2="84" y2="267.0" stroke="#000" stroke-width="0.3" stroke-dasharray="2,2"/>
  <polygon points="24,267.0 27,264.0 27,270.0" fill="#000"/>
  <polygon points="84,267.0 81,264.0 81,270.0" fill="#000"/>
  <text x="54.0" y="280.0" text-anchor="middle" font-size="10" fill="#000">6'</text>
</g>
<g class="dimension">
  <line x1="98.5" y1="267.0" x2="173.5" y2="267.0" stroke="#000" stroke-width="0.5"/>
  <line x1="98.5" y1="252.0" x2="98.5" y2="267.0" stroke="#000" stroke-width="0.3" stroke-dasharray="2,2"/>
  <line x1="173.5" y1="252.0" x2="173.5" y2="267.0" stroke="#000" stroke-width="0.3" stroke-dasharray="2,2"/>
  <polygon points="98.5,267.0 101.5,264.0 101.5,270.0" fill="#000"/>
  <polygon points="173.5,267.0 170.5,264.0 170.5,270.0" fill="#000"/>
  <text x="136.0" y="280.0" text-anchor="middle" font-size="10" fill="#000">7' 6"</text>
</g>
<g class="dimension">
  <line x1="187.5" y1="267.0" x2="247.5" y2="267.0" stroke="#000" stroke-width="0.5"/>
  <line x1="187.5" y1="252.0" x2="187.5" y2="267.0" stroke="#000" stroke-width="0.3" stroke-dasharray="2,2"/>
  <line x1="247.5" y1="252.0" x2="247.5" y2="267.0" stroke="#000" stroke-width="0.3" stroke-dasharray="2,2"/>
  <polygon points="187.5,267.0 190.5,264.0 190.5,270.0" fill="#000"/>
  <polygon points="247.5,267.0 244.5,264.0 244.5,270.0" fill="#000"/>
  <text x="217.5" y="280.0" text-anchor="middle" font-size="10" fill="#000">6'</text>
</g>
</g>
<text x="420.0" y="40.0" text-anchor="middle" font-size="18" font-weight="bold" fill="#333">Back Elevation</text>
</svg>