<?xml version="1.0" encoding="UTF-8"?>
<svg xmlns="http://www.w3.org/2000/svg" width="1200.0" height="904.0" viewBox="0 0 1200.0 904.0">
<title>Right Elevation</title>
<defs>
    <style>
        text { font-family: Arial, sans-serif; }
    </style>
</defs>
<g transform="translate(150, 210) scale(2.0, 2.0)">

<line x1="0" y1="272.0" x2="450" y2="272.0" stroke="#666" stroke-width="2" stroke-dasharray="5,5"/>
<rect x="0" y="242.0" width="450" height="30.0" fill="#A0826D" stroke="#000" stroke-width="1"/>
<rect x="150" y="134.0" width="104" height="100.0" fill="#C19A6B" stroke="#000" stroke-width="0.5"/>
<rect x="192" y="169.0" width="30" height="65.0" fill="#D2691E" stroke="#000" stroke-width="0.5"/>
<rect x="150" y="36.0" width="104" height="90.0" fill="#C19A6B" stroke="#000" stroke-width="0.5"/>
<rect x="211" y="61.0" width="30" height="65.0" fill="#D2691E" stroke="#000" stroke-width="0.5"/>
<rect x="163" y="61.0" width="30" height="65.0" fill="#D2691E" stroke="#000" stroke-width="0.5"/>
<rect x="362" y="204.0" width="88" height="30.0" fill="#C19A6B" stroke="#000" stroke-width="0.5"/>
<rect x="246" y="134.0" width="124" height="100.0" fill="#C19A6B" stroke="#000" stroke-width="0.5"/>
<rect x="283" y="169.0" width="50" height="40.0" fill="#87CEEB" stroke="#000" stroke-width="0.5"/>
<rect x="0" y="134.0" width="254" height="100.0" fill="#C19A6B" stroke="#000" stroke-width="0.5"/>
<rect x="186" y="169.0" width="40" height="40.0" fill="#87CEEB" stroke="#000" stroke-width="0.5"/>
<rect x="24" y="169.0" width="40" height="30.0" fill="#87CEEB" stroke="#000" stroke-width="0.5"/>
<rect x="362" y="96.0" width="88" height="30.0" fill="#C19A6B" stroke="#000" stroke-width="0.5"/>
<rect x="246" y="36.0" width="124" height="90.0" fill="#C19A6B" stroke="#000" stroke-width="0.5"/>
<rect x="285" y="61.0" width="50" height="40.0" fill="#87CEEB" stroke="#000" stroke-width="0.5"/>
<rect x="150" y="36.0" width="100" height="90.0" fill="#C19A6B" stroke="#000" stroke-width="0.5"/>
<rect x="0" y="36.0" width="150" height="90.0" fill="#C19A6B" stroke="#000" stroke-width="0.5"/>
<rect x="90" y="61.0" width="50" height="60.0" fill="#87CEEB" stroke="#000" stroke-width="0.5"/>
<rect x="25" y="61.0" width="50" height="60.0" fill="#87CEEB" stroke="#000" stroke-width="0.5"/>
<rect x="0" y="126.0" width="220" height="8.0" fill="#654321" stroke="#000" stroke-width="0.5"/>
<rect x="0" y="18.0" width="450" height="8.0" fill="#654321" stroke="#000" stroke-width="0.5"/>
<rect x="357.525" y="34.0" width="12.5" height="200.0" fill="#000" stroke="#000" stroke-width="0.5"/>
<rect x="147.75" y="34.0" width="12.5" height="200.0" fill="#000" stroke="#000" stroke-width="0.5"/>
<rect x="0.25" y="34.0" width="12.5" height="200.0" fill="#000" stroke="#000" stroke-width="0.5"/>
<rect x="442.0" y="34.0" width="8" height="200.0" fill="#000" stroke="#000" stroke-width="0.5"/>
<rect x="246.0" y="34.0" width="8" height="200.0" fill="#000" stroke="#000" stroke-width="0.5"/>
<g class="staircase-elevation">
<line x1="20.0" y1="234.0" x2="20.0" y2="229.0" stroke="#000" stroke-width="0.5"/>
<line x1="20.0" y1="229.0" x2="30.0" y2="229.0" stroke="#000" stroke-width="0.5"/>
<rect x="20.0" y="229.0" width="10.0" height="5.0" fill="#C19A6B" opacity="0.7"/>
<line x1="30.0" y1="229.0" x2="30.0" y2="224.0" stroke="#000" stroke-width="0.5"/>
<line x1="30.0" y1="224.0" x2="40.0" y2="224.0" stroke="#000" stroke-width="0.5"/>
<rect x="30.0" y="224.0" width="10.0" height="5.0" fill="#C19A6B" opacity="0.7"/>
<line x1="40.0" y1="224.0" x2="40.0" y2="219.0" stroke="#000" stroke-width="0.5"/>
<line x1="40.0" y1="219.0" x2="50.0" y2="219.0" stroke="#000" stroke-width="0.5"/>
<rect x="40.0" y="219.0" width="10.0" height="5.0" fill="#C19A6B" opacity="0.7"/>
<line x1="50.0" y1="219.0" x2="50.0" y2="214.0" stroke="#000" stroke-width="0.5"/>
<line x1="50.0" y1="214.0" x2="60.0" y2="214.0" stroke="#000" stroke-width="0.5"/>
<rect x="50.0" y="214.0" width="10.0" height="5.0" fill="#C19A6B" opacity="0.7"/>
<line x1="60.0" y1="214.0" x2="60.0" y2="209.0" stroke="#000" stroke-width="0.5"/>
<line x1="60.0" y1="209.0" x2="70.0" y2="209.0" stroke="#000" stroke-width="0.5"/>
<rect x="60.0" y="209.0" width="10.0" height="5.0" fill="#C19A6B" opacity="0.7"/>
<line x1="70.0" y1="209.0" x2="70.0" y2="204.0" stroke="#000" stroke-width="0.5"/>
<line x1="70.0" y1="204.0" x2="80.0" y2="204.0" stroke="#000" stroke-width="0.5"/>
<rect x="70.0" y="204.0" width="10.0" height="5.0" fill="#C19A6B" opacity="0.7"/>
<line x1="80.0" y1="204.0" x2="80.0" y2="199.0" stroke="#000" stroke-width="0.5"/>
<line x1="80.0" y1="199.0" x2="90.0" y2="199.0" stroke="#000" stroke-width="0.5"/>
<rect x="80.0" y="199.0" width="10.0" height="5.0" fill="#C19A6B" opacity="0.7"/>
<line x1="90.0" y1="199.0" x2="90.0" y2="194.0" stroke="#000" stroke-width="0.5"/>
<line x1="90.0" y1="194.0" x2="100.0" y2="194.0" stroke="#000" stroke-width="0.5"/>
<rect x="90.0" y="194.0" width="10.0" height="5.0" fill="#C19A6B" opacity="0.7"/>
<line x1="100.0" y1="194.0" x2="100.0" y2="189.0" stroke="#000" stroke-width="0.5"/>
<line x1="100.0" y1="189.0" x2="110.0" y2="189.0" stroke="#000" stroke-width="0.5"/>
<rect x="100.0" y="189.0" width="10.0" height="5.0" fill="#C19A6B" opacity="0.7"/>
<line x1="110.0" y1="189.0" x2="110.0" y2="184.0" stroke="#000" stroke-width="0.5"/>
<line x1="110.0" y1="184.0" x2="120.0" y2="184.0" stroke="#000" stroke-width="0.5"/>
<rect x="110.0" y="184.0" width="10.0" height="5.0" fill="#C19A6B" opacity="0.7"/>
<line x1="120.0" y1="184.0" x2="120.0" y2="179.0" stroke="#000" stroke-width="0.5"/>
<line x1="120.0" y1="179.0" x2="130.0" y2="179.0" stroke="#000" stroke-width="0.5"/>
<rect x="120.0" y="179.0" width="10.0" height="5.0" fill="#C19A6B" opacity="0.7"/>
<line x1="130.0" y1="179.0" x2="130.0" y2="174.0" stroke="#000" stroke-width="0.5"/>
<line x1="130.0" y1="174.0" x2="140.0" y2="174.0" stroke="#000" stroke-width="0.5"/>
<rect x="130.0" y="174.0" width="10.0" height="5.0" fill="#C19A6B" opacity="0.7"/>
<line x1="140.0" y1="174.0" x2="140.0" y2="169.0" stroke="#000" stroke-width="0.5"/>
<line x1="140.0" y1="169.0" x2="150.0" y2="169.0" stroke="#000" stroke-width="0.5"/>
<rect x="140.0" y="169.0" width="10.0" height="5.0" fill="#C19A6B" opacity="0.7"/>
<line x1="150.0" y1="169.0" x2="150.0" y2="164.0" stroke="#000" stroke-width="0.5"/>
<line x1="150.0" y1="164.0" x2="160.0" y2="164.0" stroke="#000" stroke-width="0.5"/>
<rect x="150.0" y="164.0" width="10.0" height="5.0" fill="#C19A6B" opacity="0.7"/>
<line x1="160.0" y1="164.0" x2="160.0" y2="159.0" stroke="#000" stroke-width="0.5"/>
<line x1="160.0" y1="159.0" x2="170.0" y2="159.0" stroke="#000" stroke-width="0.5"/>
<rect x="160.0" y="159.0" width="10.0" height="5.0" fill="#C19A6B" opacity="0.7"/>
<line x1="170.0" y1="159.0" x2="170.0" y2="154.0" stroke="#000" stroke-width="0.5"/>
<line x1="170.0" y1="154.0" x2="180.0" y2="154.0" stroke="#000" stroke-width="0.5"/>
<rect x="170.0" y="154.0" width="10.0" height="5.0" fill="#C19A6B" opacity="0.7"/>
<line x1="180.0" y1="154.0" x2="180.0" y2="149.0" stroke="#000" stroke-width="0.5"/>
<line x1="180.0" y1="149.0" x2="190.0" y2="149.0" stroke="#000" stroke-width="0.5"/>
<rect x="180.0" y="149.0" width="10.0" height="5.0" fill="#C19A6B" opacity="0.7"/>
<line x1="190.0" y1="149.0" x2="190.0" y2="144.0" stroke="#000" stroke-width="0.5"/>
<line x1="190.0" y1="144.0" x2="200.0" y2="144.0" stroke="#000" stroke-width="0.5"/>
<rect x="190.0" y="144.0" width="10.0" height="5.0" fill="#C19A6B" opacity="0.7"/>
<line x1="200.0" y1="144.0" x2="200.0" y2="139.0" stroke="#000" stroke-width="0.5"/>
<line x1="200.0" y1="139.0" x2="210.0" y2="139.0" stroke="#000" stroke-width="0.5"/>
<rect x="200.0" y="139.0" width="10.0" height="5.0" fill="#C19A6B" opacity="0.7"/>
<line x1="210.0" y1="139.0" x2="210.0" y2="134.0" stroke="#000" stroke-width="0.5"/>
<line x1="210.0" y1="134.0" x2="220.0" y2="134.0" stroke="#000" stroke-width="0.5"/>
<rect x="210.0" y="134.0" width="10.0" height="5.0" fill="#C19A6B" opacity="0.7"/>
<line x1="220.0" y1="134.0" x2="220.0" y2="234.0" stroke="#000" stroke-width="0.5"/>
<line x1="20" y1="234.0" x2="220.0" y2="234.0" stroke="#000" stroke-width="0.5"/>
</g>
<rect x="150.0" y="34.0" width="8" height="200.0" fill="#000" stroke="#000" stroke-width="0.5"/>
<rect x="0.0" y="34.0" width="8" height="200.0" fill="#000" stroke="#000" stroke-width="0.5"/>
<rect x="442.0" y="34.0" width="8" height="200.0" fill="#000" stroke="#000" stroke-width="0.5"/>
<rect x="246" y="134.0" width="124" height="100.0" fill="#C19A6B" stroke="#000" stroke-width="0.5"/>
<rect x="246" y="36.0" width="124" height="90.0" fill="#C19A6B" stroke="#000" stroke-width="0.5"/>
<rect x="357.525" y="34.0" width="12.5" height="200.0" fill="#000" stroke="#000" stroke-width="0.5"/>
<rect x="246.25" y="34.0" width="12.5" height="200.0" fill="#000" stroke="#000" stroke-width="0.5"/>
<rect x="442.0" y="34.0" width="8" height="200.0" fill="#000" stroke="#000" stroke-width="0.5"/>
<rect x="0.0" y="34.0" width="8" height="200.0" fill="#000" stroke="#000" stroke-width="0.5"/>
<rect x="150.0" y="34.0" width="8" height="200.0" fill="#000" stroke="#000" stroke-width="0.5"/>
<rect x="0" y="126.0" width="8" height="8.0" fill="#654321" stroke="#000" stroke-width="0.5"/>
<rect x="0" y="36.0" width="150" height="90.0" fill="#C19A6B" stroke="#000" stroke-width="0.5"/>
<rect x="90" y="61.0" width="50" height="60.0" fill="#87CEEB" stroke="#000" stroke-width="0.5"/>
<rect x="25" y="61.0" width="50" height="60.0" fill="#87CEEB" stroke="#000" stroke-width="0.5"/>
<rect x="0" y="126.0" width="120" height="8.0" fill="#654321" stroke="#000" stroke-width="0.5"/>
<rect x="0" y="18.0" width="450" height="8.0" fill="#654321" stroke="#000" stroke-width="0.5"/>
<rect x="442" y="18.0" width="8" height="8.0" fill="#654321" stroke="#000" stroke-width="0.5"/>
<rect x="358" y="18.0" width="12" height="8.0" fill="#654321" stroke="#000" stroke-width="0.5"/>
<rect x="246" y="18.0" width="8" height="8.0" fill="#654321" stroke="#000" stroke-width="0.5"/>
<rect x="148" y="18.0" width="12" height="8.0" fill="#654321" stroke="#000" stroke-width="0.5"/>
<rect x="0" y="18.0" width="12" height="8.0" fill="#654321" stroke="#000" stroke-width="0.5"/>
<rect x="0" y="234.0" width="450" height="8.0" fill="#808080" stroke="#000" stroke-width="0.5"/>
<rect x="116" y="126.0" width="100" height="8.0" fill="#808080" stroke="#000" stroke-width="0.5"/>
<rect x="216" y="126.0" width="234" height="8.0" fill="#808080" stroke="#000" stroke-width="0.5"/>
<rect x="246" y="134.0" width="124" height="100.0" fill="#C19A6B" stroke="#000" stroke-width="0.5"/>
<rect x="285" y="169.0" width="50" height="40.0" fill="#87CEEB" stroke="#000" stroke-width="0.5"/>
<rect x="362" y="204.0" width="88" height="30.0" fill="#C19A6B" stroke="#000" stroke-width="0.5"/>
<rect x="0" y="134.0" width="254" height="100.0" fill="#C19A6B" stroke="#000" stroke-width="0.5"/>
<rect x="216" y="169.0" width="20" height="20.0" fill="#87CEEB" stroke="#000" stroke-width="0.5"/>
<rect x="176" y="169.0" width="20" height="20.0" fill="#87CEEB" stroke="#000" stroke-width="0.5"/>
<rect x="80" y="169.0" width="60" height="30.0" fill="#87CEEB" stroke="#000" stroke-width="0.5"/>
<rect x="150" y="36.0" width="104" height="90.0" fill="#C19A6B" stroke="#000" stroke-width="0.5"/>
<rect x="216" y="61.0" width="20" height="20.0" fill="#87CEEB" stroke="#000" stroke-width="0.5"/>
<rect x="168" y="61.0" width="20" height="20.0" fill="#87CEEB" stroke="#000" stroke-width="0.5"/>
<rect x="246" y="36.0" width="124" height="90.0" fill="#C19A6B" stroke="#000" stroke-width="0.5"/>
<rect x="285" y="61.0" width="50" height="40.0" fill="#87CEEB" stroke="#000" stroke-width="0.5"/>
<rect x="362" y="96.0" width="88" height="30.0" fill="#C19A6B" stroke="#000" stroke-width="0.5"/>
<rect x="357.525" y="34.0" width="12.5" height="200.0" fill="#000" stroke="#000" stroke-width="0.5"/>
<rect x="147.75" y="34.0" width="12.5" height="200.0" fill="#000" stroke="#000" stroke-width="0.5"/>
<rect x="0.25" y="34.0" width="12.5" height="200.0" fill="#000" stroke="#000" stroke-width="0.5"/>
<rect x="442.0" y="34.0" width="8" height="200.0" fill="#000" stroke="#000" stroke-width="0.5"/>
<rect x="246.0" y="34.0" width="8" height="200.0" fill="#000" stroke="#000" stroke-width="0.5"/>
<line x1="480" y1="36.0" x2="300.0" y2="-44.8058771133671" stroke="#8B4513" stroke-width="0.33"/>
<line x1="150.0" y1="-44.8058771133671" x2="-30" y2="36.0" stroke="#8B4513" stroke-width="0.33"/>
<line x1="300.0" y1="-44.8058771133671" x2="150.0" y2="-44.8058771133671" stroke="#8B4513" stroke-width="0.33"/>
<g class="dimension">
  <line x1="480" y1="234.0" x2="480" y2="134.0" stroke="#000" stroke-width="0.5"/>
  <line x1="450" y1="234.0" x2="480" y2="234.0" stroke="#000" stroke-width="0.3" stroke-dasharray="2,2"/>
  <line x1="450" y1="134.0" x2="480" y2="134.0" stroke="#000" stroke-width="0.3" stroke-dasharray="2,2"/>
  <polygon points="480,234.0 477,237.0 483,237.0" fill="#000"/>
  <polygon points="480,134.0 477,131.0 483,131.0" fill="#000"/>
  <text x="493" y="184.0" text-anchor="middle" font-size="10" fill="#000" transform="rotate(-90 493 184.0)">10'</text>
</g>
<g class="dimension">
  <line x1="480" y1="126.0" x2="480" y2="26.0" stroke="#000" stroke-width="0.5"/>
  <line x1="450" y1="126.0" x2="480" y2="126.0" stroke="#000" stroke-width="0.3" stroke-dasharray="2,2"/>
  <line x1="450" y1="26.0" x2="480" y2="26.0" stroke="#000" stroke-width="0.3" stroke-dasharray="2,2"/>
  <polygon points="480,126.0 477,129.0 483,129.0" fill="#000"/>
  <polygon points="480,26.0 477,23.0 483,23.0" fill="#000"/>
  <text x="493" y="76.0" text-anchor="middle" font-size="10" fill="#000" transform="rotate(-90 493 76.0)">10'</text>
</g>
<g class="dimension">
  <line x1="480" y1="18.0" x2="480" y2="-24.0" stroke="#000" stroke-width="0.5"/>
  <line x1="450" y1="18.0" x2="480" y2="18.0" stroke="#000" stroke-width="0.3" stroke-dasharray="2,2"/>
  <line x1="450" y1="-24.0" x2="480" y2="-24.0" stroke="#000" stroke-width="0.3" stroke-dasharray="2,2"/>
  <polygon points="480,18.0 477,21.0 483,21.0" fill="#000"/>
  <polygon points="480,-24.0 477,-27.0 483,-27.0" fill="#000"/>
  <text x="493" y="-3.0" text-anchor="middle" font-size="10" fill="#000" transform="rotate(-90 493 -3.0)">4' 2"</text>
</g>
<g class="dimension">
  <line x1="0" y1="-30.0" x2="450" y2="-30.0" stroke="#000" stroke-width="0.5"/>
  <line x1="0" y1="0.0" x2="0" y2="-30.0" stroke="#000" stroke-width="0.3" stroke-dasharray="2,2"/>
  <line x1="450" y1="0.0" x2="450" y2="-30.0" stroke="#000" stroke-width="0.3" stroke-dasharray="2,2"/>
  <polygon points="0,-30.0 3,-33.0 3,-27.0" fill="#000"/>
  <polygon points="450,-30.0 447,-33.0 447,-27.0" fill="#000"/>
  <text x="225.0" y="-35.0" text-anchor="middle" font-size="10" fill="#000">45'</text>
</g>
<g class="dimension">
  <line x1="90" y1="136.0" x2="140" y2="136.0" stroke="#000" stroke-width="0.5"/>
  <line x1="90" y1="121.0" x2="90" y2="136.0" stroke="#000" stroke-width="0.3" stroke-dasharray="2,2"/>
  <line x1="140" y1="121.0" x2="140" y2="136.0" stroke="#000" stroke-width="0.3" stroke-dasharray="2,2"/>
  <polygon points="90,136.0 93,133.0 93,139.0" fill="#000"/>
  <polygon points="140,136.0 137,133.0 137,139.0" fill="#000"/>
  <text x="115.0" y="149.0" text-anchor="middle" font-size="10" fill="#000">5'</text>
</g>
<g class="dimension">
  <line x1="25" y1="136.0" x2="75" y2="136.0" stroke="#000" stroke-width="0.5"/>
  <line x1="25" y1="121.0" x2="25" y2="136.0" stroke="#000" stroke-width="0.3" stroke-dasharray="2,2"/>
  <line x1="75" y1="121.0" x2="75" y2="136.0" stroke="#000" stroke-width="0.3" stroke-dasharray="2,2"/>
  <polygon points="25,136.0 28,133.0 28,139.0" fill="#000"/>
  <polygon points="75,136.0 72,133.0 72,139.0" fill="#000"/>
  <text x="50.0" y="149.0" text-anchor="middle" font-size="10" fill="#000">5'</text>
</g>
<g class="dimension">
  <line x1="335" y1="224.0" x2="370" y2="224.0" stroke="#000" stroke-width="0.5"/>
  <line x1="335" y1="209.0" x2="335" y2="224.0" stroke="#000" stroke-width="0.3" stroke-dasharray="2,2"/>
  <line x1="370" y1="209.0" x2="370" y2="224.0" stroke="#000" stroke-width="0.3" stroke-dasharray="2,2"/>
  <polygon points="335,224.0 338,221.0 338,227.0" fill="#000"/>
  <polygon points="370,224.0 367,221.0 367,227.0" fill="#000"/>
  <text x="352.5" y="237.0" text-anchor="middle" font-size="10" fill="#000">3' 6"</text>
</g>
<g class="dimension">
  <line x1="285" y1="224.0" x2="335" y2="224.0" stroke="#000" stroke-width="0.5"/>
  <line x1="285" y1="209.0" x2="285" y2="224.0" stroke="#000" stroke-width="0.3" stroke-dasharray="2,2"/>
  <line x1="335" y1="209.0" x2="335" y2="224.0" stroke="#000" stroke-width="0.3" stroke-dasharray="2,2"/>
  <polygon points="285,224.0 288,221.0 288,227.0" fill="#000"/>
  <polygon points="335,224.0 332,221.0 332,227.0" fill="#000"/>
  <text x="310.0" y="237.0" text-anchor="middle" font-size="10" fill="#000">5'</text>
</g>
<g class="dimension">
  <line x1="216" y1="214.0" x2="236" y2="214.0" stroke="#000" stroke-width="0.5"/>
  <line x1="216" y1="199.0" x2="216" y2="214.0" stroke="#000" stroke-width="0.3" stroke-dasharray="2,2"/>
  <line x1="236" y1="199.0" x2="236" y2="214.0" stroke="#000" stroke-width="0.3" stroke-dasharray="2,2"/>
  <polygon points="216,214.0 219,211.0 219,217.0" fill="#000"/>
  <polygon points="236,214.0 233,211.0 233,217.0" fill="#000"/>
  <text x="226.0" y="227.0" text-anchor="middle" font-size="10" fill="#000">2'</text>
</g>
<g class="dimension">
  <line x1="196" y1="214.0" x2="216" y2="214.0" stroke="#000" stroke-width="0.5"/>
  <line x1="196" y1="199.0" x2="196" y2="214.0" stroke="#000" stroke-width="0.3" stroke-dasharray="2,2"/>
  <line x1="216" y1="199.0" x2="216" y2="214.0" stroke="#000" stroke-width="0.3" stroke-dasharray="2,2"/>
  <polygon points="196,214.0 199,211.0 199,217.0" fill="#000"/>
  <polygon points="216,214.0 213,211.0 213,217.0" fill="#000"/>
  <text x="206.0" y="227.0" text-anchor="middle" font-size="10" fill="#000">2'</text>
</g>
<g class="dimension">
  <line x1="176" y1="214.0" x2="196" y2="214.0" stroke="#000" stroke-width="0.5"/>
  <line x1="176" y1="199.0" x2="176" y2="214.0" stroke="#000" stroke-width="0.3" stroke-dasharray="2,2"/>
  <line x1="196" y1="199.0" x2="196" y2="214.0" stroke="#000" stroke-width="0.3" stroke-dasharray="2,2"/>
  <polygon points="176,214.0 179,211.0 179,217.0" fill="#000"/>
  <polygon points="196,214.0 193,211.0 193,217.0" fill="#000"/>
  <text x="186.0" y="227.0" text-anchor="middle" font-size="10" fill="#000">2'</text>
</g>
<g class="dimension">
  <line x1="140" y1="214.0" x2="176" y2="214.0" stroke="#000" stroke-width="0.5"/>
  <line x1="140" y1="199.0" x2="140" y2="214.0" stroke="#000" stroke-width="0.3" stroke-dasharray="2,2"/>
  <line x1="176" y1="199.0" x2="176" y2="214.0" stroke="#000" stroke-width="0.3" stroke-dasharray="2,2"/>
  <polygon points="140,214.0 143,211.0 143,217.0" fill="#000"/>
  <polygon points="176,214.0 173,211.0 173,217.0" fill="#000"/>
  <text x="158.0" y="227.0" text-anchor="middle" font-size="10" fill="#000">3' 7"</text>
</g>
<g class="dimension">
  <line x1="80" y1="214.0" x2="140" y2="214.0" stroke="#000" stroke-width="0.5"/>
  <line x1="80" y1="199.0" x2="80" y2="214.0" stroke="#000" stroke-width="0.3" stroke-dasharray="2,2"/>
  <line x1="140" y1="199.0" x2="140" y2="214.0" stroke="#000" stroke-width="0.3" stroke-dasharray="2,2"/>
  <polygon points="80,214.0 83,211.0 83,217.0" fill="#000"/>
  <polygon points="140,214.0 137,211.0 137,217.0" fill="#000"/>
  <text x="110.0" y="227.0" text-anchor="middle" font-size="10" fill="#000">6'</text>
</g>
<g class="dimension">
  <line x1="216" y1="96.0" x2="236" y2="96.0" stroke="#000" stroke-width="0.5"/>
  <line x1="216" y1="81.0" x2="216" y2="96.0" stroke="#000" stroke-width="0.3" stroke-dasharray="2,2"/>
  <line x1="236" y1="81.0" x2="236" y2="96.0" stroke="#000" stroke-width="0.3" stroke-dasharray="2,2"/>
  <polygon points="216,96.0 219,93.0 219,99.0" fill="#000"/>
  <polygon points="236,96.0 233,93.0 233,99.0" fill="#000"/>
  <text x="226.0" y="109.0" text-anchor="middle" font-size="10" fill="#000">2'</text>
</g>
<g class="dimension">
  <line x1="188" y1="96.0" x2="216" y2="96.0" stroke="#000" stroke-width="0.5"/>
  <line x1="188" y1="81.0" x2="188" y2="96.0" stroke="#000" stroke-width="0.3" stroke-dasharray="2,2"/>
  <line x1="216" y1="81.0" x2="216" y2="96.0" stroke="#000" stroke-width="0.3" stroke-dasharray="2,2"/>
  <polygon points="188,96.0 191,93.0 191,99.0" fill="#000"/>
  <polygon points="216,96.0 213,93.0 213,99.0" fill="#000"/>
  <text x="202.0" y="109.0" text-anchor="middle" font-size="10" fill="#000">2' 10"</text>
</g>
<g class="dimension">
  <line x1="168" y1="96.0" x2="188" y2="96.0" stroke="#000" stroke-width="0.5"/>
  <line x1="168" y1="81.0" x2="168" y2="96.0" stroke="#000" stroke-width="0.3" stroke-dasharray="2,2"/>
  <line x1="188" y1="81.0" x2="188" y2="96.0" stroke="#000" stroke-width="0.3" stroke-dasharray="2,2"/>
  <polygon points="168,96.0 171,93.0 171,99.0" fill="#000"/>
  <polygon points="188,96.0 185,93.0 185,99.0" fill="#000"/>
  <text x="178.0" y="109.0" text-anchor="middle" font-size="10" fill="#000">2'</text>
</g>
<g class="dimension">
  <line x1="335" y1="116.0" x2="370" y2="116.0" stroke="#000" stroke-width="0.5"/>
  <line x1="335" y1="101.0" x2="335" y2="116.0" stroke="#000" stroke-width="0.3" stroke-dasharray="2,2"/>
  <line x1="370" y1="101.0" x2="370" y2="116.0" stroke="#000" stroke-width="0.3" stroke-dasharray="2,2"/>
  <polygon points="335,116.0 338,113.0 338,119.0" fill="#000"/>
  <polygon points="370,116.0 367,113.0 367,119.0" fill="#000"/>
  <text x="352.5" y="129.0" text-anchor="middle" font-size="10" fill="#000">3' 6"</text>
</g>
<g class="dimension">
  <line x1="285" y1="116.0" x2="335" y2="116.0" stroke="#000" stroke-width="0.5"/>
  <line x1="285" y1="101.0" x2="285" y2="116.0" stroke="#000" stroke-width="0.3" stroke-dasharray="2,2"/>
  <line x1="335" y1="101.0" x2="335" y2="116.0" stroke="#000" stroke-width="0.3" stroke-dasharray="2,2"/>
  <polygon points="285,116.0 288,113.0 288,119.0" fill="#000"/>
  <polygon points="335,116.0 332,113.0 332,119.0" fill="#000"/>
  <text x="310.0" y="129.0" text-anchor="middle" font-size="10" fill="#000">5'</text>
</g>
<g class="dimension">
  <line x1="45.0" y1="126.0" x2="45.0" y2="36.0" stroke="#000" stroke-width="0.5"/>
  <line x1="75.0" y1="126.0" x2="45.0" y2="126.0" stroke="#000" stroke-width="0.3" stroke-dasharray="2,2"/>
  <line x1="75.0" y1="36.0" x2="45.0" y2="36.0" stroke="#000" stroke-width="0.3" stroke-dasharray="2,2"/>
  <polygon points="45.0,126.0 42.0,129.0 48.0,129.0" fill="#000"/>
  <polygon points="45.0,36.0 42.0,33.0 48.0,33.0" fill="#000"/>
  <text x="32.0" y="81.0" text-anchor="middle" font-size="10" fill="#000" transform="rotate(-90 32.0 81.0)">9'</text>
</g>
<g class="dimension">
  <line x1="376.0" y1="234.0" x2="376.0" y2="204.0" stroke="#000" stroke-width="0.5"/>
  <line x1="406.0" y1="234.0" x2="376.0" y2="234.0" stroke="#000" stroke-width="0.3" stroke-dasharray="2,2"/>
  <line x1="406.0" y1="204.0" x2="376.0" y2="204.0" stroke="#000" stroke-width="0.3" stroke-dasharray="2,2"/>
  <polygon points="376.0,234.0 373.0,237.0 379.0,237.0" fill="#000"/>
  <polygon points="376.0,204.0 373.0,201.0 379.0,201.0" fill="#000"/>
  <text x="363.0" y="219.0" text-anchor="middle" font-size="10" fill="#000" transform="rotate(-90 363.0 219.0)">3'</text>
</g>
</g>
<text x="600.0" y="40.0" text-anchor="middle" font-size="18" font-weight="bold" fill="#333">Right Elevation</text>
</svg>