<?xml version="1.0" encoding="UTF-8"?>
<svg xmlns="http://www.w3.org/2000/svg" width="840.0" height="904.0" viewBox="0 0 840.0 904.0">
<title>Back Elevation</title>
<defs>
    <style>
        text { font-family: Arial, sans-serif; }
    </style>
</defs>
<g transform="translate(150, 210) scale(2.0, 2.0)">

<line x1="0" y1="272.0" x2="270" y2="272.0" stroke="#666" stroke-width="2" stroke-dasharray="5,5"/>
<rect x="0" y="242.0" width="270" height="30.0" fill="#A0826D" stroke="#000" stroke-width="1"/>
<rect x="0" y="204.0" width="270" height="30.0" fill="#C19A6B" stroke="#000" stroke-width="0.5"/>
<rect x="110" y="164.0" width="50" height="70.0" fill="#D2691E" stroke="#000" stroke-width="0.5"/>
<rect x="0" y="96.0" width="270" height="30.0" fill="#C19A6B" stroke="#000" stroke-width="0.5"/>
<rect x="0" y="18.0" width="270" height="8.0" fill="#654321" stroke="#000" stroke-width="0.5"/>
<rect x="0.0" y="34.0" width="10" height="200.0" fill="#000" stroke="#000" stroke-width="0.5"/>
<rect x="100.0" y="34.0" width="10" height="200.0" fill="#000" stroke="#000" stroke-width="0.5"/>
<rect x="160.0" y="34.0" width="10" height="200.0" fill="#000" stroke="#000" stroke-width="0.5"/>
<rect x="260.0" y="34.0" width="10" height="200.0" fill="#000" stroke="#000" stroke-width="0.5"/>
<rect x="0" y="134.0" width="124" height="100.0" fill="#C19A6B" stroke="#000" stroke-width="0.5"/>
<rect x="35" y="169.0" width="50" height="40.0" fill="#87CEEB" stroke="#000" stroke-width="0.5"/>
<rect x="116" y="134.0" width="154" height="100.0" fill="#C19A6B" stroke="#000" stroke-width="0.5"/>
<rect x="124" y="169.0" width="30" height="65.0" fill="#D2691E" stroke="#000" stroke-width="0.5"/>
<rect x="187" y="169.0" width="50" height="40.0" fill="#87CEEB" stroke="#000" stroke-width="0.5"/>
<rect x="0" y="36.0" width="124" height="90.0" fill="#C19A6B" stroke="#000" stroke-width="0.5"/>
<rect x="25" y="56.0" width="80" height="65.0" fill="#87CEEB" stroke="#000" stroke-width="0.5"/>
<rect x="116" y="36.0" width="154" height="90.0" fill="#C19A6B" stroke="#000" stroke-width="0.5"/>
<rect x="135" y="56.0" width="80" height="65.0" fill="#87CEEB" stroke="#000" stroke-width="0.5"/>
<rect x="0" y="18.0" width="270" height="8.0" fill="#654321" stroke="#000" stroke-width="0.5"/>
<rect x="0.0" y="34.0" width="8" height="200.0" fill="#000" stroke="#000" stroke-width="0.5"/>
<rect x="116.0" y="34.0" width="8" height="200.0" fill="#000" stroke="#000" stroke-width="0.5"/>
<rect x="262.0" y="34.0" width="8" height="200.0" fill="#000" stroke="#000" stroke-width="0.5"/>
<rect x="116.0" y="34.0" width="8" height="200.0" fill="#000" stroke="#000" stroke-width="0.5"/>
<rect x="0" y="18.0" width="270" height="8.0" fill="#654321" stroke="#000" stroke-width="0.5"/>
<rect x="0" y="134.0" width="124" height="100.0" fill="#C19A6B" stroke="#000" stroke-width="0.5"/>
<rect x="90" y="169.0" width="30" height="65.0" fill="#D2691E" stroke="#000" stroke-width="0.5"/>
<rect x="116" y="134.0" width="154" height="100.0" fill="#C19A6B" stroke="#000" stroke-width="0.5"/>
<rect x="124" y="169.0" width="30" height="65.0" fill="#D2691E" stroke="#000" stroke-width="0.5"/>
<rect x="0" y="36.0" width="124" height="90.0" fill="#C19A6B" stroke="#000" stroke-width="0.5"/>
<rect x="90" y="61.0" width="30" height="65.0" fill="#D2691E" stroke="#000" stroke-width="0.5"/>
<rect x="116" y="36.0" width="154" height="90.0" fill="#C19A6B" stroke="#000" stroke-width="0.5"/>
<rect x="124" y="61.0" width="30" height="65.0" fill="#D2691E" stroke="#000" stroke-width="0.5"/>
<rect x="-0.04999999999999982" y="34.0" width="12.5" height="200.0" fill="#000" stroke="#000" stroke-width="0.5"/>
<rect x="257.55" y="34.0" width="12.5" height="200.0" fill="#000" stroke="#000" stroke-width="0.5"/>
<rect x="0" y="126.0" width="270" height="8.0" fill="#808080" stroke="#000" stroke-width="0.5"/>
<rect x="184" y="36.0" width="78" height="90.0" fill="#C19A6B" stroke="#000" stroke-width="0.5"/>
<rect x="136" y="134.0" width="40" height="100.0" fill="#C19A6B" stroke="#000" stroke-width="0.5"/>
<rect x="176" y="134.0" width="94" height="100.0" fill="#C19A6B" stroke="#000" stroke-width="0.5"/>
<rect x="176" y="36.0" width="94" height="90.0" fill="#C19A6B" stroke="#000" stroke-width="0.5"/>
<rect x="40.0" y="34.0" width="8" height="200.0" fill="#000" stroke="#000" stroke-width="0.5"/>
<rect x="173.75" y="34.0" width="12.5" height="200.0" fill="#000" stroke="#000" stroke-width="0.5"/>
<rect x="0" y="18.0" width="270" height="8.0" fill="#654321" stroke="#000" stroke-width="0.5"/>
<rect x="0.0" y="34.0" width="8" height="200.0" fill="#000" stroke="#000" stroke-width="0.5"/>
<rect x="262.0" y="34.0" width="8" height="200.0" fill="#000" stroke="#000" stroke-width="0.5"/>
<rect x="40" y="126.0" width="230" height="8.0" fill="#808080" stroke="#000" stroke-width="0.5"/>
<g class="staircase-elevation">
<line x1="8.0" y1="234.0" x2="8.0" y2="229.0" stroke="#000" stroke-width="0.5"/>
<line x1="8.0" y1="229.0" x2="9.5" y2="229.0" stroke="#000" stroke-width="0.5"/>
<rect x="8.0" y="229.0" width="1.5" height="5.0" fill="#C19A6B" opacity="0.7"/>
<line x1="9.5" y1="229.0" x2="9.5" y2="224.0" stroke="#000" stroke-width="0.5"/>
<line x1="9.5" y1="224.0" x2="11.0" y2="224.0" stroke="#000" stroke-width="0.5"/>
<rect x="9.5" y="224.0" width="1.5" height="5.0" fill="#C19A6B" opacity="0.7"/>
<line x1="11.0" y1="224.0" x2="11.0" y2="219.0" stroke="#000" stroke-width="0.5"/>
<line x1="11.0" y1="219.0" x2="12.5" y2="219.0" stroke="#000" stroke-width="0.5"/>
<rect x="11.0" y="219.0" width="1.5" height="5.0" fill="#C19A6B" opacity="0.7"/>
<line x1="12.5" y1="219.0" x2="12.5" y2="214.0" stroke="#000" stroke-width="0.5"/>
<line x1="12.5" y1="214.0" x2="14.0" y2="214.0" stroke="#000" stroke-width="0.5"/>
<rect x="12.5" y="214.0" width="1.5" height="5.0" fill="#C19A6B" opacity="0.7"/>
<line x1="14.0" y1="214.0" x2="14.0" y2="209.0" stroke="#000" stroke-width="0.5"/>
<line x1="14.0" y1="209.0" x2="15.5" y2="209.0" stroke="#000" stroke-width="0.5"/>
<rect x="14.0" y="209.0" width="1.5" height="5.0" fill="#C19A6B" opacity="0.7"/>
<line x1="15.5" y1="209.0" x2="15.5" y2="204.0" stroke="#000" stroke-width="0.5"/>
<line x1="15.5" y1="204.0" x2="17.0" y2="204.0" stroke="#000" stroke-width="0.5"/>
<rect x="15.5" y="204.0" width="1.5" height="5.0" fill="#C19A6B" opacity="0.7"/>
<line x1="17.0" y1="204.0" x2="17.0" y2="199.0" stroke="#000" stroke-width="0.5"/>
<line x1="17.0" y1="199.0" x2="18.5" y2="199.0" stroke="#000" stroke-width="0.5"/>
<rect x="17.0" y="199.0" width="1.5" height="5.0" fill="#C19A6B" opacity="0.7"/>
<line x1="18.5" y1="199.0" x2="18.5" y2="194.0" stroke="#000" stroke-width="0.5"/>
<line x1="18.5" y1="194.0" x2="20.0" y2="194.0" stroke="#000" stroke-width="0.5"/>
<rect x="18.5" y="194.0" width="1.5" height="5.0" fill="#C19A6B" opacity="0.7"/>
<line x1="20.0" y1="194.0" x2="20.0" y2="189.0" stroke="#000" stroke-width="0.5"/>
<line x1="20.0" y1="189.0" x2="21.5" y2="189.0" stroke="#000" stroke-width="0.5"/>
<rect x="20.0" y="189.0" width="1.5" height="5.0" fill="#C19A6B" opacity="0.7"/>
<line x1="21.5" y1="189.0" x2="21.5" y2="184.0" stroke="#000" stroke-width="0.5"/>
<line x1="21.5" y1="184.0" x2="23.0" y2="184.0" stroke="#000" stroke-width="0.5"/>
<rect x="21.5" y="184.0" width="1.5" height="5.0" fill="#C19A6B" opacity="0.7"/>
<line x1="23.0" y1="184.0" x2="23.0" y2="179.0" stroke="#000" stroke-width="0.5"/>
<line x1="23.0" y1="179.0" x2="24.5" y2="179.0" stroke="#000" stroke-width="0.5"/>
<rect x="23.0" y="179.0" width="1.5" height="5.0" fill="#C19A6B" opacity="0.7"/>
<line x1="24.5" y1="179.0" x2="24.5" y2="174.0" stroke="#000" stroke-width="0.5"/>
<line x1="24.5" y1="174.0" x2="26.0" y2="174.0" stroke="#000" stroke-width="0.5"/>
<rect x="24.5" y="174.0" width="1.5" height="5.0" fill="#C19A6B" opacity="0.7"/>
<line x1="26.0" y1="174.0" x2="26.0" y2="169.0" stroke="#000" stroke-width="0.5"/>
<line x1="26.0" y1="169.0" x2="27.5" y2="169.0" stroke="#000" stroke-width="0.5"/>
<rect x="26.0" y="169.0" width="1.5" height="5.0" fill="#C19A6B" opacity="0.7"/>
<line x1="27.5" y1="169.0" x2="27.5" y2="164.0" stroke="#000" stroke-width="0.5"/>
<line x1="27.5" y1="164.0" x2="29.0" y2="164.0" stroke="#000" stroke-width="0.5"/>
<rect x="27.5" y="164.0" width="1.5" height="5.0" fill="#C19A6B" opacity="0.7"/>
<line x1="29.0" y1="164.0" x2="29.0" y2="159.0" stroke="#000" stroke-width="0.5"/>
<line x1="29.0" y1="159.0" x2="30.5" y2="159.0" stroke="#000" stroke-width="0.5"/>
<rect x="29.0" y="159.0" width="1.5" height="5.0" fill="#C19A6B" opacity="0.7"/>
<line x1="30.5" y1="159.0" x2="30.5" y2="154.0" stroke="#000" stroke-width="0.5"/>
<line x1="30.5" y1="154.0" x2="32.0" y2="154.0" stroke="#000" stroke-width="0.5"/>
<rect x="30.5" y="154.0" width="1.5" height="5.0" fill="#C19A6B" opacity="0.7"/>
<line x1="32.0" y1="154.0" x2="32.0" y2="149.0" stroke="#000" stroke-width="0.5"/>
<line x1="32.0" y1="149.0" x2="33.5" y2="149.0" stroke="#000" stroke-width="0.5"/>
<rect x="32.0" y="149.0" width="1.5" height="5.0" fill="#C19A6B" opacity="0.7"/>
<line x1="33.5" y1="149.0" x2="33.5" y2="144.0" stroke="#000" stroke-width="0.5"/>
<line x1="33.5" y1="144.0" x2="35.0" y2="144.0" stroke="#000" stroke-width="0.5"/>
<rect x="33.5" y="144.0" width="1.5" height="5.0" fill="#C19A6B" opacity="0.7"/>
<line x1="35.0" y1="144.0" x2="35.0" y2="139.0" stroke="#000" stroke-width="0.5"/>
<line x1="35.0" y1="139.0" x2="36.5" y2="139.0" stroke="#000" stroke-width="0.5"/>
<rect x="35.0" y="139.0" width="1.5" height="5.0" fill="#C19A6B" opacity="0.7"/>
<line x1="36.5" y1="139.0" x2="36.5" y2="134.0" stroke="#000" stroke-width="0.5"/>
<line x1="36.5" y1="134.0" x2="38.0" y2="134.0" stroke="#000" stroke-width="0.5"/>
<rect x="36.5" y="134.0" width="1.5" height="5.0" fill="#C19A6B" opacity="0.7"/>
<line x1="38.0" y1="134.0" x2="38.0" y2="234.0" stroke="#000" stroke-width="0.5"/>
<line x1="8" y1="234.0" x2="38.0" y2="234.0" stroke="#000" stroke-width="0.5"/>
</g>
<rect x="0" y="36.0" width="270" height="90.0" fill="#C19A6B" stroke="#000" stroke-width="0.5"/>
<rect x="24" y="61.0" width="60" height="60.0" fill="#87CEEB" stroke="#000" stroke-width="0.5"/>
<rect x="103.5" y="61.0" width="65" height="60.0" fill="#87CEEB" stroke="#000" stroke-width="0.5"/>
<rect x="187.5" y="61.0" width="60" height="60.0" fill="#87CEEB" stroke="#000" stroke-width="0.5"/>
<rect x="0.0" y="34.0" width="8" height="200.0" fill="#000" stroke="#000" stroke-width="0.5"/>
<rect x="262.0" y="34.0" width="8" height="200.0" fill="#000" stroke="#000" stroke-width="0.5"/>
<rect x="8" y="126.0" width="254" height="8.0" fill="#654321" stroke="#000" stroke-width="0.5"/>
<rect x="262" y="126.0" width="8" height="8.0" fill="#654321" stroke="#000" stroke-width="0.5"/>
<rect x="0" y="126.0" width="8" height="8.0" fill="#654321" stroke="#000" stroke-width="0.5"/>
<rect x="0" y="18.0" width="270" height="8.0" fill="#654321" stroke="#000" stroke-width="0.5"/>
<rect x="0" y="18.0" width="8" height="8.0" fill="#654321" stroke="#000" stroke-width="0.5"/>
<rect x="262" y="18.0" width="8" height="8.0" fill="#654321" stroke="#000" stroke-width="0.5"/>
<rect x="0" y="234.0" width="270" height="8.0" fill="#808080" stroke="#000" stroke-width="0.5"/>
<rect x="0" y="134.0" width="270" height="100.0" fill="#C19A6B" stroke="#000" stroke-width="0.5"/>
<rect x="98.5" y="169.0" width="75" height="65.0" fill="#D2691E" stroke="#000" stroke-width="0.5"/>
<rect x="24" y="169.0" width="60" height="40.0" fill="#87CEEB" stroke="#000" stroke-width="0.5"/>
<rect x="187.5" y="169.0" width="60" height="40.0" fill="#87CEEB" stroke="#000" stroke-width="0.5"/>
<rect x="88.5" y="34.0" width="10" height="200.0" fill="#000" stroke="#000" stroke-width="0.5"/>
<rect x="173.5" y="34.0" width="10" height="200.0" fill="#000" stroke="#000" stroke-width="0.5"/>
<line x1="-30" y1="36.0" x2="135.0" y2="-44.8058771133671" stroke="#8B4513" stroke-width="0.33"/>
<line x1="135.0" y1="-44.8058771133671" x2="300" y2="36.0" stroke="#8B4513" stroke-width="0.33"/>
<g class="dimension">
  <line x1="300" y1="234.0" x2="300" y2="134.0" stroke="#000" stroke-width="0.5"/>
  <line x1="270" y1="234.0" x2="300" y2="234.0" stroke="#000" stroke-width="0.3" stroke-dasharray="2,2"/>
  <line x1="270" y1="134.0" x2="300" y2="134.0" stroke="#000" stroke-width="0.3" stroke-dasharray="2,2"/>
  <polygon points="300,234.0 297,237.0 303,237.0" fill="#000"/>
  <polygon points="300,134.0 297,131.0 303,131.0" fill="#000"/>
  <text x="313" y="184.0" text-anchor="middle" font-size="10" fill="#000" transform="rotate(-90 313 184.0)">10'</text>
</g>
<g class="dimension">
  <line x1="300" y1="126.0" x2="300" y2="26.0" stroke="#000" stroke-width="0.5"/>
  <line x1="270" y1="126.0" x2="300" y2="126.0" stroke="#000" stroke-width="0.3" stroke-dasharray="2,2"/>
  <line x1="270" y1="26.0" x2="300" y2="26.0" stroke="#000" stroke-width="0.3" stroke-dasharray="2,2"/>
  <polygon points="300,126.0 297,129.0 303,129.0" fill="#000"/>
  <polygon points="300,26.0 297,23.0 303,23.0" fill="#000"/>
  <text x="313" y="76.0" text-anchor="middle" font-size="10" fill="#000" transform="rotate(-90 313 76.0)">10'</text>
</g>
<g class="dimension">
  <line x1="300" y1="18.0" x2="300" y2="-24.0" stroke="#000" stroke-width="0.5"/>
  <line x1="270" y1="18.0" x2="300" y2="18.0" stroke="#000" stroke-width="0.3" stroke-dasharray="2,2"/>
  <line x1="270" y1="-24.0" x2="300" y2="-24.0" stroke="#000" stroke-width="0.3" stroke-dasharray="2,2"/>
  <polygon points="300,18.0 297,21.0 303,21.0" fill="#000"/>
  <polygon points="300,-24.0 297,-27.0 303,-27.0" fill="#000"/>
  <text x="313" y="-3.0" text-anchor="middle" font-size="10" fill="#000" transform="rotate(-90 313 -3.0)">4' 2"</text>
</g>
<g class="dimension">
  <line x1="0" y1="-30.0" x2="270" y2="-30.0" stroke="#000" stroke-width="0.5"/>
  <line x1="0" y1="0.0" x2="0" y2="-30.0" stroke="#000" stroke-width="0.3" stroke-dasharray="2,2"/>
  <line x1="270" y1="0.0" x2="270" y2="-30.0" stroke="#000" stroke-width="0.3" stroke-dasharray="2,2"/>
  <polygon points="0,-30.0 3,-33.0 3,-27.0" fill="#000"/>
  <polygon points="270,-30.0 267,-33.0 267,-27.0" fill="#000"/>
  <text x="135.0" y="-35.0" text-anchor="middle" font-size="10" fill="#000">27'</text>
</g>
<g class="dimension">
  <line x1="0" y1="136.0" x2="24" y2="136.0" stroke="#000" stroke-width="0.5"/>
  <line x1="0" y1="121.0" x2="0" y2="136.0" stroke="#000" stroke-width="0.3" stroke-dasharray="2,2"/>
  <line x1="24" y1="121.0" x2="24" y2="136.0" stroke="#000" stroke-width="0.3" stroke-dasharray="2,2"/>
  <polygon points="0,136.0 3,133.0 3,139.0" fill="#000"/>
  <polygon points="24,136.0 21,133.0 21,139.0" fill="#000"/>
  <text x="12.0" y="149.0" text-anchor="middle" font-size="10" fill="#000">2' 5"</text>
</g>
<g class="dimension">
  <line x1="24" y1="136.0" x2="84" y2="136.0" stroke="#000" stroke-width="0.5"/>
  <line x1="24" y1="121.0" x2="24" y2="136.0" stroke="#000" stroke-width="0.3" stroke-dasharray="2,2"/>
  <line x1="84" y1="121.0" x2="84" y2="136.0" stroke="#000" stroke-width="0.3" stroke-dasharray="2,2"/>
  <polygon points="24,136.0 27,133.0 27,139.0" fill="#000"/>
  <polygon points="84,136.0 81,133.0 81,139.0" fill="#000"/>
  <text x="54.0" y="149.0" text-anchor="middle" font-size="10" fill="#000">6'</text>
</g>
<g class="dimension">
  <line x1="103.5" y1="136.0" x2="168.5" y2="136.0" stroke="#000" stroke-width="0.5"/>
  <line x1="103.5" y1="121.0" x2="103.5" y2="136.0" stroke="#000" stroke-width="0.3" stroke-dasharray="2,2"/>
  <line x1="168.5" y1="121.0" x2="168.5" y2="136.0" stroke="#000" stroke-width="0.3" stroke-dasharray="2,2"/>
  <polygon points="103.5,136.0 106.5,133.0 106.5,139.0" fill="#000"/>
  <polygon points="168.5,136.0 165.5,133.0 165.5,139.0" fill="#000"/>
  <text x="136.0" y="149.0" text-anchor="middle" font-size="10" fill="#000">6' 6"</text>
</g>
<g class="dimension">
  <line x1="187.5" y1="136.0" x2="247.5" y2="136.0" stroke="#000" stroke-width="0.5"/>
  <line x1="187.5" y1="121.0" x2="187.5" y2="136.0" stroke="#000" stroke-width="0.3" stroke-dasharray="2,2"/>
  <line x1="247.5" y1="121.0" x2="247.5" y2="136.0" stroke="#000" stroke-width="0.3" stroke-dasharray="2,2"/>
  <polygon points="187.5,136.0 190.5,133.0 190.5,139.0" fill="#000"/>
  <polygon points="247.5,136.0 244.5,133.0 244.5,139.0" fill="#000"/>
  <text x="217.5" y="149.0" text-anchor="middle" font-size="10" fill="#000">6'</text>
</g>
<g class="dimension">
  <line x1="0" y1="249.0" x2="24" y2="249.0" stroke="#000" stroke-width="0.5"/>
  <line x1="0" y1="234.0" x2="0" y2="249.0" stroke="#000" stroke-width="0.3" stroke-dasharray="2,2"/>
  <line x1="24" y1="234.0" x2="24" y2="249.0" stroke="#000" stroke-width="0.3" stroke-dasharray="2,2"/>
  <polygon points="0,249.0 3,246.0 3,252.0" fill="#000"/>
  <polygon points="24,249.0 21,246.0 21,252.0" fill="#000"/>
  <text x="12.0" y="262.0" text-anchor="middle" font-size="10" fill="#000">2' 5"</text>
</g>
<g class="dimension">
  <line x1="24" y1="249.0" x2="84" y2="249.0" stroke="#000" stroke-width="0.5"/>
  <line x1="24" y1="234.0" x2="24" y2="249.0" stroke="#000" stroke-width="0.3" stroke-dasharray="2,2"/>
  <line x1="84" y1="234.0" x2="84" y2="249.0" stroke="#000" stroke-width="0.3" stroke-dasharray="2,2"/>
  <polygon points="24,249.0 27,246.0 27,252.0" fill="#000"/>
  <polygon points="84,249.0 81,246.0 81,252.0" fill="#000"/>
  <text x="54.0" y="262.0" text-anchor="middle" font-size="10" fill="#000">6'</text>
</g>
<g class="dimension">
  <line x1="98.5" y1="249.0" x2="173.5" y2="249.0" stroke="#000" stroke-width="0.5"/>
  <line x1="98.5" y1="234.0" x2="98.5" y2="249.0" stroke="#000" stroke-width="0.3" stroke-dasharray="2,2"/>
  <line x1="173.5" y1="234.0" x2="173.5" y2="249.0" stroke="#000" stroke-width="0.3" stroke-dasharray="2,2"/>
  <polygon points="98.5,249.0 101.5,246.0 101.5,252.0" fill="#000"/>
  <polygon points="173.5,249.0 170.5,246.0 170.5,252.0" fill="#000"/>
  <text x="136.0" y="262.0" text-anchor="middle" font-size="10" fill="#000">7' 6"</text>
</g>
<g class="dimension">
  <line x1="187.5" y1="249.0" x2="247.5" y2="249.0" stroke="#000" stroke-width="0.5"/>
  <line x1="187.5" y1="234.0" x2="187.5" y2="249.0" stroke="#000" stroke-width="0.3" stroke-dasharray="2,2"/>
  <line x1="247.5" y1="234.0" x2="247.5" y2="249.0" stroke="#000" stroke-width="0.3" stroke-dasharray="2,2"/>
  <polygon points="187.5,249.0 190.5,246.0 190.5,252.0" fill="#000"/>
  <polygon points="247.5,249.0 244.5,246.0 244.5,252.0" fill="#000"/>
  <text x="217.5" y="262.0" text-anchor="middle" font-size="10" fill="#000">6'</text>
</g>
<g class="dimension">
  <line x1="105.0" y1="126.0" x2="105.0" y2="36.0" stroke="#000" stroke-width="0.5"/>
  <line x1="135.0" y1="126.0" x2="105.0" y2="126.0" stroke="#000" stroke-width="0.3" stroke-dasharray="2,2"/>
  <line x1="135.0" y1="36.0" x2="105.0" y2="36.0" stroke="#000" stroke-width="0.3" stroke-dasharray="2,2"/>
  <polygon points="105.0,126.0 102.0,129.0 108.0,129.0" fill="#000"/>
  <polygon points="105.0,36.0 102.0,33.0 108.0,33.0" fill="#000"/>
  <text x="92.0" y="81.0" text-anchor="middle" font-size="10" fill="#000" transform="rotate(-90 92.0 81.0)">9'</text>
</g>
</g>
<text x="420.0" y="40.0" text-anchor="middle" font-size="18" font-weight="bold" fill="#333">Back Elevation</text>
</svg>