<?xml version="1.0" encoding="UTF-8"?>
<svg xmlns="http://www.w3.org/2000/svg" width="1200.0" height="988.0" viewBox="0 0 1200.0 988.0">
<title>Left Elevation</title>
<defs>
    <style>
        text { font-family: Arial, sans-serif; }
    </style>
</defs>
<g transform="translate(150, 210) scale(2.0, 2.0)">

<line x1="0" y1="314.0" x2="450" y2="314.0" stroke="#666" stroke-width="2" stroke-dasharray="5,5"/>
<rect x="0" y="284.0" width="450" height="30.0" fill="#A0826D" stroke="#000" stroke-width="1"/>
<rect x="300" y="78.0" width="150" height="90.0" fill="#C19A6B" stroke="#000" stroke-width="0.5"/>
<rect x="310" y="103.0" width="50" height="60.0" fill="#87CEEB" stroke="#000" stroke-width="0.5"/>
<rect x="375" y="103.0" width="50" height="60.0" fill="#87CEEB" stroke="#000" stroke-width="0.5"/>
<rect x="330" y="168.0" width="120" height="8.0" fill="#654321" stroke="#000" stroke-width="0.5"/>
<rect x="0" y="70.0" width="450" height="8.0" fill="#654321" stroke="#000" stroke-width="0.5"/>
<rect x="0" y="246.0" width="88" height="30.0" fill="#C19A6B" stroke="#000" stroke-width="0.5"/>
<rect x="196" y="176.0" width="254" height="100.0" fill="#C19A6B" stroke="#000" stroke-width="0.5"/>
<rect x="214" y="211.0" width="20" height="20.0" fill="#87CEEB" stroke="#000" stroke-width="0.5"/>
<rect x="254" y="211.0" width="20" height="20.0" fill="#87CEEB" stroke="#000" stroke-width="0.5"/>
<rect x="310" y="211.0" width="60" height="30.0" fill="#87CEEB" stroke="#000" stroke-width="0.5"/>
<rect x="80" y="176.0" width="124" height="100.0" fill="#C19A6B" stroke="#000" stroke-width="0.5"/>
<rect x="115" y="211.0" width="50" height="40.0" fill="#87CEEB" stroke="#000" stroke-width="0.5"/>
<rect x="0" y="138.0" width="88" height="30.0" fill="#C19A6B" stroke="#000" stroke-width="0.5"/>
<rect x="80" y="78.0" width="124" height="90.0" fill="#C19A6B" stroke="#000" stroke-width="0.5"/>
<rect x="115" y="103.0" width="50" height="40.0" fill="#87CEEB" stroke="#000" stroke-width="0.5"/>
<rect x="196" y="78.0" width="104" height="90.0" fill="#C19A6B" stroke="#000" stroke-width="0.5"/>
<rect x="214" y="103.0" width="20" height="20.0" fill="#87CEEB" stroke="#000" stroke-width="0.5"/>
<rect x="262" y="103.0" width="20" height="20.0" fill="#87CEEB" stroke="#000" stroke-width="0.5"/>
<rect x="79.975" y="76.0" width="12.5" height="200.0" fill="#000" stroke="#000" stroke-width="0.5"/>
<rect x="289.75" y="76.0" width="12.5" height="200.0" fill="#000" stroke="#000" stroke-width="0.5"/>
<rect x="437.25" y="76.0" width="12.5" height="200.0" fill="#000" stroke="#000" stroke-width="0.5"/>
<rect x="0.0" y="76.0" width="8" height="200.0" fill="#000" stroke="#000" stroke-width="0.5"/>
<rect x="196.0" y="76.0" width="8" height="200.0" fill="#000" stroke="#000" stroke-width="0.5"/>
<rect x="196" y="176.0" width="104" height="100.0" fill="#C19A6B" stroke="#000" stroke-width="0.5"/>
<rect x="228" y="211.0" width="30" height="65.0" fill="#D2691E" stroke="#000" stroke-width="0.5"/>
<rect x="196" y="78.0" width="104" height="90.0" fill="#C19A6B" stroke="#000" stroke-width="0.5"/>
<rect x="292.0" y="76.0" width="8" height="200.0" fill="#000" stroke="#000" stroke-width="0.5"/>
<rect x="442.0" y="76.0" width="8" height="200.0" fill="#000" stroke="#000" stroke-width="0.5"/>
<rect x="0.0" y="76.0" width="8" height="200.0" fill="#000" stroke="#000" stroke-width="0.5"/>
<rect x="80" y="176.0" width="124" height="100.0" fill="#C19A6B" stroke="#000" stroke-width="0.5"/>
<rect x="80" y="78.0" width="124" height="90.0" fill="#C19A6B" stroke="#000" stroke-width="0.5"/>
<rect x="79.975" y="76.0" width="12.5" height="200.0" fill="#000" stroke="#000" stroke-width="0.5"/>
<rect x="191.25" y="76.0" width="12.5" height="200.0" fill="#000" stroke="#000" stroke-width="0.5"/>
<rect x="0.0" y="76.0" width="8" height="200.0" fill="#000" stroke="#000" stroke-width="0.5"/>
<rect x="442.0" y="76.0" width="8" height="200.0" fill="#000" stroke="#000" stroke-width="0.5"/>
<rect x="234" y="168.0" width="100" height="8.0" fill="#808080" stroke="#000" stroke-width="0.5"/>
<rect x="292.0" y="76.0" width="8" height="200.0" fill="#000" stroke="#000" stroke-width="0.5"/>
<rect x="442" y="168.0" width="8" height="8.0" fill="#654321" stroke="#000" stroke-width="0.5"/>
<g class="staircase-elevation">
<line x1="230.0" y1="276.0" x2="230.0" y2="271.0" stroke="#000" stroke-width="0.5"/>
<line x1="230.0" y1="271.0" x2="240.0" y2="271.0" stroke="#000" stroke-width="0.5"/>
<rect x="230.0" y="271.0" width="10.0" height="5.0" fill="#C19A6B" opacity="0.7"/>
<line x1="240.0" y1="271.0" x2="240.0" y2="266.0" stroke="#000" stroke-width="0.5"/>
<line x1="240.0" y1="266.0" x2="250.0" y2="266.0" stroke="#000" stroke-width="0.5"/>
<rect x="240.0" y="266.0" width="10.0" height="5.0" fill="#C19A6B" opacity="0.7"/>
<line x1="250.0" y1="266.0" x2="250.0" y2="261.0" stroke="#000" stroke-width="0.5"/>
<line x1="250.0" y1="261.0" x2="260.0" y2="261.0" stroke="#000" stroke-width="0.5"/>
<rect x="250.0" y="261.0" width="10.0" height="5.0" fill="#C19A6B" opacity="0.7"/>
<line x1="260.0" y1="261.0" x2="260.0" y2="256.0" stroke="#000" stroke-width="0.5"/>
<line x1="260.0" y1="256.0" x2="270.0" y2="256.0" stroke="#000" stroke-width="0.5"/>
<rect x="260.0" y="256.0" width="10.0" height="5.0" fill="#C19A6B" opacity="0.7"/>
<line x1="270.0" y1="256.0" x2="270.0" y2="251.0" stroke="#000" stroke-width="0.5"/>
<line x1="270.0" y1="251.0" x2="280.0" y2="251.0" stroke="#000" stroke-width="0.5"/>
<rect x="270.0" y="251.0" width="10.0" height="5.0" fill="#C19A6B" opacity="0.7"/>
<line x1="280.0" y1="251.0" x2="280.0" y2="246.0" stroke="#000" stroke-width="0.5"/>
<line x1="280.0" y1="246.0" x2="290.0" y2="246.0" stroke="#000" stroke-width="0.5"/>
<rect x="280.0" y="246.0" width="10.0" height="5.0" fill="#C19A6B" opacity="0.7"/>
<line x1="290.0" y1="246.0" x2="290.0" y2="241.0" stroke="#000" stroke-width="0.5"/>
<line x1="290.0" y1="241.0" x2="300.0" y2="241.0" stroke="#000" stroke-width="0.5"/>
<rect x="290.0" y="241.0" width="10.0" height="5.0" fill="#C19A6B" opacity="0.7"/>
<line x1="300.0" y1="241.0" x2="300.0" y2="236.0" stroke="#000" stroke-width="0.5"/>
<line x1="300.0" y1="236.0" x2="310.0" y2="236.0" stroke="#000" stroke-width="0.5"/>
<rect x="300.0" y="236.0" width="10.0" height="5.0" fill="#C19A6B" opacity="0.7"/>
<line x1="310.0" y1="236.0" x2="310.0" y2="231.0" stroke="#000" stroke-width="0.5"/>
<line x1="310.0" y1="231.0" x2="320.0" y2="231.0" stroke="#000" stroke-width="0.5"/>
<rect x="310.0" y="231.0" width="10.0" height="5.0" fill="#C19A6B" opacity="0.7"/>
<line x1="320.0" y1="231.0" x2="320.0" y2="226.0" stroke="#000" stroke-width="0.5"/>
<line x1="320.0" y1="226.0" x2="330.0" y2="226.0" stroke="#000" stroke-width="0.5"/>
<rect x="320.0" y="226.0" width="10.0" height="5.0" fill="#C19A6B" opacity="0.7"/>
<line x1="330.0" y1="226.0" x2="330.0" y2="221.0" stroke="#000" stroke-width="0.5"/>
<line x1="330.0" y1="221.0" x2="340.0" y2="221.0" stroke="#000" stroke-width="0.5"/>
<rect x="330.0" y="221.0" width="10.0" height="5.0" fill="#C19A6B" opacity="0.7"/>
<line x1="340.0" y1="221.0" x2="340.0" y2="216.0" stroke="#000" stroke-width="0.5"/>
<line x1="340.0" y1="216.0" x2="350.0" y2="216.0" stroke="#000" stroke-width="0.5"/>
<rect x="340.0" y="216.0" width="10.0" height="5.0" fill="#C19A6B" opacity="0.7"/>
<line x1="350.0" y1="216.0" x2="350.0" y2="211.0" stroke="#000" stroke-width="0.5"/>
<line x1="350.0" y1="211.0" x2="360.0" y2="211.0" stroke="#000" stroke-width="0.5"/>
<rect x="350.0" y="211.0" width="10.0" height="5.0" fill="#C19A6B" opacity="0.7"/>
<line x1="360.0" y1="211.0" x2="360.0" y2="206.0" stroke="#000" stroke-width="0.5"/>
<line x1="360.0" y1="206.0" x2="370.0" y2="206.0" stroke="#000" stroke-width="0.5"/>
<rect x="360.0" y="206.0" width="10.0" height="5.0" fill="#C19A6B" opacity="0.7"/>
<line x1="370.0" y1="206.0" x2="370.0" y2="201.0" stroke="#000" stroke-width="0.5"/>
<line x1="370.0" y1="201.0" x2="380.0" y2="201.0" stroke="#000" stroke-width="0.5"/>
<rect x="370.0" y="201.0" width="10.0" height="5.0" fill="#C19A6B" opacity="0.7"/>
<line x1="380.0" y1="201.0" x2="380.0" y2="196.0" stroke="#000" stroke-width="0.5"/>
<line x1="380.0" y1="196.0" x2="390.0" y2="196.0" stroke="#000" stroke-width="0.5"/>
<rect x="380.0" y="196.0" width="10.0" height="5.0" fill="#C19A6B" opacity="0.7"/>
<line x1="390.0" y1="196.0" x2="390.0" y2="191.0" stroke="#000" stroke-width="0.5"/>
<line x1="390.0" y1="191.0" x2="400.0" y2="191.0" stroke="#000" stroke-width="0.5"/>
<rect x="390.0" y="191.0" width="10.0" height="5.0" fill="#C19A6B" opacity="0.7"/>
<line x1="400.0" y1="191.0" x2="400.0" y2="186.0" stroke="#000" stroke-width="0.5"/>
<line x1="400.0" y1="186.0" x2="410.0" y2="186.0" stroke="#000" stroke-width="0.5"/>
<rect x="400.0" y="186.0" width="10.0" height="5.0" fill="#C19A6B" opacity="0.7"/>
<line x1="410.0" y1="186.0" x2="410.0" y2="181.0" stroke="#000" stroke-width="0.5"/>
<line x1="410.0" y1="181.0" x2="420.0" y2="181.0" stroke="#000" stroke-width="0.5"/>
<rect x="410.0" y="181.0" width="10.0" height="5.0" fill="#C19A6B" opacity="0.7"/>
<line x1="420.0" y1="181.0" x2="420.0" y2="176.0" stroke="#000" stroke-width="0.5"/>
<line x1="420.0" y1="176.0" x2="430.0" y2="176.0" stroke="#000" stroke-width="0.5"/>
<rect x="420.0" y="176.0" width="10.0" height="5.0" fill="#C19A6B" opacity="0.7"/>
<line x1="430.0" y1="176.0" x2="430.0" y2="276.0" stroke="#000" stroke-width="0.5"/>
<line x1="230" y1="276.0" x2="430.0" y2="276.0" stroke="#000" stroke-width="0.5"/>
</g>
<rect x="200" y="78.0" width="100" height="90.0" fill="#C19A6B" stroke="#000" stroke-width="0.5"/>
<rect x="300" y="78.0" width="150" height="90.0" fill="#C19A6B" stroke="#000" stroke-width="0.5"/>
<rect x="310" y="103.0" width="50" height="60.0" fill="#87CEEB" stroke="#000" stroke-width="0.5"/>
<rect x="375" y="103.0" width="50" height="60.0" fill="#87CEEB" stroke="#000" stroke-width="0.5"/>
<rect x="230" y="168.0" width="220" height="8.0" fill="#654321" stroke="#000" stroke-width="0.5"/>
<rect x="0" y="70.0" width="8" height="8.0" fill="#654321" stroke="#000" stroke-width="0.5"/>
<rect x="80" y="70.0" width="12" height="8.0" fill="#654321" stroke="#000" stroke-width="0.5"/>
<rect x="196" y="70.0" width="8" height="8.0" fill="#654321" stroke="#000" stroke-width="0.5"/>
<rect x="290" y="70.0" width="12" height="8.0" fill="#654321" stroke="#000" stroke-width="0.5"/>
<rect x="438" y="70.0" width="12" height="8.0" fill="#654321" stroke="#000" stroke-width="0.5"/>
<rect x="0" y="70.0" width="450" height="8.0" fill="#654321" stroke="#000" stroke-width="0.5"/>
<rect x="0" y="276.0" width="450" height="8.0" fill="#808080" stroke="#000" stroke-width="0.5"/>
<rect x="0" y="168.0" width="234" height="8.0" fill="#808080" stroke="#000" stroke-width="0.5"/>
<rect x="0" y="246.0" width="88" height="30.0" fill="#C19A6B" stroke="#000" stroke-width="0.5"/>
<rect x="80" y="176.0" width="124" height="100.0" fill="#C19A6B" stroke="#000" stroke-width="0.5"/>
<rect x="117" y="211.0" width="50" height="40.0" fill="#87CEEB" stroke="#000" stroke-width="0.5"/>
<rect x="196" y="176.0" width="254" height="100.0" fill="#C19A6B" stroke="#000" stroke-width="0.5"/>
<rect x="224" y="211.0" width="40" height="40.0" fill="#87CEEB" stroke="#000" stroke-width="0.5"/>
<rect x="386" y="211.0" width="40" height="30.0" fill="#87CEEB" stroke="#000" stroke-width="0.5"/>
<rect x="0" y="138.0" width="88" height="30.0" fill="#C19A6B" stroke="#000" stroke-width="0.5"/>
<rect x="80" y="78.0" width="124" height="90.0" fill="#C19A6B" stroke="#000" stroke-width="0.5"/>
<rect x="115" y="103.0" width="50" height="40.0" fill="#87CEEB" stroke="#000" stroke-width="0.5"/>
<rect x="79.975" y="76.0" width="12.5" height="200.0" fill="#000" stroke="#000" stroke-width="0.5"/>
<rect x="289.75" y="76.0" width="12.5" height="200.0" fill="#000" stroke="#000" stroke-width="0.5"/>
<rect x="437.25" y="76.0" width="12.5" height="200.0" fill="#000" stroke="#000" stroke-width="0.5"/>
<rect x="0.0" y="76.0" width="8" height="200.0" fill="#000" stroke="#000" stroke-width="0.5"/>
<rect x="196.0" y="76.0" width="8" height="200.0" fill="#000" stroke="#000" stroke-width="0.5"/>
<line x1="-25.0" y1="90.29573789504204" x2="86.225" y2="-3.0" stroke="#8B4513" stroke-width="3"/>
<line x1="296.0" y1="-3.0" x2="494.6506233690925" y2="90.29573789504204" stroke="#8B4513" stroke-width="3"/>
<line x1="86.225" y1="-3.0" x2="296.0" y2="-3.0" stroke="#8B4513" stroke-width="3"/>
<g class="dimension">
  <line x1="480" y1="276.0" x2="480" y2="176.0" stroke="#000" stroke-width="0.5"/>
  <line x1="450" y1="276.0" x2="480" y2="276.0" stroke="#000" stroke-width="0.3" stroke-dasharray="2,2"/>
  <line x1="450" y1="176.0" x2="480" y2="176.0" stroke="#000" stroke-width="0.3" stroke-dasharray="2,2"/>
  <polygon points="480,276.0 477,279.0 483,279.0" fill="#000"/>
  <polygon points="480,176.0 477,173.0 483,173.0" fill="#000"/>
  <text x="493" y="226.0" text-anchor="middle" font-size="10" fill="#000" transform="rotate(-90 493 226.0)">10'</text>
</g>
<g class="dimension">
  <line x1="480" y1="168.0" x2="480" y2="78.0" stroke="#000" stroke-width="0.5"/>
  <line x1="450" y1="168.0" x2="480" y2="168.0" stroke="#000" stroke-width="0.3" stroke-dasharray="2,2"/>
  <line x1="450" y1="78.0" x2="480" y2="78.0" stroke="#000" stroke-width="0.3" stroke-dasharray="2,2"/>
  <polygon points="480,168.0 477,171.0 483,171.0" fill="#000"/>
  <polygon points="480,78.0 477,75.0 483,75.0" fill="#000"/>
  <text x="493" y="123.0" text-anchor="middle" font-size="10" fill="#000" transform="rotate(-90 493 123.0)">9'</text>
</g>
<g class="dimension">
  <line x1="480" y1="70.0" x2="480" y2="0.0" stroke="#000" stroke-width="0.5"/>
  <line x1="450" y1="70.0" x2="480" y2="70.0" stroke="#000" stroke-width="0.3" stroke-dasharray="2,2"/>
  <line x1="450" y1="0.0" x2="480" y2="0.0" stroke="#000" stroke-width="0.3" stroke-dasharray="2,2"/>
  <polygon points="480,70.0 477,73.0 483,73.0" fill="#000"/>
  <polygon points="480,0.0 477,-3.0 483,-3.0" fill="#000"/>
  <text x="493" y="35.0" text-anchor="middle" font-size="10" fill="#000" transform="rotate(-90 493 35.0)">7'</text>
</g>
<g class="dimension">
  <line x1="0" y1="-30.0" x2="450" y2="-30.0" stroke="#000" stroke-width="0.5"/>
  <line x1="0" y1="0.0" x2="0" y2="-30.0" stroke="#000" stroke-width="0.3" stroke-dasharray="2,2"/>
  <line x1="450" y1="0.0" x2="450" y2="-30.0" stroke="#000" stroke-width="0.3" stroke-dasharray="2,2"/>
  <polygon points="0,-30.0 3,-33.0 3,-27.0" fill="#000"/>
  <polygon points="450,-30.0 447,-33.0 447,-27.0" fill="#000"/>
  <text x="225.0" y="-35.0" text-anchor="middle" font-size="10" fill="#000">45'</text>
</g>
<g class="dimension">
  <line x1="310" y1="178.0" x2="360" y2="178.0" stroke="#000" stroke-width="0.5"/>
  <line x1="310" y1="163.0" x2="310" y2="178.0" stroke="#000" stroke-width="0.3" stroke-dasharray="2,2"/>
  <line x1="360" y1="163.0" x2="360" y2="178.0" stroke="#000" stroke-width="0.3" stroke-dasharray="2,2"/>
  <polygon points="310,178.0 313,175.0 313,181.0" fill="#000"/>
  <polygon points="360,178.0 357,175.0 357,181.0" fill="#000"/>
  <text x="335.0" y="191.0" text-anchor="middle" font-size="10" fill="#000">5'</text>
</g>
<g class="dimension">
  <line x1="375" y1="178.0" x2="425" y2="178.0" stroke="#000" stroke-width="0.5"/>
  <line x1="375" y1="163.0" x2="375" y2="178.0" stroke="#000" stroke-width="0.3" stroke-dasharray="2,2"/>
  <line x1="425" y1="163.0" x2="425" y2="178.0" stroke="#000" stroke-width="0.3" stroke-dasharray="2,2"/>
  <polygon points="375,178.0 378,175.0 378,181.0" fill="#000"/>
  <polygon points="425,178.0 422,175.0 422,181.0" fill="#000"/>
  <text x="400.0" y="191.0" text-anchor="middle" font-size="10" fill="#000">5'</text>
</g>
<g class="dimension">
  <line x1="80" y1="266.0" x2="117" y2="266.0" stroke="#000" stroke-width="0.5"/>
  <line x1="80" y1="251.0" x2="80" y2="266.0" stroke="#000" stroke-width="0.3" stroke-dasharray="2,2"/>
  <line x1="117" y1="251.0" x2="117" y2="266.0" stroke="#000" stroke-width="0.3" stroke-dasharray="2,2"/>
  <polygon points="80,266.0 83,263.0 83,269.0" fill="#000"/>
  <polygon points="117,266.0 114,263.0 114,269.0" fill="#000"/>
  <text x="98.5" y="279.0" text-anchor="middle" font-size="10" fill="#000">3' 8"</text>
</g>
<g class="dimension">
  <line x1="117" y1="266.0" x2="167" y2="266.0" stroke="#000" stroke-width="0.5"/>
  <line x1="117" y1="251.0" x2="117" y2="266.0" stroke="#000" stroke-width="0.3" stroke-dasharray="2,2"/>
  <line x1="167" y1="251.0" x2="167" y2="266.0" stroke="#000" stroke-width="0.3" stroke-dasharray="2,2"/>
  <polygon points="117,266.0 120,263.0 120,269.0" fill="#000"/>
  <polygon points="167,266.0 164,263.0 164,269.0" fill="#000"/>
  <text x="142.0" y="279.0" text-anchor="middle" font-size="10" fill="#000">5'</text>
</g>
<g class="dimension">
  <line x1="196" y1="266.0" x2="224" y2="266.0" stroke="#000" stroke-width="0.5"/>
  <line x1="196" y1="251.0" x2="196" y2="266.0" stroke="#000" stroke-width="0.3" stroke-dasharray="2,2"/>
  <line x1="224" y1="251.0" x2="224" y2="266.0" stroke="#000" stroke-width="0.3" stroke-dasharray="2,2"/>
  <polygon points="196,266.0 199,263.0 199,269.0" fill="#000"/>
  <polygon points="224,266.0 221,263.0 221,269.0" fill="#000"/>
  <text x="210.0" y="279.0" text-anchor="middle" font-size="10" fill="#000">2' 10"</text>
</g>
<g class="dimension">
  <line x1="224" y1="266.0" x2="264" y2="266.0" stroke="#000" stroke-width="0.5"/>
  <line x1="224" y1="251.0" x2="224" y2="266.0" stroke="#000" stroke-width="0.3" stroke-dasharray="2,2"/>
  <line x1="264" y1="251.0" x2="264" y2="266.0" stroke="#000" stroke-width="0.3" stroke-dasharray="2,2"/>
  <polygon points="224,266.0 227,263.0 227,269.0" fill="#000"/>
  <polygon points="264,266.0 261,263.0 261,269.0" fill="#000"/>
  <text x="244.0" y="279.0" text-anchor="middle" font-size="10" fill="#000">4'</text>
</g>
<g class="dimension">
  <line x1="264" y1="266.0" x2="386" y2="266.0" stroke="#000" stroke-width="0.5"/>
  <line x1="264" y1="251.0" x2="264" y2="266.0" stroke="#000" stroke-width="0.3" stroke-dasharray="2,2"/>
  <line x1="386" y1="251.0" x2="386" y2="266.0" stroke="#000" stroke-width="0.3" stroke-dasharray="2,2"/>
  <polygon points="264,266.0 267,263.0 267,269.0" fill="#000"/>
  <polygon points="386,266.0 383,263.0 383,269.0" fill="#000"/>
  <text x="325.0" y="279.0" text-anchor="middle" font-size="10" fill="#000">12' 2"</text>
</g>
<g class="dimension">
  <line x1="386" y1="266.0" x2="426" y2="266.0" stroke="#000" stroke-width="0.5"/>
  <line x1="386" y1="251.0" x2="386" y2="266.0" stroke="#000" stroke-width="0.3" stroke-dasharray="2,2"/>
  <line x1="426" y1="251.0" x2="426" y2="266.0" stroke="#000" stroke-width="0.3" stroke-dasharray="2,2"/>
  <polygon points="386,266.0 389,263.0 389,269.0" fill="#000"/>
  <polygon points="426,266.0 423,263.0 423,269.0" fill="#000"/>
  <text x="406.0" y="279.0" text-anchor="middle" font-size="10" fill="#000">4'</text>
</g>
<g class="dimension">
  <line x1="80" y1="158.0" x2="115" y2="158.0" stroke="#000" stroke-width="0.5"/>
  <line x1="80" y1="143.0" x2="80" y2="158.0" stroke="#000" stroke-width="0.3" stroke-dasharray="2,2"/>
  <line x1="115" y1="143.0" x2="115" y2="158.0" stroke="#000" stroke-width="0.3" stroke-dasharray="2,2"/>
  <polygon points="80,158.0 83,155.0 83,161.0" fill="#000"/>
  <polygon points="115,158.0 112,155.0 112,161.0" fill="#000"/>
  <text x="97.5" y="171.0" text-anchor="middle" font-size="10" fill="#000">3' 6"</text>
</g>
<g class="dimension">
  <line x1="115" y1="158.0" x2="165" y2="158.0" stroke="#000" stroke-width="0.5"/>
  <line x1="115" y1="143.0" x2="115" y2="158.0" stroke="#000" stroke-width="0.3" stroke-dasharray="2,2"/>
  <line x1="165" y1="143.0" x2="165" y2="158.0" stroke="#000" stroke-width="0.3" stroke-dasharray="2,2"/>
  <polygon points="115,158.0 118,155.0 118,161.0" fill="#000"/>
  <polygon points="165,158.0 162,155.0 162,161.0" fill="#000"/>
  <text x="140.0" y="171.0" text-anchor="middle" font-size="10" fill="#000">5'</text>
</g>
<g class="dimension">
  <line x1="14.0" y1="276.0" x2="14.0" y2="246.0" stroke="#000" stroke-width="0.5"/>
  <line x1="44.0" y1="276.0" x2="14.0" y2="276.0" stroke="#000" stroke-width="0.3" stroke-dasharray="2,2"/>
  <line x1="44.0" y1="246.0" x2="14.0" y2="246.0" stroke="#000" stroke-width="0.3" stroke-dasharray="2,2"/>
  <polygon points="14.0,276.0 11.0,279.0 17.0,279.0" fill="#000"/>
  <polygon points="14.0,246.0 11.0,243.0 17.0,243.0" fill="#000"/>
  <text x="1.0" y="261.0" text-anchor="middle" font-size="10" fill="#000" transform="rotate(-90 1.0 261.0)">3'</text>
</g>
</g>
<text x="600.0" y="40.0" text-anchor="middle" font-size="18" font-weight="bold" fill="#333">Left Elevation</text>
</svg>